<svg enable-background="new 0 0 177.2 130" viewBox="0 0 177.2 130" xmlns="http://www.w3.org/2000/svg" xmlns:xlink="http://www.w3.org/1999/xlink"><clipPath id="a"><path d="m2 .1h175.6v129.8h-175.6z"/></clipPath><path d="m142.7 20.1h34.9v50.1h-34.9z" fill="#d8505c"/><path d="m144.3.1h33.3v20h-33.3z" fill="#d8505c"/><path d="m145.2.1v20.2h32.4v-.3h-32.3v-19.9z" fill="#aeb0b3"/><path d="m134.6 70.4h43v50.2h-43z" fill="#d8505c"/><path d="m136.2 70.3v50.4h41.4v-.3h-41.3v-49.8h41.3v-.3z" fill="#aeb0b3"/><path clip-path="url(#a)" d="m198.1 48.5c-2-2.6-5.5-5.5-5.7-9-.2-3.4-1-11.4-1-11.4h-5.4s-.9 7.9-1 11.4c-.1 1.4-.7 2.7-1.5 4h-.1v.1c-.6.9-1.3 1.7-2 2.5 0-.3-.1-.5-.1-.6-.5-.7-1.4-1.7-2.9-2.3s-.7-10.2-.7-10.2h1.2l-.9-5.2h-5.1l-.9 5.2h1.2s.9 9.6-.7 10.2c-1.5.6-2.4 1.6-2.9 2.3v-5c-.1-.6-1.3-.6-1.5-.6s-1.5.1-1.5.6v7.7c-.2 0-.5 0-.7.1 0-3-.1-5-.2-5-.5 0-3.1-1-3.1-1.8v-7.7l.7-1v-5h-6.3v5l.7 1v7.7c0 .8-2.6 1.8-3.1 1.8s0 28.1 0 28.1h23.8v.1h1v.1h18.8c1.1-4.4 1.9-20.5-.1-23.1" fill="#fff"/><path clip-path="url(#a)" d="m168 40h.1z" fill="#cbcdcf"/><path clip-path="url(#a)" d="m186.6 98.6v-7.7c-.1-.6-1.3-.6-1.5-.6s-1.5.1-1.5.6v7.7c-.2 0-.5 0-.7.1 0-3-.1-5-.2-5-.5 0-3.1-1-3.1-1.8v-7.7l.7-1v-5h-6.3v5l.7 1v7.7c0 .8-2.6 1.8-3.1 1.8-.1 0-.2 2.2-.2 5.3-.4-.3-.8-.4-1.2-.4v-7.7c-.1-.6-1.3-.6-1.5-.6s-1.5.1-1.5.6v7.7c-.6-.1-1.2.3-1.7.9-.5-2.7-1.3-4.4-2.7-4.2v-6.5c.8-1.7.3-3.4-2.2-3.4s-3.1 1.7-2.2 3.4v6.5c-5.5-.7-2.4 26.5-2.4 26.5h33.8v-20.4c-.5-.7-1.9-3-3.2-2.8" fill="#fff"/><path clip-path="url(#a)" d="m161.7 21.4h7.8v-.1h15.8s.4-31.2 0-31.2-2.4-1.1-2.4-2v-8.5l.5-1.1-6.5-5.5h-5l6.5 5.5.5 1.1v8.5c0 .9-2 2-2.4 2-.2 0-.2 4.7-.2 10.4-1.1-.2-2-.5-2-.7v-2.1l1.1-.7v-3.6h-7c-.4-.4-.8-.6-1.3-.6v-10c.8-1.7.3-3.4-2.2-3.4s-3.1 1.7-2.2 3.4v10c-1.6-.2-2.5 2.2-2.9 5.6-.3-.1-.5-.2-.8-.2v-7.7c-.1-.6-1.3-.6-1.5-.6s-1.5.1-1.5.6v7.7c-1.3-.2-2.7 2.1-2.7 2.7v20.4h8.4z" fill="#fff"/><path clip-path="url(#a)" d="m197 47.3c-1.4-1.8-3.1-3.4-4.4-5.4-.7-1-1.1-2.1-1.3-3.3l-.2-2.7c-.2-3-.5-6-.9-8.9 0-.1-.1-.1-.2-.1h-5.3c-.1 0-.2 0-.2.1l-.6 5.8-.4 4.3c0 .7-.1 1.4-.2 2.1-.1.6-.4 1.2-.6 1.7-.1.2-.6 1.3-.7 1.3 0 0-.2 0-.2.1 0 .3-.6.9-.8 1.1-.4.5-.8 1-1.3 1.5h.4c-.1-.8-.6-1.3-1.2-1.8-.4-.4-.9-.7-1.3-.9-.3-.2-.6-.2-.9-.5-.7-1.1-.6-2.9-.6-4.1 0-1.5 0-3.1.1-4.6 0-.4.1-.8.1-1.1v-.1c-.2.1-.2.1-.1.1h1.2s.2 0 .2-.1c-.3-1.7-.6-3.4-.9-5.2 0-.1-.1-.1-.2-.1h-5.1c-.1 0-.2 0-.2.1-.3 1.7-.6 3.4-.9 5.2 0 .1.1.1.2.1h1.1c.2 0-.1-.1-.1 0 0 .3 0 .6.1.9.1 1.4.2 2.9.2 4.3s0 2.9-.4 4.3c-.2.7-.7.7-1.3 1-.9.5-1.5 1.2-2.1 2h.4v-4.7c0-1.2-2.4-1.2-3.1-.6-.4.3-.3.8-.3 1.2v6.7h-.1c-.2 0-.4.1-.6.2.1 0 .2 0 .3.1 0-1.6.1-3.2-.1-4.8 0-.1 0-.3-.2-.3-.6 0-1.2-.3-1.7-.6-.4-.2-1.3-.6-1.3-1.2v-7.4c0-.5.7-.9.7-1.3v-5c0-.1-.1-.1-.2-.1h-6.3s-.2 0-.2.1v4.8c0 .4.3.6.5.9.4.7.2 1.8.2 2.6v4.4c0 .4.1.9 0 1.2-.3.7-1.5 1.1-2.1 1.3-.5.2-.9 0-1 .6-.2 1.6-.1 3.3-.1 5 0 7.6.1 15.2.2 22.8 0 .1.1.1.2.1h23.6c0 .1.1.1.2.1h.8c0 .1.1.1.2.1h18.8c.1 0 .2 0 .2-.1 1-4 1.1-8.3 1.2-12.3 0-2.3 0-4.5-.2-6.8-.1-1.4-.2-3-1-4.1-.1-.1-.4 0-.3 0 .6.8.7 1.9.9 2.8.2 1.5.3 3 .3 4.5.1 3.5-.1 7.1-.4 10.6-.1 1.4-.3 2.8-.6 4.1 0 .2-.1.5-.2.7 0 .2 0 .2.1.2h-18.6c0-.1-.1-.1-.2-.1h-.8c0-.1-.1-.1-.2-.1h-23.8c.2 0 .2.1.2-.1v-3.1l-.1-7.7c-.1-5.1-.2-10.3 0-15.5 0-.5 0-1 .1-1.5 0-.1.4-.1.7-.2.7-.2 1.3-.5 1.9-.9.8-.6.6-1.6.6-2.5v-5.8c0-.3-.3-.6-.5-.9-.5-.7-.2-2.1-.2-3v-2.2h5.9v4.5c0 .4-.1.6-.4.9-.4.6-.3 1.2-.3 1.9v4.1c0 .7-.3 2 .2 2.5.6.8 2 1.3 3 1.4.3 0 .2 4.6.2 5 0 .1.2.1.3.1l.6-.1s.2 0 .2-.1v-7.6c0-.7 1.2-.7 1.8-.6 1.1.1.9.7.9 1.5v4c0 .1.3.1.4 0 .6-.8 1.4-1.5 2.3-2 .4-.2.7-.3 1-.7.5-1 .5-2.3.5-3.3.1-2.2 0-4.4-.2-6.5 0-.1-.1-.1-.2-.1h-1.1c-.2 0 .1.1.1 0s0-.3.1-.4l.5-3c.1-.4.1-.8.2-1.3 0-.1 0-.2.1-.3 0-.2-.1 0-.1 0h4.9l-.1-.1v.3l.2 1.3c.2 1 .3 2 .5 3.1l.1.4c0 .2 0 .1.2.1h-1.2c-.1 0-.2 0-.2.1-.2 2.2-.3 4.3-.2 6.5 0 1.1 0 2.3.5 3.3.3.6 1 .7 1.4 1 .8.5 1.9 1.4 2 2.4 0 .1.3.1.4 0l1.3-1.5c.2-.2.8-.8.8-1.1 0-.1-.2.2.1 0 .4-.3.7-1.2 1-1.7.8-1.7.7-3.6.8-5.4.2-2.8.5-5.5.8-8.3 0 .1-.3.1.1.1h5.1l-.1.1.9 9.2.2 2.5c.1 1 .6 2 1.1 2.9 1.2 2.1 3.1 3.7 4.5 5.6-.3.2.1.1 0 0" fill="#ccc9c7"/><path clip-path="url(#a)" d="m166.8 38.8c.3 0 .3-.2.1-.2h-.1c-.2.1-.2.2 0 .2l.1-.2h-.1c-.2.1-.2.2 0 .2" fill="#9c9ea1"/><path clip-path="url(#a)" d="m185.5 97.4v-7.7c0-.7-1.4-.7-1.9-.7s-1.5.1-1.5.8v7.5c0-.2-.6 0-.7.1.1 0 .2 0 .3.1 0-1.6.1-3.2-.1-4.8 0-.1 0-.3-.2-.3-.6 0-1.2-.3-1.7-.6-.4-.2-1.3-.6-1.3-1.2v-7.4c0-.5.7-.9.7-1.3v-5c0-.1-.1-.1-.2-.1h-6.3s-.2 0-.2.1v5l.7 1.3v7.4c0 .6-.9 1-1.3 1.2-.5.3-1.1.5-1.7.6-.2 0-.2.2-.2.3-.3 1.6-.1 3.4-.1 5h.3c-.3-.2-.6-.3-.9-.4-.1 0-.2.2-.2 0v-7.5c0-.7-1.3-.8-1.8-.8s-1.6.1-1.6.8v7.5c0-.4-1.6.8-1.7.8h.3c-.3-1.6-.8-4.5-3-4.3.1 0 .2.1.2.1v-6.5c0-.2.2-.6.3-.8.1-.4.1-.7 0-1.1-.2-1.3-1.6-1.6-2.7-1.6-1 0-2.4.3-2.7 1.5-.3 1 .3 1.8.3 2.7v5.9l.2-.1c-1.4-.1-2.1 1.2-2.5 2.3-.7 2.2-.8 4.6-.9 6.9-.2 5.1.1 10.3.6 15.4.1.7.1 1.4.2 2 0 .1.1.1.2.1h33.6s.2 0 .2-.1v-19.7c0-.6 0-1-.3-1.5-.5-1-1.5-2.1-2.7-2-.2 0-.1.2.1.2 1.2-.1 2.5 1.8 2.5 2.9v20.1h-33.3c.1 0 .1.2.1-.1 0-.2 0-.4-.1-.6l-.2-2.3c-.5-5.3-.8-10.6-.5-15.9.1-1.8.3-3.6.8-5.2.3-.9.9-2.4 2.1-2.3.1 0 .2 0 .2-.1v-4.9c0-.4.2-1.3 0-1.7-.8-1.8 0-3.3 2.1-3.3 2-.1 2.8 1.4 2.2 3.1-.2.5-.1 1.2-.1 1.7v5.1c0 .1.2.1.2.1 1.8-.1 2.3 2.9 2.5 4.1 0 .1.3.1.3 0 .4-.4.9-.8 1.5-.8 0 0 .2 0 .2-.1v-7.6c0-.5 1-.6 1.3-.6s1.3.1 1.3.6v7.7c0 .1.1.1.2.1l1 .3c.1 0 .3.1.3 0 0-.5-.2-5.1.3-5.2.9-.1 2.7-.8 3-1.7.1-.3 0-.7 0-1v-6.2c0-.1.1-.5 0-.6-.2-.3-.7-.8-.7-1.1v-4.9h5.9c.2 0-.1-.1-.1 0v4.9c0 .2-.5.8-.7 1-.1.1 0 .4 0 .6v5.5c0 .7-.2 1.6.3 2.2.4.4 1.1.7 1.6.9.2.1 1.2.3 1.2.4.2.4.1 1.2.1 1.7 0 1.1 0 2.2.1 3.3 0 .1.3.1.3.1l.6-.1s.2 0 .2-.1v-7.8c0-.5 1-.6 1.3-.6.4 0 1.3.1 1.3.6v7.7c.6.1.9.1.9 0" fill="#ccc9c7"/><path clip-path="url(#a)" d="m167.3 89.2c.3 0 .3-.2.1-.2h-.1c-.3 0-.3.2 0 .2l.1-.2h-.1c-.3 0-.3.2 0 .2" fill="#9c9ea1"/><path clip-path="url(#a)" d="m159 84.1h.1c.2 0 .1-.2 0-.2-.2.1-.2.2-.1.2v-.2h.1c-.1.1-.3.2-.1.2" fill="#9c9ea1"/><path clip-path="url(#a)" d="m160.5 20.2h7.8c.1 0 .2 0 .2-.1h10.8s.2 0 .2-.1v.1h4.5s.2 0 .2-.1c.1-9 .2-18 .2-27 0-1.3.1-2.7-.1-4.1 0-.1 0-.2-.1-.2-.7-.3-1.3-.5-1.8-1-.9-.8-.6-2.2-.6-3.3v-5.8c0-.4.2-.7.4-1 .4-.7-6.3-1.7-6.3-2.5v-3.4c0-.1-.1-.1-.2-.1h-5s-.2 0-.2.1l6.5 5.5.5 1.2v8.3c0 .7-.5 1.1-1 1.5-.3.2-.7.5-1.1.6-.1 0-.2 0-.3.1-.1.2-.1.6-.1.8 0 .7 0 1.5-.1 2.2v7.3c.1 0 .2 0 .3-.1-.4-.1-1.9-.2-1.9-.8v-1.6c0-.7.7-.6 1.1-1.1.2-.3 0-1.3 0-1.6v-2c0-.1-.1-.1-.2-.1h-6.5c-.5 0-.5-.2-.9-.4-.1 0-.7-.3-.7 0v-10l.3-1c.1-.4 0-.7-.1-1.1-.2-.6-.7-1-1.3-1.3-1.2-.5-3-.3-3.8.8-.7 1 0 1.9 0 2.9v9.7l.2-.1c-2.5-.2-2.9 4-3.1 5.7.1 0 .2 0 .3-.1-.2-.1-.4-.2-.7-.2h-.1v-7.4c0-.7-.9-.8-1.5-.9-.4 0-1.9 0-1.9.7v7.8c.1 0 .2-.1.2-.1-1.8-.1-3 1.9-3 3.5v19.8c0 .1.1.1.2.1h8.7c.2 0 .2-.2 0-.2h-8.5c-.2 0 .1.1.1-.1v-20.2c0-1.1 1.4-2.8 2.5-2.7.1 0 .2 0 .2-.1v-7.7c0-.5 1-.6 1.3-.6s1.3.1 1.3.5v7.8c0 .1.1.1.2.1.2.1.5.1.7.1.1 0 .3.1.3-.1.2-1.3.5-5.7 2.7-5.5.1 0 .2 0 .2-.1v-9.7c0-.3 0-.4-.2-.7-.4-.9-.2-1.9.6-2.5 1.1-.8 3.1-.5 3.8.6.2.3.2.8.2 1.2l-.4 1.2v10.1c0 .1.1.1.2.1 1 0 .8.6 1.4.6h6.9c.2 0-.1-.1-.1 0v3.4c0 .3-.3.4-.6.6-.1.1-.5.2-.5.4v1.5c0 .4-.1.6.2.8.5.3 1.2.4 1.8.5.1 0 .3 0 .3-.1v-7.6c0-.7 0-1.4.1-2.1 0-.5-.1-.6.3-.7 1-.4 2.2-1.1 2.2-2.3v-7.8l-.5-1.7-6.5-3.7v-1.5c0-.2 0-.1-.1-.1h4.9c-.1 0-.1-.1-.1.1v1.6l6.5 3.6c0 .4-.3.8-.5 1.1-.1.2-.1.4-.1.6v7.8c0 1.1 1.3 1.9 2.2 2.2.3.1.2 0 .2.2v.6c.2 4.6.1 9.3.1 13.9 0 5-.1 10-.1 14.9v1.5c0 .2.2 0 .1 0h-4.6c-.1 0-.2 0-.2.1 0-.1.3-.1.1-.1h-10.9c-.1 0-.2 0-.2.1h-7.5c-.2-.1-.2 0 0 0" fill="#ccc9c7"/><path clip-path="url(#a)" d="m149.4 20.2h34.6v.7h-34.6z" fill="#231f20"/><path clip-path="url(#a)" d="m148.6 20h35.5v1h-35.5z" fill="#231f20"/><path clip-path="url(#a)" d="m143.7 70h40.4v.7h-40.4z" fill="#231f20"/><path clip-path="url(#a)" d="m142.7 69.9h41.4v1h-41.4z" fill="#231f20"/><path clip-path="url(#a)" d="m148.3 120.5h35.8v.7h-35.8z" fill="#231f20"/><path clip-path="url(#a)" d="m147.4 120.3h36.7v1h-36.7z" fill="#231f20"/><path clip-path="url(#a)" d="m135-14.2h16.3v175h-16.3z" fill="#fff"/><path clip-path="url(#a)" d="m151.3 165.6h-16.3v-179.8h16.3zm.5-181.6h-17.2v183.4h17.1v-183.4z" fill="#fff"/><path clip-path="url(#a)" d="m151.3-17.4v180.9" fill="none" stroke="#231f20" stroke-miterlimit="10" stroke-width="2"/><path clip-path="url(#a)" d="m18.6 54.7c.6 0 1 .5 1 1 0 .6-.5 1-1 1h-.3v2.1l.2.2c1.2-1 2.7-1.6 4.4-1.6 3.8 0 6.9 3.1 6.9 6.9s-3.1 6.9-6.9 6.9c-1.6 0-3-.5-4.1-1.4l-.4.4v3.6h.4c.6 0 1 .5 1 1 0 .6-.5 1-1 1h-.4c0 1.7 0 3.7-.1 5.9h.5c.6 0 1 .2 1 .4s-.5.4-1 .4h-.5c-.1 8.8-.2 20.3-.4 28.2h8.4v2.2l-4 .6v2.1l4 .8v3.7h-10.4c-.6 0-1.2-.2-1.4-.7v-36.8h-.6c-.6 0-1-.2-1-.4s.5-.4 1-.4h.6v-5.9h-.6c-.6 0-1-.4-1-1s.5-1 1-1h.6v-3.6l-.5-.5c-1.2.9-2.6 1.5-4.2 1.5-3.8 0-6.9-3.1-6.9-6.9s3.1-6.9 6.9-6.9c1.6 0 3.1.6 4.3 1.5l.5-.5v-1.8h-.6c-.6 0-1-.5-1-1 0-.6.5-1 1-1zm-2.4 7.7c.3-.9.7-1.7 1.3-2.4l-1.2-1.1-1.2 1.3c.5.6.9 1.4 1.1 2.2m6.5 7.5c3 0 5.4-2.4 5.4-5.4s-2.4-5.4-5.4-5.4c-1.1 0-2.2.4-3.1 1l4.4 4.3-4.4 4.6c.9.5 1.9.9 3.1.9m-13.2 0c1.2 0 2.4-.4 3.3-1.1l-4.3-4.1 4.2-4.4c-.9-.7-2-1.1-3.2-1.1-3 0-5.4 2.4-5.4 5.4 0 2.8 2.4 5.3 5.4 5.3m9-2 3.4-3.6-3.3-3.3c-.8.9-1.3 2.1-1.3 3.4 0 1.4.5 2.6 1.2 3.5m-4.6-.4c.6-.9 1-1.9 1-3 0-1.2-.4-2.2-1-3.1l-3.1 3.2zm2.6 2.5 1.1-1.2c-.6-.7-1.1-1.6-1.4-2.6-.2.8-.7 1.6-1.2 2.3zm2.1-16.1h-4.8c-1 0-1.8.8-1.8 1.8 0 .9.7 1.7 1.6 1.8v.4c-1.2-.7-2.6-1.2-4-1.2-4.2 0-7.6 3.4-7.6 7.6s3.4 7.7 7.6 7.7c1.4 0 2.8-.4 4-1.2v2.3c-.9.1-1.6.8-1.6 1.8 0 .9.7 1.7 1.6 1.8v4.4c-1 0-1.6.5-1.6 1.1 0 .7.6 1.1 1.6 1.1v36.3l.1.1c.3.7 1.1 1.2 2.1 1.2h11.2v-5.1l-.6-.1-3.4-.6v-.9l3.4-.5.6-.1v-3.6h-8.5c.1-6.1.2-15.1.4-26.7.9-.1 1.5-.5 1.5-1.1s-.6-1-1.5-1.1v-4.5c.8-.2 1.4-.9 1.4-1.7s-.6-1.6-1.4-1.7v-2.2c1.2.7 2.5 1 3.8 1 4.2 0 7.6-3.4 7.6-7.6s-3.4-7.6-7.6-7.6c-1.3 0-2.6.4-3.8 1v-.3c.8-.2 1.4-.9 1.4-1.7.1-1.1-.7-1.9-1.7-1.9m2.2 6.3c.6-.2 1.2-.4 1.8-.4 2.6 0 4.6 2.1 4.6 4.6s-2.1 4.6-4.6 4.6c-.6 0-1.3-.1-1.8-.4l3.7-3.9.5-.5-.5-.5zm-11.3 8.9c-2.6 0-4.6-2.1-4.6-4.6 0-2.6 2.1-4.6 4.6-4.6.7 0 1.4.2 2.1.5l-3.6 3.7-.5.5.5.6 3.6 3.4c-.7.3-1.4.5-2.1.5m6.6-8.9.3-.3.1.1-.3.4s-.1-.1-.1-.2m2.5 6.5c-.4-.7-.6-1.4-.6-2.2s.2-1.6.6-2.3l2.3 2.2zm-6.7-2.2 1.8-1.9c.3.6.4 1.2.4 1.9 0 .6-.1 1.2-.4 1.8zm4.1 4 .2-.3.4.6-.1.1z" fill="#231f20"/><path clip-path="url(#a)" d="m9.6 57.4c-3.8 0-6.9 3.1-6.9 6.9s3.1 6.9 6.9 6.9 6.9-3.1 6.9-6.9-3.1-6.9-6.9-6.9m-.1 12.5c-3 0-5.4-2.4-5.4-5.4s2.4-5.4 5.4-5.4 5.4 2.4 5.4 5.4c0 2.9-2.4 5.4-5.4 5.4" fill="#ccc9c7"/><path clip-path="url(#a)" d="m22.8 57.4c-3.8 0-6.9 3.1-6.9 6.9s3.1 6.9 6.9 6.9 6.9-3.1 6.9-6.9-3.1-6.9-6.9-6.9m-.1 12.5c-3 0-5.4-2.4-5.4-5.4s2.4-5.4 5.4-5.4 5.4 2.4 5.4 5.4c-.1 2.9-2.5 5.4-5.4 5.4" fill="#ccc9c7"/><path clip-path="url(#a)" d="m18.3 70.3-1.9 1.9-2-1.9v49.2c.4 1 2.6.9 3 0 .5-.9.9-49.2.9-49.2" fill="#ccc9c7"/><path clip-path="url(#a)" d="m16.1 56.7-7.6 7.9 5.9 5.7 2 1.9 1.9-1.9 5.7-5.9zm1.8 11.9-1.4 1.4-1.4-1.4-4.2-4.1 5.5-5.7 5.7 5.5z" fill="#ccc9c7"/><path clip-path="url(#a)" d="m26.2 120.2h-10v-9.4h10v2.1l-4 .7v2.1l4 .8z" fill="#ccc9c7"/><path clip-path="url(#a)" d="m26.2 120.2s0-1.1-.1-3.7c0 0 0 .1.1.1-.7-.1-2.2-.4-4.1-.7h-.2v-2.6h.2c.8-.1 2.3-.4 4-.7l-.3.3v-2.2l.3.3h-10l.4-.4c0 3.7-.1 7-.1 9.4l-.2-.2c6.3.3 10 .4 10 .4s-3.7.1-10 .2h-.2v-.3c-.1-2.4-.1-5.7-.1-9.4v-.4h10.7v2.8h-.3c-1.7.2-3.3.5-4.1.6l.2-.2v2.2c-.1-.1-.1-.2-.2-.2 1.8.4 3.3.7 4 .9h.1v.1c-.1 2.7-.1 3.7-.1 3.7" fill="#231f20"/><path clip-path="url(#a)" d="m18.3 59.2-1.9-1.1-2 1.1v-3.5h3.9z" fill="#ccc9c7"/><path clip-path="url(#a)" d="m19.6 74.9c0 .6-.5 1-1 1h-4.8c-.6 0-1-.4-1-1s.5-1 1-1h4.8c.6 0 1 .5 1 1" fill="#ccc9c7"/><path clip-path="url(#a)" d="m19.6 74.9s0-.2-.2-.6c-.1-.2-.3-.3-.6-.3h-1c-.7 0-1.6 0-2.5.1h-1.5c-.4 0-.8.3-.8.8 0 .4.4.8.8.8h1.5c.9 0 1.8.1 2.5.1.4 0 .7.1 1 0 .3 0 .5-.2.6-.3.3-.3.2-.6.2-.6s.1.2-.2.6c-.1.2-.3.4-.6.4l-1 .1c-.7 0-1.6 0-2.5.1h-1.5c-.6 0-1.3-.5-1.3-1.3 0-.7.6-1.3 1.3-1.2h1.5c.9 0 1.8.1 2.5.1.4 0 .7 0 1 .1s.5.3.6.4c.3.5.2.7.2.7" fill="#231f20"/><path clip-path="url(#a)" d="m19.6 82.2c0 .2-.5.4-1 .4h-4.8c-.6 0-1-.2-1-.4s.5-.4 1-.4h4.8c.6.1 1 .2 1 .4" fill="#ccc9c7"/><path clip-path="url(#a)" d="m19.6 55.7c0 .6-.5 1-1 1h-4.8c-.6 0-1-.5-1-1 0-.6.5-1 1-1h4.8c.6 0 1 .4 1 1" fill="#ccc9c7"/><path clip-path="url(#a)" d="m19.6 55.7s0-.2-.2-.6c-.1-.2-.3-.3-.6-.3h-1c-.7 0-1.6 0-2.5.1h-1.5c-.4 0-.8.3-.8.8 0 .4.4.8.8.8h1.5c.9 0 1.8.1 2.5.1.4 0 .7.1 1 0 .3 0 .5-.2.6-.3.3-.3.2-.6.2-.6s.1.2-.2.6c-.1.2-.3.4-.6.4l-1 .1c-.7 0-1.6.1-2.5.1h-1.5c-.6 0-1.3-.5-1.3-1.3 0-.7.6-1.3 1.3-1.2h1.5c.9 0 1.8.1 2.5.1.4 0 .7 0 1 .1s.5.3.6.5c.3.4.2.6.2.6" fill="#231f20"/><path clip-path="url(#a)" d="m38.8 36.3c.6 0 1 .5 1 1 0 .6-.5 1-1 1h-.3v2.1l.2.2c1.2-1 2.7-1.6 4.4-1.6 3.8 0 6.9 3.1 6.9 6.9s-3.1 6.9-6.9 6.9c-1.6 0-3-.5-4.1-1.4l-.4.4v3.6h.4c.6 0 1 .5 1 1 0 .6-.5 1-1 1h-.4c0 1.7 0 3.7-.1 5.9h.5c.6 0 1 .2 1 .4s-.5.4-1 .4h-.5c-.2 8.9-.4 20.5-.5 28.3h8.4v2.2l-4 .6v2.1l4 .8v3.7h-10.4c-.6 0-1.2-.2-1.4-.7v-36.9h-.6c-.6 0-1-.2-1-.4s.5-.4 1-.4h.6v-5.9h-.6c-.6 0-1-.5-1-1 0-.6.5-1 1-1h.6v-3.6l-.5-.5c-1.2.9-2.6 1.5-4.2 1.5-3.8 0-6.9-3.1-6.9-6.9s3.1-6.9 6.9-6.9c1.6 0 3.1.6 4.3 1.5l.5-.5v-1.8h-.7c-.6 0-1-.5-1-1 0-.6.5-1 1-1zm-2.4 7.7c.3-.9.7-1.7 1.3-2.4l-1.2-1.1-1.2 1.3c.5.6.9 1.4 1.1 2.2m6.5 7.5c3 0 5.4-2.4 5.4-5.4s-2.4-5.4-5.4-5.4c-1.1 0-2.2.4-3.1 1l4.4 4.3-4.4 4.6c.9.5 1.9.9 3.1.9m-13.2 0c1.2 0 2.4-.4 3.3-1.1l-4.3-4.1 4.2-4.4c-.9-.7-2-1.1-3.3-1.1-3 0-5.4 2.4-5.4 5.4.2 2.9 2.6 5.3 5.5 5.3m9.1-2 3.4-3.6-3.4-3.3c-.8.9-1.3 2.1-1.3 3.5 0 1.3.5 2.5 1.3 3.4m-4.6-.4c.6-.9 1-1.9 1-3 0-1.2-.4-2.2-1-3.1l-3.1 3.2zm2.5 2.5 1.1-1.2c-.6-.7-1.1-1.6-1.4-2.6-.2.8-.7 1.6-1.2 2.3zm2.1-16h-4.8c-1 0-1.8.8-1.8 1.8 0 .9.7 1.7 1.6 1.8v.4c-1.2-.7-2.6-1.2-4-1.2-4.2 0-7.6 3.4-7.6 7.6s3.4 7.6 7.6 7.6c1.4 0 2.8-.4 4-1.2v2.3c-.9.1-1.6.8-1.6 1.8 0 .9.7 1.7 1.6 1.8v4.4c-1 0-1.6.5-1.6 1.1 0 .7.6 1.1 1.6 1.1v36.3l.1.1c.3.7 1.1 1.2 2.1 1.2h11.2v-5.1l-.6-.1-3.4-.6v-.9l3.4-.5.6-.1v-3.6h-8.5c.1-6.1.2-15.1.4-26.7.9-.1 1.5-.5 1.5-1.1s-.6-1-1.5-1.1v-4.5c.8-.2 1.4-.9 1.4-1.7s-.6-1.6-1.4-1.7v-2.2c1.2.7 2.5 1 3.8 1 4.2 0 7.6-3.4 7.6-7.6s-3.4-7.6-7.6-7.6c-1.3 0-2.6.4-3.8 1v-.4c.8-.2 1.4-.9 1.4-1.7.1-1-.7-1.7-1.7-1.7m2.3 6.2c.6-.2 1.2-.4 1.8-.4 2.6 0 4.6 2.1 4.6 4.6s-2.1 4.6-4.6 4.6c-.6 0-1.3-.1-1.8-.4l3.7-3.9.5-.5-.5-.5zm-11.4 8.9c-2.6 0-4.6-2.1-4.6-4.6 0-2.6 2.1-4.6 4.6-4.6.7 0 1.4.2 2.1.5l-3.6 3.7-.5.5.5.5 3.6 3.4c-.7.4-1.3.6-2.1.6m6.6-8.9.3-.3.1.1-.3.4s-.1-.1-.1-.2m2.6 6.5c-.4-.7-.6-1.5-.6-2.2 0-.8.2-1.6.6-2.3l2.3 2.2zm-6.8-2.2 1.8-1.9c.3.6.4 1.2.4 1.9 0 .6-.1 1.2-.4 1.8zm4.2 4 .2-.3.4.6-.1.1z" fill="#231f20"/><path clip-path="url(#a)" d="m29.8 39.1c-3.8 0-6.9 3.1-6.9 6.9s3.1 6.9 6.9 6.9 6.9-3.1 6.9-6.9c0-3.9-3.1-6.9-6.9-6.9m-.1 12.4c-3 0-5.4-2.4-5.4-5.4s2.4-5.4 5.4-5.4 5.4 2.4 5.4 5.4-2.4 5.4-5.4 5.4" fill="#ccc9c7"/><path clip-path="url(#a)" d="m43.1 39.1c-3.8 0-6.9 3.1-6.9 6.9s3.1 6.9 6.9 6.9 6.9-3.1 6.9-6.9c-.1-3.9-3.1-6.9-6.9-6.9m-.2 12.4c-3 0-5.4-2.4-5.4-5.4s2.4-5.4 5.4-5.4 5.4 2.4 5.4 5.4-2.4 5.4-5.4 5.4" fill="#ccc9c7"/><path clip-path="url(#a)" d="m38.5 51.9-1.9 1.9-2-1.9v49.2c.4 1 2.6.9 3 0 .5-.9.9-49.2.9-49.2" fill="#ccc9c7"/><path clip-path="url(#a)" d="m36.3 38.3-7.6 7.9 5.9 5.7 2 1.9 1.9-1.9 5.7-5.9zm1.8 11.9-1.3 1.4-1.4-1.4-4.2-4.1 5.5-5.7 5.7 5.5z" fill="#ccc9c7"/><path clip-path="url(#a)" d="m46.4 101.8h-10v-9.4h10v2.2l-4 .6v2.1l4 .8z" fill="#ccc9c7"/><path clip-path="url(#a)" d="m46.4 101.8s0-1.1-.1-3.7c0 0 0 .1.1.1-.7-.1-2.2-.4-4.1-.7h-.1v-2.5h.2c.8-.1 2.3-.4 4-.7l-.3.3v-2.2l.3.3h-10l.4-.4c0 3.7-.1 7-.1 9.4l-.2-.2c6.2.2 9.9.3 9.9.3s-3.7.1-10 .2h-.2v-.3c-.1-2.4-.1-5.7-.1-9.4v-.4h10.7v2.8h-.3c-1.7.2-3.3.5-4.1.6l.2-.2v2.1c-.1-.1-.1-.2-.2-.2 1.8.4 3.3.7 4 .9h.1v.1c0 2.8-.1 3.8-.1 3.8" fill="#231f20"/><path clip-path="url(#a)" d="m38.5 40.8-1.9-1.1-2 1.1v-3.5h3.9z" fill="#ccc9c7"/><path clip-path="url(#a)" d="m39.9 56.5c0 .6-.5 1-1 1h-4.9c-.6 0-1-.5-1-1 0-.6.5-1 1-1h4.8c.6 0 1.1.5 1.1 1" fill="#ccc9c7"/><path clip-path="url(#a)" d="m39.9 56.5s0-.2-.2-.6c-.1-.2-.3-.3-.6-.3h-1c-.7 0-1.6 0-2.5.1h-1.5c-.4 0-.8.3-.8.8 0 .4.4.8.8.8h1.5c.9 0 1.8.1 2.5.1.4 0 .7.1 1 0 .3 0 .5-.2.6-.3.2-.3.1-.6.2-.6 0 0 .1.2-.2.6-.1.2-.3.4-.6.4l-1 .1c-.7 0-1.6 0-2.5.1h-1.5c-.6 0-1.3-.5-1.3-1.3 0-.7.6-1.3 1.3-1.2h1.5c.9 0 1.8.1 2.5.1.4 0 .7 0 1 .1s.5.3.6.4c.2.5.1.7.2.7" fill="#231f20"/><path clip-path="url(#a)" d="m39.9 63.9c0 .2-.5.4-1 .4h-4.9c-.6 0-1-.2-1-.4s.5-.4 1-.4h4.8c.6 0 1.1.1 1.1.4" fill="#ccc9c7"/><path clip-path="url(#a)" d="m39.9 37.3c0 .6-.5 1-1 1h-4.9c-.6 0-1-.5-1-1 0-.6.5-1 1-1h4.8c.6 0 1.1.5 1.1 1" fill="#ccc9c7"/><path clip-path="url(#a)" d="m39.9 37.3s0-.2-.2-.6c-.1-.2-.3-.3-.6-.3h-1c-.7 0-1.6 0-2.5.1h-1.5c-.4 0-.8.3-.8.8 0 .4.4.8.8.8h1.5c.9 0 1.8.1 2.5.1.4 0 .7.1 1 0 .3 0 .5-.2.6-.3.2-.3.1-.6.2-.6 0 0 .1.2-.2.6-.1.2-.3.4-.6.4l-1 .1c-.7 0-1.6.1-2.5.1h-1.5c-.6 0-1.3-.5-1.3-1.3 0-.7.6-1.3 1.3-1.2h1.5c.9 0 1.8.1 2.5.1.4 0 .7 0 1 .1s.5.3.6.4c.2.5.1.7.2.7" fill="#231f20"/><path clip-path="url(#a)" d="m58.4 101.1.1-1.7c-.1-2.1-.3-5.6-.3-5.6-.4.2-2.1-.4-2.3-1.5-.3-1-.5-6.1 0-7.2v-.1c-.3-1.3-.8-9.7 2-12.3 2.9-2.7 4.2-2.9 10.1-2.4h1.4c5.9-.5 7.2-.3 10.1 2.4 2.9 2.6 1.6 11.5 1.2 12.4l.1.5c.3 1 0 6-.3 6.7s-.9 1.7-2.1 1.5c.1.8-.6 5.7-.6 5.7l-.4.5v3.4l-10.3 11-8.4-10.9z" fill="#fff"/><path clip-path="url(#a)" d="m80.5 85.1c.4-.9 1.6-9.8-1.2-12.4-2.9-2.7-4.2-2.9-10.1-2.4h-1.4c-5.9-.5-7.2-.3-10.1 2.4-2.8 2.5-2.3 11-2 12.3v.1c.2-.5.8-1.2 1.9-1 0 .5.4 3.5.2 4.8h1s-.1-2.3-.1-3.9l1-2.1s-.8-2.4-1.1-3.5.3-2.1.3-2.1 1.1-2.2 4.3-2.4l5.2 1.1h.1l5.2-1.1c3.2.3 4.3 2.4 4.3 2.4s.6 1.1.3 2.1c-.3 1.1-1.1 3.5-1.1 3.5v.1l1.1 2.2-.1 3.7h.7s.4-4.2.4-4.6 1.1 0 1.2.8" fill="#231f20"/><path clip-path="url(#a)" d="m72.3 70.1c2.9 0 4.2.7 6.3 2.6 2.8 2.6 1.6 11.5 1.2 12.4l.1.5c.3 1 0 6-.3 6.7-.3.6-.8 1.5-1.8 1.5h-.3c.1.8-.6 5.7-.6 5.7l-.4.5v1.6h.9l2.7 3.2c5.2 1.9 16.3 7.8 16.3 7.8l4.7 14.7h-69.9l7.4-16.4 18.2-8.7 1-1.1.1-1.7c-.1-2.1-.3-5.6-.3-5.6h-.2c-.6 0-1.9-.6-2.2-1.5-.3-1-.5-6.1 0-7.2v-.1c-.3-1.3-.8-9.7 2-12.3 2.1-2 3.4-2.6 6.3-2.6 1 0 2.2.1 3.8.2h1.4c1.4-.1 2.6-.2 3.6-.2m0-.5c-.9 0-2.1.1-3.8.2h-1.3c-1.7-.2-2.9-.2-3.8-.2-3.2 0-4.6.8-6.7 2.8-2.9 2.7-2.5 11.3-2.1 12.8-.5 1.6-.2 6.4 0 7.3.3 1.1 1.5 1.7 2.4 1.9.1 1 .2 3.4.3 5.1l-.1 1.5-.8.9-18.1 8.7h-.1l-.1.1-7.3 16.3-.8.9h72.3l-.6-.9-4.7-14.7-.1-.1-.1-.1c-.5-.2-11-5.9-16.3-7.8l-2.6-3.1-.2-.2h-.7v-.9l.3-.4.1-.1v-.1c.1-.7.6-3.8.6-5.3 1.2-.1 1.8-1.3 2.1-1.8.4-.9.6-6 .4-7.1l-.1-.3c.4-1.5 1.5-10.1-1.4-12.8-2.1-1.8-3.5-2.6-6.7-2.6"/><path clip-path="url(#a)" d="m31.2 127.4 7.4-16.5 19.3-9.2-1.5 25.7z" fill="#231f20"/><path clip-path="url(#a)" d="m57.9 101.7-1.5 25.7h-25.2l7.4-16.4zm.1-.3-.2.1-19.3 9.2-7.4 16.4-.2.2h25.6v-.1l1.5-25.7z" fill="#fff"/><path clip-path="url(#a)" d="m78.2 104.3-3.9 23.1h26.9l-4.7-14.7c0-.1-14.8-7.9-18.3-8.4" fill="#231f20"/><path clip-path="url(#a)" d="m78.2 104.3c3.5.5 18.3 8.3 18.3 8.3l4.7 14.7h-26.9zm-.1-.2v.1l-3.9 23.1v.2h27.4l-.2-.2-4.7-14.7c-.6-.3-14.8-7.9-18.3-8.4z" fill="#fff"/><path clip-path="url(#a)" d="m54.2 127.4 2.9-19.9.3-1.8.4-2.8 4.3 5.5 4 5.1 4.6-4.6 5.8-6v3.3 1.6l-1.3 19.6z" fill="#fff"/><path clip-path="url(#a)" d="m56.4 127.4 1.5-26.4-12.6 13.5 4.3 12.9z" fill="#231f20"/><path clip-path="url(#a)" d="m57.9 101-1.5 26.4h-6.7l-4.3-12.8zm.1-.4-.3.3-12.6 13.5-.1.1v.1l4.3 12.8v.1h6.9v-.1l1.8-26.4z" fill="#fff"/><path clip-path="url(#a)" d="m76.5 101.7v6.1l-2.2 19.6h5.4l8-13.9-10.3-11.8z" fill="#231f20"/><path clip-path="url(#a)" d="m77.4 101.7 10.3 11.9-8 13.8h-5.4l2.2-19.5v-6.2zm.1-.2h-1.1v6.3l-2.2 19.5v.2h5.7v-.1l8-13.8v-.1l-.1-.1z" fill="#fff"/><path clip-path="url(#a)" d="m76.5 107.8v-1.6l-8.1 8h2.1z" fill="#231f20"/><path clip-path="url(#a)" d="m57.1 107.5.3-1.9c.5.7 6.8 8.9 6.8 8.9h-2.3z" fill="#231f20"/><path clip-path="url(#a)" d="m64.6 114.2s-5.4-2.6-6.7-2.7c-.6.9-.8 8 1.1 10.3.6-.1 5.6-4 5.6-4 .9.6 2.5.3 3 0 0 0 2.3 3.9 5.5 4.7.8-.8 2.2-9.1 2.1-9.9s-5.9 1-7.3 2c-.1-.1-.3-1.5-3.3-.4" fill="#231f20"/><path clip-path="url(#a)" d="m67.6 117.8c-.5.3-2.1.6-3 0v-3.6c3-1.1 3.2.3 3.2.3z" fill="#231f20"/><path clip-path="url(#a)" d="m66.1 113.5-4-5.1-1.5 8.6z" fill="#fff"/><path clip-path="url(#a)" d="m66.1 113.5s-2 1.4-5.4 3.6l-.3.2.1-.4c.2-1 .4-2.6.7-4.3s.6-3.2.8-4.2v-.4l.2.3 3.9 5.2s-1.6-1.9-4.1-5c.1 0 .2 0 .3-.1-.1 1-.4 2.6-.7 4.3s-.6 3.3-.8 4.3c-.1-.1-.2-.1-.2-.2 3.3-2 5.5-3.3 5.5-3.3" fill="#231f20"/><path clip-path="url(#a)" d="m70.7 108.9-4.6 4.6 5.1 3.5z" fill="#fff"/><path clip-path="url(#a)" d="m70.7 108.9s.4 3.3.7 8.1v.4l-.3-.2-1.9-1.3c-1.3-.8-2.4-1.6-3.2-2.2l-.2-.1.1-.1c2.9-2.9 4.8-4.6 4.8-4.6s-1.7 1.9-4.5 4.8v-.3c.8.5 2 1.3 3.2 2.1l1.9 1.3-.3.2c-.3-4.8-.3-8.1-.3-8.1" fill="#231f20"/><path clip-path="url(#a)" d="m57.8 99.4s.1.6.2 1.6c0 .6 0 1.4-.1 2.2-.1 2.1-.4 3.8-.4 3.8s-.1-1.7 0-3.9c0-.9.1-1.7.2-2.2.1-.9.1-1.5.1-1.5" fill="#231f20"/><path clip-path="url(#a)" d="m76.5 107.8s-.2-1.7-.2-3.9.2-3.9.2-3.9.2 1.7.2 3.9-.2 3.9-.2 3.9" fill="#231f20"/><path clip-path="url(#a)" d="m77.8 90s-.1 1.2-.3 3.8c0 1.2-.3 3.3-.6 5.8-.1.1-.2.3-.4.5-1.5 1.8-3.9 4.5-6.5 7.5l-.1.1h-4.6l-.1-.1-2.1-2.4-1-1.2-.5-.6-.5-.5c-1.3-1.3-2.6-2.4-3.5-3.5-.1-2.9-.2-5.3-.3-6.9v-1.8c0-.2 0-.4.1-.5v2.3c.1 1.6.3 3.9.5 6.9v-.1c.9 1 2.2 2.1 3.6 3.4l.5.5c.2.2.3.4.5.5.3.4.7.8 1 1.1l2.1 2.4s-.1 0-.2-.1h4.6l-.2.1c2.6-3 5-5.7 6.6-7.4.2-.2.3-.4.4-.5v.1c.4-2.5.7-4.5.7-5.7.2-2.5.3-3.7.3-3.7" fill="#231f20"/><path clip-path="url(#a)" d="m66.5 94.4s-.1-2.2-.2-5.5c0 0 0 .1.1.1-.4-.3-.9-.7-1.5-1.1-.8-.6-1.6-1.2-2.3-1.7-.4-.3-.7-.5-1-.7l-.5-.3h-.2s-.1.1-.2.1c-.5.4-.8.9-1.1 1.2-.2.3-.4.4-.4.4s.1-.2.3-.5.5-.8 1-1.3c.1-.1.1-.1.3-.2h.3c.2.1.4.2.5.3.3.2.7.4 1.1.7.7.5 1.5 1.1 2.3 1.7.6.4 1.2.9 1.5 1.2l.1.1v.1c.1 3.2-.1 5.4-.1 5.4" fill="#231f20"/><path clip-path="url(#a)" d="m69.8 101.7c1-.9.9-3.2.9-3.9h-5.7c-.1 1 0 2.6.9 3.9z" fill="#fff"/><g fill="#231f20"><path clip-path="url(#a)" d="m66.5 96s.1 0 .2.1l.2.1c.1 0 .2 0 .3.1.3.1.6 0 1-.1.3-.1.7-.4.9-.8 0-1.5-.1-3.7-.1-6v-.6l.1-.1c2.4-1.4 4.6-2.6 5.7-3.2h.1c.9 1.2 1.3 1.8 1.3 1.8s-.4-.5-1.4-1.7h.1c-1 .7-3.1 2-5.5 3.4 0 0 .1-.1.1-.2v.5c0 2.3 0 4.5-.1 6-.2.5-.7.8-1.1.9s-.7.1-1 0c-.1 0-.3-.1-.3-.1-.1-.1-.2-.1-.2-.1z"/><path clip-path="url(#a)" d="m66 95.7-.3.3c-.1.1-.3.1-.5.1s-.4-.2-.5-.4c-.1-.4 0-.7.1-1 .1-.2.2-.3.2-.3s0 .6.1 1.2c0 .1.1.2.2.2h.6z"/><path clip-path="url(#a)" d="m65.9 101.7-3.4-3.9h2.5c-.2 1 0 2.6.9 3.9"/><path clip-path="url(#a)" d="m70.8 97.8h2.2l-3.1 3.9c.9-.9.9-3.2.9-3.9"/><path clip-path="url(#a)" d="m69.3 95.4.1.1.3.1c.1.1.3.1.4 0 0 0 .1-.2.1-.4 0-.4-.1-.8-.2-1l-.1-.3c0-.1-.1-.1-.1-.1l.1.1c.1 0 .2.1.3.2.2.2.4.6.5 1.1 0 .1 0 .3-.1.4 0 .1-.2.3-.3.3h-.4c-.1 0-.2-.1-.2-.1l-.3-.3z"/><path clip-path="url(#a)" d="m62.4 97.8s1.2 1.3 3.5 3.8h-.1c.9 0 2.3 0 4-.1 0 0-.1 0-.1.1.5-.6 1.2-1.5 2-2.5.4-.5.9-1.1 1.1-1.4.1.2.1.2.2.3-6.1 0-10.6-.2-10.6-.2s4.4-.2 10.5-.2h.4l-.3.3c-.3.3-.7.9-1.1 1.4-.8 1-1.5 1.9-2 2.5l-.1.1h-.1c-1.6 0-3.1 0-4-.1h-.1c-2-2.6-3.2-4-3.2-4"/><path clip-path="url(#a)" d="m74.1 98.8s0-.2-.1-.4c0-.2-.1-.5-.2-.9-.1-.3-.1-.6-.2-.8s-.1-.4-.1-.4l.3.3c.2.2.3.5.4.9s.1.7 0 .9c0 .2-.1.4-.1.4"/><path clip-path="url(#a)" d="m61.2 99.7-.4-.4c-.1-.1-.2-.3-.3-.6l-.1-.7c0-.5.2-1 .4-1.3.1-.2.2-.3.3-.3l.1-.1-.1.1c0 .1-.1.2-.1.4-.1.3-.2.7-.1 1.2v.7c0 .2.1.4.1.5.1.3.2.5.2.5"/><path clip-path="url(#a)" d="m74.1 89.3c-.2-.1-2.1 0-2.4 0 0 .7.2 1.6 1.2 1.6s1.2-1 1.2-1.6"/><path clip-path="url(#a)" d="m62.2 89.3c.2-.1 2.1 0 2.4 0 0 .7-.2 1.6-1.2 1.6s-1.2-1-1.2-1.6"/><path clip-path="url(#a)" d="m74.9 90.6v-.3c0-.1 0-.2-.1-.3s-.2-.2-.3-.2c-.2-.2-.5-.4-.8-.6h-2.5c-.3.1-.6.4-.8.5v-.1c0 .6-.1.9-.1.9s0-.3-.1-.9c.2-.2.4-.5.8-.7 0 0 .1-.1.2-.1h2.2c.1 0 .3 0 .4.1.3.2.6.5.8.8.1.1.2.2.3.4v.3c.1.1 0 .2 0 .2"/><path clip-path="url(#a)" d="m73.8 89v.3c0 .2 0 .4-.1.8 0 .1-.1.2-.1.2 0 .1-.1.1-.2.2l-.6.3h-.4c-.1 0-.2 0-.4-.1-.3-.1-.5-.3-.6-.5-.2-.4-.2-.9-.2-1.1v-.2h.2c1.4-.1 2.4 0 2.4.1 0-.1-.9.1-2.4.2l.2-.2c0 .2 0 .6.2.9.2.4.6.5.9.5.2 0 .4-.1.5-.1.1-.1.1-.1.2-.1.1-.1.1-.1.1-.2.2-.3.2-.5.3-.7z"/><path clip-path="url(#a)" d="m60.8 90.6s0-.1-.1-.3v-.3c.1-.1.2-.2.3-.4l.8-.8c.1-.1.3-.1.4-.1h2.2c.1 0 .2 0 .2.1.4.2.6.5.8.7-.1.6-.1.9-.1.9s0-.3-.1-.9v.1c-.2-.2-.5-.4-.8-.5h-2.5c-.3.2-.6.4-.8.6-.1.2-.2.3-.2.3 0 .1 0 .2-.1.3z"/><path clip-path="url(#a)" d="m61.9 89v.3c0 .2.1.4.3.7l.1.2c0 .1.1.1.2.1.1.1.3.1.5.1.3 0 .8-.1.9-.5.2-.3.2-.7.2-.9l.2.2c-1.4-.1-2.4-.3-2.4-.2 0-.1 1-.2 2.4-.2h.2v.2c0 .3 0 .7-.2 1.1-.1.2-.4.5-.6.5-.1.1-.2.1-.4.1h-.4c-.2 0-.4-.1-.6-.3-.1-.1-.2-.1-.2-.2s-.1-.2-.1-.2c-.1-.3-.1-.6-.1-.8z"/><path clip-path="url(#a)" d="m78.6 72.7.1.1.4.4c.3.4.7 1.1.9 2.2.3 1 .4 2.4.4 4 0 .8 0 1.7-.1 2.7 0 .5-.1 1-.2 1.5s-.1 1-.3 1.6l-.1.3-.1-.3c0-.2-.2-.6-.6-.8-.1-.1-.2-.1-.3-.1h-.2c0 .2 0 .5-.1.8-.1 1.1-.2 2.4-.4 3.8v.1h-.9v-3.7c-.2-.4-.6-1.3-1.1-2.2v-.2s0-.1.1-.2c.3-.9.6-2 1-3.1s0-2.5-1-3.3c-.5-.5-1.1-.8-1.8-1-.3-.1-.7-.2-1-.2-.4-.1-.7-.1-1.1 0-.7.1-1.5.3-2.2.6-.7.2-1.5.5-2.4.5h-.5c-.8-.1-1.5-.3-2.1-.5-.7-.2-1.3-.4-2-.5h-.5c-.1 0-.3 0-.5.1-.3 0-.7.1-1 .2-.6.2-1.2.5-1.7.9s-.9.9-1.1 1.5-.3 1.2-.1 1.7c.3 1.2.7 2.3 1 3.4v.2c-.4.8-.7 1.5-1 2.1v-.1c0 1.6.1 2.8.1 3.9v.2h-1.4v-.2c.1-.9 0-1.8 0-2.6s-.1-1.5-.2-2.2l.1.1c-.5-.1-.9 0-1.1.2-.3.2-.5.5-.6.7l-.1.2-.1-.2c-.2-.5-.2-1-.2-1.5l-.1-1.4c0-.9 0-1.8.1-2.5.1-1.6.3-2.9.6-4s.7-1.9 1-2.3c.2-.2.3-.4.4-.5l.2-.2-.2.2c-.1.1-.2.3-.4.5-.3.5-.7 1.3-1 2.4s-.5 2.4-.6 4v2.5c0 .4 0 .9.1 1.4 0 .5.1 1 .2 1.4h-.2c.1-.3.4-.6.7-.8s.8-.3 1.3-.2h.1v.1c0 .7.1 1.4.2 2.2s.1 1.6 0 2.6c0 0-.1-.1-.1-.2h1s-.1.1-.1.2c0-1.2-.1-2.4-.1-3.9.3-.6.6-1.3 1-2.1v.1c-.3-1.1-.7-2.2-1.1-3.4-.2-.6-.1-1.4.1-2 .2-.7.7-1.2 1.2-1.6s1.2-.8 1.8-1c.3-.1.7-.2 1-.2.2 0 .3 0 .5-.1h.5c1.5.1 2.8.9 4.1 1h.5c.7.1 1.5-.2 2.2-.4s1.5-.5 2.3-.6c.4-.1.8 0 1.2 0 .4.1.8.1 1.1.3.7.2 1.4.6 1.9 1.1 1.1.9 1.6 2.5 1.1 3.7-.3 1.2-.7 2.2-1 3.1l-.1.2v-.4c.4.9.9 1.9 1 2.2 0 1.6-.1 3.1-.1 3.7l-.1-.1h.7l-.1.1c.1-1.4.3-2.7.4-3.8l.1-.8c0-.1.1-.2.2-.2h.2l.3.1c.4.2.6.6.6.9h-.2c.2-.5.2-1 .3-1.5l.2-1.5c.1-.9.1-1.8.1-2.6 0-1.6-.1-2.9-.4-4-.2-1-.6-1.7-.9-2.2-.1-.2-.3-.4-.4-.4.8-.1.7-.2.7-.2"/><path clip-path="url(#a)" d="m77.5 93.8h.4c.2-.1.6-.1.9-.5l.2-.3.2-.3c.1-.2.3-.5.3-.7.1-.5.2-1.2.2-1.9.1-1.4.2-2.6.2-3.5v-1.5s0 .1.1.4c.1.2.1.6.2 1.1.1.9.1 2.2 0 3.5-.1.7-.1 1.3-.3 2l-.4.8c-.1.1-.2.2-.2.3l-.3.3c-.4.3-.8.4-1 .4-.4-.1-.5-.1-.5-.1"/><path clip-path="url(#a)" d="m55.2 85.1v.1c0 .1 0 .2-.1.3 0 .2-.1.6-.1 1.1 0 .9 0 2.2.1 3.6 0 .7.1 1.4.2 1.9.1.6.5.9.8 1.2.8.5 1.4.5 1.4.5s-.6.2-1.5-.3c-.2-.1-.4-.3-.6-.5s-.4-.5-.4-.8c-.1-.6-.2-1.3-.2-2-.1-1.4 0-2.7.1-3.6.1-.5.1-.8.2-1.1 0-.1 0-.2.1-.4"/><path clip-path="url(#a)" d="m76.5 102.9s-1.2 1.5-2.8 3.1-3.1 2.8-3.1 2.8 1.2-1.5 2.8-3.1 3.1-2.8 3.1-2.8"/><path clip-path="url(#a)" d="m62.1 108.4s-1.1-1.1-2.3-2.6-2-2.9-2-2.9 1.1 1.1 2.3 2.6c1.2 1.6 2 2.9 2 2.9"/></g><path clip-path="url(#a)" d="m67.6 114.5h.1v3.3h-.1z" fill="#fff" transform="matrix(.998 .07 -.07 .998 8.298 -4.454)"/><path clip-path="url(#a)" d="m64.5 114.2h.1v3.6h-.1z" fill="#fff"/><path clip-path="url(#a)" d="m66.5 88.9s-.5-.2-1.2-.7c-.7-.4-1.7-1-2.7-1.8-.5-.4-1-.7-1.4-1l-.1-.1h.1l-.1.1-.5.4-1 1s.2-.5.7-1.2c.1-.2.2-.4.4-.6l.1-.2.1-.1h.4l.3.1c.6.3 1.1.6 1.6.9 1.1.7 1.9 1.5 2.5 2.1.5.7.8 1.1.8 1.1" fill="#231f20"/><path clip-path="url(#a)" d="m69.3 88.9s1.5-1.3 3.5-2.6c.7-.4 1.4-.8 1.9-1l.3-.1.1.2c.8 1.1 1.1 1.9 1.1 1.9s-.6-.5-1.6-1.5c.1 0 .2 0 .4.1-.4.3-1.1.8-1.8 1.2-2 1.1-3.9 1.8-3.9 1.8" fill="#231f20"/><path clip-path="url(#a)" d="m146.2 16.7c-2.2 0-4 .5-5.2 1.4-1.1-.2-2.1-.4-3.1-.4-11.1 0-16 14-16.4 18-.4 3.7.5 7.6 2.1 9.3.2.2.3.3.5.4-.6 4.4-.8 8.6-.6 12.6v.4l.2.4c.3.5.7.8 1.1 1 0 2.8.4 6.3 1.3 9 .7 2.1 2.9 6.1 4.9 9.7l-32 14.8-1.4.7.3 1.3 7.2 37.1.3 1.3h85.1l.3-1.3 9.3-41.8.3-1.4-1.3-.6-29-13.5-5.9-6.4c.1-.6.3-1.6.5-2.4 2.1-.4 3.9-1.9 5-4.2s3.4-11.8 1.7-15.1c-.4-.8-1.1-1.4-2-1.5h-.4c-.5 0-1.1.1-2 .6-.6-5.7-2.3-14.7-2.9-16.3l-.3-1c-.5-1.6-1.1-3.6-3.9-6.2-4.4-4.3-9.9-5.9-13.7-5.9" fill="#231f20"/><path clip-path="url(#a)" d="m146.2 16.7c-2.2 0-4 .5-5.2 1.4-1.1-.2-2.1-.4-3.1-.4-11.1 0-16 14-16.4 18-.4 3.7.5 7.6 2.1 9.3.2.2.3.3.5.4-.6 4.4-.8 8.6-.6 12.6v.4l.2.4c.3.5.7.8 1.1 1 0 2.8.4 6.3 1.3 9 .7 2.1 2.9 6.1 4.9 9.7l-32 14.8-1.4.7.3 1.3 7.2 37.1.3 1.3h85.1l.3-1.3 9.3-41.8.3-1.4-1.3-.6-29-13.5-5.9-6.4c.1-.6.3-1.6.5-2.4 2.1-.4 3.9-1.9 5-4.2s3.4-11.8 1.7-15.1c-.4-.8-1.1-1.4-2-1.5h-.4c-.5 0-1.1.1-2 .6-.6-5.7-2.3-14.7-2.9-16.3l-.3-1c-.5-1.6-1.1-3.6-3.9-6.2-4.4-4.3-9.9-5.9-13.7-5.9z" fill="none" stroke="#fff" stroke-width="2"/><path clip-path="url(#a)" d="m162.2 68.6 6.7 7.2 29.3 13.6-9.6 43.7h-81.3l-7.9-39 33.7-15.5z" fill="#231f20"/><path clip-path="url(#a)" d="m162.1 69.2 6.4 6.9.1.1h.1l28.9 13.4-9.4 42.9h-80.4l-7.8-38.1 33.3-15.3zm.1-.6-29.2 10-33.6 15.5 8 39h81.3l9.6-43.7-29.3-13.6z" fill="#fff"/><path clip-path="url(#a)" d="m161.4 78.2-26.7 9.7-4 45.2h27.7z" fill="#fff"/><path clip-path="url(#a)" d="m126.5 96.7-.5.4 2.3-16.5.6.1z" fill="#fff"/><path clip-path="url(#a)" d="m167.6 75.7h.6v19.1h-.6z" fill="#fff" transform="matrix(.995 .1 -.1 .995 9.318 -16.288)"/><path clip-path="url(#a)" d="m155.4 77.7 6.7-6.1-.7 11.2-6.8 5.8z" fill="#fff"/><path clip-path="url(#a)" d="m135.4 89-3.3 41.9h-14.9l-10.6-37.5 15.3 8.7z" fill="#ccc9c7"/><path clip-path="url(#a)" d="m162.2 87.5 12.9 15.2 13.7-9.9-12 38.1h-16.8z" fill="#ccc9c7"/><path clip-path="url(#a)" d="m158.1 81.4h.6v7.9h-.6z" fill="#231f20" transform="matrix(.649 .761 -.761 .649 120.535 -90.578)"/><path clip-path="url(#a)" d="m134.2 89.4-3.2 41.8h-15l-10.6-37.5 15.3 8.7zm.7-1.5-1.1 1.1-13.1 12.8-15-8.5-1.3-.7.4 1.4 10.6 37.5.1.4h15.9v-.5l3.2-41.8z" fill="#fff"/><path clip-path="url(#a)" d="m161.4 68.5h.6v19.3h-.6z" fill="#fff" transform="matrix(.998 .059 -.059 .998 4.858 -9.333)"/><path clip-path="url(#a)" d="m134.7 81.5-1.1 6.8 2.7.6c1 .2 11.8 2.3 11.8 2.3l7.9-11.7-21.3 2-1.1 6.8" fill="#fff"/><path clip-path="url(#a)" d="m161.1 87.9 12.9 15.1 13.6-9.8-11.9 38.1h-16.9zm-.5-1.5-.1 1.4-2.3 43.4v.6h17.9l.1-.4 11.9-38.1.6-1.7-1.5 1.1-13.2 9.5-12.5-14.8z" fill="#fff"/><path clip-path="url(#a)" d="m142.6 132.3-.5-.1 3.2-36.6.6.1z" fill="#231f20"/><path clip-path="url(#a)" d="m161 89.4-5.6 1.5v3.8l-8.7-3.2-1.1-.3-9.3-2.3v17.2l9.3-9 3.1.4 6.7 10.8z" fill="#231f20"/><path clip-path="url(#a)" d="m136.3 88.9 9.3 2.3 1.1.3 8.7 3.3v-3.8l5.6-1.5-5.6 18.9-6.8-10.9-3.1-.3-9.3 8.9v-17.2zm-.6-.7v19.2l1-.9 9.1-8.7 2.5.3 6.6 10.6.7 1.1.4-1.2 5.6-18.9.3-1-1 .3-5.6 1.5-.4.1v3.4l-7.9-3-1.1-.3-9.3-2.3z" fill="#fff"/><path clip-path="url(#a)" d="m148.3 90.7h.6v7.6h-.6z" fill="#fff" transform="matrix(1 .01 -.01 1 .974 -1.516)"/><path clip-path="url(#a)" d="m146.6 115.6c-1 0-1.8-.8-1.8-1.9 0-1 .8-1.9 1.8-1.9s1.8.8 1.8 1.9-.8 1.9-1.8 1.9m0-3.2c-.7 0-1.3.6-1.3 1.3s.6 1.3 1.3 1.3 1.3-.6 1.3-1.3c-.1-.7-.7-1.3-1.3-1.3" fill="#ccc9c7"/><path clip-path="url(#a)" d="m155.4 90.9v3.8l-8.7-3.2 8.7-12.5" fill="#fff"/><path clip-path="url(#a)" d="m155.1 79h.6v11.9h-.6z" fill="#231f20"/><path clip-path="url(#a)" d="m155.7 95.1-9.4-3.5 8.9-12.8.5.3-8.5 12.2 7.9 3v-3.4h.6z" fill="#231f20"/><path clip-path="url(#a)" d="m127.4 41.5c-.1.7-.3 1.6-.5 2.7-.5 3.3-1.1 8.2-.8 13.6.4.6 1.3.8 1.3.8-.1 3 .3 7 1.2 9.7s4.7 9.3 5.6 11c.3.6 1 1.7 1.6 2.9 1.1 1.9 2.2 4.2 2.3 5 .1.9 3.7 1.6 6.7 1.8 1.8.1 3.5 0 4-.4l7.8-8.9 6.6-7.4.2-3c0-1.2.9-4.6.9-4.6 1.4.1 3.5-.6 4.8-3.3s3.5-13.8 1-14.2c-.9-.2-2.2 1-3.6 2.7-2.5 3.1-5 8.1-4.9 10.6-.4.7-2.2.9-2.2.9 0-1.3-.2-2.4 0-3.4s1.2-17-2.8-19.3c-2.7-.2-14.8 7.8-19.1 4-1.2 1.8-6.1.7-10.1-1.2" fill="#fff"/><path clip-path="url(#a)" d="m150.6 59.5c.1 3.1-1.4 5.8-3.4 5.9l-2.1.2c-2 .1-3.7-2.3-3.8-5.4" fill="#ccc9c7"/><path clip-path="url(#a)" d="m134.2 60.2c-.3 2.8-1.5 5.1-3 4.7l-1.6-.5c-1.5-.4-2.7-2.7-2.3-5.9" fill="#ccc9c7"/><path clip-path="url(#a)" d="m148.8 59.6c0 .7-.5 1.3-1.2 1.3h-.7c-.7 0-1.3-.5-1.3-1.2" fill="#231f20"/><path clip-path="url(#a)" d="m131.5 59.5c-.2.7-.7 1.1-1.2 1l-.5-.1c-.5-.1-.7-.8-.6-1.4" fill="#231f20"/><path clip-path="url(#a)" d="m160.4 59.8v-.7c0-.4.2-1.1.4-1.9.5-1.6 1.5-3.9 3.3-6.7.5-.7.9-1.4 1.5-2.1s1.2-1.4 2.1-2l.7-.3h.4c.2 0 .3.1.4.2.3.2.4.4.5.7s.2.5.2.8c.2 1.1.2 2.2.1 3.4-.2 2.3-.6 4.8-1.3 7.4-.2.6-.4 1.3-.7 1.9-.1.3-.3.6-.5.9l-.6.9c-.2.3-.5.5-.8.8-.3.2-.6.4-1 .6-.7.3-1.5.5-2.3.5.1 0 .2-.1.4-.3-.2.7-.4 1.8-.6 3.1s-.2 2.9-.3 4.5v.1l-.1.1c-1.4 1.6-3.3 3.7-5.4 6s-4.4 5-6.7 7.6c-.8 1-1.7 1.9-2.3 2.7l-.5.3c-.2.1-.3.1-.5.1-.3.1-.6.1-.9.1h-1.7c-1.1 0-2.2-.1-3.2-.3-1.1-.2-2.1-.4-3.1-.7-.3-.1-.5-.2-.8-.4l-.2-.1-.1-.1-.1-.1c-.1-.1-.2-.2-.2-.3v-.2c-.1-.4-.3-.9-.5-1.3-.8-1.8-1.8-3.5-2.7-5.2s-1.8-3.3-2.7-4.9-1.7-3.1-2.4-4.6l-1-2.3c-.1-.2-.1-.3-.2-.6l-.1-.6c-.1-.4-.2-.8-.3-1.1-.6-3-.7-5.7-.7-8l.2.2c-.4-.1-.7-.2-.9-.4-.2-.1-.4-.3-.5-.5-.2-5.5.4-9.5.8-12.2.2-1.4.4-2.4.5-3 .1-.7.2-1 .2-1s-.1.3-.2 1-.3 1.7-.5 3c-.3 2.7-.8 6.8-.5 12.2v-.1c.2.3.5.5 1.2.7h.2v.4c0 2.3.2 4.9.8 7.8l.3 1.1.1.6c0 .2.1.4.2.5.3.8.6 1.5 1 2.2.7 1.5 1.6 3 2.4 4.6.9 1.6 1.8 3.2 2.7 4.9s1.9 3.4 2.8 5.3c.2.5.4.9.5 1.6 0 .1.5.4.9.6.9.3 2 .5 3 .7 1 .1 2.1.2 3.2.3h1.6c.3 0 .5 0 .8-.1.2 0 .5-.1.6-.2.7-.8 1.5-1.7 2.3-2.7 2.4-2.7 4.6-5.3 6.8-7.6 2.1-2.3 4-4.4 5.4-6 0 .1-.1.2-.1.2.1-1.6.2-3.2.4-4.5.3-1.4.5-2.5.7-3.2l.1-.3h.3c.7.1 1.3-.1 1.9-.4.3-.1.6-.3.9-.5s.5-.4.7-.7l.6-.8.5-.9c.3-.6.5-1.2.6-1.9.7-2.5 1.2-4.9 1.4-7.2.1-1.1.1-2.3 0-3.3-.1-.5-.2-1-.6-1.3-.1-.1-.2-.1-.3-.1h-.3c-.2 0-.4.1-.6.2-.8.5-1.5 1.2-2 1.8-.6.7-1.1 1.4-1.5 2-1.8 2.7-2.9 4.9-3.4 6.5-.3.8-.4 1.4-.5 1.9v.5z" fill="#231f20"/><path clip-path="url(#a)" d="m152.7 59.3s-.1 0-.3.1-.5.1-.8.1c-.7.1-1.7.2-3 .3-2.5.2-6.1.6-10 .8-1.6.1-3.2.1-4.6-.2-.7-.1-1.4-.3-2-.5s-1.2-.3-1.7-.5c-2.1-.7-3.6-1-4-1.3-.1.2 0-.1 0-.1-.7-.1-1-.4-1.1-.6s-.2-.2-.2-.2l.2.2c.2.1.5.4 1.1.5l.2-.1c.8.1 1.8.5 4 1.1.5.1 1.1.3 1.8.4.6.1 1.3.3 2 .4 1.3.3 2.9.2 4.4.1 3.9-.2 7.4-.4 10-.4h3.8c.1-.1.2-.1.2-.1" fill="#231f20"/><path clip-path="url(#a)" d="m149.9 53.4s-.3-.1-.8-.2-1.3-.2-2.2-.1c-1.8.1-4.4.7-7.2 1s-5.5.5-7.4.1c-.2 0-.5-.1-.7-.2l-.6-.2c-.3-.2-.6-.4-.8-.5-.4-.3-.6-.5-.6-.5s.3.1.7.4c.2.1.5.3.8.4l.6.2c.2.1.4.1.6.1 1.8.2 4.4-.1 7.2-.5 2.8-.3 5.4-.7 7.3-.6 1 .1 1.7.2 2.2.4.6.1.9.2.9.2" fill="#231f20"/><path clip-path="url(#a)" d="m144 71.7s0-.1-.2-.2-.7-.2-1.4-.1l.1-.1c0 .3 0 .7-.2 1.3 0 .2-.1.3-.3.5l-.2.2-.1.1-.1.1h-.1c-.3.2-.7.4-1.1.6s-.8.4-1.3.5c-.2.1-.5.1-.8.2-.3 0-.5.1-.9.1-.1 0-.3-.1-.3-.1h-.1l-.1-.1-.3-.4c-.2-.3-.3-.5-.4-.8-.3-.5-.5-1.1-.7-1.6-.3-.8-.5-1.5-.7-2.3s-.2-1.5-.2-2.2c0-1.4.1-2.7.3-3.7.1-1 .3-1.9.4-2.5s.2-.9.2-.9 0 .3-.1.9c0 .6-.1 1.4-.1 2.5 0 1-.1 2.3 0 3.7 0 .7.1 1.4.3 2.1s.4 1.4.7 2.2c.2.5.4 1.1.7 1.6.1.2.2.5.4.7l.2.3c-.2.1-.1 0-.1 0h.8l.7-.1c.5-.1.9-.2 1.3-.4.4-.1.8-.3 1.1-.5h.1l.1-.1.2-.2c.1-.1.2-.2.2-.3.3-.5.3-.9.4-1.2v-.1h.1c.7 0 1.2.1 1.4.2.1 0 .1.1.1.1" fill="#231f20"/><path clip-path="url(#a)" d="m165.1 57.2s.1 0 .1-.1c.1-.1.2-.2.3-.4.2-.3.5-.9.7-1.6.3-.7.5-1.5.8-2.5.1-.5.3-1 .4-1.6.1-.5.2-1.1.1-1.6.1.1.3.2.5.3-.3.1-.9.5-1.3 1.1-.9 1.1-1.5 2.3-2.1 3.4s-1 2.1-1.4 3-.6 1.6-.7 2.1-.2.8-.2.8 0-.3.1-.8.2-1.3.5-2.2.6-2 1.1-3.2 1.1-2.4 2.1-3.6c.5-.6 1.2-1.2 1.8-1.4l.4-.1v.4c.1.8-.1 1.3-.2 1.9s-.3 1.1-.5 1.6c-.4 1-.7 1.8-1.1 2.5s-.7 1.2-.9 1.5c-.1.2-.3.3-.4.3z" fill="#231f20"/><path clip-path="url(#a)" d="m149.9 67.4s0-.3.4-.6c.1-.1.2-.1.4-.2h.2c.1 0 .2 0 .3.1.2.1.2.4.2.6s-.1.4-.2.6c-.2.4-.5.8-1.1.9h-1.5c-1.1-.1-2.2-.5-3.2-1.2s-1.8-1.6-2.4-2.5-.9-1.7-1.2-2.5c-.2-.7-.4-1.4-.4-1.8v-.7s.1 1 .8 2.3 1.8 3.1 3.6 4.4c.9.6 1.9 1 2.8 1.2.2.1.5.1.7.1h.6c.3 0 .6-.3.8-.6s.3-.6.2-.7l-.1-.1h-.2c-.1 0-.2 0-.3.1-.3.3-.4.6-.4.6" fill="#231f20"/><path clip-path="url(#a)" d="m130.6 65.8-.1-.1-.3-.1h-.2c-.1 0-.2 0-.2.1-.1.1-.2.3-.2.5s.1.4.3.6.4.2.8.3c.5.1 1.1-.4 1.5-1.1s.7-1.4 1-2.1.5-1.3.6-1.8c.3-1.1.5-1.8.5-1.8s0 .7-.1 1.8c-.1.6-.2 1.2-.4 2-.2.7-.5 1.5-.9 2.3-.2.4-.5.8-1 1-.4.3-.9.4-1.4.3-.3-.1-.8-.3-1.1-.5-.3-.3-.4-.7-.4-1.1.1-.3.3-.6.5-.7.1-.1.3-.1.4-.1s.2 0 .3.1z" fill="#231f20"/><path clip-path="url(#a)" d="m149.9 74.5s-.9.6-2.4 1.5c-.7.4-1.7.9-2.7 1.4-1.1.4-2.3.9-3.6 1.2l-1.2.2c-.4.1-.8.1-1.2.1s-.8-.1-1.1-.1l-.2-.1h-.2l-.1-.1-.5-.3c-.5-.4-.9-.9-1.2-1.3s-.6-.7-.8-1h.2c-.2.3-.3.6-.2.9 0 .3 0 .5.1.7 0 .4.1.5.1.5s0-.2-.1-.5c0-.2-.1-.4-.2-.7 0-.3 0-.7.2-1.1l.1-.2.2.1c.3.2.6.5.9.9l1.2 1.1c.4.3 1 .3 1.7.3.3 0 .7 0 1-.1l1.1-.2c1.3-.3 2.4-.7 3.5-1 1-.4 2-.7 2.8-1.1 1.6-.7 2.6-1.1 2.6-1.1" fill="#231f20"/><path clip-path="url(#a)" d="m144 80.7s-.1 0-.3.1-.5.1-.8.2c-.4.1-.8.1-1.3.2-.5 0-1 .1-1.6 0-.6 0-1.2-.3-1.6-.6s-.7-.8-.8-1.1c-.1-.4-.2-.7-.1-.9v-.3s0 .1.1.3.2.4.4.7.5.5.8.7c.4.2.8.3 1.3.3.5.1 1 .1 1.5.1s.9.1 1.2.1c.4.1.6.1.8.1.3 0 .4.1.4.1" fill="#231f20"/><path clip-path="url(#a)" d="m166.4 49.8c-2.5 3.1-5 8.1-4.9 10.6-.4.7-2.2.9-2.2.9 0-1.3-.2-2.4 0-3.4s1.2-17-2.8-19.3c-2.7-.2-14.8 7.8-19.1 4-1.1 2-6.1.9-10-1-.1.7-.3 1.6-.5 2.7-1.7.1-3.1-4.3-2.7-8.5.4-4.3 6.1-19.6 18.3-15.9 1.7-2.7 10.9-2.4 17.1 3.8 3.1 3 3.1 4.8 3.8 6.7.7 1.7 3.2 15.9 3 19.4" fill="#fff"/><path clip-path="url(#a)" d="m149.9 78.2s0-.2.1-.4c0-.3.1-.7 0-1.2-.1-1-.5-2.3-1.4-3.3-.5-.5-1-1-1.5-1.4-.3-.2-.5-.4-.7-.5s-.5-.2-.7-.2c-.5-.1-.9-.2-1.2-.4-.3-.1-.4-.2-.4-.2s.2 0 .4.1c.3.1.7.1 1.2.1.3 0 .6 0 .9.1l.9.4c.6.3 1.2.8 1.8 1.4.5.6.9 1.3 1.1 2s.2 1.4.1 1.9-.2.9-.3 1.2c-.2.3-.3.4-.3.4" fill="#231f20"/><path clip-path="url(#a)" d="m152.1 76.5s-.1-.2-.3-.4c-.2-.3-.3-.6-.5-1-.1-.4-.1-.8-.1-1.1v-.5l.1.1c.1 0 .2.1.3.2.2.3.5.6.6 1.1.1.4.1.9 0 1.2 0 .2-.1.4-.1.4" fill="#231f20"/><path clip-path="url(#a)" d="m146 17.6c3.7 0 8.6 1.6 12.4 5.5 3.1 3 3.1 4.8 3.8 6.7.7 1.8 3.3 16 3 19.5 1.3-1.6 2.5-2.8 3.4-2.8h.2c2.5.4.3 11.5-1 14.2-1.2 2.5-3.1 3.3-4.5 3.3h-.3s-.9 3.4-.9 4.6l6.6 7.2 29.3 13.6-9.3 41.8h-82.4l-7.2-37.1 33.7-15.5c-.9-1.7-4.8-8.3-5.6-11-.9-2.7-1.3-6.7-1.2-9.7 0 0-.9-.1-1.3-.8-.3-5.4.3-10.3.8-13.6h-.1c-1.7 0-3.1-4.3-2.6-8.5.4-3.8 5-16.5 14.7-16.5 1.1 0 2.4.2 3.7.6.8-.9 2.6-1.5 4.8-1.5m0-1.7c-2.2 0-4 .5-5.2 1.4-1.1-.2-2.1-.4-3.1-.4-11.1 0-16 14-16.4 18-.4 3.7.5 7.6 2.1 9.3.2.2.3.3.5.4-.6 4.4-.8 8.6-.6 12.6v.4l.2.4c.3.5.7.8 1.1 1 0 2.8.4 6.3 1.3 9 .7 2.1 2.9 6.1 4.9 9.7l-32 14.8-1.2.6.3 1.3 7.2 37.1.3 1.3h85.1l.3-1.3 9.3-41.8.3-1.4-1.3-.6-29-13.5-6.1-6.2c.1-.6.3-1.6.5-2.4 2.1-.4 3.9-1.9 5-4.2s3.4-11.8 1.7-15.1c-.4-.8-1.1-1.4-2-1.5h-.4c-.5 0-1.1.1-2 .6-.6-5.7-2.3-14.7-2.9-16.3l-.3-1c-.5-1.6-1.1-3.6-3.9-6.2-4.4-4.5-9.9-6-13.7-6" fill="#231f20"/><path clip-path="url(#a)" d="m165.3 48.8v-1.8c0-.4-.1-.9-.1-1.4-.2-2.1-.7-5.2-1.4-9.2-.4-2-.8-4.2-1.4-6.5l-.1-.4-.1-.4-.3-.9c-.2-.6-.4-1.2-.7-1.8s-.6-1.1-1-1.7l-.6-.8c-.2-.2-.5-.5-.7-.8-1.9-2-4.5-3.8-7.5-4.7-1.5-.5-3.1-.8-4.8-.8-.8 0-1.7.1-2.5.3s-1.6.6-2 1.2l-.1.2-.2-.1c-1.7-.5-3.8-.8-6-.2-2.2.5-4.3 1.9-6 3.8-1.8 1.9-3.2 4.3-4.3 6.9-.5 1.3-1 2.7-1.3 4.1-.2.7-.2 1.4-.2 2.2 0 .7 0 1.5.1 2.2.1 1 .3 2 .7 2.9.2.4.4.9.7 1.2.3.4.6.6.9.6-.1.1-.3.2-.4.4l.5-2.7.1-.5.5.2c1.6.8 3.3 1.4 5.1 1.8.8.2 1.7.3 2.5.3.4 0 .8-.1 1.2-.2.3-.1.6-.4.8-.6l.3-.4.3.3c.6.5 1.4.8 2.3.9s1.7 0 2.6-.1c1.7-.3 3.3-.9 4.9-1.4 1.6-.6 3.1-1.2 4.5-1.9l2.2-.9 1.1-.4c.4-.1.8-.2 1.2-.2h.2c.7.4 1.1 1.1 1.4 1.7s.5 1.3.7 2c.4 1.3.5 2.6.7 3.8.3 2.5.3 4.7.3 6.7s-.1 3.7-.3 5.2c-.1.4-.1.7-.1 1v2.5l-.1-.1c.8-.1 1.3-.2 1.6-.4s.4-.3.5-.4c0-1.2.4-2.2.7-3.2.3-.9.7-1.7 1.1-2.4.7-1.4 1.3-2.4 1.8-3.1s.8-1.2 1.1-1.5c-.5-.4-.4-.5-.4-.5s-.1.1-.3.4-.6.8-1 1.5c-.5.8-1.1 1.8-1.8 3.2-.3.7-.7 1.5-1 2.4s-.7 1.9-.7 3.1c-.2.3-.6.7-2.2.9h-.1v-.1c0-.5 0-1-.1-1.6v-1c0-.3 0-.7.1-1.1.1-1.5.2-3.2.2-5.2s-.1-4.2-.4-6.6c-.1-1.2-.3-2.5-.7-3.7-.2-.6-.4-1.3-.7-1.8-.3-.6-.7-1.1-1.2-1.4h.1c-.6 0-1.4.3-2.1.5-.7.3-1.4.6-2.2.9-1.5.6-3 1.3-4.6 1.9s-3.2 1.2-5 1.5c-.9.2-1.8.3-2.8.2s-2-.4-2.7-1.1l.6-.1c-.3.5-.7.8-1.2 1s-.9.3-1.4.3c-.9 0-1.8-.1-2.7-.3-1.8-.4-3.5-1-5.2-1.8l.6-.3-.5 2.7-.1.4h-.3c-.2 0-.4 0-.5-.1l-.4-.2c-.3-.2-.5-.4-.6-.6-.4-.5-.6-1-.8-1.4-.4-1-.6-2.1-.7-3.1-.1-.8-.1-1.5-.1-2.3s.1-1.5.2-2.3c.3-1.5.8-2.9 1.4-4.3 1.1-2.7 2.6-5.2 4.5-7.2 1.8-2 4.1-3.4 6.5-4 2.3-.6 4.6-.2 6.4.3-.2.1-.3.1-.4.1.6-.9 1.6-1.3 2.4-1.5.9-.2 1.8-.3 2.7-.3 1.8 0 3.4.4 5 .9 3.1 1.1 5.8 2.9 7.7 5l.7.8c.2.3.4.6.7.8.4.6.8 1.2 1.1 1.8s.5 1.2.7 1.9l.3.9c0 .2.1.3.1.4l.1.4c.6 2.4 1 4.6 1.3 6.6.7 4 1.1 7.1 1.3 9.2 0 .5.1 1 .1 1.4v1c-.3.7-.3 1-.3 1" fill="#231f20"/><path clip-path="url(#a)" d="m145.6 59.7s0 .3.3.6c.1.1.3.3.5.4.1 0 .2.1.4 0h.4c.3 0 .6 0 .8-.1s.4-.2.5-.4c.2-.3.2-.6.2-.6s.1.3-.1.7c-.1.2-.2.5-.5.6-.3.2-.7.2-1 .2h-.5c-.1 0-.3-.1-.5-.1-.3-.1-.5-.4-.6-.6 0-.4.1-.7.1-.7" fill="#231f20"/><path clip-path="url(#a)" d="m129.2 58.9v.2c0 .1 0 .2.1.4 0 .2.1.3.2.5l.2.2h.1l.2.1c.3.1.4.1.6.1l.5-.3c.2-.2.3-.5.3-.5s0 .2-.2.6c-.1.2-.2.4-.5.5-.1.1-.3.1-.4.1-.2 0-.3 0-.4-.1l-.2-.1h-.1c-.1-.1-.3-.2-.3-.3-.1-.2-.2-.5-.2-.7s.1-.3.1-.4z" fill="#231f20"/><path clip-path="url(#a)" d="m145.5 97.3-.2-7.6h.6l.2 7.6z" fill="#fff"/><path clip-path="url(#a)" d="m134.7 81.5-1.1 6.8" fill="#fff"/><path clip-path="url(#a)" d="m146.2 91.6-10-2.4-3-.7 1.2-7.1.6.1-1.1 6.6 2.5.5 8.5 2.1-1.5-2.3.5-.3z" fill="#231f20"/><path clip-path="url(#a)" d="m146.6 91.8-1.1-.3.1-.6 1.2.3z" fill="#231f20"/><path clip-path="url(#a)" d="m89.1 102.9.1-1.7c-.1-2.1-.3-5.6-.3-5.6-.4.2-2.1-.4-2.3-1.5-.3-1-.5-6.1 0-7.2v-.1c-.3-1.3-.8-9.7 2-12.3 2.9-2.7 4.2-2.9 10.1-2.4h1.4c5.9-.5 7.2-.3 10.1 2.4 2.9 2.6 1.6 11.5 1.2 12.4l.1.5c.3 1 0 6-.3 6.7s-.9 1.7-2.1 1.5c.1.8-.6 5.7-.6 5.7l-.4.5v3.4l-10.3 11-8.4-10.9z" fill="#fff"/><path clip-path="url(#a)" d="m111.2 86.9c.4-.9 1.6-9.8-1.2-12.4-2.9-2.7-4.2-2.9-10.1-2.4h-1.4c-5.9-.5-7.2-.3-10.1 2.4-2.8 2.5-2.3 11-2 12.3v.1c.2-.5.8-1.2 1.9-1 0 .5.4 3.5.2 4.8h1s-.1-2.3-.1-3.9l1-2.1s-.8-2.4-1.1-3.5.3-2.1.3-2.1 1.1-2.2 4.3-2.4l5.2 1.1h.1l5.2-1.1c3.2.3 4.3 2.4 4.3 2.4s.6 1.1.3 2.1c-.3 1.1-1.1 3.5-1.1 3.5l-.1.2 1.1 2.2-.1 3.7h.7s.4-4.2.4-4.6c.1-.5 1.2-.1 1.3.7" fill="#231f20"/><path clip-path="url(#a)" d="m103 71.9c2.9 0 4.2.7 6.3 2.6 2.8 2.6 1.6 11.5 1.2 12.4l.1.5c.3 1 0 6-.3 6.7-.3.6-.8 1.5-1.8 1.5h-.3c.1.8-.6 5.7-.6 5.7l-.4.5v1.6h.9l2.7 3.2c5.2 1.9 16.3 7.8 16.3 7.8l4.7 14.7h-69.9l7.4-16.4 18.2-8.7 1-1.1.1-1.7c-.1-2.1-.3-5.6-.3-5.6h-.2c-.6 0-1.9-.6-2.2-1.5-.3-1-.5-6.1 0-7.2v-.1c-.3-1.3-.8-9.7 2-12.3 2.1-2 3.4-2.6 6.3-2.6 1 0 2.2.1 3.8.2h1.4c1.3-.1 2.5-.2 3.6-.2m0-.5c-.9 0-2.1.1-3.8.2h-1.3c-1.7-.2-2.9-.2-3.8-.2-3.2 0-4.6.8-6.7 2.8-2.9 2.7-2.5 11.3-2.1 12.8-.5 1.6-.2 6.4 0 7.3.3 1.1 1.5 1.7 2.4 1.9.1 1 .2 3.4.3 5.1l-.1 1.5-.8.9-18.1 8.5h-.1l-.1.1-7.4 16.4-.8.9h72.4l-.6-.9-4.7-14.7-.1-.1-.1-.1c-.4-.2-11-5.9-16.3-7.8l-2.6-3.1-.2-.2h-.8v-.7l.3-.4.1-.1v-.1c.1-.7.6-3.8.6-5.3 1.2-.1 1.8-1.3 2.1-1.8.4-.9.6-6 .4-7.1l-.1-.3c.4-1.5 1.5-10.1-1.4-12.8-2.1-1.9-3.5-2.7-6.6-2.7"/><path clip-path="url(#a)" d="m61.9 129.2 7.3-16.5 19.3-9.2-1.5 25.7z" fill="#231f20"/><path clip-path="url(#a)" d="m88.5 103.5-1.5 25.7h-25.1l7.4-16.4zm.2-.3-.2.1-19.3 9.2-7.4 16.4-.2.2h25.5v-.1l1.5-25.7z" fill="#fff"/><path clip-path="url(#a)" d="m108.9 106.1-3.9 23.1h26.9l-4.7-14.7c-.1-.1-14.8-8-18.3-8.4" fill="#231f20"/><path clip-path="url(#a)" d="m108.9 106.1c3.5.5 18.3 8.3 18.3 8.3l4.7 14.7h-26.9zm-.2-.2v.1l-3.9 23.1v.2h27.4l-.2-.2-4.7-14.7c-.6-.3-14.8-7.9-18.3-8.4z" fill="#fff"/><path clip-path="url(#a)" d="m84.9 129.2 2.9-19.9.2-1.8.4-2.8 4.3 5.5 4 5.1 4.6-4.6 5.8-6v3.3 1.6l-1.2 19.6z" fill="#fff"/><path clip-path="url(#a)" d="m87 129.2 1.5-26.4-12.5 13.5 4.3 12.9z" fill="#231f20"/><path clip-path="url(#a)" d="m88.5 102.8-1.5 26.4h-6.7l-4.3-12.9zm.2-.4-.3.3-12.6 13.5-.1.1v.1l4.3 12.8v.1h7.1v-.1l1.5-26.4z" fill="#fff"/><path clip-path="url(#a)" d="m107.1 103.5v6.1l-2.1 19.6h5.3l8-13.9-10.2-11.8z" fill="#231f20"/><path clip-path="url(#a)" d="m108.1 103.5 10.3 11.9-8 13.8h-5.4l2.2-19.5v-6.2zm0-.2h-1.1v6.3l-2.2 19.5v.2h5.7v-.1l8-13.8v-.1l-.1-.1z" fill="#fff"/><path clip-path="url(#a)" d="m107.1 109.6v-1.6l-8.1 8h2.2z" fill="#231f20"/><path clip-path="url(#a)" d="m87.8 109.3.3-1.9c.5.7 6.8 8.9 6.8 8.9h-2.3z" fill="#231f20"/><path clip-path="url(#a)" d="m95.3 116s-5.4-2.6-6.7-2.7c-.6.9-.8 8 1.1 10.3.6-.1 5.6-4 5.6-4 .9.6 2.5.3 3 0 0 0 2.3 3.9 5.5 4.7.8-.8 2.2-9.1 2.1-9.9s-5.9 1-7.3 2c-.1-.1-.4-1.5-3.3-.4" fill="#231f20"/><path clip-path="url(#a)" d="m98.2 119.6c-.5.3-2.1.6-3 0v-3.6c3-1.1 3.2.3 3.2.3z" fill="#231f20"/><path clip-path="url(#a)" d="m96.7 115.3-4-5.1-1.4 8.6z" fill="#fff"/><path clip-path="url(#a)" d="m96.7 115.3s-2 1.4-5.4 3.6l-.3.2.1-.4c.2-1 .4-2.6.7-4.3s.6-3.2.8-4.2l.1-.4.2.3c2.4 3.2 3.8 5.2 3.8 5.2s-1.6-1.9-4.1-5c.1 0 .2 0 .3-.1-.1 1-.4 2.6-.7 4.3s-.6 3.3-.8 4.3c-.1-.1-.2-.1-.2-.2 3.4-2 5.5-3.3 5.5-3.3" fill="#231f20"/><path clip-path="url(#a)" d="m101.3 110.7-4.6 4.6 5.2 3.5z" fill="#fff"/><path clip-path="url(#a)" d="m101.3 110.7s.4 3.3.7 8.1v.4l-.3-.2-1.9-1.3c-1.3-.8-2.4-1.6-3.2-2.2l-.2-.1.1-.1c3-2.9 4.8-4.6 4.8-4.6s-1.7 1.9-4.5 4.8v-.3c.8.5 2 1.3 3.2 2.1l1.9 1.3-.3.2c-.2-4.8-.3-8.1-.3-8.1" fill="#231f20"/><path clip-path="url(#a)" d="m88.5 101.2s.1.6.2 1.6c0 .6 0 1.4-.1 2.2-.1 2.1-.4 3.8-.4 3.8s-.1-1.7 0-3.9c.1-.9.1-1.7.2-2.2 0-.9.1-1.5.1-1.5" fill="#231f20"/><path clip-path="url(#a)" d="m107.1 109.6s-.2-1.7-.2-3.9.2-3.9.2-3.9.2 1.7.2 3.9-.2 3.9-.2 3.9" fill="#231f20"/><path clip-path="url(#a)" d="m108.5 91.8s-.1 1.2-.3 3.8c0 1.2-.3 3.3-.6 5.8-.1.1-.2.3-.4.5-1.5 1.8-3.9 4.5-6.5 7.5l-.1.1h-4.6l-.1-.1-2.1-2.4-1-1.2-.5-.6-.5-.5c-1.3-1.3-2.6-2.4-3.5-3.5-.1-2.9-.2-5.3-.3-6.9v-1.8c0-.2 0-.4.1-.5v2.3c.1 1.6.3 3.9.5 6.9v-.1c.9 1 2.2 2.1 3.6 3.4l.5.5c.2.2.3.4.5.5.3.4.7.8 1 1.1l2.1 2.4s-.1 0-.2-.1h4.6l-.2.1c2.6-3 5-5.7 6.6-7.4.2-.2.3-.4.4-.5v.1c.4-2.5.7-4.5.7-5.7.2-2.5.3-3.7.3-3.7" fill="#231f20"/><path clip-path="url(#a)" d="m97.2 96.2s-.1-2.2-.2-5.5c0 0 0 .1.1.1-.4-.3-.9-.7-1.5-1.1-.8-.6-1.6-1.2-2.3-1.7-.4-.3-.7-.5-1-.7l-.5-.3h-.2s-.1.1-.2.1c-.5.4-.8.9-1.1 1.2-.2.3-.4.4-.4.4s.1-.2.3-.5.5-.8 1-1.3c.1-.1.1-.1.3-.2h.3c.2.1.4.2.5.3.3.2.7.4 1.1.7.7.5 1.5 1.1 2.3 1.7.6.4 1.2.9 1.5 1.2l.1.1v.1c0 3.2-.1 5.4-.1 5.4" fill="#231f20"/><path clip-path="url(#a)" d="m100.5 103.5c1-.9.9-3.2.9-3.9h-5.8c-.1 1 0 2.6.9 3.9z" fill="#fff"/><path clip-path="url(#a)" d="m97.2 97.8s.1 0 .2.1l.2.1c.1 0 .2 0 .3.1.3.1.6 0 1-.1.3-.1.7-.4.9-.8 0-1.5-.1-3.7-.1-6v-.6l.1-.1c2.4-1.4 4.6-2.6 5.7-3.2h.1c.9 1.2 1.3 1.8 1.3 1.8s-.4-.5-1.4-1.7h.1c-1 .7-3.1 2-5.5 3.4 0 0 .1-.1.1-.2v.5c0 2.3 0 4.5-.1 6-.2.5-.7.8-1.1.9s-.7.1-1 0c-.1 0-.3-.1-.3-.1-.1-.1-.2-.1-.2-.1z" fill="#231f20"/><path clip-path="url(#a)" d="m96.7 97.5-.3.3c-.1.1-.3.1-.5.1s-.4-.2-.5-.4c-.1-.4 0-.7.1-1 .1-.2.2-.3.2-.3s0 .6.1 1.2c0 .1.1.2.2.2h.6z" fill="#231f20"/><path clip-path="url(#a)" d="m96.5 103.5-3.4-3.9h2.5c-.1 1 0 2.6.9 3.9" fill="#231f20"/><path clip-path="url(#a)" d="m101.4 99.6h2.2l-3.1 3.9c1-.9.9-3.2.9-3.9" fill="#231f20"/><path clip-path="url(#a)" d="m99.9 97.2.1.1.3.1c.1.1.3.1.4 0 0 0 .1-.2.1-.4 0-.4-.1-.8-.2-1l-.1-.3c0-.1-.1-.1-.1-.1l.1.1c.1 0 .2.1.3.2.2.2.4.6.5 1.1 0 .1 0 .3-.1.4 0 .1-.2.3-.3.3h-.4c-.1 0-.2-.1-.2-.1l-.3-.3c0-.1-.1-.1-.1-.1" fill="#231f20"/><path clip-path="url(#a)" d="m93.1 99.6s1.2 1.3 3.5 3.8h-.1c.9 0 2.3 0 4-.1 0 0-.1 0-.1.1.5-.6 1.2-1.5 2-2.5.4-.5.9-1.1 1.1-1.4.1.2.1.2.2.3-6.2 0-10.6-.2-10.6-.2s4.4-.2 10.5-.2h.4l-.3.3c-.3.3-.7.9-1.1 1.4-.8 1-1.5 1.9-2 2.5l-.1.1h-.1c-1.6 0-3.1 0-4-.1h-.1c-2.1-2.6-3.2-4-3.2-4" fill="#231f20"/><path clip-path="url(#a)" d="m104.7 100.6s0-.2-.1-.4c0-.2-.1-.5-.2-.9-.1-.3-.1-.6-.2-.8s-.1-.4-.1-.4l.3.3c.2.2.3.5.4.9s.1.7 0 .9c0 .2-.1.4-.1.4" fill="#231f20"/><path clip-path="url(#a)" d="m91.8 101.5-.4-.4c-.1-.1-.2-.3-.3-.6l-.1-.7c0-.5.2-1 .4-1.3.1-.2.2-.3.2-.3l.1-.1-.1.1c0 .1-.1.2-.1.4-.1.3-.1.7-.1 1.2v.7c0 .2.1.4.1.5.3.3.3.5.3.5" fill="#231f20"/><path clip-path="url(#a)" d="m104.8 91.1c-.2-.1-2.1 0-2.4 0 0 .7.2 1.6 1.2 1.6s1.2-1 1.2-1.6" fill="#231f20"/><path clip-path="url(#a)" d="m92.9 91.1c.2-.1 2.1 0 2.4 0 0 .7-.2 1.6-1.2 1.6s-1.2-1-1.2-1.6" fill="#231f20"/><path clip-path="url(#a)" d="m105.6 92.4v-.3c0-.1 0-.2-.1-.3s-.2-.2-.3-.2c-.2-.2-.5-.4-.8-.6h-2.5c-.3.1-.6.4-.8.5v-.1c0 .6-.1.9-.1.9s0-.3-.1-.9c.2-.2.4-.5.8-.7 0 0 .1-.1.2-.1h2.2c.1 0 .3 0 .4.1.3.2.6.5.8.8.1.1.2.2.3.4z" fill="#231f20"/><path clip-path="url(#a)" d="m104.5 90.8v.3c0 .2 0 .4-.1.8 0 .1-.1.2-.1.2 0 .1-.1.1-.2.2l-.6.3h-.4c-.1 0-.2 0-.4-.1-.3-.1-.5-.3-.6-.5-.2-.4-.2-.9-.2-1.1v-.2h.2c1.4-.1 2.4 0 2.4.1 0-.1-.9.1-2.4.2l.2-.2c0 .2 0 .6.2.9.2.4.6.5.9.5.2 0 .4-.1.5-.1l.2-.1c.1-.1.1-.1.1-.2.2-.3.2-.5.3-.7z" fill="#231f20"/><path clip-path="url(#a)" d="m91.5 92.4s0-.1-.1-.3v-.3c.1-.1.2-.2.3-.4l.8-.8c.1-.1.3-.1.4-.1h2.2c.1 0 .2 0 .2.1.4.2.6.5.8.7 0 .6-.1.9-.1.9s0-.3-.1-.9v.1c-.2-.2-.5-.4-.8-.5h-2.5c-.3.2-.6.4-.8.6-.1.1-.2.2-.3.2 0 .1 0 .2-.1.3.1.3.1.4.1.4" fill="#231f20"/><path clip-path="url(#a)" d="m92.6 90.8v.3c0 .2.1.4.3.7l.1.2c.1.1.1.1.2.1.1.1.3.1.5.1.3 0 .8-.1.9-.5.2-.3.2-.7.2-.9l.2.2c-1.5-.1-2.4-.3-2.4-.2 0-.1 1-.2 2.4-.2h.2v.2c0 .3 0 .7-.2 1.1-.1.2-.4.5-.6.5-.1.1-.2.1-.4.1h-.4c-.2 0-.4-.1-.6-.3-.1-.1-.2-.1-.2-.2s-.1-.2-.1-.2c-.1-.3-.1-.6-.1-.8z" fill="#231f20"/><path clip-path="url(#a)" d="m109.3 74.5.1.1.4.4c.3.4.7 1.1.9 2.2.3 1 .4 2.4.4 4 0 .8 0 1.7-.1 2.7 0 .5-.1 1-.2 1.5s-.1 1-.3 1.6l-.1.3-.1-.3c0-.2-.2-.6-.6-.8-.1-.1-.2-.1-.3-.1h-.2c0 .2 0 .5-.1.8-.1 1.1-.2 2.4-.4 3.8v.1h-.9v-3.7c-.2-.4-.6-1.3-1.1-2.2v-.2s0-.1.1-.2c.3-.9.6-2 1-3.1s0-2.5-1-3.3c-.5-.5-1.1-.8-1.8-1-.3-.1-.7-.2-1-.2-.4-.1-.7-.1-1.1 0-.7.1-1.5.3-2.2.6-.7.2-1.5.5-2.4.5h-.5c-.8-.1-1.5-.3-2.1-.5-.7-.2-1.3-.4-2-.5h-.5c-.1 0-.3 0-.5.1-.3 0-.7.1-1 .2-.6.2-1.2.5-1.7.9s-.9.9-1.1 1.5-.3 1.2-.1 1.7c.3 1.2.7 2.3 1 3.4v.2c-.4.8-.7 1.5-1 2.1v-.1c0 1.6.1 2.8.1 3.9v.2h-1.4v-.2c.1-.9 0-1.8 0-2.6-.1-.8-.1-1.5-.2-2.2l.1.1c-.5-.1-.9 0-1.1.2-.3.2-.5.5-.6.7l-.1.2.2-.3c-.2-.5-.2-1-.2-1.5l-.1-1.4c0-.9 0-1.8.1-2.5.1-1.6.3-2.9.6-4s.7-1.9 1-2.3c.2-.2.3-.4.4-.5l.2-.2-.2.2c-.1.1-.2.3-.4.5-.3.5-.7 1.3-1 2.4s-.5 2.4-.6 4v2.5c0 .4 0 .9.1 1.4 0 .5.1 1 .2 1.4h-.2c.1-.3.3-.6.7-.8.3-.2.8-.3 1.3-.2h.1v.1c0 .7.1 1.4.2 2.2s.1 1.6 0 2.6c0 0-.1-.1-.1-.2h1s-.1.1-.1.2c0-1.2-.1-2.4-.1-3.9.3-.6.6-1.3 1-2.1v.1c-.3-1.1-.7-2.2-1.1-3.4-.2-.6-.1-1.4.1-2 .2-.7.7-1.2 1.2-1.6s1.2-.8 1.8-1c.3-.1.7-.2 1-.2.2 0 .3 0 .5-.1h.5c1.5.1 2.8.9 4.1 1h.5c.7.1 1.5-.2 2.2-.4s1.5-.5 2.3-.6c.4-.1.8 0 1.2 0 .4.1.8.1 1.1.3.7.2 1.4.6 1.9 1.1 1.1.9 1.6 2.5 1.1 3.7-.3 1.2-.7 2.2-1 3.1l-.1.2v-.1c.4.9.9 1.9 1 2.2 0 1.6-.1 3.1-.1 3.7l-.1-.1h.7l-.1.1c.1-1.4.3-2.7.4-3.8l.1-.8c0-.1.1-.2.2-.2h.2l.3.1c.4.2.6.6.6.9h-.2c.2-.5.2-1 .3-1.5l.2-1.5c.1-.9.1-1.8.1-2.6 0-1.6-.1-2.9-.4-4-.2-1-.6-1.7-.9-2.2-.1-.2-.3-.4-.4-.4.4-.3.4-.4.4-.4" fill="#231f20"/><path clip-path="url(#a)" d="m108.1 95.6h.4c.2-.1.6-.1.9-.5l.2-.3.2-.3c.1-.2.3-.5.3-.7.1-.5.2-1.2.2-1.9.1-1.4.2-2.6.2-3.5v-1.5s0 .1.1.4c.1.2.1.6.2 1.1.1.9.1 2.2 0 3.5-.1.7-.1 1.3-.3 2l-.4.8c-.1.1-.2.2-.2.3l-.3.3c-.4.3-.8.4-1 .4-.3-.1-.5-.1-.5-.1" fill="#231f20"/><path clip-path="url(#a)" d="m85.8 86.9v.1c0 .1 0 .2-.1.3 0 .2-.1.6-.1 1.1 0 .9 0 2.2.1 3.6 0 .7.1 1.4.2 1.9.1.6.5.9.8 1.2.8.5 1.4.5 1.4.5s-.6.2-1.5-.3c-.2-.1-.4-.3-.6-.5s-.4-.5-.4-.8c-.1-.6-.2-1.3-.2-2-.1-1.4 0-2.7.1-3.6.1-.5.1-.8.2-1.1 0-.1.1-.2.1-.4" fill="#231f20"/><path clip-path="url(#a)" d="m107.1 104.7s-1.2 1.5-2.8 3.1-3.1 2.8-3.1 2.8 1.2-1.5 2.8-3.1c1.7-1.6 3.1-2.8 3.1-2.8" fill="#231f20"/><path clip-path="url(#a)" d="m92.7 110.2s-1.1-1.1-2.3-2.6-2-2.9-2-2.9 1.1 1.1 2.3 2.6c1.2 1.6 2 2.9 2 2.9" fill="#231f20"/><path clip-path="url(#a)" d="m98.3 116.3h.1v3.3h-.1z" fill="#fff" transform="matrix(.998 .071 -.071 .998 8.589 -6.661)"/><path clip-path="url(#a)" d="m95.2 116h.1v3.6h-.1z" fill="#fff"/><path clip-path="url(#a)" d="m97.2 90.7s-.5-.2-1.2-.7c-.7-.4-1.7-1-2.7-1.8-.5-.4-1-.7-1.4-1l-.1-.1h.1l-.1.1-.5.4-1 1s.2-.5.7-1.2c.1-.2.2-.4.4-.6l.1-.2.1-.1h.4l.3.1c.6.3 1.1.6 1.6.9 1.1.7 1.9 1.5 2.5 2.1.5.7.8 1.1.8 1.1" fill="#231f20"/><path clip-path="url(#a)" d="m99.9 90.7s1.5-1.3 3.5-2.6c.7-.4 1.4-.8 1.9-1l.3-.1.1.2c.8 1.1 1.1 1.9 1.1 1.9s-.6-.5-1.6-1.5c.1 0 .2 0 .4.1-.4.3-1.1.8-1.8 1.2-2 1.1-3.9 1.8-3.9 1.8" fill="#231f20"/></svg>