<svg enable-background="new 0 0 178.9 132" viewBox="0 0 178.9 132" xmlns="http://www.w3.org/2000/svg" xmlns:xlink="http://www.w3.org/1999/xlink"><clipPath id="a"><path d="m3.2 2.8h175.7v129.1h-175.7z"/></clipPath><clipPath id="b"><path d="m-238.5-166 864 2 20.6 1155.8-907.2-2.1z"/></clipPath><g fill="#ccc9c7"><path clip-path="url(#a)" d="m110.3 71.9c0-.3.3 0 .3 0v.3c-.3.3-.3 0-.5 0-.1-.3.2-.3.2-.3"/><path clip-path="url(#a)" d="m109 77.6c.3-.3.5 0 .8.3 0 .3 0 .5-.3.5-.3.3-.5 0-.5-.3-.3-.2 0-.5 0-.5"/><path clip-path="url(#a)" d="m107.7 83.3c.3 0 .8 0 .8.3.3.5 0 .8-.3 1-.3 0-.8 0-.8-.3-.2-.5 0-.7.3-1"/><path clip-path="url(#a)" d="m106.1 89c.3 0 .8 0 1 .5.3.5 0 1-.5 1.3-.3 0-.8 0-1-.5s0-1 .5-1.3"/><path clip-path="url(#a)" d="m104.1 94.7c.5 0 1.3.3 1.6.8s0 1-.5 1.3c-.8.3-1.3 0-1.6-.5s-.1-1.3.5-1.6"/><path clip-path="url(#a)" d="m102 100.7c.5-.3 1.3 0 1.6.5.3.8 0 1.6-.5 1.8-.8.3-1.6 0-1.8-.8-.4-.5-.1-1.2.7-1.5"/><path clip-path="url(#a)" d="m99.4 106.1c.8-.3 1.8.3 2.1 1 .3.8 0 1.6-.8 1.8-.8.5-1.8 0-2.1-.8-.2-.7 0-1.4.8-2"/><path clip-path="url(#a)" d="m96.8 111.8c.8-.3 1.8.3 2.3 1 .3 1-.3 2.1-1.3 2.3-.8.3-1.8-.3-2.1-1-.2-1 .3-1.7 1.1-2.3"/><path clip-path="url(#a)" d="m93.9 117.6c.8-.3 2.1.3 2.3 1.3.3.8-.3 2.1-1.3 2.3-1 .3-2.1-.3-2.3-1.3s.3-2.1 1.3-2.3"/><path clip-path="url(#a)" d="m90.6 123c1-.3 2.3.3 2.6 1.6.5 1-.3 2.3-1.3 2.6-1.3.3-2.1-.3-2.6-1.6-.3-1 .5-2.1 1.3-2.6"/><path clip-path="url(#a)" d="m87.2 128.4c1.3-.3 2.6.5 2.9 1.6.5 1.3-.3 2.6-1.6 3.1-1.3.3-2.6-.5-2.9-1.8-.2-1 .3-2.3 1.6-2.9"/><path clip-path="url(#a)" d="m111.1 69.1s.3 0 .3.3c.3 0 0 .3 0 .3h-.3c-.3-.4 0-.4 0-.6"/><path clip-path="url(#a)" d="m110.5 75c.3 0 .5 0 .8.3 0 0 0 .5-.3.5 0 .3-.5 0-.5 0-.2-.3 0-.5 0-.8"/><path clip-path="url(#a)" d="m110 81c.3-.3.8-.3.8.3.3.3.3.5 0 .8-.5.3-.8.3-1-.3-.3-.3 0-.6.2-.8"/><path clip-path="url(#a)" d="m109 86.9c.5-.3 1-.3 1.3.3.3.3.3.8-.3 1-.5.3-1 .3-1.3-.3-.2-.2 0-.7.3-1"/><path clip-path="url(#a)" d="m108 92.9c.5-.5 1.3-.3 1.6.3.3.5 0 1.3-.5 1.6s-1 0-1.3-.5c-.6-.6-.4-1.1.2-1.4"/><path clip-path="url(#a)" d="m106.7 98.9c.5-.5 1.3-.3 1.6.3.5.8.3 1.6-.3 1.8-.8.5-1.6.3-1.8-.5-.6-.6-.3-1.4.5-1.6"/><path clip-path="url(#a)" d="m104.8 104.8c.8-.5 1.8-.3 2.1.5.5.8.3 1.6-.5 2.1-.8.3-1.8 0-2.1-.8-.5-.5-.2-1.5.5-1.8"/><path clip-path="url(#a)" d="m103 110.8c.8-.5 1.8-.3 2.3.5.3 1 0 2.1-.8 2.3-1 .5-2.1.3-2.3-.8-.5-.7-.2-1.7.8-2"/><path clip-path="url(#a)" d="m100.7 116.5c1-.3 2.1 0 2.6 1s0 2.1-.8 2.6c-1 .5-2.3 0-2.6-1-.5-.8-.2-2.1.8-2.6"/><path clip-path="url(#a)" d="m98.1 122.5c1-.5 2.3 0 2.8 1s0 2.3-1 2.9c-1 .5-2.3 0-2.9-1-.5-1.1.1-2.4 1.1-2.9"/><path clip-path="url(#a)" d="m95.2 128.4c1.3-.5 2.6 0 3.1 1.3.5 1 0 2.3-1 2.9-1.3.5-2.6 0-3.1-1-.5-1.3 0-2.6 1-3.2"/><path clip-path="url(#a)" d="m111.6 66.5h.3v.3c-.3.3-.3.3-.3 0-.3-.1-.3-.3 0-.3"/><path clip-path="url(#a)" d="m111.8 72.4c.3-.3.5-.3.8 0 0 .3 0 .5-.3.5 0 .3-.5.3-.5 0-.2-.2-.2-.5 0-.5"/><path clip-path="url(#a)" d="m112.1 78.1c.3 0 .5 0 .8.3s.3.8 0 .8c-.3.3-.8.3-1 0-.3-.3-.3-.8.2-1.1"/><path clip-path="url(#a)" d="m111.8 84.4c.5-.5 1-.3 1.3 0 .3.5.3 1-.3 1.3-.3.3-.8.3-1-.3-.5-.3-.2-.8 0-1"/><path clip-path="url(#a)" d="m111.6 90.3c.5-.5 1-.3 1.6.3.3.3.3 1-.3 1.3-.5.5-1.3.5-1.6 0-.2-.5-.2-1.3.3-1.6"/><path clip-path="url(#a)" d="m110.8 96.3c.8-.3 1.6-.3 1.8.3.5.8.5 1.6-.3 1.8-.5.5-1.3.5-1.8-.3-.2-.5-.2-1.3.3-1.8"/><path clip-path="url(#a)" d="m110 102.5c.8-.5 1.6-.3 2.1.3.5.8.3 1.8-.3 2.1-.8.5-1.6.5-2.1-.3-.4-.8-.4-1.6.3-2.1"/><path clip-path="url(#a)" d="m108.7 108.7c1-.5 2.1-.5 2.6.3s.3 2.1-.5 2.6-1.8.3-2.3-.5-.5-1.8.2-2.4"/><path clip-path="url(#a)" d="m107.4 115c.8-.8 2.1-.5 2.6.5.8.8.5 2.1-.5 2.6-.8.5-2.1.3-2.6-.5-.5-1.1-.2-2.1.5-2.6"/><path clip-path="url(#a)" d="m105.6 120.9c1-.5 2.3-.3 3.1.8.5 1 .3 2.3-.8 2.9-1 .8-2.3.5-2.8-.5-.8-1.1-.5-2.4.5-3.2"/><path clip-path="url(#a)" d="m103.5 127.2c1.3-.5 2.6-.3 3.4.8.5 1.3.3 2.6-.8 3.4-1.3.5-2.6.3-3.4-.8-.5-1.4-.2-2.7.8-3.4"/><path clip-path="url(#a)" d="m111.6 63.6h.3c.3.3.3.3 0 .5h-.3z"/><path clip-path="url(#a)" d="m112.6 69.6c.3-.3.5-.3.8-.3.3.3.3.5 0 .8s-.5.3-.8 0z"/><path clip-path="url(#a)" d="m113.7 75.3c.3-.3.5-.3.8 0s.3.8.3 1c-.3.3-.8.3-1 0-.4-.2-.4-.8-.1-1"/><path clip-path="url(#a)" d="m114.2 81.2c.5-.3 1-.3 1.3 0s.5.8 0 1.3c-.3.3-.8.3-1.3 0-.3-.2-.3-1 0-1.3"/><path clip-path="url(#a)" d="m114.7 87.2c.5-.3 1-.3 1.6 0 .5.5.5 1.3 0 1.6-.5.5-1 .5-1.6 0-.5-.3-.5-1.1 0-1.6"/><path clip-path="url(#a)" d="m115 93.4c.5-.5 1.3-.5 1.8 0s.5 1.3 0 1.8-1.3.5-1.8 0c-.6-.5-.6-1.3 0-1.8"/><path clip-path="url(#a)" d="m114.7 99.7c.8-.5 1.6-.5 2.3 0 .5.5.5 1.6-.3 2.1-.5.8-1.6.5-2.1 0-.4-.6-.4-1.6.1-2.1"/><path clip-path="url(#a)" d="m114.4 105.9c.8-.5 1.8-.5 2.3 0 .8.8.8 1.8 0 2.6-.8.5-1.8.5-2.3-.3-.7-.5-.7-1.8 0-2.3"/><path clip-path="url(#a)" d="m113.9 112.1c.8-.5 2.1-.5 2.6.3.8.8.8 2.1-.3 2.8-.8.5-1.8.5-2.6-.3-.7-.7-.5-2 .3-2.8"/><path clip-path="url(#a)" d="m112.9 118.6c1-.8 2.3-.8 3.1.3.8.8.5 2.3-.3 3.1-1 .5-2.3.5-3.1-.5-.8-.8-.5-2.1.3-2.9"/><path clip-path="url(#a)" d="m111.8 125.1c.8-1 2.3-.8 3.1.3.8 1 .8 2.6-.3 3.4-1 .8-2.6.5-3.4-.5-.7-1.1-.4-2.4.6-3.2"/><path clip-path="url(#a)" d="m110.3 131.3c1-.8 2.6-.5 3.6.5.8 1.3.5 2.9-.5 3.6-1.3.8-2.9.8-3.6-.5-.8-1-.8-2.6.5-3.6"/><path clip-path="url(#a)" d="m111.3 61c0-.3.3-.3.3-.3.3.3.3.3 0 .5h-.3z"/><path clip-path="url(#a)" d="m113.1 66.5c.3-.3.5-.3.5 0 .3 0 .3.3.3.5-.3.3-.5.3-.8.3 0-.3-.2-.6 0-.8"/><path clip-path="url(#a)" d="m114.7 72.2c.3-.3.8-.3 1 0 .3 0 .3.5.3.8-.3.3-.8.5-1 .3-.3-.4-.3-.9-.3-1.1"/><path clip-path="url(#a)" d="m116.3 78.1c.3-.5.8-.5 1.3-.3.3.3.5.8 0 1.3-.3.3-.8.3-1 0-.6-.2-.6-.7-.3-1"/><path clip-path="url(#a)" d="m117.6 83.8c.3-.3 1-.5 1.6 0 .3.3.5 1 0 1.6-.3.3-1 .5-1.6 0-.3-.3-.6-1 0-1.6"/><path clip-path="url(#a)" d="m118.3 90.1c.5-.5 1.3-.8 1.8-.3.8.5.8 1.3.3 1.8-.3.5-1.3.5-1.8.3-.5-.5-.5-1.3-.3-1.8"/><path clip-path="url(#a)" d="m119.1 96c.5-.5 1.6-.5 2.1 0 .8.5.8 1.3.3 2.1-.5.5-1.3.8-2.1.3-.5-.6-.8-1.6-.3-2.4"/><path clip-path="url(#a)" d="m119.6 102.5c.5-.8 1.8-1 2.3-.3.8.5 1 1.6.3 2.3-.5.8-1.6.8-2.3.3-.8-.5-.8-1.8-.3-2.3"/><path clip-path="url(#a)" d="m119.9 108.7c.8-.8 1.8-.8 2.6-.3.8.8 1 2.1.3 2.9-.8.8-1.8.8-2.6 0-.8-.5-1.1-1.8-.3-2.6"/><path clip-path="url(#a)" d="m119.9 115.2c.8-1 2.1-1 2.9-.3 1 .8 1 2.3.3 3.1-.8.8-2.3 1-3.1 0-.9-.7-.9-2-.1-2.8"/><path clip-path="url(#a)" d="m119.4 121.7c1-1 2.6-1 3.4 0 1 .8 1 2.3 0 3.1-.8 1-2.3 1-3.4.3-.8-1.1-.8-2.6 0-3.4"/><path clip-path="url(#a)" d="m118.9 128.2c1-1 2.6-1 3.6 0 .8 1 .8 2.6 0 3.6-1 1-2.9 1-3.6 0-1.1-1-1.1-2.6 0-3.6"/><path clip-path="url(#a)" d="m110.5 58.2h.5v.3c0 .3-.3.3-.3.3-.2-.4-.2-.4-.2-.6"/><path clip-path="url(#a)" d="m113.1 63.6c.3-.3.5-.5.8-.3.3 0 .3.3 0 .5 0 .3-.3.5-.5.3-.3 0-.3-.2-.3-.5"/><path clip-path="url(#a)" d="m115.5 69.1c.3-.5.8-.5 1-.3.3 0 .5.5.3.8-.3.3-.5.5-.8.3-.5-.3-.5-.6-.5-.8"/><path clip-path="url(#a)" d="m117.8 74.5c.3-.3.8-.5 1.3-.3.3.3.5.8.3 1-.3.5-.8.8-1.3.5-.3-.2-.5-.7-.3-1.2"/><path clip-path="url(#a)" d="m119.9 80.2c.3-.5.8-.8 1.3-.3.5.3.8.8.5 1.3s-1 .8-1.6.5c-.5-.2-.7-1-.2-1.5"/><path clip-path="url(#a)" d="m121.4 86.2c.5-.8 1.3-.8 1.8-.5.8.3.8 1.3.5 1.8s-1.3.8-1.8.5c-.5-.5-.7-1.3-.5-1.8"/><path clip-path="url(#a)" d="m123 92.1c.5-.8 1.6-1 2.1-.5.8.5 1 1.3.5 2.1s-1.3 1-2.1.5-.8-1.3-.5-2.1"/><path clip-path="url(#a)" d="m124.3 98.4c.5-.8 1.6-1 2.3-.5.8.5 1 1.6.5 2.3-.5.8-1.6 1-2.3.5-.8-.5-1-1.6-.5-2.3"/><path clip-path="url(#a)" d="m125.3 104.6c.8-1 1.8-1.3 2.9-.5.8.5 1 1.8.5 2.6-.8.8-1.8 1-2.9.5-.7-.5-1-1.8-.5-2.6"/><path clip-path="url(#a)" d="m126.1 110.8c.8-.8 2.1-1 3.1-.5.8.8 1 2.1.5 3.1-.8 1-2.1 1-3.1.5-1-.8-1-2.1-.5-3.1"/><path clip-path="url(#a)" d="m126.6 117.3c.8-1 2.3-1 3.4-.3 1 .5 1.3 2.1.5 3.1s-2.3 1.3-3.4.5c-1-.7-1.3-2.3-.5-3.3"/><path clip-path="url(#a)" d="m126.9 124c.8-1 2.3-1.3 3.6-.5 1 .8 1.3 2.6.3 3.6-.8 1-2.3 1.3-3.4.5-1.3-1-1.3-2.5-.5-3.6"/><path clip-path="url(#a)" d="m126.6 130.8c1-1.3 2.9-1.3 3.9-.5 1.3 1 1.6 2.9.5 3.9-1 1.3-2.6 1.3-3.9.5-1.3-1.1-1.3-2.9-.5-3.9"/><path clip-path="url(#a)" d="m109.8 55.6h.3s.3.3 0 .3c0 .3 0 .3-.3.3 0-.4-.3-.4 0-.6"/><path clip-path="url(#a)" d="m112.9 60.5c0-.3.3-.3.5-.3.3.3.5.5.3.8 0 0-.3.3-.5.3-.3-.3-.3-.5-.3-.8"/><path clip-path="url(#a)" d="m116 65.7c0-.3.5-.5.8-.5.5.3.5.5.5 1-.3.3-.5.5-1 .3-.3 0-.6-.6-.3-.8"/><path clip-path="url(#a)" d="m118.9 70.9c.3-.5.8-.8 1-.5.5.3.8.8.5 1.3 0 .3-.5.5-1 .3-.5-.1-.8-.6-.5-1.1"/><path clip-path="url(#a)" d="m121.4 76.3c.3-.5 1-.8 1.6-.5.5.3.8.8.5 1.3s-.8.8-1.3.5c-.5 0-.8-.8-.8-1.3"/><path clip-path="url(#a)" d="m124 81.8c.3-.5 1-.8 1.8-.5.5.3.8 1 .5 1.6-.3.8-1 1-1.6.8-.7-.4-.9-1.2-.7-1.9"/><path clip-path="url(#a)" d="m126.4 87.7c.3-.8 1.3-1.3 2.1-.8.8.3 1 1 .8 1.8-.5.8-1.3 1.3-2.1.8-.8-.2-1.1-1-.8-1.8"/><path clip-path="url(#a)" d="m128.4 93.4c.5-.8 1.6-1 2.3-.8.8.5 1.3 1.6.8 2.3-.5.8-1.3 1.3-2.3.8-.8-.2-1-1.2-.8-2.3"/><path clip-path="url(#a)" d="m130.3 99.7c.5-1 1.8-1.3 2.6-.8 1 .3 1.3 1.6.8 2.3-.3 1-1.6 1.6-2.3 1-1.1-.5-1.7-1.8-1.1-2.5"/><path clip-path="url(#a)" d="m131.8 105.9c.5-1 1.8-1.6 2.9-1 1.3.8 1.6 2.1 1 3.1-.5 1-1.8 1.3-2.8.8-1.1-.6-1.6-1.9-1.1-2.9"/><path clip-path="url(#a)" d="m133.4 112.1c.5-1 1.8-1.3 3.1-.8 1 .5 1.6 2.1.8 3.1-.5 1.3-2.1 1.6-3.1 1-1.1-.7-1.6-2-.8-3.3"/><path clip-path="url(#a)" d="m134.4 118.9c.5-1.3 2.1-1.8 3.4-1s1.6 2.3 1 3.6c-.8 1-2.3 1.6-3.6.8-1.3-.9-1.6-2.4-.8-3.4"/><path clip-path="url(#a)" d="m135.2 125.3c.8-1.3 2.3-1.6 3.6-.8s1.8 2.6 1 3.9-2.6 1.6-3.9.8c-1.2-.8-1.7-2.6-.7-3.9"/><path clip-path="url(#a)" d="m135.5 132.3c1-1.6 2.8-1.8 4.1-1 1.6 1 1.8 2.9 1 4.2-1 1.3-2.8 1.8-4.1.8-1.6-.8-1.8-2.7-1-4"/><path clip-path="url(#a)" d="m108.2 53.2c.3-.3.3-.3.5-.3v.3c0 .3 0 .3-.3.3.1 0-.2 0-.2-.3"/><path clip-path="url(#a)" d="m112.1 57.6c0-.3.3-.3.5-.3.3 0 .5.3.5.5 0 .3-.3.3-.5.3-.2.1-.5-.2-.5-.5"/><path clip-path="url(#a)" d="m116 62.3c0-.3.3-.5.8-.5.3 0 .5.5.5.8-.3.5-.5.5-.8.5-.5 0-.8-.5-.5-.8"/><path clip-path="url(#a)" d="m119.4 67.2c.3-.5.8-.8 1-.8.5.3.8.5.8 1-.3.5-.5.8-1 .8-.6-.2-.8-.7-.8-1"/><path clip-path="url(#a)" d="m122.7 72.2c.3-.5.8-1 1.6-.8.5 0 .8.8.8 1.3-.3.5-.8 1-1.6.8-.5-.3-.8-.8-.8-1.3"/><path clip-path="url(#a)" d="m126.1 77.4c.3-.8.8-1 1.6-.8.8 0 1 .8.8 1.6 0 .5-.8 1-1.6.8-.5-.4-1.1-.9-.8-1.6"/><path clip-path="url(#a)" d="m129.2 82.8c0-.8 1-1.3 1.8-1s1.3 1 1 1.8-1.3 1.3-2.1 1c-.7-.2-.9-1-.7-1.8"/><path clip-path="url(#a)" d="m131.8 88.2c.5-.8 1.3-1.3 2.3-1 .8.3 1.3 1.3 1 2.1-.3 1-1.3 1.6-2.1 1.3-.9-.3-1.4-1.3-1.2-2.4"/><path clip-path="url(#a)" d="m134.7 94.2c.3-1 1.3-1.6 2.3-1.3s1.6 1.6 1.3 2.3c-.5 1-1.6 1.6-2.6 1.3-1-.2-1.5-1.5-1-2.3"/><path clip-path="url(#a)" d="m137 100.2c.3-1.3 1.6-1.8 2.6-1.3 1.3.3 1.8 1.6 1.3 2.6-.3 1.3-1.6 1.8-2.6 1.3-1.3-.3-1.8-1.6-1.3-2.6"/><path clip-path="url(#a)" d="m139.1 106.1c.5-1 1.8-1.8 3.1-1.3 1 .5 1.8 1.8 1.3 3.1s-1.8 1.8-3.1 1.3c-1.1-.5-1.8-1.8-1.3-3.1"/><path clip-path="url(#a)" d="m140.9 112.6c.8-1.3 2.1-2.1 3.4-1.3 1.3.5 2.1 1.8 1.6 3.1-.8 1.3-2.1 2.1-3.4 1.6s-2.1-2.1-1.6-3.4"/><path clip-path="url(#a)" d="m142.7 119.1c.5-1.6 2.1-2.1 3.6-1.3 1.3.5 2.1 2.1 1.3 3.6-.5 1.3-2.3 1.8-3.6 1.3s-2.1-2.3-1.3-3.6"/><path clip-path="url(#a)" d="m144 125.9c.8-1.6 2.6-2.1 3.9-1.6 1.6.8 2.1 2.6 1.6 4.2-.8 1.3-2.6 2.1-4.2 1.3-1.3-.8-2.1-2.6-1.3-3.9"/><path clip-path="url(#a)" d="m145 132.6c-.8 1.6-.3 3.6 1.3 4.4s3.6 0 4.4-1.6.3-3.4-1.3-4.2c-1.8-.7-3.6-.2-4.4 1.4"/><path clip-path="url(#a)" d="m106.7 50.9s.3-.3.3 0c.3 0 .3 0 .3.3 0 0 0 .3-.3 0-.3 0-.3 0-.3-.3"/><path clip-path="url(#a)" d="m111.1 54.8c0-.3.3-.3.5-.3.3 0 .5.3.5.5 0 .3-.3.3-.5.3-.3 0-.5-.3-.5-.5"/><path clip-path="url(#a)" d="m115.5 58.9c0-.3.3-.5.5-.5.5 0 .8.3.8.8 0 .3-.5.5-.8.5s-.5-.2-.5-.8"/><path clip-path="url(#a)" d="m119.6 63.3c0-.5.5-.8.8-.8.5 0 1 .5.8 1 0 .3-.3.8-.8.8-.5-.2-1-.4-.8-1"/><path clip-path="url(#a)" d="m123.5 67.8c0-.5.8-1 1.3-.8.5 0 1 .5 1 1-.3.8-.8 1-1.3 1-.5.1-1-.5-1-1.2"/><path clip-path="url(#a)" d="m127.4 72.7c0-.8.8-1.3 1.6-1.3.5.3 1 .8 1 1.6s-.8 1.3-1.6 1c-.5 0-1-.8-1-1.3"/><path clip-path="url(#a)" d="m131 77.6c.3-.8 1-1.6 1.8-1.3.8 0 1.3.8 1.3 1.8-.3.8-1 1.3-1.8 1-.7.1-1.3-.7-1.3-1.5"/><path clip-path="url(#a)" d="m134.7 82.8c.3-1 1-1.6 2.1-1.6.8.3 1.6 1 1.3 2.1-.3 1-1 1.6-2.1 1.3-.8 0-1.6-1-1.3-1.8"/><path clip-path="url(#a)" d="m138 88c.3-1 1.3-1.6 2.3-1.3 1 0 1.5 1 1.5 2.1-.3 1-1.3 1.8-2.3 1.6-.9-.3-1.7-1.4-1.5-2.4"/><path clip-path="url(#a)" d="m141.2 93.7c.3-1 1.6-1.8 2.6-1.6 1 .3 1.8 1.3 1.6 2.6-.3 1-1.3 1.8-2.6 1.6-1.1-.3-1.9-1.6-1.6-2.6"/><path clip-path="url(#a)" d="m144 99.4c.5-1 1.8-1.8 2.9-1.6 1.3.3 2.1 1.6 1.8 2.9s-1.6 2.1-2.9 1.6c-1.3-.3-2.1-1.6-1.8-2.9"/><path clip-path="url(#a)" d="m146.9 105.6c.3-1.6 1.8-2.3 3.1-1.8 1.3.3 2.1 1.8 1.8 3.1s-1.8 2.1-3.1 1.8c-1.3-.5-2.1-1.8-1.8-3.1"/><path clip-path="url(#a)" d="m149.2 111.8c.5-1.6 2.1-2.3 3.6-1.8 1.3.3 2.3 1.8 1.8 3.4s-2.1 2.3-3.4 1.8c-1.5-.5-2.3-2.1-2-3.4"/><path clip-path="url(#a)" d="m151.5 118.3c.5-1.6 2.1-2.6 3.6-2.1 1.6.5 2.6 2.3 2.1 3.9s-2.3 2.3-3.9 1.8c-1.5-.5-2.3-2-1.8-3.6"/><path clip-path="url(#a)" d="m153.3 124.8c-.5 1.8.5 3.6 2.1 4.1s3.4-.3 4.1-1.8c.5-1.8-.5-3.6-2.1-4.1-1.5-.5-3.3.3-4.1 1.8"/><path clip-path="url(#a)" d="m155.2 131.8c-.8 1.8.3 3.6 1.8 4.4 1.8.5 3.9-.3 4.4-2.1.8-1.8-.3-3.6-1.8-4.4-1.8-.5-3.9.3-4.4 2.1"/><path clip-path="url(#a)" d="m104.8 49.1c0-.3 0-.3.3-.3 0 0 .3 0 .3.3l-.3.3c-.3-.1-.3-.3-.3-.3"/><path clip-path="url(#a)" d="m109.8 52.2c0-.3 0-.3.3-.5.3 0 .5.3.5.5s-.3.5-.5.5c-.3 0-.3-.2-.3-.5"/><path clip-path="url(#a)" d="m114.4 55.8c0-.5.3-.8.8-.8.3 0 .5.3.5.8 0 .3-.3.5-.5.5-.5 0-.8-.2-.8-.5"/><path clip-path="url(#a)" d="m119.1 59.5c0-.5.5-.8.8-.8.5 0 1 .3 1 .8s-.5 1-.8 1c-.5 0-1-.5-1-1"/><path clip-path="url(#a)" d="m123.8 63.6c0-.8.5-1.3 1-1.3s1 .5 1 1.3c0 .5-.5 1-1 1s-1-.5-1-1"/><path clip-path="url(#a)" d="m128.2 67.8c0-.8.5-1.3 1.3-1.3s1.3.5 1.3 1.3-.5 1.3-1.3 1.3-1.3-.6-1.3-1.3"/><path clip-path="url(#a)" d="m132.6 72.2c0-.8.5-1.6 1.6-1.6.8 0 1.3.8 1.3 1.6s-.8 1.6-1.6 1.6c-.8-.1-1.3-.9-1.3-1.6"/><path clip-path="url(#a)" d="m136.7 76.8c0-1 .8-1.8 1.8-1.6.8 0 1.6.8 1.6 1.6 0 1-.8 1.8-1.8 1.8s-1.6-1-1.6-1.8"/><path clip-path="url(#a)" d="m140.6 81.8c.3-1 1-1.8 2.1-1.8 1 0 1.8 1 1.8 2.1 0 1-1 1.8-2.1 1.8-1-.3-1.8-1.1-1.8-2.1"/><path clip-path="url(#a)" d="m144.5 86.9c.3-1.3 1.3-2.1 2.3-2.1 1.3.3 2.1 1.3 2.1 2.3-.3 1.3-1.3 2.1-2.3 2.1-1.3-.2-2.1-1.2-2.1-2.3"/><path clip-path="url(#a)" d="m148.2 92.1c.3-1.3 1.3-2.1 2.6-2.1 1.3.3 2.3 1.3 2.1 2.6 0 1.3-1.3 2.3-2.6 2.1-1.4 0-2.1-1.3-2.1-2.6"/><path clip-path="url(#a)" d="m151.8 97.8c0-1.3 1.3-2.3 2.9-2.1 1.3 0 2.3 1.3 2.1 2.9 0 1.3-1.3 2.3-2.8 2.1-1.4-.3-2.5-1.6-2.2-2.9"/><path clip-path="url(#a)" d="m154.9 103.8c.3-1.6 1.8-2.6 3.4-2.3 1.3.3 2.3 1.6 2.1 3.1-.3 1.6-1.6 2.6-3.1 2.3-1.6-.2-2.7-1.8-2.4-3.1"/><path clip-path="url(#a)" d="m158 109.8c.3-1.6 1.8-2.6 3.4-2.3 1.8.3 2.9 1.8 2.6 3.4-.5 1.8-2.1 2.9-3.6 2.6-1.6-.6-2.6-2.2-2.4-3.7"/><path clip-path="url(#a)" d="m160.9 116.3c-.5 1.6.8 3.4 2.3 3.6 1.8.5 3.4-.8 3.9-2.3.3-1.8-.8-3.4-2.6-3.9-1.6-.3-3.4.7-3.6 2.6"/><path clip-path="url(#a)" d="m163.2 122.7c.5-1.8 2.3-2.9 4.2-2.6 1.8.5 3.1 2.3 2.6 4.1s-2.3 3.1-4.2 2.6c-1.8-.4-2.9-2.2-2.6-4.1"/><path clip-path="url(#a)" d="m165.5 129.5c-.5 2.1.8 3.9 2.6 4.4s3.9-.5 4.4-2.3c.5-2.1-.5-3.9-2.6-4.4-1.8-.6-3.8.5-4.4 2.3"/><path clip-path="url(#a)" d="m181.1 142.2c-.3-.5-.3-1.3 0-1.8.3-1 .8-2.1 1.6-2.6h-.5c-2.3-.5-3.6-2.6-3.4-4.7.3-1.3 1-2.1 1.8-2.9-.3.3-.8.3-1 0-2.1-.3-3.6-2.1-3.4-4.2.5-2.1 2.3-3.6 4.4-3.4 2.1.3 3.6 2.3 3.1 4.4 0 1-.8 2.1-1.6 2.6h1.3c2.3.5 3.6 2.6 3.4 4.7-.3 1-.8 2.1-1.6 2.6h.8c2.3.5 3.9 2.9 3.4 4.9 0 .3 0 .3-.3.3h-8z"/><path clip-path="url(#a)" d="m102.8 47.3c-.3-.3 0-.3 0-.3.3 0 .3 0 .3.3.3 0 0 .3 0 .3-.3-.1-.3-.3-.3-.3"/><path clip-path="url(#a)" d="m108 49.9c0-.3 0-.5.3-.5s.5.3.5.3c0 .3 0 .5-.3.8-.3-.1-.5-.4-.5-.6"/><path clip-path="url(#a)" d="m113.1 52.7c0-.3.3-.8.5-.8.3 0 .8.3.8.5 0 .5-.3.8-.5.8-.5 0-.8 0-.8-.5"/><path clip-path="url(#a)" d="m118.3 55.8c-.3-.5.3-1 .5-1 .5 0 1 .3 1 .8.3.5-.3 1-.5 1-.4 0-1-.3-1-.8"/><path clip-path="url(#a)" d="m123.3 59.2c0-.5.3-1.3 1-1.3.5 0 1 .3 1 1 .3.5-.3 1-.8 1-.5.3-1.2-.2-1.2-.7"/><path clip-path="url(#a)" d="m128.2 62.8c0-.8.5-1.6 1.3-1.6.5 0 1.3.5 1.3 1 .3.8-.3 1.6-1 1.6-.8.1-1.4-.5-1.6-1"/><path clip-path="url(#a)" d="m133.1 66.5c0-.8.5-1.6 1.3-1.6s1.6.5 1.8 1.3c0 .8-.5 1.6-1.6 1.8-.7 0-1.5-.5-1.5-1.5"/><path clip-path="url(#a)" d="m137.8 70.6c0-.8.8-1.8 1.6-1.8 1 0 1.8.5 2.1 1.5 0 1-.8 1.8-1.6 1.8-1.1.3-1.9-.5-2.1-1.5"/><path clip-path="url(#a)" d="m142.5 75c0-1 .8-2.1 1.8-2.1s2.1.8 2.1 1.8-.8 2.1-1.8 2.1c-1.1 0-1.9-.7-2.1-1.8"/><path clip-path="url(#a)" d="m147.1 79.7c-.3-1.3.8-2.3 2.1-2.3 1 0 2.1.8 2.1 2.1 0 1-.8 2.1-2.1 2.3-1 0-2.1-1.1-2.1-2.1"/><path clip-path="url(#a)" d="m151.3 84.4c0-1.3 1-2.3 2.3-2.3s2.3 1 2.3 2.3c.3 1.3-.8 2.3-2.1 2.3-1.2 0-2.5-1-2.5-2.3"/><path clip-path="url(#a)" d="m155.4 89.5c.3-1.3 1.3-2.6 2.6-2.6 1.6 0 2.6 1.3 2.6 2.6 0 1.6-1 2.6-2.6 2.6-1.3 0-2.6-1.3-2.6-2.6"/><path clip-path="url(#a)" d="m159.6 95c0-1.6 1.3-2.9 2.9-2.6 1.6 0 2.6 1.3 2.6 2.6 0 1.6-1.3 2.9-2.9 2.9-1.6-.1-2.6-1.4-2.6-2.9"/><path clip-path="url(#a)" d="m163.5 100.7c-.3 1.6 1 2.9 2.6 3.1 1.8 0 3.1-1.3 3.1-2.9.3-1.6-1-3.1-2.6-3.1-1.8-.2-3.1 1.1-3.1 2.9"/><path clip-path="url(#a)" d="m166.8 106.7c.3-1.8 1.8-3.1 3.6-3.1 1.6.3 2.9 1.8 2.9 3.4-.3 1.8-1.8 3.1-3.4 3.1-1.8-.3-3.1-1.9-3.1-3.4"/><path clip-path="url(#a)" d="m170.2 112.6c0 2.1 1.3 3.6 3.1 3.9s3.6-1.3 3.6-3.1c.3-1.8-1-3.4-2.9-3.6-1.7-.3-3.5 1-3.8 2.8"/><path clip-path="url(#a)" d="m173.3 119.1c-.3 2.1 1.3 3.9 3.1 4.1 2.1.3 3.9-1 4.1-3.1.3-2.1-1-3.9-3.1-4.1-2-.3-3.8 1.3-4.1 3.1"/><path clip-path="url(#a)" d="m100.2 45.7.3-.3c.3 0 .3 0 .3.3v.3c-.4 0-.4 0-.6-.3"/><path clip-path="url(#a)" d="m105.9 47.8c0-.3 0-.5.3-.5.3-.3.5 0 .5.3.3.3 0 .5-.3.5-.3-.1-.5-.1-.5-.3"/><path clip-path="url(#a)" d="m111.3 49.9c0-.3.3-.8.5-.8.3-.3.8 0 .8.5.3.3 0 .5-.5.8-.3 0-.5-.3-.8-.5"/><path clip-path="url(#a)" d="m116.8 52.2c0-.3.3-.8.8-1 .3 0 .8.3 1 .5 0 .5-.3 1-.5 1.3-.5 0-1.1-.3-1.3-.8"/><path clip-path="url(#a)" d="m122.2 55c0-.8.3-1.3.8-1.6.8 0 1.3.3 1.3.8.3.8 0 1.3-.5 1.3-.8.3-1.3.1-1.6-.5"/><path clip-path="url(#a)" d="m127.7 57.9c-.3-.8.3-1.6 1-1.6.5-.3 1.3.3 1.6.8.3.8-.3 1.6-1 1.6-.6.2-1.4-.3-1.6-.8"/><path clip-path="url(#a)" d="m133.1 61c-.3-.8.3-1.6 1-1.8.8-.3 1.6.3 1.8 1 .3.8-.3 1.6-1 1.8-.7.3-1.8-.2-1.8-1"/><path clip-path="url(#a)" d="m138.3 64.4c-.3-.8.3-1.8 1.3-2.1s1.8.5 2.1 1.3c.3 1-.5 1.8-1.3 2.1-1.1.2-1.8-.3-2.1-1.3"/><path clip-path="url(#a)" d="m143.5 68c-.3-1 .5-2.1 1.6-2.1 1-.3 2.1.3 2.1 1.6.3 1-.3 1.8-1.3 2.1-1.1.2-2.2-.5-2.4-1.6"/><path clip-path="url(#a)" d="m148.4 72.2c0-1.3.8-2.3 1.8-2.6 1.3-.3 2.3.5 2.6 1.8 0 1-.8 2.3-1.8 2.3-1.3.3-2.3-.5-2.6-1.5"/><path clip-path="url(#a)" d="m153.3 76.3c0-1.3.8-2.6 2.1-2.6 1.3-.3 2.6.5 2.6 1.8.3 1.3-.5 2.6-1.8 2.9-1.3 0-2.6-.8-2.9-2.1"/><path clip-path="url(#a)" d="m158.3 80.7c.3 1.6 1.6 2.6 2.9 2.3s2.3-1.6 2.1-2.9c0-1.3-1.3-2.3-2.8-2.3-1.5.3-2.5 1.6-2.2 2.9"/><path clip-path="url(#a)" d="m162.9 85.7c-.3-1.6 1-2.9 2.3-3.1 1.6 0 3.1 1 3.1 2.6.3 1.6-1 2.9-2.3 3.1-1.5-.1-2.8-1.1-3.1-2.6"/><path clip-path="url(#a)" d="m167.4 90.8c.3 1.6 1.6 2.9 3.4 2.6 1.6 0 2.9-1.6 2.6-3.1 0-1.6-1.6-2.9-3.1-2.9-1.7.3-2.9 1.6-2.9 3.4"/><path clip-path="url(#a)" d="m171.8 96.3c0-1.8 1.3-3.4 3.1-3.4 1.6-.3 3.1 1.3 3.4 2.9 0 1.8-1.3 3.4-3.1 3.4-1.9.2-3.4-1.4-3.4-2.9"/><path clip-path="url(#a)" d="m175.9 102c0 1.8 1.6 3.4 3.4 3.1 2.1 0 3.4-1.6 3.4-3.4s-1.6-3.4-3.4-3.4c-1.8.1-3.4 1.6-3.4 3.7"/><path clip-path="url(#a)" d="m92.1 43.6v.3z"/><path clip-path="url(#a)" d="m97.8 44.7c-.3 0 0-.3 0-.3h.3c.3.3 0 .3 0 .5-.3 0-.3 0-.3-.2"/><path clip-path="url(#a)" d="m103.5 46c-.3-.3 0-.5.3-.8.3 0 .5 0 .5.3.3.3 0 .5-.3.5-.2.2-.5 0-.5 0"/><path clip-path="url(#a)" d="m109.3 47.3c0-.3 0-.8.3-.8.5-.3.8 0 1 .3 0 .3 0 .8-.3.8-.5.2-.8-.1-1-.3"/><path clip-path="url(#a)" d="m115 48.8c0-.3 0-.8.5-1 .5-.3 1 0 1.3.5 0 .3 0 .8-.5 1-.6.3-1.1 0-1.3-.5"/><path clip-path="url(#a)" d="m120.7 50.9c0-.5.3-1.3.8-1.6s1 0 1.3.8c.3.5 0 1-.5 1.3-.6.3-1.4 0-1.6-.5"/><path clip-path="url(#a)" d="m126.6 53c-.3-.5 0-1.3.5-1.6.8-.3 1.6 0 1.8.5.3.8 0 1.6-.8 1.8-.4.3-1.2 0-1.5-.7"/><path clip-path="url(#a)" d="m132.1 55.6c-.3-.8.3-1.8 1-2.1.8-.3 1.6 0 1.8.8.5.8 0 1.8-.8 2.1-.7.2-1.5-.1-2-.8"/><path clip-path="url(#a)" d="m137.8 58.2c-.3-.8.3-1.8 1-2.1 1-.5 2.1 0 2.3 1 .3.8-.3 1.8-1 2.1-1 .3-1.8-.3-2.3-1"/><path clip-path="url(#a)" d="m143.5 61.3c-.3-1 .3-2.3 1.3-2.6.8-.3 2.1.3 2.3 1.3.3 1-.3 2.1-1.3 2.3-1 .5-2.1-.3-2.3-1"/><path clip-path="url(#a)" d="m148.9 64.4c-.3-1 .3-2.3 1.6-2.6 1-.3 2.3.3 2.6 1.3.3 1.3-.3 2.3-1.3 2.9-1.3.2-2.3-.3-2.9-1.6"/><path clip-path="url(#a)" d="m154.4 68c-.3-1.3.5-2.6 1.6-2.9 1.3-.5 2.6.3 3.1 1.6.3 1.3-.5 2.6-1.8 2.9-1.1.5-2.4-.3-2.9-1.6"/><path clip-path="url(#a)" d="m159.8 71.9c-.3-1.3.5-2.9 1.8-3.1 1.3-.5 2.9.5 3.1 1.8.3 1.3-.5 2.9-1.8 3.1-1.3.3-2.8-.5-3.1-1.8"/><path clip-path="url(#a)" d="m165 76.1c.5 1.6 1.8 2.3 3.4 2.1 1.6-.5 2.3-1.8 2.1-3.4-.3-1.6-1.8-2.3-3.4-2.1s-2.3 1.8-2.1 3.4"/><path clip-path="url(#a)" d="m170.2 80.5c-.3-1.6.8-3.1 2.3-3.4 1.6-.5 3.1.5 3.4 2.1.5 1.8-.5 3.4-2.1 3.6-1.8.3-3.3-.8-3.6-2.3"/><path clip-path="url(#a)" d="m175.1 85.4c.5 1.6 2.1 2.9 3.9 2.6 1.6-.5 2.8-2.1 2.3-3.9-.3-1.6-1.8-2.9-3.6-2.6-1.8.5-2.8 2.1-2.6 3.9"/><path clip-path="url(#a)" d="m95 43.9s0-.3.3-.3c0-.3.3 0 .3 0v.3c-.4.2-.4.2-.6 0"/><path clip-path="url(#a)" d="m100.9 44.4c0-.3 0-.5.3-.8 0 0 .5 0 .5.3.3.3 0 .5 0 .5-.2.3-.5 0-.8 0"/><path clip-path="url(#a)" d="m106.9 44.9c-.3-.3-.3-.8.3-.8.3-.3.5-.3.8 0 .3.5.3.8-.3 1-.3.4-.5.1-.8-.2"/><path clip-path="url(#a)" d="m112.9 46c-.3-.5-.3-1 .3-1.3.3-.3.8-.3 1 .3.3.5.3 1-.3 1.3-.2.2-.8-.1-1-.3"/><path clip-path="url(#a)" d="m118.9 47c-.5-.5-.3-1.3.3-1.6.5-.3 1.3 0 1.6.5s0 1-.5 1.3c-.7.6-1.2.3-1.4-.2"/><path clip-path="url(#a)" d="m124.8 48.3c-.5-.5-.3-1.3.3-1.6.8-.5 1.6-.3 1.8.5.5.5.3 1.3-.5 1.6-.6.5-1.3.3-1.6-.5"/><path clip-path="url(#a)" d="m130.8 50.1c-.5-.8-.3-1.6.5-2.1s1.6 0 2.1.5c.3.8 0 1.8-.8 2.1-.5.6-1.6.3-1.8-.5"/><path clip-path="url(#a)" d="m136.7 51.9c-.5-.8-.3-1.8.5-2.3 1-.3 2.1 0 2.3.8.5 1 .3 2.1-.8 2.3-.7.5-1.7.3-2-.8"/><path clip-path="url(#a)" d="m142.5 54.3c-.3-1 0-2.1 1-2.6s2.1 0 2.6.8c.5 1 0 2.3-1 2.6-.8.5-2.1.2-2.6-.8"/><path clip-path="url(#a)" d="m148.4 56.9c-.5-1 0-2.3 1-2.9 1-.5 2.3 0 2.8 1s0 2.3-1 2.9c-1 .5-2.3 0-2.8-1"/><path clip-path="url(#a)" d="m154.4 59.7c-.5-1.3 0-2.6 1.3-3.1 1-.5 2.3 0 2.9 1 .5 1.3 0 2.6-1 3.1-1.4.6-2.7.1-3.2-1"/><path clip-path="url(#a)" d="m160.1 62.8c-.5-1.3.3-2.9 1.6-3.4s2.9 0 3.4 1.3-.3 2.9-1.6 3.4-2.9 0-3.4-1.3"/><path clip-path="url(#a)" d="m166.1 66.2c.5 1.3 2.1 2.1 3.4 1.6 1.6-.5 2.3-2.1 1.6-3.6-.5-1.3-2.1-2.1-3.4-1.6-1.6.5-2.4 2-1.6 3.6"/><path clip-path="url(#a)" d="m171.5 70.1c-.5-1.6.3-3.4 1.8-3.9 1.6-.5 3.4.3 3.9 1.8.5 1.6-.3 3.1-1.8 3.9-1.6.5-3.1-.5-3.9-1.8"/><path clip-path="url(#a)" d="m177.2 74c.5 1.8 2.3 2.6 3.9 2.1 1.8-.5 2.6-2.3 2.1-3.9-.5-1.8-2.3-2.6-3.9-2.1-1.8.5-2.6 2.3-2.1 3.9"/><path clip-path="url(#a)" d="m92.4 43.4v-.3h.3c.3.3.3.3 0 .5 0 0-.3 0-.3-.2"/><path clip-path="url(#a)" d="m98.4 43.1c-.3-.3-.3-.5 0-.5.3-.3.5-.3.5 0 .3 0 .3.5 0 .5-.3.3-.5.3-.5 0"/><path clip-path="url(#a)" d="m104.1 43.1c0-.5 0-.8.3-1 .3-.3.8-.3.8 0 .3.3.3.8 0 1-.4.3-.9.3-1.1 0"/><path clip-path="url(#a)" d="m110.3 43.1c-.5-.3-.3-1 0-1.3.5-.3 1-.3 1.3.3.3.3.3.8-.3 1-.2.5-.8.3-1 0"/><path clip-path="url(#a)" d="m116.3 43.4c-.5-.3-.3-1 .3-1.6.3-.3 1-.3 1.3.3.5.5.5 1.3 0 1.5-.6.5-1.4.3-1.6-.2"/><path clip-path="url(#a)" d="m122.2 44.1c-.3-.5-.3-1.6.3-1.8.8-.5 1.6-.5 1.8.3.5.5.5 1.3-.3 1.8-.5.3-1.3.3-1.8-.3"/><path clip-path="url(#a)" d="m128.4 44.9c-.5-.5-.3-1.6.3-2.1.8-.5 1.8-.3 2.1.3.5.8.5 1.8-.3 2.1-.8.5-1.5.5-2.1-.3"/><path clip-path="url(#a)" d="m134.7 46.2c-.5-.8-.5-2.1.3-2.6s2.1-.3 2.6.5.3 1.8-.5 2.3c-.9.6-1.9.6-2.4-.2"/><path clip-path="url(#a)" d="m140.9 47.5c-.8-.8-.5-2.1.5-2.6.8-.5 2.1-.5 2.6.5.5.8.3 2.1-.5 2.6-1 .6-2.1.6-2.6-.5"/><path clip-path="url(#a)" d="m146.9 49.3c-.5-1-.3-2.3.8-3.1 1-.5 2.3-.3 2.9.8.8 1 .5 2.3-.5 2.9-1.2.7-2.5.5-3.2-.6"/><path clip-path="url(#a)" d="m153.1 51.4c-.5-1.3-.3-2.6.8-3.4 1.3-.5 2.6-.3 3.4.8.5 1.3.3 2.6-.8 3.4-1.3.5-2.6.3-3.4-.8"/><path clip-path="url(#a)" d="m159.3 53.7c-.8-1.3-.3-2.9 1-3.6 1.3-.5 2.8-.3 3.4 1 .8 1.3.3 2.9-.8 3.4-1.3.8-2.8.3-3.6-.8"/><path clip-path="url(#a)" d="m165.5 56.3c-.8-1.3-.3-3.1 1-3.9 1.3-.5 3.1 0 3.9 1.3.5 1.3 0 2.9-1.3 3.6-1.2.9-2.8.3-3.6-1"/><path clip-path="url(#a)" d="m171.8 59.5c.5 1.3 2.3 1.8 3.9 1.3 1.6-.8 2.1-2.6 1.3-4.2s-2.6-2.1-3.9-1.3c-1.6.8-2.1 2.6-1.3 4.2"/><path clip-path="url(#a)" d="m177.7 62.6c-.8-1.6 0-3.4 1.6-4.2s3.4 0 4.1 1.6c.8 1.6 0 3.4-1.6 4.1-1.5.8-3.3 0-4.1-1.5"/><path clip-path="url(#a)" d="m89.8 43.4v-.3c.3-.3.3-.3.5 0v.3z"/><path clip-path="url(#a)" d="m95.5 42.3c-.3-.3-.3-.5-.3-.8h.8c.3.3.3.5 0 .8z"/><path clip-path="url(#a)" d="m101.2 41.3c-.3-.3-.3-.5 0-.8s.8-.3 1 0c.3.3.3.5 0 .8-.2.3-.7.3-1 0"/><path clip-path="url(#a)" d="m107.2 40.8c-.3-.5-.3-1 0-1.3s.8-.3 1.3 0c.3.3.3.8 0 1.3-.3.2-1.1.2-1.3 0"/><path clip-path="url(#a)" d="m113.1 40.3c-.3-.5-.3-1 0-1.6.5-.5 1.3-.5 1.6 0 .5.5.5 1 0 1.6-.3.5-1 .5-1.6 0"/><path clip-path="url(#a)" d="m119.4 40c-.5-.5-.5-1.3 0-1.8s1.3-.5 1.8 0 .5 1.6 0 1.8c-.5.5-1.3.5-1.8 0"/><path clip-path="url(#a)" d="m125.6 40.3c-.5-.8-.5-1.6 0-2.3.5-.5 1.6-.5 2.1.3.8.5.5 1.6 0 2.1-.6.4-1.6.4-2.1-.1"/><path clip-path="url(#a)" d="m131.8 40.5c-.5-.8-.5-1.8 0-2.3.8-.8 1.8-.8 2.6 0 .5.8.5 1.8-.3 2.3-.5.8-1.8.8-2.3 0"/><path clip-path="url(#a)" d="m138 41c-.5-.8-.5-1.8.3-2.6s2.1-.5 2.9.3c.5.8.5 1.8-.3 2.6s-2.1.5-2.9-.3"/><path clip-path="url(#a)" d="m144.5 42.1c-.8-1-.8-2.3.3-3.1.8-.8 2.3-.5 3.1.3.5 1 .5 2.3-.5 3.1-.8.7-2.1.5-2.9-.3"/><path clip-path="url(#a)" d="m151 43.1c-1-.8-.8-2.3.3-3.1 1-.8 2.6-.8 3.4.3.8 1 .5 2.6-.5 3.4-1.1.7-2.4.5-3.2-.6"/><path clip-path="url(#a)" d="m157.2 44.7c-.8-1-.5-2.6.5-3.4 1.3-1 2.8-.8 3.6.3.8 1.3.8 2.9-.5 3.6-1 1-2.5.8-3.6-.5"/><path clip-path="url(#a)" d="m163.7 46.5c-.8-1-.5-2.9.8-3.6 1-1 2.9-.8 3.9.5.8 1.3.5 2.9-.8 3.9-1.3.7-2.8.5-3.9-.8"/><path clip-path="url(#a)" d="m170.2 48.8c-.8-1.3-.5-3.4.8-4.1 1.3-1 3.4-.5 4.2.8 1 1.3.5 3.1-.8 4.1-1.3.8-3.2.5-4.2-.8"/><path clip-path="url(#a)" d="m176.7 51.4c1 1.3 2.9 1.8 4.4.8 1.6-1 1.8-2.9 1-4.4-1-1.6-3.1-1.8-4.4-.8-1.5.8-2.1 2.9-1 4.4"/><path clip-path="url(#a)" d="m87.2 43.6c-.3 0-.3-.3-.3-.3.3-.3.3-.3.5 0v.3c.1 0-.2.3-.2 0"/><path clip-path="url(#a)" d="m92.4 41.8c-.3-.3-.3-.5 0-.5 0-.3.3-.3.5-.3.3.3.3.5.3.8-.3 0-.5.3-.8 0"/><path clip-path="url(#a)" d="m98.1 40.3c-.3-.3-.3-.8 0-1 0-.3.5-.3.8-.3.3.3.5.8.3 1-.3.3-.8.3-1.1.3"/><path clip-path="url(#a)" d="m104.1 38.7c-.5-.3-.5-.8-.3-1.3.3-.3.8-.3 1.3 0 .3.3.3.8 0 1-.3.6-.8.6-1 .3"/><path clip-path="url(#a)" d="m109.8 37.4c-.3-.3-.5-1 0-1.3.3-.5 1-.8 1.6-.3.3.3.5 1 0 1.6-.3.3-1.1.5-1.6 0"/><path clip-path="url(#a)" d="m116 36.6c-.5-.5-.8-1.3-.3-1.8.5-.8 1.3-.8 1.8-.3.5.3.5 1.3.3 1.8-.5.6-1.3.6-1.8.3"/><path clip-path="url(#a)" d="m122 35.9c-.5-.5-.5-1.6 0-2.1.5-.8 1.3-.8 2.1-.3.5.5.8 1.3.3 2.1-.6.5-1.7.8-2.4.3"/><path clip-path="url(#a)" d="m128.4 35.3c-.8-.5-1-1.8-.3-2.3.5-.8 1.6-1 2.3-.3.8.5.8 1.6.3 2.3-.4.9-1.7.9-2.3.3"/><path clip-path="url(#a)" d="m134.7 35.1c-.8-.8-.8-1.8-.3-2.6.8-.8 2.1-1 2.9-.3.8.8.8 1.8 0 2.6-.6 1.1-1.8 1.1-2.6.3"/><path clip-path="url(#a)" d="m141.2 35.1c-1-.8-1-2.1-.3-2.9.8-1 2.3-1 3.1-.3.8.8 1 2.3 0 3.1-.8.9-2.1.9-2.8.1"/><path clip-path="url(#a)" d="m147.6 35.6c-1-1-1-2.3 0-3.4.8-1 2.3-1 3.1 0 1 .8 1 2.3.3 3.4-1 .8-2.6.8-3.4 0"/><path clip-path="url(#a)" d="m154.1 36.1c-1-1-1-2.6 0-3.6 1-.8 2.6-.8 3.6 0 1 1 1 2.9 0 3.6-1 1-2.5 1-3.6 0"/><path clip-path="url(#a)" d="m160.9 37.1c-1-1-1-2.9 0-3.9 1.3-1 2.9-1 3.9.3 1 1 1 2.9 0 3.9-1.1 1-2.9.8-3.9-.3"/><path clip-path="url(#a)" d="m167.6 38.4c-1.3-1.3-1-3.1.3-4.1 1-1 3.1-1 4.2.3 1 1.3 1 3.1-.3 4.1s-3.2 1-4.2-.3"/><path clip-path="url(#a)" d="m174.4 40.3c-1.3-1.6-1-3.4.3-4.7 1.3-1 3.4-1 4.4.5 1.3 1.3 1 3.4-.3 4.4-1.3 1.1-3.4 1.1-4.4-.2"/><path clip-path="url(#a)" d="m84.4 44.4v-.5h.3c.3 0 .3.3.3.3-.4.2-.4.2-.6.2"/><path clip-path="url(#a)" d="m89.8 41.8c-.3-.3-.3-.5-.3-.8 0 0 .3-.3.5 0 .3 0 .5.3.3.5 0 .3-.2.3-.5.3"/><path clip-path="url(#a)" d="m95 39.5c-.5-.3-.5-.8-.3-1 0-.3.5-.5.8-.3.3.3.5.5.3 1-.3.3-.6.3-.8.3"/><path clip-path="url(#a)" d="m100.4 37.1c-.3-.3-.5-.8-.3-1 .3-.5.8-.8 1-.5.5.3.8.8.5 1.3-.1.2-.7.5-1.2.2"/><path clip-path="url(#a)" d="m106.1 35.3c-.5-.5-.5-1-.3-1.6.3-.5.8-.8 1.3-.5s.8 1 .5 1.6c-.2.5-.9.8-1.5.5"/><path clip-path="url(#a)" d="m112.1 33.5c-.8-.5-.8-1.3-.5-1.8.3-.8 1.3-.8 1.8-.5.5.5.8 1.3.5 1.8-.5.5-1.3.8-1.8.5"/><path clip-path="url(#a)" d="m118.1 32c-.8-.5-1-1.3-.5-2.1s1.3-1 2.1-.5 1 1.3.5 2.1c-.6.7-1.3 1-2.1.5"/><path clip-path="url(#a)" d="m124.3 30.7c-.8-.5-1-1.6-.5-2.3.5-.8 1.6-1 2.3-.5.8.5 1 1.6.5 2.3s-1.5 1-2.3.5"/><path clip-path="url(#a)" d="m130.5 29.6c-1-.5-1.3-1.8-.5-2.6.5-1 1.8-1.3 2.6-.5.8.5 1 1.6.5 2.6-.5.8-1.8 1-2.6.5"/><path clip-path="url(#a)" d="m136.7 28.8c-.8-.8-1-2.1-.5-3.1.8-.8 2.1-1 3.1-.5 1 .8 1 2.1.5 3.1-.7 1.1-2 1.1-3.1.5"/><path clip-path="url(#a)" d="m143.2 28.3c-1-.8-1-2.3-.3-3.4.5-1 2.1-1.3 3.1-.5s1.3 2.3.5 3.4c-.7 1-2.2 1.3-3.3.5"/><path clip-path="url(#a)" d="m150 28.1c-1-.8-1.3-2.3-.5-3.6.8-1 2.6-1.3 3.6-.3 1 .8 1.3 2.3.5 3.4-1 1.2-2.6 1.5-3.6.5"/><path clip-path="url(#a)" d="m156.7 28.3c-1.3-1-1.3-2.9-.5-3.9 1-1.3 2.9-1.6 3.9-.5 1.3 1 1.3 2.9.5 3.9-1 1.3-2.8 1.3-3.9.5"/><path clip-path="url(#a)" d="m163.5 28.6c-1.3-1-1.3-2.9-.3-4.1 1-1.3 2.9-1.3 4.2-.3s1.3 2.9.3 4.1c-1.1 1.3-2.9 1.3-4.2.3"/><path clip-path="url(#a)" d="m170.5 29.4c-1.3-1-1.6-3.1-.3-4.4 1-1.3 3.1-1.6 4.4-.3 1.3 1 1.3 3.1.3 4.4-1.3 1.3-3.1 1.6-4.4.3"/><path clip-path="url(#a)" d="m177.2 30.4c1.6 1.3 3.6 1.3 4.9 0s1.3-3.6-.3-4.9c-1.3-1-3.4-1-4.7.3-1.2 1.2-1.2 3.6.1 4.6"/><path clip-path="url(#a)" d="m81.8 45.5v-.5h.2c.3 0 .3 0 .3.3-.3.2-.3.2-.5.2"/><path clip-path="url(#a)" d="m86.7 42.1c-.3 0-.3-.3-.3-.5.3-.3.5-.5.8-.3 0 0 .3.3.3.5-.3.3-.6.3-.8.3"/><path clip-path="url(#a)" d="m91.6 39c-.3 0-.5-.5-.5-.8.3-.3.5-.5 1-.5.3.3.5.5.3 1 0 .3-.5.5-.8.3"/><path clip-path="url(#a)" d="m96.8 36.1c-.5-.3-.8-.8-.5-1 .3-.5.8-.8 1.3-.5.3 0 .5.5.3 1-.1.5-.6.8-1.1.5"/><path clip-path="url(#a)" d="m102.2 33.5c-.5-.3-.8-1-.5-1.6.3-.5.8-.8 1.3-.5s.8.8.5 1.3c0 .6-.7.8-1.3.8"/><path clip-path="url(#a)" d="m107.7 30.9c-.5-.3-.8-1-.5-1.8.3-.5 1-.8 1.6-.5.8.3 1 1 .8 1.6-.3.7-1.1 1-1.9.7"/><path clip-path="url(#a)" d="m113.7 28.6c-.8-.3-1.3-1.3-.8-2.1.3-.8 1-1 1.8-.8.8.5 1.3 1.3.8 2.1-.3.8-1.1 1-1.8.8"/><path clip-path="url(#a)" d="m119.4 26.5c-.8-.5-1-1.6-.8-2.3.5-.8 1.6-1.3 2.3-.8.8.5 1.3 1.6.8 2.3-.3.8-1.3 1.3-2.3.8"/><path clip-path="url(#a)" d="m125.6 24.7c-1-.5-1.3-1.6-.8-2.6.3-1 1.6-1.3 2.3-.8 1 .3 1.6 1.6 1 2.6-.4.8-1.7 1.3-2.5.8"/><path clip-path="url(#a)" d="m131.8 23.1c-1-.5-1.6-1.8-1-2.9.8-1 2.1-1.5 3.1-1s1.3 1.8.8 2.9c-.5 1-1.8 1.6-2.9 1"/><path clip-path="url(#a)" d="m138 21.8c-1-.8-1.3-2.1-.8-3.4.5-1 2.1-1.6 3.1-.8 1.3.5 1.5 2.1 1 3.1-.7 1.1-2 1.7-3.3 1.1"/><path clip-path="url(#a)" d="m144.8 20.5c-1.3-.5-1.8-2.1-1-3.4s2.3-1.6 3.6-1c1 .8 1.6 2.3.8 3.6-.8 1.4-2.4 1.6-3.4.8"/><path clip-path="url(#a)" d="m151.3 19.8c-1.3-.8-1.6-2.3-.8-3.6s2.6-1.8 3.9-1 1.6 2.6.8 3.9c-.8 1.2-2.6 1.7-3.9.7"/><path clip-path="url(#a)" d="m158.3 19.5c-1.6-1-1.8-2.9-1-4.1 1-1.3 2.9-1.8 4.1-1 1.3 1 1.8 2.9.8 4.1-.8 1.5-2.6 1.8-3.9 1"/><path clip-path="url(#a)" d="m165 19.3c-1.3-1-1.8-2.9-.8-4.4 1-1.6 3.1-1.8 4.4-.8 1.6 1 1.8 2.9.8 4.4-.8 1.5-2.8 1.8-4.4.8"/><path clip-path="url(#a)" d="m172 19.5c1.6 1 3.9.8 4.9-.8s.8-3.6-.8-4.7c-1.6-1.3-3.6-.8-4.7.8-1.2 1.3-.7 3.7.6 4.7"/><path clip-path="url(#a)" d="m179.3 20c1.6 1.3 3.9.8 5.2-.8 1-1.6.8-3.6-.8-4.9s-3.9-1-4.9.8c-1.3 1.6-1.1 3.6.5 4.9"/><path clip-path="url(#a)" d="m202.9 11c-.8-.5-1.6-1.6-1.8-2.3-1.3 2.1-3.9 2.6-6 1.3-.8-.8-1.6-1.6-1.6-2.6-.3.3-.3.5-.5.5-1 1.8-3.6 2.6-5.4 1.3-1-.8-1.6-1.6-1.8-2.6 0 .3-.3.5-.5 1-1 1.8-3.4 2.3-5.2 1.3-1.8-1.3-2.3-3.6-1.3-5.4s3.4-2.3 5.2-1.3c1 .8 1.6 1.6 1.8 2.6.3-.3.3-.8.5-1.3 1.3-1.8 3.6-2.3 5.7-1 .8.5 1.3 1.3 1.6 2.3.3-.3.3-.5.5-.8 1.3-1.8 3.9-2.3 6-1 .8.5 1.3 1.3 1.6 2.3 0-.3.3-.3.3-.5 1.3-1.6 3.4-2.3 5.2-1.6v8.3c-1.5.5-3 .5-4.3-.5"/><path clip-path="url(#a)" d="m79.4 46.7c-.3 0-.3-.3-.3-.5h.3c.3 0 .3 0 .3.3 0 0 0 .2-.3.2"/><path clip-path="url(#a)" d="m83.8 42.9c-.3 0-.3-.3-.3-.5 0-.3.3-.5.5-.5.3.3.3.3.3.5.1.2-.2.5-.5.5"/><path clip-path="url(#a)" d="m88.5 39c-.3 0-.5-.3-.5-.8 0-.3.5-.5.8-.5.5.3.5.5.5 1 0 .3-.5.5-.8.3"/><path clip-path="url(#a)" d="m93.2 35.6c-.5-.3-.8-.8-.8-1 .3-.5.5-.8 1-.8.5.3.8.5.8 1-.3.5-.8.8-1 .8"/><path clip-path="url(#a)" d="m98.1 32.2c-.5-.3-1-.8-.8-1.3 0-.8.8-1 1.3-.8.5 0 1 .5.8 1.3-.3.6-.8.8-1.3.8"/><path clip-path="url(#a)" d="m103.3 28.8c-.8 0-1-.8-.8-1.6 0-.8.8-1 1.6-.8.5 0 1 .8.8 1.6-.3.6-.8 1.1-1.6.8"/><path clip-path="url(#a)" d="m108.7 26c-.8-.3-1.3-1.3-1-2.1s1-1.3 1.8-1 1.3 1.3 1 2.1c-.2.7-1 1-1.8 1"/><path clip-path="url(#a)" d="m114.2 23.1c-.8-.3-1.3-1.3-1-2.3.3-.8 1.3-1.3 2.1-1 1 .3 1.6 1.3 1.3 2.1-.3 1-1.4 1.5-2.4 1.2"/><path clip-path="url(#a)" d="m120.1 20.5c-1-.5-1.6-1.6-1.3-2.6s1.6-1.6 2.3-1.3c1 .5 1.6 1.6 1.3 2.6-.2 1.1-1.5 1.6-2.3 1.3"/><path clip-path="url(#a)" d="m126.1 18c-1.3-.3-1.8-1.6-1.3-2.6.3-1.3 1.6-1.8 2.6-1.3 1.3.3 1.8 1.6 1.3 2.6-.3 1.3-1.6 1.8-2.6 1.3"/><path clip-path="url(#a)" d="m132.1 15.9c-1-.5-1.8-1.8-1.3-3.1.5-1 1.8-1.8 3.1-1.3s1.8 1.8 1.3 3.1-1.8 1.8-3.1 1.3"/><path clip-path="url(#a)" d="m138.6 14.1c-1.3-.5-2.1-2.1-1.3-3.4.5-1.3 1.8-2.1 3.1-1.6 1.3.8 2.1 2.1 1.5 3.4-.5 1.3-2 2.1-3.3 1.6"/><path clip-path="url(#a)" d="m145 12.2c-1.6-.5-2.1-2.1-1.3-3.6.5-1.3 2.1-2.1 3.6-1.3 1.3.5 1.8 2.3 1.3 3.6-.4 1.3-2.3 2.1-3.6 1.3"/><path clip-path="url(#a)" d="m151.8 11c-1.6-.8-2.1-2.3-1.6-3.9.8-1.6 2.6-2.1 4.1-1.6 1.3.8 2.1 2.6 1.3 4.1-.7 1.4-2.5 2.1-3.8 1.4"/><path clip-path="url(#a)" d="m158.5 9.9c1.6.8 3.6.3 4.4-1.3s0-3.6-1.6-4.4-3.4 0-4.1 1.6c-.7 1.5-.2 3.3 1.3 4.1"/><path clip-path="url(#a)" d="m165.5 9.1c-1.6-.8-2.3-2.9-1.3-4.4.8-1.8 2.9-2.3 4.7-1.6 1.6 1 2.1 3.1 1.3 4.7-1 1.6-3.1 2.4-4.7 1.3"/><path clip-path="url(#a)" d="m172.8 8.9c1.6 1 3.9.3 4.9-1.3 1-1.8.3-4.2-1.3-4.9-1.8-1-4.1-.5-4.9 1.3-1 1.5-.5 3.8 1.3 4.9"/><path clip-path="url(#a)" d="m77.1 48.3s-.3-.3 0-.3c0-.3 0-.3.3-.3 0 0 .3.3 0 .3-.1.3-.1.3-.3.3"/><path clip-path="url(#a)" d="m81 43.9c-.3 0-.3-.3-.3-.5 0-.3.3-.5.5-.5.3 0 .3.3.3.5s-.3.5-.5.5"/><path clip-path="url(#a)" d="m85.1 39.5c-.3 0-.5-.3-.5-.5 0-.5.3-.8.8-.8.3 0 .5.5.5.8 0 .5-.3.7-.8.5"/><path clip-path="url(#a)" d="m89.5 35.3c-.5 0-.8-.3-.8-.8s.5-1 1-.8c.3 0 .8.5.8.8-.2.6-.4 1.1-1 .8"/><path clip-path="url(#a)" d="m93.7 31.4c-.5 0-1-.5-.8-1.3 0-.5.5-1 1-.8.8 0 1 .5 1 1 .1.9-.4 1.1-1.2 1.1"/><path clip-path="url(#a)" d="m98.6 27.5c-.8 0-1.3-.8-1.3-1.6.3-.5.8-1 1.6-1s1.3.8 1 1.6c0 .5-.8 1-1.3 1"/><path clip-path="url(#a)" d="m103.5 23.9c-.8-.3-1.6-1-1.3-1.8 0-.8.8-1.3 1.8-1.3.8.3 1.3 1 1 1.8.1.8-.7 1.3-1.5 1.3"/><path clip-path="url(#a)" d="m108.7 20.3c-1-.3-1.6-1-1.6-2.1.3-.8 1-1.6 2.1-1.3 1 .3 1.6 1 1.3 2.1 0 .8-1 1.5-1.8 1.3"/><path clip-path="url(#a)" d="m113.9 16.9c-1-.3-1.6-1.3-1.3-2.3 0-1 1-1.6 2.1-1.3 1 0 1.8 1 1.6 2.1-.3 1-1.3 1.8-2.4 1.5"/><path clip-path="url(#a)" d="m119.6 13.8c-1-.3-1.8-1.6-1.6-2.6.3-1 1.3-1.8 2.6-1.6 1 .3 1.8 1.3 1.6 2.6-.2 1.1-1.5 1.9-2.6 1.6"/><path clip-path="url(#a)" d="m125.3 11c-1-.5-1.8-1.8-1.6-2.9.3-1.3 1.6-2.1 2.8-1.8 1.3.3 2.1 1.6 1.6 2.9-.2 1.2-1.5 2-2.8 1.8"/><path clip-path="url(#a)" d="m131.6 8.1c-1.6-.3-2.3-1.8-1.8-3.1.3-1.3 1.8-2.1 3.1-1.8 1.3.5 2.1 1.8 1.8 3.1-.5 1.3-1.8 2.3-3.1 1.8"/><path clip-path="url(#a)" d="m137.8 5.8c-1.6-.5-2.3-2.1-1.8-3.6.3-1.3 1.8-2.3 3.4-1.8s2.3 2.1 1.8 3.4c-.6 1.4-2.1 2.2-3.4 2"/><path clip-path="url(#a)" d="m144.3 3.4c-1.6-.5-2.6-2.1-2.1-3.6.5-1.6 2.3-2.6 3.9-2.1s2.3 2.3 1.8 3.9-2.1 2.3-3.6 1.8"/><path clip-path="url(#a)" d="m75.3 50.1c-.3 0-.3 0-.3-.3 0 0 0-.3.3-.3l.3.3c-.1.3-.3.3-.3.3"/><path clip-path="url(#a)" d="m78.4 45.2c-.3.3-.3 0-.3-.3-.3-.3 0-.5.3-.5s.5.3.5.5c0 .3-.3.3-.5.3"/><path clip-path="url(#a)" d="m82 40.5c-.5 0-.8-.3-.8-.5 0-.5.3-.8.8-.8.3 0 .5.3.5.5 0 .6-.2.8-.5.8"/><path clip-path="url(#a)" d="m85.6 35.9c-.5 0-.8-.3-.8-.8s.3-1 .8-1 1 .5 1 .8c.1.4-.4 1-1 1"/><path clip-path="url(#a)" d="m89.8 31.2c-.8 0-1.3-.5-1.3-1s.5-1 1.3-1c.5 0 .8.5.8 1s-.3 1-.8 1"/><path clip-path="url(#a)" d="m93.7 26.8c-.8 0-1.3-.5-1.3-1.3s.5-1.3 1.3-1.3 1.3.5 1.3 1.3-.5 1.3-1.3 1.3"/><path clip-path="url(#a)" d="m98.1 22.4c-.8 0-1.6-.5-1.6-1.6 0-.8.8-1.3 1.6-1.3s1.6.8 1.6 1.6c0 .7-.8 1.5-1.6 1.3"/><path clip-path="url(#a)" d="m102.8 18.2c-1 0-1.8-.8-1.6-1.8 0-.8.8-1.6 1.6-1.6 1 0 1.8.8 1.8 1.8 0 1.1-1.1 1.6-1.8 1.6"/><path clip-path="url(#a)" d="m107.7 14.3c-1 0-1.8-1-1.8-2.1 0-1 1-1.8 2.1-1.8 1 0 1.8 1 1.8 2.1-.3 1-1.1 1.8-2.1 1.8"/><path clip-path="url(#a)" d="m112.9 10.4c-1.3-.3-2.1-1.3-2.1-2.3.3-1.3 1.3-2.1 2.3-1.8 1.3 0 2.1 1 2.1 2.1-.2 1.3-1.3 2-2.3 2"/><path clip-path="url(#a)" d="m118.1 6.8c-1.3-.3-2.1-1.3-2.1-2.6.3-1.3 1.3-2.3 2.6-2.1 1.3 0 2.3 1.3 2.1 2.6 0 1.3-1.3 2.1-2.6 2.1"/><path clip-path="url(#a)" d="m123.8 3.2c-1.3 0-2.3-1.3-2.1-2.9 0-1.3 1.3-2.3 2.8-2.1 1.3.3 2.3 1.6 2.1 2.9s-1.5 2.3-2.8 2.1"/><path clip-path="url(#a)" d="m73.5 52.5c-.3 0-.3-.3-.3-.3 0-.3 0-.3.3-.3h.3c-.1.3-.3.3-.3.6"/><path clip-path="url(#a)" d="m76 47c-.3 0-.5 0-.5-.3s.3-.5.3-.5c.3 0 .5 0 .8.3 0 .2-.3.5-.6.5"/><path clip-path="url(#a)" d="m78.9 41.8c-.3 0-.8-.3-.8-.5 0-.3.3-.8.5-.8.5 0 .8.3.8.5 0 .6 0 .8-.5.8"/><path clip-path="url(#a)" d="m82 36.6c-.5.3-1-.3-1-.5 0-.5.3-1 .8-1 .5-.3 1 .3 1 .8 0 .2-.3.7-.8.7"/><path clip-path="url(#a)" d="m85.4 31.7c-.5 0-1.3-.3-1.3-1 0-.5.3-1 1-1 .5-.3 1 .3 1 .8.3.4-.2 1.2-.7 1.2"/><path clip-path="url(#a)" d="m89 26.8c-.8 0-1.6-.5-1.6-1.3 0-.5.5-1.3 1-1.3.8-.3 1.6.3 1.6 1 .1.8-.5 1.3-1 1.6"/><path clip-path="url(#a)" d="m92.4 21.8c-.8 0-1.6-.5-1.6-1.3s.5-1.6 1.3-1.8c.8 0 1.6.5 1.8 1.5 0 .9-.5 1.6-1.5 1.6"/><path clip-path="url(#a)" d="m96.5 17.2c-.8 0-1.8-.8-1.8-1.6 0-1 .5-1.8 1.6-2.1 1 0 1.8.8 1.8 1.8.3.8-.5 1.6-1.6 1.9"/><path clip-path="url(#a)" d="m100.9 12.5c-1 0-2.1-.8-2.1-1.8s.8-2.1 1.8-2.1 2.1.8 2.1 1.8c.1 1.1-.7 2.1-1.8 2.1"/><path clip-path="url(#a)" d="m105.6 7.8c-1.3.3-2.3-.8-2.3-1.8 0-1.3.8-2.3 2.1-2.3 1 0 2.1.8 2.3 2.1 0 1-1 2-2.1 2"/><path clip-path="url(#a)" d="m110.3 3.7c-1.3 0-2.3-1-2.3-2.3 0-1.3 1-2.3 2.3-2.3s2.3 1 2.3 2.3c0 1-1 2.3-2.3 2.3"/><path clip-path="url(#a)" d="m71.9 54.8-.3-.3c0-.3 0-.3.3-.3h.3c0 .3 0 .3-.3.6"/><path clip-path="url(#a)" d="m74 49.1c-.3.3-.5 0-.5-.3-.3-.3 0-.5.3-.5s.5 0 .5.3c-.1.2-.1.5-.3.5"/><path clip-path="url(#a)" d="m76 43.6c-.3 0-.8 0-.8-.5-.3-.3 0-.8.5-.8.3 0 .5 0 .8.5.1.3-.2.6-.5.8"/><path clip-path="url(#a)" d="m78.4 38.2c-.3 0-.8-.3-1-.8 0-.3.3-.8.5-1 .5 0 1 .3 1.3.5 0 .5-.3 1-.8 1.3"/><path clip-path="url(#a)" d="m81.2 32.7c-.8 0-1.3-.3-1.6-.8 0-.5.3-1.3.8-1.3.8-.3 1.3 0 1.3.8.3.6.1 1.1-.5 1.3"/><path clip-path="url(#a)" d="m84.1 27.3c-.8.3-1.6-.3-1.6-1-.3-.5.3-1.3.8-1.6.8 0 1.6.3 1.6 1 .2.6-.3 1.3-.8 1.6"/><path clip-path="url(#a)" d="m87.2 21.8c-.8.3-1.6-.3-1.8-1-.3-.8.3-1.6 1-1.8.8-.3 1.6.3 1.8 1 .3 1.1-.2 1.8-1 1.8"/><path clip-path="url(#a)" d="m90.6 16.7c-.8.3-1.8-.3-2.1-1.3-.3-.8.5-1.8 1.3-2.1s1.6.5 1.8 1.3c.3 1-.2 1.8-1 2.1"/><path clip-path="url(#a)" d="m93.9 11.5c-1 .3-2.1-.5-2.1-1.6-.3-1 .3-2.1 1.6-2.1 1-.3 1.8.5 2.1 1.6.3 1-.5 1.8-1.6 2.1"/><path clip-path="url(#a)" d="m98.1 6.5c-1.3.3-2.3-.8-2.6-1.8s.5-2.3 1.8-2.3c1-.3 2.3.5 2.3 1.6.3 1.2-.5 2.3-1.5 2.5"/><path clip-path="url(#a)" d="m69.8 62.8h.3z"/><path clip-path="url(#a)" d="m70.9 57.1c0 .3-.3 0-.3 0v-.3c.3-.3.3 0 .5 0 0 .3 0 .3-.2.3"/><path clip-path="url(#a)" d="m72.2 51.4c-.3.3-.5 0-.8-.3 0-.3 0-.5.3-.5.3-.3.5 0 .5.3.2.3.2.5 0 .5"/><path clip-path="url(#a)" d="m73.5 45.7c-.3 0-.8 0-.8-.3-.3-.5 0-.8.3-1 .3 0 .8 0 .8.3.2.5-.1.8-.3 1"/><path clip-path="url(#a)" d="m75 40c-.3 0-.8 0-1-.5-.3-.5 0-1 .5-1.3.3 0 .8 0 1 .5.3.5 0 1-.5 1.3"/><path clip-path="url(#a)" d="m77.1 34.3c-.5 0-1.3-.3-1.6-.8s0-1 .8-1.3c.5-.3 1 0 1.3.5.3.6 0 1.3-.5 1.6"/><path clip-path="url(#a)" d="m79.2 28.3c-.5.3-1.3 0-1.6-.5-.3-.8 0-1.6.5-1.8.8-.3 1.6 0 1.8.8.3.5 0 1.3-.7 1.5"/><path clip-path="url(#a)" d="m81.8 22.6c-.8.5-1.8 0-2.1-.8s0-1.6.8-1.8c.8-.5 1.8 0 2.1.8.2.8-.1 1.6-.8 1.8"/><path clip-path="url(#a)" d="m84.4 17.2c-.8.3-1.8-.3-2.1-1-.5-1 0-2.1 1-2.3.8-.3 1.8.3 2.1 1 .2 1-.3 1.8-1 2.3"/><path clip-path="url(#a)" d="m87.5 11.5c-1 .3-2.3-.3-2.6-1.3-.3-.8.3-2.1 1.3-2.3 1-.3 2.1.3 2.3 1.3.5 1-.3 2-1 2.3"/><path clip-path="url(#a)" d="m90.6 6c-1 .3-2.3-.3-2.6-1.6-.3-1 .3-2.3 1.3-2.6 1.3-.3 2.1.3 2.6 1.3.2 1.4-.3 2.4-1.3 2.9"/><path clip-path="url(#a)" d="m70.1 60s-.3 0-.3-.3c-.3 0 0-.3 0-.3h.3c.2.3.2.3 0 .6"/><path clip-path="url(#a)" d="m70.6 54c-.3 0-.5 0-.8-.3 0 0 0-.5.3-.5.3-.3.5 0 .5 0 .3.3 0 .5 0 .8"/><path clip-path="url(#a)" d="m71.1 48c-.3.3-.8.3-.8-.3-.3-.3-.3-.5 0-.8.5-.3.8-.3 1 .3.3.3.1.6-.2.8"/><path clip-path="url(#a)" d="m72.2 42.1c-.5.3-1 .3-1.3-.3-.3-.3-.3-.8.3-1 .5-.3 1-.3 1.3.3.2.2-.1.7-.3 1"/><path clip-path="url(#a)" d="m73.2 36.1c-.5.5-1.3.3-1.6-.3-.3-.5 0-1.3.5-1.6s1 0 1.6.5c.3.6 0 1.2-.5 1.4"/><path clip-path="url(#a)" d="m74.5 30.1c-.5.5-1.3.3-1.6-.3-.5-.8-.3-1.6.5-1.8.5-.5 1.3-.3 1.6.5.5.6.3 1.4-.5 1.6"/><path clip-path="url(#a)" d="m76.3 24.2c-.8.5-1.6.3-2.1-.5s0-1.6.5-2.1c.8-.3 1.8 0 2.1.8.5.5.3 1.5-.5 1.8"/><path clip-path="url(#a)" d="m78.1 18.2c-.8.5-1.8.3-2.3-.5-.3-1 0-2.1.8-2.3 1-.5 2.1-.3 2.3.8.5.7.3 1.8-.8 2"/><path clip-path="url(#a)" d="m80.5 12.5c-1 .3-2.1 0-2.6-1s0-2.1.8-2.6c1-.5 2.3 0 2.6 1 .5.8.2 2.1-.8 2.6"/><path clip-path="url(#a)" d="m83.1 6.5c-1 .5-2.3 0-2.9-1-.5-1 0-2.3 1-2.9 1-.5 2.3 0 2.9 1 .5 1.1 0 2.4-1 2.9"/><path clip-path="url(#a)" d="m69.6 62.6h-.3v-.3c.3-.3.3-.3.5 0 0 0 0 .3-.2.3"/><path clip-path="url(#a)" d="m69.3 56.6c-.3.3-.5.3-.5 0-.3-.3-.3-.5 0-.5 0-.3.5-.3.5 0 .3.2.3.5 0 .5"/><path clip-path="url(#a)" d="m69.3 50.9c-.5 0-.8 0-1-.3-.3-.3-.3-.8 0-.8.3-.3.8-.3 1 0 .3.3.3.8 0 1.1"/><path clip-path="url(#a)" d="m69.3 44.7c-.3.5-1 .3-1.3 0-.3-.5-.3-1 .3-1.3.3-.3.8-.3 1 .3.5.2.3.7 0 1"/><path clip-path="url(#a)" d="m69.6 38.7c-.3.5-1 .3-1.6-.3-.3-.3-.3-1 .3-1.3.5-.5 1.3-.5 1.6 0 .4.6.2 1.3-.3 1.6"/><path clip-path="url(#a)" d="m70.3 32.7c-.5.3-1.6.3-1.8-.3-.5-.8-.5-1.6.3-1.8.5-.5 1.3-.5 1.8.3.3.5.3 1.3-.3 1.8"/><path clip-path="url(#a)" d="m71.1 26.5c-.5.5-1.6.3-2.1-.3-.5-.8-.3-1.8.3-2.1.8-.5 1.8-.5 2.1.3.5.6.5 1.6-.3 2.1"/><path clip-path="url(#a)" d="m72.4 20.3c-.8.5-2.1.5-2.6-.3s-.3-2.1.5-2.6 1.8-.3 2.3.5c.6.8.6 1.9-.2 2.4"/><path clip-path="url(#a)" d="m73.7 14.1c-.8.8-2.1.5-2.6-.5-.5-.8-.5-2.1.5-2.6.8-.5 2.1-.3 2.6.5.6 1 .6 2-.5 2.6"/><path clip-path="url(#a)" d="m75.5 8.1c-1 .5-2.3.3-3.1-.8-.5-1-.3-2.3.8-2.9 1-.8 2.3-.5 2.9.5.7 1.1.5 2.4-.6 3.2"/><path clip-path="url(#a)" d="m69.6 65.4h-.3c-.3-.3-.3-.3 0-.5h.3z"/><path clip-path="url(#a)" d="m68.5 59.5c-.3.3-.5.3-.8.3v-.8c.3-.3.5-.3.8 0z"/><path clip-path="url(#a)" d="m67.5 53.7c-.3.3-.5.3-.8 0s-.3-.8 0-1c.3-.3.5-.3.8 0s.3.8 0 1"/><path clip-path="url(#a)" d="m67 47.8c-.5.3-1 .3-1.3 0s-.3-.8 0-1.3c.3-.3.8-.3 1.3 0 .2.2.2 1 0 1.3"/><path clip-path="url(#a)" d="m66.5 41.8c-.5.3-1 .3-1.6 0-.5-.5-.5-1.3 0-1.6.5-.5 1-.5 1.6 0 .5.3.5 1.1 0 1.6"/><path clip-path="url(#a)" d="m66.2 35.6c-.5.5-1.3.5-1.8 0s-.5-1.3 0-1.8 1.3-.5 1.8 0 .5 1.3 0 1.8"/><path clip-path="url(#a)" d="m66.5 29.4c-.8.5-1.6.5-2.3 0-.5-.5-.5-1.6.3-2.1.5-.8 1.6-.5 2.1 0 .4.5.4 1.5-.1 2.1"/><path clip-path="url(#a)" d="m66.7 23.1c-.8.5-1.8.5-2.3 0-.8-.8-.8-1.8 0-2.6.8-.5 1.8-.5 2.3.3.8.5.8 1.8 0 2.3"/><path clip-path="url(#a)" d="m67.2 16.9c-.8.5-1.8.5-2.6-.3s-.8-2.1.3-2.9c.8-.5 1.8-.5 2.6.3s.5 2.1-.3 2.9"/><path clip-path="url(#a)" d="m68.3 10.4c-1 .8-2.3.8-3.1-.3-.8-.8-.5-2.3.3-3.1 1-.5 2.3-.5 3.1.5.7.9.4 2.2-.3 2.9"/><path clip-path="url(#a)" d="m69.3 3.9c-.8 1-2.3.8-3.1-.3-.8-1-.8-2.6.3-3.4 1-.8 2.6-.5 3.4.5.7 1.2.4 2.5-.6 3.2"/><path clip-path="url(#a)" d="m69.8 68c0 .3-.3.3-.3.3-.3-.3-.3-.3 0-.5h.3s.3.2 0 .2"/><path clip-path="url(#a)" d="m68 62.6c-.3.3-.5.3-.5 0-.3 0-.3-.3-.3-.5.3-.3.5-.3.8-.3 0 .2.3.5 0 .8"/><path clip-path="url(#a)" d="m66.5 56.9c-.3.3-.8.3-1 0-.3 0-.3-.5-.3-.8.3-.3.8-.5 1-.3.3.3.3.8.3 1.1"/><path clip-path="url(#a)" d="m64.9 50.9c-.3.5-.8.5-1.3.3-.3-.3-.5-.8 0-1.3.3-.3.8-.3 1 0 .6.2.6.7.3 1"/><path clip-path="url(#a)" d="m63.6 45.2c-.3.3-1 .5-1.3 0-.5-.3-.8-1-.3-1.6.3-.3 1-.5 1.6 0 .3.3.5 1.1 0 1.6"/><path clip-path="url(#a)" d="m62.8 39c-.5.5-1.3.8-1.8.3-.8-.5-.8-1.3-.3-1.8.3-.5 1.3-.5 1.8-.3.6.5.6 1.2.3 1.8"/><path clip-path="url(#a)" d="m62 33c-.5.5-1.6.5-2.1 0-.8-.5-.8-1.3-.3-2.1.5-.5 1.3-.8 2.1-.3.6.6.9 1.6.3 2.4"/><path clip-path="url(#a)" d="m61.5 26.5c-.5.8-1.8 1-2.3.3-.8-.5-1-1.6-.3-2.3.5-.8 1.6-.8 2.3-.3.8.5.8 1.8.3 2.3"/><path clip-path="url(#a)" d="m61.3 20.3c-.8.8-1.8.8-2.6.3-.8-.8-1-2.1-.3-2.9.8-.8 1.8-.8 2.6 0 1 .5 1 1.8.3 2.6"/><path clip-path="url(#a)" d="m61.3 13.8c-.8 1-2.1 1-2.9.3-1-.8-1-2.3-.3-3.1.8-.8 2.3-1 3.1 0 .8.7.8 2 .1 2.8"/><path clip-path="url(#a)" d="m61.8 7.3c-1 1-2.3 1-3.4 0-1-.8-1-2.3 0-3.1.8-1 2.3-1 3.4-.3.8 1.1.8 2.6 0 3.4"/><path clip-path="url(#a)" d="m70.6 70.9h-.5v-.3c0-.3.3-.3.3-.3.2.3.2.3.2.6"/><path clip-path="url(#a)" d="m68 65.4c-.3.3-.5.5-.8.3 0 0-.3-.3 0-.5 0-.3.3-.5.5-.3.3 0 .3.3.3.5"/><path clip-path="url(#a)" d="m65.7 60c-.3.5-.8.5-1 .3-.3 0-.5-.5-.3-.8.3-.3.5-.5.8-.3.5.3.5.5.5.8"/><path clip-path="url(#a)" d="m63.3 54.5c-.3.3-.8.5-1 .3-.5-.3-.8-.8-.5-1 .3-.5.8-.8 1.3-.5.2.2.5.7.2 1.2"/><path clip-path="url(#a)" d="m61.5 48.8c-.5.5-1 .5-1.6.3-.5-.3-.8-.8-.5-1.3s1-.8 1.6-.5c.5.2.8 1 .5 1.5"/><path clip-path="url(#a)" d="m59.7 42.9c-.5.8-1.3.8-1.8.5-.8-.3-.8-1.3-.5-1.8s1.3-.8 1.8-.5c.5.5.8 1.2.5 1.8"/><path clip-path="url(#a)" d="m58.2 36.9c-.5.8-1.3 1-2.1.5s-1-1.3-.5-2.1 1.3-1 2.1-.5c.7.5.7 1.3.5 2.1"/><path clip-path="url(#a)" d="m56.9 30.7c-.5.8-1.6 1-2.3.5-.8-.5-1-1.6-.5-2.3.5-.8 1.6-1 2.3-.5s1 1.5.5 2.3"/><path clip-path="url(#a)" d="m55.8 24.4c-.5 1-1.8 1.3-2.9.5-.8-.5-1-1.8-.5-2.6.8-.8 1.8-1 2.9-.5.8.6 1 1.9.5 2.6"/><path clip-path="url(#a)" d="m55 18.2c-.8.8-2.1 1-3.1.5-.8-.8-1-2.1-.5-3.1.8-1 2.1-1 3.1-.5 1.1.8 1.1 2.1.5 3.1"/><path clip-path="url(#a)" d="m54.5 11.7c-.8 1-2.3 1-3.4.3-1-.5-1.3-2.1-.5-3.1s2.3-1.3 3.4-.5c1 .7 1.3 2.3.5 3.3"/><path clip-path="url(#a)" d="m54.3 5c-.8 1-2.3 1.3-3.6.5-1-.8-1.3-2.6-.3-3.6.8-1 2.3-1.3 3.4-.5 1.2 1 1.5 2.5.5 3.6"/><path clip-path="url(#a)" d="m71.6 73.5h-.5v-.3c0-.3 0-.3.3-.3z"/><path clip-path="url(#a)" d="m68.3 68.5c0 .3-.3.3-.5.3-.3-.3-.5-.5-.3-.8 0 0 .3-.3.5-.3.3.3.3.6.3.8"/><path clip-path="url(#a)" d="m65.2 63.3c0 .3-.5.5-.8.5-.3-.3-.5-.5-.5-1 .3-.3.5-.5 1-.3.3.1.5.6.3.8"/><path clip-path="url(#a)" d="m62.3 58.2c-.3.5-.8.8-1 .5-.5-.3-.8-.8-.5-1.3 0-.3.5-.5 1-.3.5 0 .8.5.5 1.1"/><path clip-path="url(#a)" d="m59.7 52.7c-.3.5-1 .8-1.6.5-.5-.3-.8-.8-.5-1.3s.8-.8 1.3-.5c.5 0 .8.8.8 1.3"/><path clip-path="url(#a)" d="m57.1 47.3c-.3.5-1 .8-1.8.5-.5-.3-.8-1-.5-1.6.3-.8 1-1 1.6-.8.7.3 1 1.1.7 1.9"/><path clip-path="url(#a)" d="m54.8 41.3c-.3.8-1.3 1.3-2.1.8-.8-.3-1-1-.8-1.8.5-.8 1.3-1.3 2.1-.8.8.2 1 1 .8 1.8"/><path clip-path="url(#a)" d="m52.7 35.6c-.5.8-1.6 1-2.3.8-.8-.5-1.3-1.6-.8-2.3.5-.8 1.3-1.3 2.3-.8.8.2 1.3 1.3.8 2.3"/><path clip-path="url(#a)" d="m50.9 29.4c-.5 1-1.6 1.3-2.6 1-1-.5-1.3-1.8-.8-2.6.3-1 1.6-1.6 2.6-1 .8.5 1.3 1.8.8 2.6"/><path clip-path="url(#a)" d="m49.3 23.1c-.5 1-1.8 1.6-2.9 1-1-.8-1.6-2.1-1-3.1.5-1 1.8-1.3 2.9-.8 1 .6 1.6 1.9 1 2.9"/><path clip-path="url(#a)" d="m48 16.9c-.8 1-2.1 1.3-3.4.8-1-.5-1.6-2.1-.8-3.1.5-1.3 2.1-1.6 3.1-1 1.1.7 1.7 2 1.1 3.3"/><path clip-path="url(#a)" d="m46.7 10.2c-.5 1.3-2.1 1.8-3.4 1s-1.6-2.3-1-3.6c.8-1 2.3-1.6 3.6-.8 1.4.8 1.6 2.3.8 3.4"/><path clip-path="url(#a)" d="m46 3.7c-.8 1.3-2.3 1.6-3.6.8s-1.8-2.6-1-3.9 2.6-1.6 3.9-.8c1.2.8 1.7 2.6.7 3.9"/><path clip-path="url(#a)" d="m72.9 75.8c-.3.3-.3.3-.5.3v-.3c0-.3 0-.3.3-.3 0 0 .2 0 .2.3"/><path clip-path="url(#a)" d="m69 71.4c0 .3-.3.3-.5.3-.3 0-.5-.3-.5-.5 0-.3.3-.3.5-.3.3 0 .5.2.5.5"/><path clip-path="url(#a)" d="m65.2 66.7c0 .3-.3.5-.8.5-.3 0-.5-.5-.5-.8.3-.5.5-.5.8-.5.5 0 .7.6.5.8"/><path clip-path="url(#a)" d="m61.8 61.8c-.3.5-.8.8-1 .8-.5-.3-.8-.5-.8-1 .3-.5.5-.8 1-.8.5.2.8.7.8 1"/><path clip-path="url(#a)" d="m58.4 56.9c-.3.5-.8 1-1.3.8-.8 0-1-.8-1-1.3.3-.5.8-1 1.6-.8.5.2.7.7.7 1.3"/><path clip-path="url(#a)" d="m55 51.7c-.3.8-.8 1-1.6 1-.8-.3-1-1-.8-1.8 0-.5.8-1 1.6-.8.6.3 1.1.8.8 1.6"/><path clip-path="url(#a)" d="m52.2 46.2c-.3.8-1.3 1.3-2.1 1s-1.3-1-1-1.8 1.3-1.3 2.1-1c.7.3 1 1.1 1 1.8"/><path clip-path="url(#a)" d="m49.3 40.8c-.5.8-1.3 1.3-2.3 1-.8-.3-1.3-1.3-1-2.1.3-1 1.3-1.6 2.1-1.3 1 .3 1.5 1.3 1.2 2.4"/><path clip-path="url(#a)" d="m46.5 34.8c-.3 1-1.3 1.6-2.3 1.3s-1.6-1.6-1.3-2.3c.5-1 1.6-1.6 2.6-1.3 1 .2 1.5 1.5 1 2.3"/><path clip-path="url(#a)" d="m44.1 28.8c-.3 1.3-1.6 1.8-2.6 1.3-1.3-.3-1.8-1.6-1.3-2.6.3-1.3 1.6-1.8 2.6-1.3 1.3.3 1.9 1.6 1.3 2.6"/><path clip-path="url(#a)" d="m42.1 22.9c-.5 1-1.8 1.8-3.1 1.3-1-.5-1.8-1.8-1.3-3.1s1.8-1.8 3.1-1.3c1 .5 1.8 1.8 1.3 3.1"/><path clip-path="url(#a)" d="m40.3 16.4c-.8 1.3-2.1 2.1-3.4 1.6-1.3-.8-2.1-2.1-1.6-3.4.8-1.3 2.1-2.1 3.4-1.6s2.1 2.1 1.6 3.4"/><path clip-path="url(#a)" d="m38.4 9.9c-.5 1.6-2.1 2.1-3.6 1.6-1.3-.8-2.1-2.3-1.3-3.9.5-1.3 2.3-1.8 3.6-1.3s2.1 2.3 1.3 3.6"/><path clip-path="url(#a)" d="m37.1 3.2c-.8 1.6-2.6 2.1-3.9 1.6-1.6-.8-2.1-2.6-1.6-4.2.8-1.3 2.6-2.1 4.2-1.3 1.3.8 2.1 2.6 1.3 3.9"/><path clip-path="url(#a)" d="m74.5 78.1s-.3.3-.3 0c-.3 0-.3 0-.3-.3 0 0 0-.3.3 0 .3.1.3.1.3.3"/><path clip-path="url(#a)" d="m70.1 74.2c0 .3-.3.3-.5.3-.3 0-.5-.3-.5-.5 0-.3.3-.3.5-.3s.5.3.5.5"/><path clip-path="url(#a)" d="m65.7 70.1c0 .3-.3.5-.5.5-.5 0-.8-.3-.8-.8 0-.3.5-.5.8-.5.2 0 .7.3.5.8"/><path clip-path="url(#a)" d="m61.5 65.7c0 .5-.5.8-.8.8-.5 0-1-.5-.8-1 0-.3.3-.8.8-.8.6.2 1.1.5.8 1"/><path clip-path="url(#a)" d="m57.6 61.3c0 .5-.8 1-1.3.8-.5 0-1-.5-.8-1 0-.8.5-1 1-1 .6-.1 1.1.4 1.1 1.2"/><path clip-path="url(#a)" d="m53.7 56.3c0 .8-.8 1.3-1.6 1.3-.5-.3-1-.8-1-1.6s.8-1.3 1.6-1c.5 0 1 .8 1 1.3"/><path clip-path="url(#a)" d="m50.1 51.4c-.3.8-1 1.6-1.8 1.3-.8 0-1.3-.8-1.3-1.8.3-.8 1-1.3 1.8-1 .8 0 1.3.7 1.3 1.5"/><path clip-path="url(#a)" d="m46.5 46.2c-.3 1-1 1.6-2.1 1.6-.8-.3-1.6-1-1.3-2.1.3-1 1-1.6 2.1-1.3.8 0 1.5 1.1 1.3 1.8"/><path clip-path="url(#a)" d="m43.1 41c-.3 1-1.3 1.6-2.3 1.3-1 0-1.6-1-1.6-2.1.3-1 1.3-1.8 2.3-1.6 1.1.4 1.9 1.4 1.6 2.4"/><path clip-path="url(#a)" d="m40 35.3c-.3 1-1.6 1.8-2.6 1.6-1-.3-1.8-1.3-1.6-2.6.3-1 1.3-1.8 2.6-1.6 1.1.3 1.9 1.6 1.6 2.6"/><path clip-path="url(#a)" d="m37.1 29.6c-.5 1-1.8 1.8-2.9 1.6-1.3-.3-2.1-1.6-1.8-2.9s1.6-2.1 2.9-1.6c1.3.3 2.1 1.6 1.8 2.9"/><path clip-path="url(#a)" d="m34.3 23.4c-.3 1.6-1.8 2.3-3.1 1.8-1.3-.3-2.1-1.8-1.8-3.1.5-1.3 1.8-2.1 3.1-1.8 1.3.5 2.3 1.8 1.8 3.1"/><path clip-path="url(#a)" d="m32 17.2c-.5 1.6-2.1 2.3-3.6 1.8-1.3-.3-2.3-1.8-1.8-3.4s2.1-2.3 3.4-1.8c1.4.5 2.2 2.1 2 3.4"/><path clip-path="url(#a)" d="m29.6 10.7c-.5 1.5-2.1 2.6-3.6 2.1-1.6-.5-2.6-2.3-2.1-3.9s2.3-2.3 3.9-1.8 2.3 2 1.8 3.6"/><path clip-path="url(#a)" d="m27.8 4.2c.5-1.8-.5-3.6-2.1-4.1-1.6-.5-3.4.3-4.1 1.8-.5 1.8.5 3.6 2.1 4.1 1.5.5 3.3-.2 4.1-1.8"/><path clip-path="url(#a)" d="m76.3 79.9c0 .3 0 .3-.3.3 0 0-.3 0-.3-.3l.3-.3c.3.1.3.3.3.3"/><path clip-path="url(#a)" d="m71.4 76.8c0 .3 0 .3-.3.5-.3 0-.5-.3-.5-.5 0-.3.3-.5.5-.5.3 0 .3.3.3.5"/><path clip-path="url(#a)" d="m66.7 73.2c0 .5-.3.8-.8.8-.3 0-.5-.3-.5-.8 0-.3.3-.5.5-.5.6 0 .8.2.8.5"/><path clip-path="url(#a)" d="m62 69.6c0 .5-.5.8-.8.8-.5 0-1-.3-1-.8s.5-1 .8-1c.5-.1 1 .5 1 1"/><path clip-path="url(#a)" d="m57.4 65.4c0 .8-.5 1.3-1 1.3s-1-.5-1-1c0-.8.5-1.3 1-1.3s1 .5 1 1"/><path clip-path="url(#a)" d="m53 61.3c0 .8-.5 1.3-1.3 1.3s-1.3-.5-1.3-1.3.5-1.3 1.3-1.3c.7 0 1.3.5 1.3 1.3"/><path clip-path="url(#a)" d="m48.6 56.9c0 .8-.5 1.6-1.6 1.6-.8 0-1.3-.8-1.3-1.6s.8-1.6 1.6-1.6c.7 0 1.3.8 1.3 1.6"/><path clip-path="url(#a)" d="m44.4 52.2c0 1-.8 1.8-1.8 1.6-.8 0-1.6-.8-1.6-1.6 0-1 .8-1.8 1.8-1.8 1.1 0 1.6 1 1.6 1.8"/><path clip-path="url(#a)" d="m40.5 47.3c-.3 1-1 1.8-2.1 1.8-1 0-1.8-1-1.8-2.1 0-1 1-1.8 2.1-1.8 1 .3 1.8 1 1.8 2.1"/><path clip-path="url(#a)" d="m36.6 42.1c-.3 1.3-1.3 2.1-2.3 2.1-1.3-.3-2.1-1.3-2.1-2.3.3-1.3 1.3-2.1 2.3-1.8 1.3-.1 2.1.9 2.1 2"/><path clip-path="url(#a)" d="m33 36.9c-.3 1.3-1.3 2.1-2.6 2.1-1.3-.3-2.3-1.3-2.1-2.6 0-1.3 1.3-2.3 2.6-2.1 1.3 0 2.1 1.3 2.1 2.6"/><path clip-path="url(#a)" d="m29.4 31.2c0 1.3-1.3 2.3-2.9 2.1-1.3 0-2.3-1.3-2.1-2.9 0-1.3 1.3-2.3 2.9-2.1 1.3.3 2.3 1.6 2.1 2.9"/><path clip-path="url(#a)" d="m26.3 25.2c-.3 1.6-1.8 2.6-3.4 2.3-1.3-.3-2.3-1.6-2.1-3.1.3-1.6 1.6-2.6 3.1-2.3 1.6.3 2.6 1.8 2.4 3.1"/><path clip-path="url(#a)" d="m23.1 19.3c-.3 1.6-1.8 2.6-3.4 2.3-1.8-.3-2.9-1.8-2.6-3.4.5-1.8 2.1-2.9 3.6-2.6 1.7.5 2.7 2.1 2.4 3.7"/><path clip-path="url(#a)" d="m20.3 12.8c.5-1.6-.8-3.4-2.3-3.6-1.8-.5-3.4.8-3.9 2.3-.3 1.8.8 3.4 2.6 3.9 1.5.2 3.3-.8 3.6-2.6"/><path clip-path="url(#a)" d="m18 6.3c-.5 1.8-2.3 2.9-4.1 2.6-1.8-.5-3.1-2.3-2.6-4.1s2.3-2.9 4.2-2.6c1.7.5 2.7 2.3 2.5 4.1"/><path clip-path="url(#a)" d="m.1-13.4c.3.8.3 1.6 0 2.1-.3 1-.8 2.1-1.6 2.6h.5c2.3.5 3.6 2.6 3.4 4.7-.3 1.3-1 2.3-1.8 2.9.3 0 .8-.3 1 0 2.1.1 3.6 2.2 3.4 4.3-.5 2-2.4 3.3-4.4 3.1-2.1-.3-3.7-2.4-3.1-4.4 0-1 .8-2.1 1.6-2.6h-1.3c-2.3-.5-3.6-2.6-3.4-4.7.3-1 .8-1.8 1.6-2.6h-.8c-2.3-.5-3.9-2.9-3.4-4.9 0-.3 0-.3.3-.5h8z"/><path clip-path="url(#a)" d="m78.4 81.8c.3.3 0 .3 0 .3-.3 0-.3 0-.3-.3-.3 0 0-.3 0-.3.3 0 .3.3.3.3"/><path clip-path="url(#a)" d="m73.2 79.2c0 .3 0 .5-.3.5s-.5 0-.5-.3 0-.5.3-.8c.2 0 .5.3.5.6"/><path clip-path="url(#a)" d="m68 76.3c0 .3-.3.8-.5.8-.3 0-.8-.3-.8-.5 0-.5.3-.8.5-.8.6 0 .8.3.8.5"/><path clip-path="url(#a)" d="m62.8 73.2c.3.5-.3 1-.5 1-.5 0-1-.3-1-.8-.3-.5.3-1 .5-1 .5 0 1 .3 1 .8"/><path clip-path="url(#a)" d="m57.9 69.8c0 .5-.3 1.3-1 1.3-.5 0-1-.3-1-1-.3-.5.3-1 .8-1 .4-.3 1.2.2 1.2.7"/><path clip-path="url(#a)" d="m53 66.2c0 .8-.5 1.6-1.3 1.6-.5 0-1.3-.5-1.3-1-.3-.8.3-1.6 1-1.6.8 0 1.3.5 1.6 1"/><path clip-path="url(#a)" d="m48 62.6c0 .8-.5 1.6-1.3 1.6s-1.6-.5-1.8-1.3c0-.8.5-1.6 1.6-1.8.8-.1 1.5.4 1.5 1.5"/><path clip-path="url(#a)" d="m43.4 58.4c0 1-.8 1.8-1.6 1.8-1 0-1.8-.5-2.1-1.6 0-1 .8-1.8 1.6-1.8 1 .1 1.8.6 2.1 1.6"/><path clip-path="url(#a)" d="m38.7 54c0 1-.8 2.1-1.8 2.1s-2.1-.8-2.1-1.8.8-2.1 1.8-2.1c1.1 0 1.8.8 2.1 1.8"/><path clip-path="url(#a)" d="m34 49.3c.3 1.3-.8 2.3-2.1 2.3-1 0-2.1-.8-2.1-2.1 0-1 .8-2.1 2.1-2.1 1.1-.1 2.1.9 2.1 1.9"/><path clip-path="url(#a)" d="m29.9 44.7c0 1.3-1 2.3-2.3 2.3s-2.3-1-2.3-2.3c-.3-1.3.8-2.3 2.1-2.3 1.2-.1 2.5 1 2.5 2.3"/><path clip-path="url(#a)" d="m25.7 39.5c-.3 1.3-1.3 2.6-2.6 2.6-1.6 0-2.6-1.3-2.6-2.6 0-1.6 1-2.6 2.6-2.6 1.3 0 2.6 1.3 2.6 2.6"/><path clip-path="url(#a)" d="m21.6 34c0 1.5-1.3 2.9-2.9 2.9-1.6-.3-2.6-1.6-2.6-2.9 0-1.6 1.3-2.9 2.9-2.9 1.5.1 2.6 1.4 2.6 2.9"/><path clip-path="url(#a)" d="m17.7 28.3c.3-1.6-1-2.9-2.6-3.1-1.8 0-3.1 1.3-3.1 2.9-.3 1.6 1 3.1 2.6 3.1 1.8.2 3.1-1.1 3.1-2.9"/><path clip-path="url(#a)" d="m14.3 22.4c-.3 1.8-1.8 3.1-3.6 3.1-1.6-.3-2.9-1.8-2.9-3.4.3-1.8 1.8-3.1 3.4-3.1 1.8.3 3.1 1.8 3.1 3.4"/><path clip-path="url(#a)" d="m10.9 16.4c0-2.1-1.3-3.6-3.1-3.9s-3.6 1.3-3.6 3.1c-.3 1.8 1 3.4 2.9 3.6 1.8.3 3.6-1 3.8-2.8"/><path clip-path="url(#a)" d="m7.8 9.9c.3-2.1-1.3-3.9-3.1-4.1-2.1-.3-3.9 1-4.2 3.1-.3 2.1 1 3.9 3.1 4.2 2.2.2 4-1.4 4.2-3.2"/><path clip-path="url(#a)" d="m81 83.3-.3.3c-.3 0-.3 0-.3-.3v-.3c.3.1.3.1.6.3"/><path clip-path="url(#a)" d="m75.3 81.2c0 .3 0 .5-.3.5-.3.3-.5 0-.5-.3-.3-.3 0-.5.3-.5.2.1.5.1.5.3"/><path clip-path="url(#a)" d="m69.8 79.2c0 .3-.3.8-.5.8-.3.3-.8 0-.8-.5-.3-.3 0-.5.5-.8.3-.1.6.2.8.5"/><path clip-path="url(#a)" d="m64.4 76.8c0 .3-.3.8-.8 1-.3 0-.8-.3-1-.5 0-.5.3-1 .5-1.3.5.1 1 .3 1.3.8"/><path clip-path="url(#a)" d="m58.9 74c0 .8-.3 1.3-.8 1.6-.8 0-1.3-.3-1.3-.8-.3-.5 0-1.3.5-1.3.9-.3 1.4 0 1.6.5"/><path clip-path="url(#a)" d="m53.5 71.1c.3.8-.3 1.6-1 1.6-.5.3-1.3-.3-1.6-.8-.3-.8.3-1.6 1-1.6.5-.2 1.3.3 1.6.8"/><path clip-path="url(#a)" d="m48 68c.3.8-.3 1.6-1 1.8-.8.3-1.6-.3-1.8-1-.3-.8.3-1.6 1-1.8.8-.3 1.8.2 1.8 1"/><path clip-path="url(#a)" d="m42.9 64.6c.3 1-.3 1.8-1.3 2.1s-1.8-.5-2.1-1.3c-.3-1 .5-1.8 1.3-2.1 1-.2 1.8.3 2.1 1.3"/><path clip-path="url(#a)" d="m37.7 61c.3 1-.5 2.1-1.6 2.1-1 .3-2.1-.3-2.1-1.3-.3-1 .3-2.1 1.3-2.3 1.3-.3 2.1.5 2.4 1.5"/><path clip-path="url(#a)" d="m32.7 56.9c0 1.3-.8 2.3-1.8 2.6-1.3.3-2.3-.5-2.6-1.8 0-1 .8-2.3 1.8-2.3 1.3-.4 2.4.4 2.6 1.5"/><path clip-path="url(#a)" d="m27.8 52.7c0 1.3-.8 2.6-2.1 2.6-1.3.3-2.6-.5-2.6-1.8-.3-1.3.5-2.6 1.8-2.9 1.4 0 2.6.8 2.9 2.1"/><path clip-path="url(#a)" d="m22.9 48.3c-.3-1.6-1.6-2.6-2.9-2.3s-2.3 1.6-2.1 2.9c0 1.3 1.3 2.3 2.9 2.3 1.3-.3 2.3-1.6 2.1-2.9"/><path clip-path="url(#a)" d="m18.2 43.4c.3 1.6-1 2.9-2.3 3.1-1.6 0-3.1-1-3.1-2.6-.3-1.6 1-2.9 2.3-3.1 1.6 0 2.9 1 3.1 2.6"/><path clip-path="url(#a)" d="m13.8 38.2c-.3-1.6-1.6-2.9-3.4-2.6-1.6 0-2.9 1.6-2.6 3.1 0 1.6 1.6 2.9 3.1 2.9 1.6-.3 2.9-1.6 2.9-3.4"/><path clip-path="url(#a)" d="m9.4 32.7c0 1.8-1.3 3.4-3.1 3.4-1.6.3-3.1-1.3-3.4-2.9 0-1.8 1.3-3.4 3.1-3.4 1.8-.2 3.4 1.4 3.4 2.9"/><path clip-path="url(#a)" d="m5.2 27c0-1.8-1.6-3.4-3.4-3.1-2.1 0-3.4 1.6-3.4 3.4s1.6 3.4 3.4 3.4c1.9 0 3.4-1.6 3.4-3.7"/><path clip-path="url(#a)" d="m89 85.4v-.3z"/><path clip-path="url(#a)" d="m83.3 84.4c.3 0 0 .3 0 .3h-.3c-.3-.3 0-.3 0-.5.3-.1.3-.1.3.2"/><path clip-path="url(#a)" d="m77.6 83.1c.3.3 0 .5-.3.8-.3 0-.5 0-.5-.3-.3-.3 0-.5.3-.5.2-.3.5 0 .5 0"/><path clip-path="url(#a)" d="m71.9 81.8c0 .3 0 .8-.3.8-.5.3-.8 0-1-.3 0-.3 0-.8.3-.8.5-.3.7 0 1 .3"/><path clip-path="url(#a)" d="m66.2 80.2c0 .3 0 .8-.5 1-.5.3-1 0-1.3-.5 0-.3 0-.8.5-1 .5-.3 1 0 1.3.5"/><path clip-path="url(#a)" d="m60.5 78.1c0 .5-.3 1.3-.8 1.6s-1 0-1.3-.5c-.3-.8 0-1.3.5-1.6.5-.2 1.3 0 1.6.5"/><path clip-path="url(#a)" d="m54.5 76.1c.3.5 0 1.3-.5 1.6-.8.3-1.6 0-1.8-.5-.3-.8 0-1.6.8-1.8.5-.4 1.3-.1 1.5.7"/><path clip-path="url(#a)" d="m49.1 73.5c.3.8-.3 1.8-1 2.1-.8.3-1.6 0-1.8-.8-.5-.8 0-1.8.8-2.1.7-.3 1.5 0 2 .8"/><path clip-path="url(#a)" d="m43.4 70.9c.3.8-.3 1.8-1 2.1-1 .5-2.1 0-2.3-1-.3-.8.3-1.8 1-2.1 1-.3 1.8.2 2.3 1"/><path clip-path="url(#a)" d="m37.7 68c.3.8-.3 2.1-1.3 2.3-.8.3-2.1-.3-2.3-1.3-.3-1 .3-2.1 1.3-2.3s2 .3 2.3 1.3"/><path clip-path="url(#a)" d="m32.2 64.6c.3 1-.3 2.3-1.6 2.6-1 .5-2.3-.3-2.6-1.3-.3-1.3.3-2.3 1.3-2.9 1.4-.2 2.4.6 2.9 1.6"/><path clip-path="url(#a)" d="m26.8 61c.3 1.3-.5 2.6-1.6 2.9-1.3.5-2.6-.3-3.1-1.6-.3-1.3.5-2.6 1.8-2.9 1.1-.2 2.4.3 2.9 1.6"/><path clip-path="url(#a)" d="m21.3 57.1c.3 1.3-.5 2.9-1.8 3.1-1.3.5-2.9-.5-3.1-1.8-.3-1.3.5-2.6 1.8-3.1 1.3-.3 2.9.5 3.1 1.8"/><path clip-path="url(#a)" d="m16.1 53c-.5-1.6-1.8-2.3-3.4-2.1-1.6.5-2.3 1.8-2.1 3.4.3 1.6 1.8 2.3 3.4 2.1 1.6-.3 2.4-1.9 2.1-3.4"/><path clip-path="url(#a)" d="m10.9 48.6c.3 1.6-.8 3.1-2.3 3.4-1.6.5-3.1-.5-3.4-2.1-.5-1.8.5-3.4 2.1-3.6 1.8-.3 3.4.7 3.6 2.3"/><path clip-path="url(#a)" d="m6 43.6c-.5-1.5-2.1-2.9-3.9-2.3-1.6.3-2.9 1.8-2.3 3.6.3 1.6 1.8 2.9 3.6 2.6 1.8-.5 2.9-2 2.6-3.9"/><path clip-path="url(#a)" d="m86.2 85.1s0 .3-.3.3c0 .3-.3 0-.3 0v-.3c.3-.2.3 0 .6 0"/><path clip-path="url(#a)" d="m80.2 84.6c0 .3 0 .5-.3.8 0 0-.5 0-.5-.3-.3-.3 0-.5 0-.5.3-.2.5 0 .8 0"/><path clip-path="url(#a)" d="m74.2 84.1c.3.3.3.8-.3.8-.3.3-.5.3-.8 0-.3-.5-.3-.8.3-1 .3-.3.6-.1.8.2"/><path clip-path="url(#a)" d="m68.3 83.1c.3.5.3 1-.3 1.3-.3.3-.8.3-1-.3-.3-.5-.3-1 .3-1.3.2-.3.7 0 1 .3"/><path clip-path="url(#a)" d="m62.3 82c.5.5.3 1.3-.3 1.6-.5.3-1.3 0-1.6-.5s0-1 .5-1.3c.6-.6 1.1-.3 1.4.2"/><path clip-path="url(#a)" d="m56.3 80.7c.5.5.3 1.3-.3 1.6-.8.5-1.6.3-1.8-.3-.5-.8-.3-1.6.5-1.8.6-.5 1.4-.3 1.6.5"/><path clip-path="url(#a)" d="m50.4 78.9c.5.8.3 1.8-.5 2.1-.8.5-1.6.3-2.1-.5-.3-.8 0-1.8.8-2.1.5-.5 1.5-.3 1.8.5"/><path clip-path="url(#a)" d="m44.4 77.1c.5.8.3 1.8-.5 2.3-1 .3-2.1 0-2.3-.8-.5-1-.3-2.1.8-2.3.7-.5 1.7-.2 2 .8"/><path clip-path="url(#a)" d="m38.7 74.8c.3 1 0 2.1-1 2.6s-2.1 0-2.6-.8c-.5-1 0-2.3 1-2.6.8-.5 2.1-.3 2.6.8"/><path clip-path="url(#a)" d="m32.7 72.2c.5 1 0 2.3-1 2.9-1 .5-2.3 0-2.9-1-.5-1 0-2.3 1-2.9 1.1-.6 2.4-.1 2.9 1"/><path clip-path="url(#a)" d="m26.8 69.3c.5 1.3 0 2.6-1.3 3.1-1 .5-2.3 0-2.9-1-.5-1.3 0-2.6 1-3.1 1.4-.5 2.7 0 3.2 1"/><path clip-path="url(#a)" d="m21.1 66.2c.5 1.3-.3 2.9-1.6 3.4s-2.9 0-3.4-1.3.3-2.9 1.6-3.4 2.8 0 3.4 1.3"/><path clip-path="url(#a)" d="m15.1 62.8c-.5-1.3-2.1-2.1-3.4-1.6-1.6.5-2.3 2.1-1.6 3.6.5 1.3 2.1 2.1 3.4 1.6 1.6-.5 2.4-2 1.6-3.6"/><path clip-path="url(#a)" d="m9.7 59.2c.5 1.3-.3 3.1-1.8 3.6-1.6.5-3.4-.3-3.9-1.8-.5-1.6.3-3.1 1.8-3.6 1.5-.8 3.1.2 3.9 1.8"/><path clip-path="url(#a)" d="m3.9 55c-.5-1.8-2.3-2.6-3.9-2.1-1.8.5-2.6 2.3-2.1 3.9.5 1.8 2.3 2.6 3.9 2.1 1.9-.5 2.7-2.3 2.1-3.9"/><path clip-path="url(#a)" d="m88.8 85.7v.3h-.3c-.3-.3-.3-.3 0-.3 0-.3.3-.3.3 0"/><path clip-path="url(#a)" d="m82.8 85.9c.3.3.3.5 0 .8-.3 0-.5 0-.5-.3-.3 0-.3-.5 0-.5.2-.2.5-.2.5 0"/><path clip-path="url(#a)" d="m77.1 86.2c0 .3 0 .5-.3.8s-.8.3-.8 0c-.3-.3-.3-.8 0-1 .3-.3.8-.3 1.1.2"/><path clip-path="url(#a)" d="m70.9 85.9c.5.5.3 1 0 1.3-.5.3-1 .3-1.3-.3-.3-.3-.3-.8.3-1 .2-.5.7-.2 1 0"/><path clip-path="url(#a)" d="m64.9 85.7c.5.5.3 1-.3 1.6-.3.3-1 .3-1.3-.3-.5-.5-.5-1.3 0-1.6.6-.3 1.3-.3 1.6.3"/><path clip-path="url(#a)" d="m58.9 84.9c.3.8.3 1.6-.3 1.8-.8.5-1.6.5-1.8-.3-.5-.5-.5-1.3.3-1.8.5-.2 1.3-.2 1.8.3"/><path clip-path="url(#a)" d="m52.7 84.1c.5.8.3 1.6-.3 2.1-.8.5-1.8.3-2.1-.3-.5-.8-.5-1.6.3-2.1s1.6-.5 2.1.3"/><path clip-path="url(#a)" d="m46.5 83.1c.5.8.5 1.8-.3 2.3s-2.1.3-2.6-.5-.3-1.8.5-2.3c.8-.6 1.9-.3 2.4.5"/><path clip-path="url(#a)" d="m40.3 81.5c.8.8.5 2.1-.5 2.6-.8.8-2.1.5-2.6-.5-.5-.8-.3-2.1.5-2.6 1-.5 2-.3 2.6.5"/><path clip-path="url(#a)" d="m34.3 79.7c.5 1 .3 2.3-.8 3.1-1 .5-2.3.3-2.9-.8-.8-1-.5-2.3.5-2.9 1.1-.7 2.4-.5 3.2.6"/><path clip-path="url(#a)" d="m28.1 77.6c.5 1.3.3 2.6-.8 3.4-1.3.5-2.6.3-3.4-.8-.5-1.3-.3-2.6.8-3.4 1.3-.5 2.6-.2 3.4.8"/><path clip-path="url(#a)" d="m21.8 75.3c.8 1.3.3 2.9-1 3.6-1.3.8-2.9.3-3.4-1-.8-1.3-.3-2.9.8-3.4 1.3-.8 2.9-.3 3.6.8"/><path clip-path="url(#a)" d="m15.6 72.7c.8 1.3.3 3.1-1 3.9-1.3.5-3.1 0-3.9-1.3-.5-1.3 0-2.9 1.3-3.6 1.3-.8 2.8-.3 3.6 1"/><path clip-path="url(#a)" d="m9.4 69.8c-.5-1.6-2.3-2.1-3.9-1.3-1.6.5-2.1 2.3-1.3 3.9s2.6 2.1 3.9 1.3c1.6-.8 2.1-2.6 1.3-3.9"/><path clip-path="url(#a)" d="m3.4 66.5c.8 1.6 0 3.4-1.6 4.2s-3.4 0-4.1-1.6c-.8-1.6 0-3.4 1.6-4.2 1.5-.8 3.3 0 4.1 1.6"/><path clip-path="url(#a)" d="m91.4 85.7v.3c-.3.3-.3.3-.5 0v-.3z"/><path clip-path="url(#a)" d="m85.6 86.7c.3.3.3.5.3.8-.3.3-.5.3-.8 0s-.3-.5 0-.8z"/><path clip-path="url(#a)" d="m79.9 87.7c.3.3.3.5 0 .8s-.8.5-1 .3c-.3-.3-.3-.8 0-1 .3-.3.8-.3 1-.1"/><path clip-path="url(#a)" d="m74 88.2c.3.5.3 1 0 1.3s-.8.5-1.3 0c-.3-.3-.3-.8 0-1.3.2-.2 1-.2 1.3 0"/><path clip-path="url(#a)" d="m68 88.8c.3.5.3 1 0 1.6-.5.5-1.3.5-1.6 0-.5-.5-.5-1 0-1.6.3-.6 1.1-.6 1.6 0"/><path clip-path="url(#a)" d="m61.8 89c.5.5.5 1.3 0 1.8s-1.3.5-1.8 0-.5-1.3 0-1.8 1.3-.5 1.8 0"/><path clip-path="url(#a)" d="m55.6 88.8c.5.8.5 1.6 0 2.3-.5.5-1.6.5-2.1-.3-.8-.5-.5-1.6 0-2.1s1.5-.5 2.1.1"/><path clip-path="url(#a)" d="m49.3 88.5c.5.8.5 1.8 0 2.3-.8.8-1.8.8-2.6 0-.5-.8-.5-1.8.3-2.3.5-.8 1.8-.8 2.3 0"/><path clip-path="url(#a)" d="m43.1 88c.5.8.5 2.1-.3 2.6-.8.8-2.1.8-2.9-.3-.5-.8-.5-1.8.3-2.6s2.1-.5 2.9.3"/><path clip-path="url(#a)" d="m36.6 86.9c.8 1 .8 2.3-.3 3.1-.8.8-2.3.5-3.1-.3-.5-1-.5-2.3.5-3.1.9-.7 2.1-.4 2.9.3"/><path clip-path="url(#a)" d="m30.1 85.9c1 .8.8 2.3-.3 3.1-1 .8-2.6.8-3.4-.3-.8-1-.5-2.6.5-3.4 1.2-.7 2.5-.4 3.2.6"/><path clip-path="url(#a)" d="m23.9 84.4c.8 1 .5 2.6-.5 3.6-1.3.8-2.9.5-3.6-.5-.8-1.3-.8-2.9.5-3.6 1-.8 2.6-.8 3.6.5"/><path clip-path="url(#a)" d="m17.4 82.5c.8 1 .5 2.9-.8 3.9-1 .8-2.9.5-3.9-.8-.8-1.3-.5-2.9.8-3.9 1.3-.7 2.9-.5 3.9.8"/><path clip-path="url(#a)" d="m10.9 80.2c.8 1.3.5 3.4-.8 4.1-1.3 1-3.4.5-4.2-.8-1-1.3-.5-3.1.8-4.1 1.4-.8 3.2-.5 4.2.8"/><path clip-path="url(#a)" d="m4.5 77.9c-1-1.6-2.9-2.1-4.4-1-1.6 1-1.8 2.9-1 4.4 1 1.6 3.1 1.8 4.4 1 1.5-1.1 2-3.1 1-4.4"/><path clip-path="url(#a)" d="m93.9 85.4c.3 0 .3.3.3.3-.3.3-.3.3-.5 0v-.3z"/><path clip-path="url(#a)" d="m88.8 87.2c.3.3.3.5 0 .8 0 0-.3.3-.5 0-.3-.3-.3-.5-.3-.8.2 0 .5-.3.8 0"/><path clip-path="url(#a)" d="m83.1 88.8c.3.3.3.8 0 1 0 .3-.5.3-.8.3-.3-.3-.5-.8-.3-1 .3-.3.8-.3 1.1-.3"/><path clip-path="url(#a)" d="m77.1 90.3c.5.3.5.8.3 1.3-.3.3-.8.5-1.3 0-.3-.3-.3-.8 0-1 .2-.5.7-.5 1-.3"/><path clip-path="url(#a)" d="m71.4 91.6c.3.3.5 1 0 1.6-.3.3-1 .5-1.6 0-.3-.3-.5-1 0-1.6.3-.2 1.1-.5 1.6 0"/><path clip-path="url(#a)" d="m65.2 92.4c.5.5.8 1.3.3 1.8-.5.8-1.3.8-1.8.3-.5-.3-.5-1.3-.3-1.8.5-.6 1.2-.6 1.8-.3"/><path clip-path="url(#a)" d="m59.2 93.2c.5.5.5 1.6 0 2.1-.5.8-1.3.8-2.1.3-.5-.5-.8-1.3-.3-2.1.6-.6 1.6-.8 2.4-.3"/><path clip-path="url(#a)" d="m52.7 93.7c.8.8 1 1.8.3 2.3-.5.8-1.6 1-2.3.3-.8-.5-.8-1.6-.3-2.3.5-.8 1.8-.8 2.3-.3"/><path clip-path="url(#a)" d="m46.5 93.9c.8.8.8 1.8.3 2.6-.8 1-2.1 1-2.9.3-.8-.8-.8-1.8 0-2.6.5-.8 1.8-1 2.6-.3"/><path clip-path="url(#a)" d="m40 93.9c1 .8 1 2.1.3 2.9-.8 1-2.3 1-3.1.3-.8-.8-1-2.3 0-3.1.7-.8 2-.8 2.8-.1"/><path clip-path="url(#a)" d="m33.5 93.4c1 1 1 2.6 0 3.4-.8 1-2.3 1-3.1 0-1-.8-1-2.3-.3-3.1 1.1-1 2.6-1 3.4-.3"/><path clip-path="url(#a)" d="m27 92.9c1 1 1 2.6 0 3.6-1 .8-2.6.8-3.6 0-1-1-1-2.9 0-3.6 1-1 2.6-1 3.6 0"/><path clip-path="url(#a)" d="m20.3 91.9c1 1 1 2.9 0 3.9-1.3 1-2.9 1-3.9 0-1-1.3-1-2.9 0-3.9 1-1.3 2.8-1.1 3.9 0"/><path clip-path="url(#a)" d="m13.5 90.6c1.3 1.3 1 3.1-.3 4.2-1 1-3.1 1-4.1-.3-1-1-1-3.1.3-4.2 1.3-1 3.1-1 4.1.3"/><path clip-path="url(#a)" d="m6.8 89c1.3 1.3 1 3.1-.3 4.4-1.3 1-3.4 1-4.4-.5-1.3-1.3-1-3.1.3-4.4 1.3-1 3.4-1 4.4.5"/><path clip-path="url(#a)" d="m96.8 84.6v.5h-.3c-.3 0-.3-.3-.3-.3.3-.2.3-.2.6-.2"/><path clip-path="url(#a)" d="m91.4 87.2c.3.3.5.5.3.8 0 .3-.3.3-.5 0-.3 0-.5-.3-.3-.5-.1-.3.2-.3.5-.3"/><path clip-path="url(#a)" d="m86.2 89.5c.5.3.5.8.3 1 0 .3-.5.5-.8.3-.3-.3-.5-.5-.3-.8.2-.5.5-.5.8-.5"/><path clip-path="url(#a)" d="m80.7 91.9c.3.3.5.8.3 1.3-.3.3-.8.5-1 .3-.5-.3-.8-.8-.5-1.3.2-.3.7-.6 1.2-.3"/><path clip-path="url(#a)" d="m75 93.9c.5.3.8.8.3 1.3-.3.6-.8.8-1.3.6-.5-.3-.8-1-.5-1.6.2-.5 1-.8 1.5-.3"/><path clip-path="url(#a)" d="m69 95.5c.8.5.8 1.3.5 1.8-.3.8-1.3.8-1.8.5s-.8-1-.5-1.8c.6-.5 1.3-.8 1.8-.5"/><path clip-path="url(#a)" d="m63.1 97.1c.8.5 1 1.6.5 2.1-.5.8-1.3 1-2.1.5s-1-1.3-.5-2.1 1.3-.8 2.1-.5"/><path clip-path="url(#a)" d="m56.9 98.4c.8.5 1 1.6.5 2.3-.5.8-1.6 1-2.3.5-.8-.5-1-1.6-.5-2.3.4-.8 1.5-1.1 2.3-.5"/><path clip-path="url(#a)" d="m50.6 99.4c1 .8 1.3 1.8.5 2.9-.5.8-1.8 1-2.6.5-.8-.8-1-1.8-.5-2.9.6-.8 1.9-1 2.6-.5"/><path clip-path="url(#a)" d="m44.4 100.2c.8.8 1 2.1.5 3.1-.8.8-2.1 1-3.1.5-1-.8-1-2.1-.5-3.1.8-1 2.1-1 3.1-.5"/><path clip-path="url(#a)" d="m37.9 100.7c1 .8 1 2.3.3 3.4-.5 1-2.1 1.3-3.1.5s-1.3-2.3-.5-3.4c.7-1 2.3-1.3 3.3-.5"/><path clip-path="url(#a)" d="m31.2 101c1 .8 1.3 2.3.5 3.6-.8 1-2.6 1.3-3.6.3-1-.8-1.3-2.3-.5-3.4 1-1.3 2.5-1.3 3.6-.5"/><path clip-path="url(#a)" d="m24.4 100.7c1.3 1 1.3 2.9.5 3.9-1 1.3-2.9 1.6-3.9.5-1.3-1-1.3-2.6-.5-3.9 1.1-1.3 2.9-1.3 3.9-.5"/><path clip-path="url(#a)" d="m17.7 100.4c1.3 1 1.3 2.9.3 4.2s-2.9 1.3-4.2.3-1.3-2.9-.3-4.1c1.1-1.4 2.9-1.4 4.2-.4"/><path clip-path="url(#a)" d="m10.7 99.7c1.3 1 1.6 3.1.3 4.4-1 1.3-3.1 1.6-4.4.3-1.3-1-1.3-3.1-.3-4.4 1.3-1.4 3.1-1.6 4.4-.3"/><path clip-path="url(#a)" d="m3.9 98.6c-1.6-1.3-3.6-1.3-4.9 0s-1.3 3.6.3 4.9c1.3 1.3 3.4 1 4.7-.3 1.2-1.2 1.2-3.3-.1-4.6"/><path clip-path="url(#a)" d="m99.4 83.8v.3s-.3.3-.3 0c-.3 0-.3 0-.3-.3.3 0 .3-.2.6 0"/><path clip-path="url(#a)" d="m94.5 86.9c.3 0 .3.3.3.5-.3.3-.5.5-.8.3 0 0-.3-.3-.3-.5.2-.3.5-.3.8-.3"/><path clip-path="url(#a)" d="m89.5 90.1c.3 0 .5.5.5.8-.3.5-.5.5-1 .5-.3-.3-.5-.5-.3-1 .1-.3.6-.6.8-.3"/><path clip-path="url(#a)" d="m84.4 92.9c.5.3.8.8.5 1-.3.5-.8.8-1.3.5-.3 0-.5-.5-.3-1 0-.5.5-.7 1.1-.5"/><path clip-path="url(#a)" d="m78.9 95.8c.5 0 .8.8.5 1.3 0 .5-.8.8-1.3.5s-.8-.8-.5-1.3c0-.5.8-.8 1.3-.5"/><path clip-path="url(#a)" d="m73.5 98.1c.5.3.8 1 .5 1.8-.3.5-1 1-1.6.5-.8-.3-1-1-.8-1.6.3-.7 1.1-1 1.9-.7"/><path clip-path="url(#a)" d="m67.5 100.4c.8.3 1.3 1.3.8 2.1-.3.8-1 1-1.8.8-.8-.5-1.3-1.3-.8-2.1.2-.8 1-1 1.8-.8"/><path clip-path="url(#a)" d="m61.8 102.5c.8.5 1 1.6.8 2.3-.5.8-1.6 1.3-2.3.8-.8-.3-1.3-1.3-.8-2.3.2-.8 1.2-1.1 2.3-.8"/><path clip-path="url(#a)" d="m55.6 104.3c1 .5 1.3 1.8 1 2.6-.5 1-1.8 1.3-2.6 1-1-.5-1.6-1.8-1-2.6.5-1 1.8-1.5 2.6-1"/><path clip-path="url(#a)" d="m49.3 105.9c1 .8 1.6 2.1 1 3.1-.5 1-1.8 1.3-3.1.8-1-.5-1.3-1.8-.8-2.9.6-1 1.9-1.5 2.9-1"/><path clip-path="url(#a)" d="m43.1 107.4c1 .5 1.6 1.8.8 3.1-.5 1-2.1 1.6-3.1.8-1.3-.5-1.6-2.1-1-3.1.7-1 2-1.5 3.3-.8"/><path clip-path="url(#a)" d="m36.4 108.5c1.3.5 1.8 2.1 1 3.4s-2.3 1.6-3.6 1c-1-.8-1.6-2.3-.8-3.6s2.3-1.6 3.4-.8"/><path clip-path="url(#a)" d="m29.9 109.3c1.3.8 1.6 2.3.8 3.6s-2.6 1.8-3.9 1-1.6-2.6-.8-3.9 2.6-1.5 3.9-.7"/><path clip-path="url(#a)" d="m22.9 109.5c1.6 1 1.8 2.9 1 4.2-1 1.6-2.9 1.8-4.2 1-1.3-1-1.8-2.9-.8-4.1.9-1.6 2.7-1.9 4-1.1"/><path clip-path="url(#a)" d="m16.1 109.8c1.3 1 1.8 2.9.8 4.4-1 1.6-3.1 1.8-4.4.8-1.6-1-1.8-2.9-.8-4.4.8-1.3 2.9-1.9 4.4-.8"/><path clip-path="url(#a)" d="m9.1 109.5c-1.6-1-3.9-.8-4.9.8s-.8 3.6.8 4.7c1.6 1.3 3.6.8 4.7-.8 1.2-1.3.7-3.6-.6-4.7"/><path clip-path="url(#a)" d="m1.9 109c-1.6-1.3-3.9-.8-5.2.8-1 1.6-.8 3.9.8 4.9 1.6 1.3 3.9 1 4.9-.5 1.3-1.8 1-3.9-.5-5.2"/><path clip-path="url(#a)" d="m-21.7 118.1c.8.5 1.6 1.6 1.8 2.6v-.3c1.3-2.1 3.9-2.6 6-1.3.8.8 1.6 1.6 1.8 2.6 0-.3 0-.3.3-.5 1-1.8 3.6-2.3 5.4-1.3 1 .8 1.6 1.6 1.8 2.9 0-.5.3-.8.5-1.3 1-1.6 3.4-2.3 5.2-1 1.8 1 2.3 3.4 1.3 5.2s-3.4 2.3-5.2 1.3c-1-.8-1.6-1.6-1.8-2.6-.3.3-.3.8-.5 1.3-1.3 1.8-3.6 2.3-5.7 1-.8-.5-1.3-1.3-1.6-2.3-.3.3-.3.5-.5.8-1.3 1.8-3.9 2.3-6 1-.8-.5-1.3-1.3-1.6-2.3 0 .3-.3.3-.3.5-1.3 1.6-3.4 2.3-5.2 1.6v-8.3c1.4-.7 3-.7 4.3.4"/><path clip-path="url(#a)" d="m101.7 82.3c.3.3.3.3.3.5h-.3c-.3 0-.3 0-.3-.3.1 0 .1-.2.3-.2"/><path clip-path="url(#a)" d="m97.3 86.2c.3.3.3.3.3.5 0 .3-.3.5-.5.5-.3 0-.3-.3-.3-.5 0-.3.3-.5.5-.5"/><path clip-path="url(#a)" d="m92.7 90.1c.3 0 .5.3.5.8 0 .3-.5.5-.8.5-.5-.3-.5-.5-.5-.8 0-.5.5-.8.8-.5"/><path clip-path="url(#a)" d="m88 93.4c.5.3.8.8.8 1 0 .5-.5.8-1 .8s-.8-.5-.8-1c.2-.5.7-.8 1-.8"/><path clip-path="url(#a)" d="m83.1 96.8c.5.3 1 .8.8 1.6 0 .5-.8.8-1.3.8-.5-.3-1-.8-.8-1.6.2-.5.7-.8 1.3-.8"/><path clip-path="url(#a)" d="m77.9 100.2c.8.3 1 .8 1 1.6-.3.8-1 1-1.8 1-.5-.3-1-1-.8-1.8.3-.6.8-1.1 1.6-.8"/><path clip-path="url(#a)" d="m72.4 103.3c.8 0 1.3 1 1 1.8s-1 1.3-1.8 1-1.3-1-1-2.1c.3-.7 1-1 1.8-.7"/><path clip-path="url(#a)" d="m67 105.9c.8.5 1.3 1.3 1 2.3-.3.8-1.3 1.3-2.1 1-1-.3-1.6-1.3-1.3-2.1.3-1 1.3-1.5 2.4-1.2"/><path clip-path="url(#a)" d="m61 108.7c1 .3 1.6 1.3 1.3 2.3s-1.6 1.6-2.3 1.3c-1-.5-1.6-1.6-1.3-2.6.2-1 1.5-1.5 2.3-1"/><path clip-path="url(#a)" d="m55 111.1c1.3.3 1.8 1.6 1.3 2.6-.3 1.3-1.6 1.8-2.6 1.3-1.3-.3-1.8-1.6-1.3-2.6.3-1.3 1.6-1.8 2.6-1.3"/><path clip-path="url(#a)" d="m49.1 113.1c1 .5 1.8 1.8 1.3 3.1s-1.8 1.8-3.1 1.3-1.8-1.8-1.3-3.1c.5-1 1.8-1.8 3.1-1.3"/><path clip-path="url(#a)" d="m42.6 115c1.3.8 2.1 2.1 1.6 3.4-.8 1.3-2.1 2.1-3.4 1.6s-2.1-2.1-1.6-3.4c.5-1.4 2.1-2.2 3.4-1.6"/><path clip-path="url(#a)" d="m36.1 116.8c1.6.5 2.1 2.3 1.6 3.6-.8 1.3-2.3 2.1-3.9 1.3-1.3-.5-1.8-2.3-1.3-3.6s2.3-2.1 3.6-1.3"/><path clip-path="url(#a)" d="m29.4 118.1c1.6.8 2.1 2.6 1.6 3.9-.8 1.6-2.6 2.1-4.1 1.6-1.3-.8-2.1-2.6-1.3-4.1.7-1.4 2.5-2.2 3.8-1.4"/><path clip-path="url(#a)" d="m22.6 119.1c-1.6-.8-3.4-.3-4.4 1.3-.8 1.6 0 3.6 1.6 4.4s3.4.3 4.2-1.3c.7-1.5.2-3.6-1.4-4.4"/><path clip-path="url(#a)" d="m15.6 119.9c1.6.8 2.3 2.9 1.3 4.7-.8 1.6-2.9 2.1-4.7 1.3-1.6-1-2.1-3.1-1.3-4.7 1.1-1.6 3.2-2.3 4.7-1.3"/><path clip-path="url(#a)" d="m8.4 120.1c-1.6-.8-3.9-.3-4.9 1.3-1 1.8-.3 4.2 1.3 4.9 1.8 1 4.1.5 4.9-1.3 1-1.5.5-3.8-1.3-4.9"/><path clip-path="url(#a)" d="m-13.7 132.3c.8.5 1.6 1.3 1.8 2.1.3 0 .3 0 .3-.3 1-2.1 3.6-2.9 5.7-1.8 1 .5 1.6 1.3 2.1 2.3 0-.3 0-.5.3-.5.8-2.1 3.4-2.9 5.2-2.1 1 .5 1.8 1.6 2.1 2.6.3-.5.3-.8.5-1.3.8-1.8 3.1-2.6 4.9-1.8s2.9 3.1 1.8 4.9c-.8 2.1-3.1 2.9-4.9 2.1-1-.5-1.8-1.3-2.1-2.3 0 .3-.3.8-.3 1.3-1 2.1-3.4 2.9-5.4 1.8-1-.3-1.6-1-2.1-2.1 0 .3 0 .5-.3.8-1 2.1-3.6 2.9-5.7 1.8-.8-.3-1.6-1-2.1-2.1v.5c-1.3 2.1-3.9 2.9-6.2 1.8-.8-.5-1.6-1.3-1.8-2.1-1.3 2.1-3.9 2.9-6 1.8v-8.3c1.3-.5 2.9-.5 4.2.3 1 .5 1.6 1.3 2.1 2.1 1-2 3.8-2.8 5.9-1.5"/><path clip-path="url(#a)" d="m104.1 80.7s.3.3 0 .3c0 .3 0 .3-.3.3 0 0-.3 0 0-.3 0 0 0-.3.3-.3"/><path clip-path="url(#a)" d="m100.2 85.1c.3 0 .3.3.3.5 0 .3-.3.5-.5.5-.3 0-.3-.3-.3-.5s.2-.5.5-.5"/><path clip-path="url(#a)" d="m96 89.5c.3 0 .5.3.5.8 0 .3-.3.5-.8.5-.3 0-.5-.5-.5-.8 0-.2.3-.5.8-.5"/><path clip-path="url(#a)" d="m91.6 93.7c.5 0 .8.5.8.8 0 .5-.5 1-1 .8-.3 0-.8-.3-.8-.8.2-.6.5-.8 1-.8"/><path clip-path="url(#a)" d="m87.5 97.6c.5 0 1 .8.8 1.3 0 .5-.5 1-1 1-.8-.3-1-.8-1-1.3-.1-.5.4-1 1.2-1"/><path clip-path="url(#a)" d="m82.5 101.5c.8.3 1.3.8 1.3 1.6-.3.8-.8 1-1.6 1s-1.3-.8-1-1.6c0-.5.8-1 1.3-1"/><path clip-path="url(#a)" d="m77.6 105.1c.8.3 1.6 1 1.3 1.8 0 .8-.8 1.3-1.8 1.3-.8-.3-1.3-1-1-1.8-.1-.8.7-1.3 1.5-1.3"/><path clip-path="url(#a)" d="m72.4 108.7c1 .3 1.6 1 1.6 2.1-.3.8-1 1.6-2.1 1.3-1-.3-1.6-1-1.3-2.1 0-.7 1-1.5 1.8-1.3"/><path clip-path="url(#a)" d="m67.2 112.1c1 .3 1.6 1.3 1.3 2.3 0 1-1 1.6-2.1 1.6-1-.3-1.8-1.3-1.6-2.3.4-1.1 1.4-1.9 2.4-1.6"/><path clip-path="url(#a)" d="m61.5 115.2c1 .3 1.8 1.6 1.6 2.6-.3 1-1.3 1.8-2.6 1.6-1-.3-1.8-1.3-1.6-2.6.3-1.1 1.6-1.8 2.6-1.6"/><path clip-path="url(#a)" d="m55.8 118.3c1 .3 1.8 1.6 1.6 2.9-.3 1-1.6 1.8-2.9 1.6-1.3-.3-2.1-1.6-1.6-2.9.3-1.3 1.6-2.1 2.9-1.6"/><path clip-path="url(#a)" d="m49.6 120.9c1.6.3 2.3 1.8 1.8 3.1-.3 1.3-1.8 2.1-3.1 1.8s-2.1-1.8-1.8-3.1c.5-1.3 1.8-2 3.1-1.8"/><path clip-path="url(#a)" d="m43.4 123.5c1.6.3 2.3 1.8 1.8 3.4-.3 1.3-1.8 2.3-3.4 1.8s-2.3-2.1-1.8-3.4c.5-1.5 2.1-2.3 3.4-1.8"/><path clip-path="url(#a)" d="m36.9 125.6c1.6.5 2.6 2.3 2.1 3.9s-2.3 2.3-3.9 1.8-2.3-2.3-1.8-3.9c.5-1.5 2-2.3 3.6-1.8"/><path clip-path="url(#a)" d="m30.4 127.7c-1.8-.8-3.6.3-4.1 1.8-.5 1.6.3 3.4 1.8 4.2 1.8.5 3.6-.3 4.1-2.1.5-1.6-.2-3.4-1.8-3.9"/><path clip-path="url(#a)" d="m23.4 129.2c1.8.5 2.6 2.6 2.1 4.4-.8 1.6-2.6 2.6-4.4 1.8-1.8-.5-2.6-2.6-2.1-4.4.8-1.5 2.6-2.6 4.4-1.8"/><path clip-path="url(#a)" d="m16.4 130.5c-1.8-.8-3.9 0-4.7 2.1-.8 1.8 0 3.9 1.8 4.7s4.1-.3 4.9-2.1c.6-1.8-.2-3.9-2-4.7"/><path clip-path="url(#a)" d="m105.9 78.9c.3 0 .3 0 .3.3 0 0 0 .3-.3.3l-.3-.3c0-.3.3-.3.3-.3"/><path clip-path="url(#a)" d="m102.8 83.8c.3 0 .3 0 .5.3 0 .3-.3.5-.5.5-.3 0-.5-.3-.5-.3-.1-.2.2-.5.5-.5"/><path clip-path="url(#a)" d="m99.1 88.5c.5 0 .8.3.8.8 0 .3-.3.5-.8.5-.3 0-.5-.3-.5-.5 0-.5.3-.8.5-.8"/><path clip-path="url(#a)" d="m95.5 93.2c.5 0 .8.5.8.8 0 .5-.3 1-.8 1s-1-.3-1-.8.5-1 1-1"/><path clip-path="url(#a)" d="m91.4 97.8c.8 0 1.3.5 1.3 1s-.5 1-1 1c-.8 0-1-.5-1-1-.1-.4.1-1 .7-1"/><path clip-path="url(#a)" d="m87.5 102.2c.8 0 1.3.5 1.3 1.3s-.5 1.3-1.3 1.3-1.3-.5-1.3-1.3c0-.7.7-1.3 1.3-1.3"/><path clip-path="url(#a)" d="m83.1 106.7c.8 0 1.6.5 1.6 1.6 0 .8-.8 1.3-1.6 1.3s-1.6-.5-1.6-1.6c0-.8.8-1.3 1.6-1.3"/><path clip-path="url(#a)" d="m78.4 110.8c1 0 1.8.8 1.6 1.8 0 .8-.8 1.6-1.6 1.6-1 0-1.8-.8-1.8-1.8 0-1.1 1-1.6 1.8-1.6"/><path clip-path="url(#a)" d="m73.5 114.7c1 .3 1.8 1 1.8 2.1s-1 1.8-2.1 1.8c-1 0-1.8-1-1.8-2.1.2-1 1-1.8 2.1-1.8"/><path clip-path="url(#a)" d="m68.3 118.6c1.3.3 2.1 1.3 2.1 2.3 0 1.3-1.3 2.1-2.3 2.1-1.3-.3-2.1-1.3-1.8-2.3-.1-1.3.9-2.1 2-2.1"/><path clip-path="url(#a)" d="m63.1 122.2c1.3.3 2.1 1.3 2.1 2.6-.3 1.3-1.3 2.3-2.6 2.1-1.3 0-2.3-1.3-2.1-2.6 0-1.3 1.3-2.1 2.6-2.1"/><path clip-path="url(#a)" d="m57.4 125.9c1.3.3 2.3 1.6 2.1 2.9 0 1.3-1.3 2.3-2.9 2.1-1.3 0-2.3-1.3-2.1-2.9.3-1.4 1.6-2.4 2.9-2.1"/><path clip-path="url(#a)" d="m51.4 129c1.6.3 2.6 1.8 2.3 3.4-.3 1.3-1.6 2.3-3.1 2.1-1.6-.3-2.6-1.6-2.3-3.1.3-1.7 1.8-2.7 3.1-2.4"/><path clip-path="url(#a)" d="m45.4 132.1c1.6.3 2.6 1.8 2.3 3.4-.3 1.8-1.8 2.9-3.4 2.6-1.8-.5-2.9-2.1-2.6-3.6.6-1.6 2.2-2.7 3.7-2.4"/><path clip-path="url(#a)" d="m107.7 76.8h.3c0 .3 0 .3-.3.5l-.3-.3c0-.2.3-.2.3-.2"/><path clip-path="url(#a)" d="m105.1 82c.3 0 .5 0 .5.3s0 .5-.3.5c-.3.3-.5 0-.8-.3.1-.2.3-.5.6-.5"/><path clip-path="url(#a)" d="m102.2 87.2c.3 0 .8.3.8.5 0 .3-.3.8-.5.8-.5 0-.8-.3-.8-.5 0-.5.3-.8.5-.8"/><path clip-path="url(#a)" d="m99.1 92.4c.5-.3 1 .3 1 .8 0 .3-.3.8-.8.8-.5.3-1-.3-1-.5.1-.6.3-1.1.8-1.1"/><path clip-path="url(#a)" d="m95.8 97.3c.5 0 1.3.3 1.3 1 0 .5-.3 1-1 1.3-.5 0-1-.5-1-1-.4-.5.1-1 .7-1.3"/><path clip-path="url(#a)" d="m92.1 102.2c.8 0 1.6.5 1.6 1.3 0 .5-.5 1.3-1 1.3-.8.3-1.6-.3-1.6-1 0-.8.5-1.3 1-1.6"/><path clip-path="url(#a)" d="m88.8 107.2c.8 0 1.6.5 1.6 1.3 0 1-.5 1.6-1.3 1.8-.8 0-1.6-.5-1.8-1.3-.1-1 .4-1.8 1.5-1.8"/><path clip-path="url(#a)" d="m84.6 111.8c1 0 1.8.8 1.8 1.8 0 .8-.5 1.6-1.6 1.8-1 0-1.8-.8-1.8-1.6.1-.9.6-1.7 1.6-2"/><path clip-path="url(#a)" d="m80.2 116.5c1 0 2.1.8 2.1 1.8s-.8 2.1-1.8 2.1-2.1-.8-2.1-1.8.8-1.8 1.8-2.1"/><path clip-path="url(#a)" d="m75.5 121.2c1.3-.3 2.3.8 2.3 2.1 0 1-.8 2.1-2.1 2.1-1 0-2.1-.8-2.1-2.1-.1-1.1.9-2.1 1.9-2.1"/><path clip-path="url(#a)" d="m70.9 125.3c1.3 0 2.3 1 2.3 2.3s-1 2.3-2.3 2.6c-1.3 0-2.3-1-2.3-2.3-.1-1.3 1-2.3 2.3-2.6"/><path clip-path="url(#a)" d="m65.7 129.7c1.3 0 2.6 1 2.6 2.3 0 1.6-1.3 2.6-2.6 2.6-1.6 0-2.6-1-2.6-2.6 0-1.2 1.3-2.3 2.6-2.3"/><path clip-path="url(#a)" d="m109.3 74.2.3.3c0 .3 0 .3-.3.3 0 .3-.3 0-.3 0 0-.3 0-.3.3-.6"/><path clip-path="url(#a)" d="m107.2 79.9c.3 0 .5 0 .5.3.3.3 0 .5-.3.5-.3.3-.5 0-.5-.3 0-.2 0-.5.3-.5"/><path clip-path="url(#a)" d="m105.1 85.4c.3 0 .8.3.8.5.3.3 0 .8-.5.8-.3.3-.5 0-.8-.5 0-.3.2-.5.5-.8"/><path clip-path="url(#a)" d="m102.8 90.8c.3 0 .8.3 1 .8 0 .5-.3.8-.5 1-.5 0-1-.3-1.3-.5 0-.5.2-1 .8-1.3"/><path clip-path="url(#a)" d="m100.2 96.3c.5 0 1 .3 1.3.8 0 .8-.3 1.3-.8 1.6-.5 0-1.3-.3-1.3-.8-.3-.8 0-1.4.8-1.6"/><path clip-path="url(#a)" d="m97.1 101.7c.8 0 1.6.3 1.6 1 .3.5-.3 1.3-.8 1.6-.8.3-1.6-.3-1.6-1-.3-.5.2-1.3.8-1.6"/><path clip-path="url(#a)" d="m93.9 107.2c.8-.3 1.6.3 1.8 1 .3.8-.3 1.6-1 1.8-.8.3-1.6-.3-1.8-1-.2-.8.3-1.8 1-1.8"/><path clip-path="url(#a)" d="m90.6 112.4c1-.3 1.8.3 2.1 1.3s-.5 1.8-1.3 2.1-1.6-.5-1.8-1.3c-.3-1.1.2-1.9 1-2.1"/><path clip-path="url(#a)" d="m87.2 117.6c1-.3 2.1.5 2.1 1.6.3 1-.3 2.1-1.3 2.1-1 .3-2.1-.3-2.3-1.3-.3-1.1.5-2.2 1.5-2.4"/><path clip-path="url(#a)" d="m83.1 122.5c1.3 0 2.3.8 2.6 1.8.3 1.3-.5 2.3-1.8 2.6-1 0-2.3-.8-2.3-1.8-.4-1.3.4-2.4 1.5-2.6"/><path clip-path="url(#a)" d="m78.9 127.4c1.3 0 2.6.8 2.6 2.1.3 1.3-.5 2.6-1.8 2.6-1.3.3-2.6-.5-2.9-1.8 0-1.3.8-2.6 2.1-2.9"/></g><path clip-path="url(#b)" d="m74.6 79.7.1-3.3c-.2-4.1-.6-10.8-.6-10.8-.7.3-4-.8-4.5-2.8s-1-11.8 0-13.9l-.1-.2c-.7-2.5-1.6-18.9 3.8-23.8 5.6-5.1 8.2-5.6 19.5-4.6h2.6c11.4-1 13.9-.5 19.5 4.6 5.5 5.1 3.1 22.3 2.4 24l.2.9c.5 2 0 11.7-.7 13s-1.7 3.2-4.1 2.9c.2 1.5-1.2 11.1-1.2 11.1l-.7 1v6.7l-19.8 21.1-16.4-21.2z" fill="#fff"/><path clip-path="url(#b)" d="m117.4 48.7c.7-1.7 3.1-18.9-2.4-24-5.6-5.1-8.2-5.6-19.5-4.6h-2.6c-11.4-1-13.9-.5-19.5 4.6-5.4 4.9-4.5 21.3-3.8 23.8l.1.2c.4-.9 1.5-2.4 3.7-1.9 0 .9.7 6.9.4 9.3h1.9s-.2-4.4-.2-7.7l2-4.1s-1.5-4.7-2.1-6.7.6-4.1.6-4.1 2.1-4.2 8.3-4.7c3.7-.1 6.9 2.3 10 2.1h.2c3.1.3 6.3-2.2 10-2.1 6.2.5 8.3 4.7 8.3 4.7s1.2 2.1.6 4.1-2.1 6.7-2.1 6.7l-.1.3 2 4.3-.1 7.2h1.4s.9-8.1.9-8.9c-.3-.9 1.7-.1 2 1.5" fill="#231f20"/><path clip-path="url(#b)" d="m101.4 19.6c5.6 0 8.1 1.3 12.2 5.1 5.5 5.1 3.1 22.3 2.4 24l.2.9c.5 2 0 11.7-.7 13-.6 1.2-1.6 2.9-3.5 2.9h-.5c.2 1.5-1.2 11.1-1.2 11.1l-.7 1v3.2h1.8l5.3 6.1c10.2 3.6 31.6 15.1 31.6 15.1l9.1 28.5h-135.6l14.3-31.9 35.2-16.9 2-2.2.1-3.3c-.2-4.1-.6-10.8-.6-10.8l-.3.1c-1.1 0-3.8-1.1-4.2-2.9-.5-2-1-11.8 0-13.9l-.1-.2c-.7-2.5-1.6-18.9 3.8-23.8 4.1-3.8 6.6-5.1 12.2-5.1 2 0 4.3.2 7.3.4h2.6c3-.2 5.4-.4 7.3-.4m0-1.1c-1.8 0-4 .1-7.4.4h-2.5c-3.4-.3-5.6-.4-7.4-.4-6.1 0-8.8 1.6-12.9 5.3-5.7 5.2-4.9 21.8-4.1 24.8-.9 3.1-.4 12.4.1 14.2.5 2.1 3 3.3 4.6 3.6.1 2 .4 6.7.5 9.8l-.1 2.9-1.6 1.9-35 16.8-.2.1-.1.1-14.3 31.8-1.6 1.8h140.1l-1.2-1.7-9.1-28.5-.1-.2-.2-.1c-.9-.5-21.3-11.4-31.5-15.1l-5.1-5.9-.3-.4h-1.2v-1.8l.5-.7.2-.2v-.3c.2-1.4 1.1-7.4 1.2-10.2 2.4-.3 3.5-2.5 4-3.5.8-1.7 1.3-11.5.8-13.7l-.1-.6c.8-2.9 3-19.5-2.8-24.8-4.3-3.8-7-5.4-13.2-5.4"/><path clip-path="url(#b)" d="m21.8 130.5 14.3-31.8 37.4-17.9-2.9 49.7z" fill="#231f20"/><path clip-path="url(#b)" d="m73.5 80.8-2.9 49.8h-48.8l14.3-31.9zm.3-.5-.4.2-37.4 17.9-14.3 31.9-.4.4h49.6v-.3l2.9-49.8z" fill="#fff"/><path clip-path="url(#b)" d="m112.9 85.8-7.5 44.7h52.1l-9.1-28.5c-.1 0-28.7-15.3-35.5-16.2" fill="#231f20"/><path clip-path="url(#b)" d="m112.9 85.8c6.9.9 35.4 16.2 35.4 16.2l9.1 28.5h-52.1zm-.2-.3v.2l-7.5 44.7-.1.3h52.9l-.3-.4-9.1-28.5v-.1h-.1c-1.2-.6-28.7-15.3-35.5-16.2z" fill="#fff"/><path clip-path="url(#b)" d="m66.4 130.5 5.6-38.4.5-3.6.8-5.3 8.3 10.6 7.8 10 8.9-9.1 11.3-11.5v6.4 3.1l-2.5 37.8z" fill="#fff"/><path clip-path="url(#b)" d="m70.6 130.5 2.9-51.1-24.4 26.2 8.4 24.9z" fill="#231f20"/><path clip-path="url(#b)" d="m73.5 79.4-2.9 51.1h-13.1l-8.4-24.9zm.3-.7-.5.5-24.3 26.2-.1.1v.1l8.4 24.9.1.2h13.5v-.3l2.9-51.1z" fill="#fff"/><path clip-path="url(#b)" d="m109.6 80.8v11.9l-4.3 37.8h10.4l15.5-26.7-19.9-23z" fill="#231f20"/><path clip-path="url(#b)" d="m111.3 80.8 19.9 23-15.5 26.8h-10.4l4.2-37.8v-12zm.1-.3h-2.2v12.2l-4.2 37.8v.3h10.9l.1-.1 15.5-26.8.1-.2-.1-.1z" fill="#fff"/><path clip-path="url(#b)" d="m109.6 92.7v-3.1l-15.8 15.4h4.2z" fill="#231f20"/><path clip-path="url(#b)" d="m72 92.1.5-3.6c1 1.3 13.1 17.2 13.1 17.2h-4.4z" fill="#231f20"/><path clip-path="url(#b)" d="m86.5 105s-10.5-5-13.1-5.2c-1.2 1.8-1.5 15.5 2.2 19.9 1.1-.2 10.8-7.7 10.8-7.7 1.8 1.1 4.9.7 5.8 0 0 0 4.4 7.5 10.6 9.1 1.5-1.5 4.2-17.7 4-19.3-.2-1.5-11.5 2-14.2 3.9.1-.1-.3-2.8-6.1-.7" fill="#231f20"/><path clip-path="url(#b)" d="m92.3 112c-.9.7-4 1.1-5.8 0v-7c5.8-2.1 6.2.7 6.2.7z" fill="#231f20"/><path clip-path="url(#b)" d="m89.4 103.8-7.8-10-2.8 16.6z" fill="#fff"/><path clip-path="url(#b)" d="m89.4 103.8s-4 2.7-10.4 6.9l-.6.4.1-.7c.3-2 .8-5.1 1.3-8.4.5-3.2 1.1-6.2 1.5-8.2l.1-.7.4.6c4.8 6.1 7.6 10.1 7.6 10.1s-3.2-3.7-8-9.7c.2 0 .3-.1.6-.1-.3 2-.8 5-1.3 8.2-.6 3.3-1.1 6.3-1.5 8.3-.2-.1-.4-.3-.5-.3 6.5-4.1 10.7-6.4 10.7-6.4" fill="#231f20"/><path clip-path="url(#b)" d="m98.3 94.7-8.9 9.1 9.9 6.6z" fill="#fff"/><path clip-path="url(#b)" d="m98.3 94.7s.7 6.4 1.4 15.7l.1.8-.6-.4c-.9-.6-2.3-1.5-3.7-2.4-2.4-1.6-4.7-3.2-6.2-4.2l-.3-.2.3-.3c5.4-5.6 9-9 9-9s-3.3 3.7-8.6 9.3c0-.1 0-.3-.1-.5 1.5 1 3.8 2.5 6.3 4.1 1.4 1 2.8 1.9 3.7 2.5-.2.1-.5.3-.6.3-.6-9.2-.7-15.7-.7-15.7" fill="#231f20"/><path clip-path="url(#b)" d="m73.4 76.3s.2 1.1.3 3.1c0 1.1 0 2.7-.1 4.4-.2 4.1-.8 7.4-.8 7.4s-.2-3.4 0-7.5c.1-1.7.3-3.3.4-4.3.1-1.9.2-3.1.2-3.1" fill="#231f20"/><path clip-path="url(#b)" d="m109.6 92.7s-.4-3.4-.4-7.5c0-4.2.4-7.5.4-7.5s.4 3.4.4 7.5c-.1 4.1-.4 7.5-.4 7.5" fill="#231f20"/><path clip-path="url(#b)" d="m112.2 58.2s-.2 2.3-.6 7.3c0 2.4-.5 6.3-1.1 11.2v.2l-.7 1c-2.9 3.4-7.5 8.7-12.5 14.5l-.1.1h-9.2l-.1-.1c-1.4-1.6-2.7-3.2-4-4.7-.6-.8-1.3-1.5-1.9-2.2l-.9-1.1-.9-1c-2.6-2.6-5-4.7-6.8-6.8l-.1-.1v-.1c-.2-5.7-.4-10.2-.6-13.4 0-1.6 0-2.8.1-3.6 0-.4.1-.7.1-.9s.1-.3.1-.3v.3c0 .2-.1.5-.1.9-.1.8 0 2 .1 3.6.2 3.1.5 7.6.9 13.3 0 0 0-.1-.1-.1 1.8 2 4.3 4.1 6.9 6.7l1 1c.3.3.6.7.9 1.1l1.9 2.2c1.3 1.5 2.6 3.1 4 4.7l-.3-.1h8.8c-.1.1-.2.1-.3.1 5.1-5.8 9.7-11 12.7-14.4.3-.4.6-.8.7-1v.1c.7-4.8 1.3-8.8 1.4-11.1.5-5 .7-7.3.7-7.3" fill="#231f20"/><path clip-path="url(#b)" d="m90.3 66.6s-.3-4.3-.4-10.6l.1.3c-.7-.5-1.8-1.4-2.9-2.2-1.6-1.2-3.1-2.3-4.4-3.3-.7-.5-1.3-1-2-1.4-.3-.2-.6-.4-.9-.5l-.2-.1h-.2s-.2.1-.3.2c-.9.8-1.6 1.7-2.1 2.2-.5.6-.7.9-.7.9l.6-.9c.4-.6 1-1.5 1.9-2.5.1-.1.2-.2.5-.3h.3c.1 0 .2 0 .3.1.4.1.7.3 1.1.5.7.4 1.4.8 2.1 1.3 1.4 1 3 2.1 4.5 3.3 1.1.9 2.2 1.7 2.9 2.3l.1.1v.2c0 6.1-.3 10.4-.3 10.4" fill="#231f20"/><path clip-path="url(#b)" d="m96.7 80.8c1.9-1.7 1.8-6.2 1.8-7.5h-11.3c-.2 1.9 0 5 1.7 7.5z" fill="#fff"/><path clip-path="url(#b)" d="m90.3 69.7s.1.1.4.2c.1.1.3.1.5.2s.4.1.7.2c.5.1 1.2.1 1.8-.1.7-.3 1.4-.8 1.7-1.6v.1c-.1-3-.2-7.1-.2-11.7v-1.2l.2-.1c4.7-2.8 8.9-5.1 11-6.2l.1-.1.1.1c1.7 2.3 2.5 3.4 2.5 3.4s-.9-1-2.8-3.2h.2c-2 1.3-6 3.8-10.7 6.6l.2-.3v1c0 4.6-.1 8.7-.2 11.7-.5 1-1.3 1.5-2.1 1.7s-1.4.2-2 0c-.3-.1-.5-.1-.7-.2l-.5-.3z" fill="#231f20"/><path clip-path="url(#b)" d="m89.3 69.2-.1.1c-.1.1-.2.2-.4.3s-.5.3-.9.2c-.4 0-.8-.5-.9-.9-.2-.8 0-1.4.2-1.9.2-.4.4-.6.4-.6s-.1 1.2.2 2.2c.1.2.2.4.3.5.2.1.4.1.6.1s.4 0 .5-.1c.1.2.1.1.1.1" fill="#231f20"/><path clip-path="url(#b)" d="m89 80.8-6.6-7.5h4.9c-.3 1.8-.1 5 1.7 7.5" fill="#231f20"/><path clip-path="url(#b)" d="m98.5 73.2h4.2l-6 7.5c1.8-1.7 1.8-6.1 1.8-7.5" fill="#231f20"/><path clip-path="url(#b)" d="m95.6 68.6s.1 0 .2.1.3.2.6.2c.2.1.6.1.7.1s.2-.3.2-.7c0-.7-.3-1.5-.4-2-.1-.2-.2-.5-.3-.6s-.1-.2-.1-.2.1.1.2.1l.5.5c.4.5.8 1.2.9 2.2 0 .2 0 .5-.1.8-.1.2-.3.6-.6.6-.2.1-.3 0-.4 0s-.2 0-.3-.1c-.2-.1-.3-.2-.4-.3l-.5-.5z" fill="#231f20"/><path clip-path="url(#b)" d="m82.3 73.2s2.4 2.5 6.8 7.4c0 0-.1 0-.2-.1 1.7 0 4.5-.1 7.7-.1 0 0-.2.1-.3.1.9-1.1 2.3-2.9 3.8-4.8.9-1.1 1.7-2.1 2.2-2.7.1.3.2.5.3.6-11.7-.1-20.3-.4-20.3-.4s8.6-.3 20.4-.4h.8l-.5.6c-.5.6-1.3 1.7-2.2 2.7-1.5 1.9-3 3.7-3.9 4.8l-.1.1h-.2c-3.2 0-6-.1-7.7-.1h-.1l-.1-.1c-4.1-4.9-6.4-7.6-6.4-7.6" fill="#231f20"/><path clip-path="url(#b)" d="m104.9 75.1s0-.3-.2-.7c-.1-.4-.3-1-.4-1.7-.1-.6-.2-1.2-.3-1.6s-.3-.7-.2-.7c0 0 .3.1.6.5s.6 1 .8 1.7c.1.7.1 1.4 0 1.8-.1.5-.3.7-.3.7" fill="#231f20"/><path clip-path="url(#b)" d="m79.9 77s-.3-.3-.7-.8c-.2-.3-.3-.6-.5-1.1-.1-.4-.2-.9-.2-1.4 0-1 .4-1.9.7-2.5.2-.3.3-.5.5-.6l.2-.2s0 .1-.1.3-.2.4-.2.7c-.1.6-.3 1.4-.3 2.3 0 .5.1.9.1 1.3.1.4.1.7.2 1 .2.6.3 1 .3 1" fill="#231f20"/><path clip-path="url(#b)" d="m105 56.9c-.4-.2-4.1 0-4.7 0-.1 1.4.4 3.1 2.3 3.1 2 0 2.4-2.1 2.4-3.1" fill="#231f20"/><path clip-path="url(#b)" d="m81.9 56.9c.4-.2 4.1 0 4.7 0 .1 1.4-.4 3.1-2.3 3.1-2 0-2.4-2.1-2.4-3.1" fill="#231f20"/><path clip-path="url(#b)" d="m106.6 59.3v-.5c0-.2 0-.3-.1-.6-.1-.1-.3-.3-.6-.5-.5-.4-.9-.8-1.6-1.2-.2-.1-.6-.1-1-.1h-3.9c-.6.3-1.2.7-1.6 1.1 0-.1 0-.1.1-.1-.1 1.1-.2 1.8-.2 1.8s-.1-.6-.2-1.8v-.1l.1-.1c.4-.4.8-.9 1.6-1.4.1-.1.3-.1.4-.1h.9c.4 0 .9-.1 1.4-.1h1.9c.2 0 .6.1.7.2.6.5 1.1 1.1 1.5 1.5.2.2.4.4.5.7v.6c.1.5.1.7.1.7" fill="#231f20"/><path clip-path="url(#b)" d="m104.4 56.2v.5c0 .4 0 .9-.3 1.5-.1.1-.2.3-.3.5s-.3.3-.4.4c-.3.3-.8.5-1.2.5-.1 0-.1.1-.4 0h-.4c-.2 0-.5-.1-.7-.2-.5-.2-.9-.6-1.2-1.1-.4-.8-.4-1.7-.4-2.2v-.3h.3c3.1 0 5 .3 5 .4 0-.1-1.8.1-4.7.4.1-.1.2-.2.4-.3 0 .4 0 1.2.4 1.8.3.7 1.1.9 1.8.9.5 0 .7-.1.9-.3l.4-.3.3-.3c.3-.5.4-1 .5-1.3z" fill="#231f20"/><path clip-path="url(#b)" d="m79.2 59.3s0-.2-.1-.5v-.6l.5-.7c.4-.4.9-1 1.5-1.5.2-.2.6-.2.7-.2h1.9c.5 0 .9 0 1.4.1h.9l.4.1c.8.5 1.2 1 1.6 1.4l.1.1v.1c-.1 1.1-.2 1.8-.2 1.8s-.1-.6-.2-1.8c0 0 0 .1.1.1-.4-.3-1-.8-1.6-1.1h-3.9c-.4 0-.8 0-1 .1-.7.4-1.1.8-1.6 1.2-.2.2-.4.4-.6.5-.1.2-.1.4-.1.6.2.1.2.3.2.3" fill="#231f20"/><path clip-path="url(#b)" d="m81.4 56.2s0 .2.1.5.2.8.5 1.3l.3.3c.1.1.2.2.4.3.3.2.5.3.9.3.7 0 1.5-.2 1.8-.9.3-.6.3-1.3.4-1.8.2.2.3.2.3.3-2.9-.2-4.7-.4-4.7-.3 0-.1 1.9-.4 4.7-.3h.3v.3c0 .5.1 1.4-.4 2.2-.3.5-.7.9-1.2 1.1-.2.1-.5.2-.7.2h-.8c-.4 0-.9-.2-1.2-.5-.1-.2-.3-.3-.4-.4l-.3-.5c-.2-.6-.3-1.1-.3-1.5z" fill="#231f20"/><path clip-path="url(#b)" d="m113.7 24.7.3.3c.2.2.4.5.7.9.6.8 1.3 2.2 1.8 4.2s.8 4.6.9 7.7c0 1.6 0 3.3-.2 5.1-.1.9-.2 1.9-.3 2.9-.2 1-.2 2-.6 3.1l-.2.6-.1-.7c-.1-.5-.4-1.1-1.1-1.5-.2-.1-.4-.2-.5-.2-.2 0-.3 0-.3.1l-.1 1.5c-.2 2.2-.4 4.7-.7 7.5v.2h-2v-.3c0-1.2.1-4.1.1-7.2v.1c-.3-.7-1.2-2.5-2.1-4.3l-.1-.1.1-.1s.1-.2.1-.3c.5-1.8 1.2-3.8 1.8-6.1.9-2.1 0-4.8-2-6.4-1-.9-2.1-1.6-3.4-2-.7-.2-1.3-.4-2-.5s-1.4-.1-2.1 0c-1.4.2-2.8.6-4.3 1.1-1.4.5-3 1-4.6.9h-.9c-1.5-.1-2.8-.6-4.1-1s-2.6-.8-3.9-1h-1l-.9.1c-.6.1-1.3.2-1.9.4-1.2.4-2.4 1-3.3 1.8s-1.8 1.7-2.2 2.8-.6 2.3-.2 3.4c.7 2.3 1.4 4.5 2 6.6v.1l-.1.1c-.8 1.6-1.4 2.9-2 4.1v-.1c.1 3 .2 5.4.2 7.6v.3h-2.5v-.3c.2-1.8 0-3.5 0-5-.1-1.5-.3-2.9-.3-4.2.1.1.1.2.2.2-.9-.2-1.7-.1-2.2.3-.6.4-.9.9-1.2 1.5l-.2.5-.1-.5c-.3-1-.3-1.9-.4-2.9-.1-.9-.1-1.8-.1-2.7 0-1.7 0-3.4.1-4.9.2-3.1.6-5.7 1.2-7.8s1.3-3.6 2-4.5c.3-.5.6-.8.8-1l.3-.3-.3.3c-.2.2-.5.5-.8 1-.6.9-1.4 2.5-1.9 4.6s-.9 4.7-1.1 7.8c-.1 1.5-.1 3.2 0 4.9 0 .9.1 1.8.2 2.7s.2 1.9.4 2.7h-.4c.3-.6.7-1.2 1.3-1.6s1.6-.6 2.6-.4h.2v.2c.1 1.3.3 2.7.4 4.2s.3 3.2.1 5.1l-.3-.3h1.9l-.3.3c-.1-2.3-.2-4.6-.3-7.7v-.2c.6-1.2 1.2-2.5 2-4.1v.3c-.7-2.1-1.4-4.3-2.1-6.6-.4-1.2-.2-2.6.2-3.8.5-1.3 1.4-2.3 2.4-3.2s2.3-1.5 3.6-1.9c.7-.2 1.3-.4 2-.5.4-.1.7-.1 1.1-.1h1.1c2.8.3 5.3 1.8 8 2h.9c1.4.1 2.9-.4 4.3-.8 1.4-.5 2.9-1 4.4-1.2.7-.1 1.6-.1 2.3.1.7.1 1.5.3 2.2.5 1.4.5 2.7 1.2 3.7 2.2 2.2 1.8 3.1 4.9 2.1 7.2-.7 2.3-1.3 4.3-1.9 6.1-.1.1-.1.2-.1.3v-.3c.9 1.8 1.7 3.6 2 4.3v.2c-.1 3.1-.1 6-.2 7.2l-.3-.3h1.5l-.2.2c.3-2.7.6-5.3.8-7.4.1-.5.1-1 .1-1.5 0-.2.2-.4.3-.4.2-.1.3 0 .4 0 .3 0 .5.2.7.3.8.5 1.1 1.2 1.2 1.8h-.3c.3-.9.5-2 .6-3s.3-1.9.3-2.9c.2-1.8.2-3.5.2-5.1 0-3.1-.3-5.7-.8-7.7s-1.1-3.4-1.7-4.2c-.3-.4-.5-.7-.7-.9-.1-.5-.2-.5-.2-.5" fill="#231f20"/><path clip-path="url(#b)" d="m111.5 65.5h.8c.5-.1 1.2-.3 1.7-.9l.4-.5.4-.6c.2-.4.5-.9.6-1.4.2-1 .3-2.3.4-3.7.2-2.6.3-5.1.3-6.8v-2.9s.1.3.2.7c.1.5.2 1.2.3 2.1.2 1.8.3 4.2.1 6.9-.1 1.3-.2 2.6-.6 3.8-.2.6-.5 1.1-.8 1.5l-.5.6c-.2.2-.3.4-.5.5-.7.6-1.5.7-2 .7z" fill="#231f20"/><path clip-path="url(#b)" d="m68.3 48.7v.2c0 .1-.1.3-.1.6-.2.5-.2 1.2-.2 2.1 0 1.8.1 4.2.2 6.9.1 1.3.2 2.7.3 3.8s.9 1.8 1.6 2.3c1.5 1 2.6 1 2.6.9 0 .1-1.2.3-2.8-.6-.4-.2-.8-.5-1.2-.9s-.8-1-.9-1.6c-.3-1.2-.4-2.5-.5-3.9-.2-2.7-.1-5.2.2-7 .1-.9.2-1.6.4-2.1.1-.2.2-.4.2-.5z" fill="#231f20"/><path clip-path="url(#b)" d="m109.6 83.2s-2.2 2.9-5.4 6c-3.1 3.2-5.9 5.5-5.9 5.5s2.2-2.9 5.3-6c3.1-3.2 6-5.5 6-5.5" fill="#231f20"/><path clip-path="url(#b)" d="m81.6 93.8s-2.2-2.1-4.5-5.1c-2.3-2.9-3.9-5.6-3.9-5.6s2.2 2.1 4.5 5.1c2.4 3 3.9 5.6 3.9 5.6" fill="#231f20"/><path clip-path="url(#b)" d="m92.4 105.6h.3v6.3h-.3z" fill="#fff" transform="matrix(.998 .071 -.071 .998 7.996 -6.321)"/><path clip-path="url(#b)" d="m86.4 105h.3v7h-.3z" fill="#fff"/><path clip-path="url(#b)" d="m90.3 56s-.9-.5-2.3-1.3-3.3-2-5.3-3.4c-1-.7-2-1.4-2.8-1.9l-.2-.2-.2-.1h.1s-.1 0-.1.1c-.1 0-.2.1-.3.2l-1 .9c-1.2 1.1-1.9 1.8-1.9 1.8s.4-.9 1.3-2.3c.2-.4.5-.7.8-1.1l.3-.3c0-.1.1-.1.2-.2l.1-.1.3-.1h.5l.5.2c1.2.5 2.1 1.1 3.1 1.8 2.1 1.4 3.7 3 4.9 4.1 1.3 1.1 2 1.9 2 1.9" fill="#231f20"/><path clip-path="url(#b)" d="m95.6 56s2.8-2.6 6.8-5c1.4-.8 2.8-1.5 3.7-1.9l.5-.2.2.4c1.5 2.2 2.2 3.7 2.2 3.7s-1.3-1-3.1-3c.2 0 .4.1.7.1-.8.6-2.1 1.5-3.5 2.3-3.8 2.3-7.5 3.6-7.5 3.6" fill="#231f20"/></svg>