<svg enable-background="new 0 0 178.7 132.2" viewBox="0 0 178.7 132.2" xmlns="http://www.w3.org/2000/svg" xmlns:xlink="http://www.w3.org/1999/xlink"><clipPath id="a"><path d="m2.1 22.2h176.6v110.1h-176.6z"/></clipPath><path d="m2.3 2.3h176.4v129.3h-176.4z" fill="#d8505c"/><path clip-path="url(#a)" d="m151.3 62.9c-.4-.2-3.8 0-4.4 0-.1 1.3.3 2.9 2.2 2.9 1.8 0 2.2-2 2.2-2.9" fill="#fff"/><path clip-path="url(#a)" d="m151.3 62.9s.5.7.3 2.1l-.2.6-.4.6c-.2.2-.5.4-.8.5l-.2.1h-.1l-.3.1h-1.4l-.5-.1c-.3-.1-.7-.3-1-.6-.3-.2-.5-.6-.7-.9-.6-1.1-.4-2.1-.3-2.7l.3-1.4 1 .1c1.2.2 2.4.4 3.2.7.4.1.7.3.9.4.1.4.2.5.2.5-.1-.1-1.6.8-4.4 1.3l1.3-1.2c.1.3.2.9.3 1.1 0 .2 1 .9 1.7.3.3-.3.6-.7.8-1s.3-.5.3-.5" fill="#231f20"/><path clip-path="url(#a)" d="m129.4 62.3s0 .2.1.5.2.7.5 1.2l.3.3.3.3c.2.1.5.2.9.3.6 0 1.4-.2 1.7-.9.3-.6.3-1.2.3-1.7.2.1.2.2.3.3-2.7-.2-4.4-.4-4.4-.3 0-.1 1.8-.3 4.4-.3h.3v.3c0 .5.1 1.3-.3 2.1-.2.4-.6.8-1.1 1-.2.1-.5.2-.7.2h-.6c-.3 0-.8-.2-1.1-.5l-.4-.4c-.1-.1-.2-.3-.2-.4-.2-.6-.3-1-.3-1.4-.1-.5 0-.6 0-.6" fill="#fff"/><path clip-path="url(#a)" d="m129.4 62.3s0 .2.1.5.2.7.5 1.2l.3.3.3.3c.2.1.5.2.9.3.6 0 1.4-.2 1.7-.9.3-.6.3-1.2.3-1.7.2.1.2.2.3.3-2.7-.2-4.4-.4-4.4-.3 0-.1 1.8-.3 4.4-.3h.3v.3c0 .5.1 1.3-.3 2.1-.2.4-.6.8-1.1 1-.2.1-.5.2-.7.2h-.6c-.3 0-.8-.2-1.1-.5l-.4-.4c-.1-.1-.2-.3-.2-.4-.2-.6-.3-1-.3-1.4-.1-.5 0-.6 0-.6z" fill="none" stroke="#fff" stroke-miterlimit="10"/><path clip-path="url(#a)" d="m162.8 55.3c.6-1.6 2.9-17.6-2.2-22.3-5.2-4.8-7.6-5.2-18.1-4.3h-2.5c-10.6-.9-13-.5-18.1 4.3-5 4.6-4.1 19.8-3.5 22.1l.1.2c.4-.8 1.4-2.2 3.4-1.8 0 .9.7 6.4.4 8.6h1.8s-.2-4.1-.2-7.1l1.9-3.8s-1.4-4.4-1.9-6.3.5-3.8.5-3.8 2-3.9 7.7-4.4c3.4-.1 6.4 2.2 9.3 1.9h.1c2.9.2 5.9-2 9.3-1.9 5.7.5 7.7 4.4 7.7 4.4s1.1 1.9.5 3.8c-.5 1.9-1.9 6.3-1.9 6.3l-.1.3 1.9 4-.1 6.7h1.3s.8-7.5.8-8.3c-.2-.8 1.7-.1 1.9 1.4" fill="#fff"/><path clip-path="url(#a)" d="m162.8 55.3s0-.2-.2-.6c-.2-.3-.6-1-1.5-1.2-.1 0-.2 0-.3.1s-.1.2-.1.3c0 .3 0 .5-.1.8-.1.6-.1 1.3-.2 2-.1 1.5-.3 3.2-.5 5.4v.1h-1.5v-.1c0-.9 0-3.6.1-6.7v.1c-.2-.5-1.1-2.2-1.9-4v-.2s.1-.2.1-.3c.4-1.5 1-3.2 1.6-5.2l.4-1.5c.1-.5.1-1.1 0-1.6s-.3-1.1-.5-1.6c-.3-.5-.6-1-1-1.4-1.7-1.8-4.3-2.9-7.1-2.9-1.4.1-2.8.5-4.2 1s-2.9 1-4.6.9c-1.7.2-3.6-.6-5.6-1.2-1-.3-2.1-.6-3.2-.7-1.1 0-2.3.2-3.4.6s-2.3 1-3.2 1.9c-.5.4-.9.9-1.2 1.5-.3.5-.5 1.2-.7 1.8-.1.6-.1 1.3.1 2l.6 2.1 1.3 4.2v.1l-.1.1c-.4.8-1.1 2.3-1.8 3.8v-.2c.1 1.5.1 4.3.2 7.1v.4h-2.6l.1-.4c.1-.5.1-1.3.1-2.2-.1-2.2-.3-4.3-.4-6.3.1.1.2.2.3.4-.7-.2-1.3-.1-1.8.2s-.9.8-1.2 1.3l-.1.2h-.2l-.4.1-.1-.3c-.4-2.2-.5-4.2-.5-6.3s.1-4.1.3-6c.2-2 .6-3.9 1.1-5.7.6-1.8 1.4-3.6 2.9-4.8 1.3-1.2 2.7-2.4 4.3-3.2s3.3-1.2 4.9-1.3c3.2-.2 6.2.1 9 .3h2.5c3.3-.3 6.5-.5 9.6-.2 1.5.2 3 .6 4.2 1.3 1.3.7 2.4 1.5 3.4 2.4.5.4 1 .9 1.4 1.3.4.5.8 1 1.1 1.5.6 1.1.9 2.2 1.2 3.3.5 2.2.6 4.2.7 6.1.1 3.7-.3 6.5-.5 8.3-.1.9-.3 1.7-.4 2.1-.3.7-.4 1-.4 1 0-.1.1-.3.2-.8s.2-1.2.4-2.1c.2-1.9.5-4.7.4-8.3-.1-1.8-.2-3.9-.7-6-.3-1.1-.6-2.2-1.2-3.2-.3-.5-.6-1-1.1-1.5-.4-.4-.9-.9-1.4-1.3-1-.8-2.1-1.7-3.3-2.3s-2.6-1-4.1-1.2c-3-.3-6.1 0-9.5.3h-2.5c-2.7-.2-5.7-.5-8.9-.3-1.6.1-3.2.5-4.6 1.3-1.5.8-2.8 1.9-4.1 3.1-1.3 1.1-2.1 2.8-2.7 4.6s-.9 3.7-1.1 5.6-.3 3.9-.3 6c0 2 .1 4.1.5 6.1l-.4-.3-.3.2c.3-.6.8-1.3 1.5-1.7s1.6-.5 2.4-.3l.3.1v.3c.1 1.9.4 4.1.5 6.3 0 .9 0 1.8-.1 2.4-.1-.2-.3-.3-.4-.4h1.8c-.1.2-.3.3-.4.4-.1-2.8-.2-5.6-.2-7.1v-.2c.7-1.5 1.5-3.1 1.9-3.8v.3l-1.3-4.2-.6-2.1c-.2-.7-.2-1.5-.1-2.3.1-.7.4-1.4.8-2.1.4-.6.9-1.2 1.4-1.6 1-1 2.2-1.6 3.4-2.1 1.2-.4 2.5-.7 3.7-.6s2.3.4 3.3.7c2 .7 3.8 1.4 5.3 1.2 1.5.1 3-.4 4.4-.9s2.9-.9 4.3-1c3 0 5.7 1.2 7.4 3.1.4.5.8 1 1.1 1.5.3.6.5 1.1.6 1.7s.1 1.2 0 1.7c-.1.6-.3 1-.4 1.5-.6 2-1.2 3.7-1.6 5.1-.1.1-.1.2-.1.3v-.1c.8 1.8 1.6 3.5 1.9 4-.1 3-.1 5.7-.2 6.7l-.1-.1h1.3l-.1.1c.2-2.1.4-3.9.6-5.3.1-.7.1-1.4.2-2 0-.3 0-.6.1-.8 0-.1 0-.3.1-.4s.2-.1.4-.1c.9.2 1.3.9 1.5 1.2.1.5.1.7.1.7" fill="#231f20"/><path clip-path="url(#a)" d="m123 84.1.1-3.1c-.2-3.8-.5-10.1-.5-10.1-.7.3-3.8-.8-4.2-2.6-.5-1.8-.9-10.9 0-12.9l-.1-.2c-.6-2.3-1.5-17.5 3.5-22.1 5.2-4.8 7.6-5.2 18.1-4.3h2.5c10.6-.9 12.9-.5 18.1 4.3 5.1 4.7 2.9 20.7 2.2 22.3l.1.8c.5 1.9 0 10.9-.6 12.1s-1.6 3-3.8 2.7c.2 1.4-1.2 10.3-1.2 10.3l-.7.9v6.2l-18.5 19.8-15.2-19.7z" fill="#fff"/><path clip-path="url(#a)" d="m123 84.1.1-3.1c-.2-3.8-.5-10.1-.5-10.1-.7.3-3.8-.8-4.2-2.6-.5-1.8-.9-10.9 0-12.9l-.1-.2c-.6-2.3-1.5-17.5 3.5-22.1 5.2-4.8 7.6-5.2 18.1-4.3h2.5c10.6-.9 12.9-.5 18.1 4.3 5.1 4.7 2.9 20.7 2.2 22.3l.1.8c.5 1.9 0 10.9-.6 12.1s-1.6 3-3.8 2.7c.2 1.4-1.2 10.3-1.2 10.3l-.7.9v6.2l-18.5 19.8-15.2-19.7z" fill="none" stroke="#fff" stroke-miterlimit="10" stroke-width="2"/><path clip-path="url(#a)" d="m148 28.3c5.2 0 7.5 1.2 11.4 4.7 5.1 4.7 2.9 20.7 2.2 22.3l.1.8c.5 1.9 0 10.9-.6 12.1-.6 1.1-1.5 2.7-3.3 2.7h-.5c.2 1.4-1.2 10.3-1.2 10.3l-.7.9v2.9h1.6l4.9 5.7c9.4 3.4 29.4 14 29.4 14l8.5 26.5h-125.8l13.2-29.6 32.8-15.5 1.9-2 .1-3.1c-.2-3.8-.5-10.1-.5-10.1l-.3.1c-1 0-3.5-1-3.9-2.7-.5-1.8-.9-10.9 0-12.9l-.1-.2c-.6-2.3-1.5-17.5 3.5-22.1 3.8-3.5 6.1-4.7 11.3-4.7 1.8 0 4 .1 6.8.4h2.5c2.7-.4 4.9-.5 6.7-.5m0-1c-1.7 0-3.7.1-6.8.4h-2.4c-3.1-.3-5.2-.4-6.8-.4-5.7 0-8.2 1.5-12 5-5.3 4.9-4.5 20.3-3.8 23.1-.9 2.9-.3 11.5.1 13.2.5 1.9 2.8 3.1 4.2 3.4.1 1.9.4 6.2.5 9.1l-.1 2.7-1.5 1.6-32.5 15.6-.2.1-.1.1-13.2 29.6-1.5 1.7h130l-1.1-1.6-8.5-26.5-.1-.2-.2-.1c-.8-.4-19.8-10.6-29.3-14l-4.8-5.5-.3-.3h-1.2v-1.6l.5-.7.1-.2v-.2c.2-1.3 1-6.9 1.2-9.5 2.2-.3 3.2-2.3 3.7-3.2.8-1.6 1.2-10.7.7-12.7l-.1-.6c.7-2.7 2.8-18.1-2.6-23.1-3.7-3.7-6.2-5.2-11.9-5.2" fill="#fff"/><path clip-path="url(#a)" d="m148 28.3c5.2 0 7.5 1.2 11.4 4.7 5.1 4.7 2.9 20.7 2.2 22.3l.1.8c.5 1.9 0 10.9-.6 12.1-.6 1.1-1.5 2.7-3.3 2.7h-.5c.2 1.4-1.2 10.3-1.2 10.3l-.7.9v2.9h1.6l4.9 5.7c9.4 3.4 29.4 14 29.4 14l8.5 26.5h-125.8l13.2-29.6 32.8-15.5 1.9-2 .1-3.1c-.2-3.8-.5-10.1-.5-10.1l-.3.1c-1 0-3.5-1-3.9-2.7-.5-1.8-.9-10.9 0-12.9l-.1-.2c-.6-2.3-1.5-17.5 3.5-22.1 3.8-3.5 6.1-4.7 11.3-4.7 1.8 0 4 .1 6.8.4h2.5c2.7-.4 4.9-.5 6.7-.5m0-1c-1.7 0-3.7.1-6.8.4h-2.4c-3.1-.3-5.2-.4-6.8-.4-5.7 0-8.2 1.5-12 5-5.3 4.9-4.5 20.3-3.8 23.1-.9 2.9-.3 11.5.1 13.2.5 1.9 2.8 3.1 4.2 3.4.1 1.9.4 6.2.5 9.1l-.1 2.7-1.5 1.6-32.5 15.6-.2.1-.1.1-13.2 29.6-1.5 1.7h130l-1.1-1.6-8.5-26.5-.1-.2-.2-.1c-.8-.4-19.8-10.6-29.3-14l-4.8-5.5-.3-.3h-1.2v-1.6l.5-.7.1-.2v-.2c.2-1.3 1-6.9 1.2-9.5 2.2-.3 3.2-2.3 3.7-3.2.8-1.6 1.2-10.7.7-12.7l-.1-.6c.7-2.7 2.8-18.1-2.6-23.1-3.7-3.7-6.2-5.2-11.9-5.2z" fill="none" stroke="#fff" stroke-miterlimit="10" stroke-width="2"/><path clip-path="url(#a)" d="m74.1 131.3 13.2-29.6 34.7-16.6-2.6 46.2z" fill="#fff"/><path clip-path="url(#a)" d="m74.1 131.3 13.2-29.6 34.7-16.6-2.6 46.2z" fill="none" stroke="#fff" stroke-miterlimit="10"/><path clip-path="url(#a)" d="m122 85.1-2.7 46.2h-45.2l13.3-29.6zm.3-.4-.4.2-34.7 16.6-13.2 29.6-.4.4h46.1v-.2l2.7-46.2z" fill="#fff"/><path clip-path="url(#a)" d="m122 85.1-2.7 46.2h-45.2l13.3-29.6zm.3-.4-.4.2-34.7 16.6-13.2 29.6-.4.4h46.1v-.2l2.7-46.2z" fill="none" stroke="#fff" stroke-miterlimit="10"/><path clip-path="url(#a)" d="m158.6 89.8-7 41.5h48.4l-8.5-26.5s-26.5-14.2-32.9-15" fill="#fff"/><path clip-path="url(#a)" d="m158.6 89.8-7 41.5h48.4l-8.5-26.5s-26.5-14.2-32.9-15z" fill="none" stroke="#fff" stroke-miterlimit="10"/><path clip-path="url(#a)" d="m158.6 89.8c6.4.8 32.9 15 32.9 15l8.5 26.5h-48.4zm-.2-.3v.2l-7 41.5-.1.3h49.2l-.3-.4-8.5-26.5c-1.1-.6-26.6-14.2-33-15z" fill="#fff"/><path clip-path="url(#a)" d="m158.6 89.8c6.4.8 32.9 15 32.9 15l8.5 26.5h-48.4zm-.2-.3v.2l-7 41.5-.1.3h49.2l-.3-.4-8.5-26.5c-1.1-.6-26.6-14.2-33-15z" fill="none" stroke="#fff" stroke-miterlimit="10"/><path clip-path="url(#a)" d="m115.5 131.3 5.1-35.7.5-3.3.7-4.9 7.8 9.8 7.2 9.3 8.3-8.5 10.4-10.6v5.9 2.9l-2.2 35.1z" fill="#fff"/><path clip-path="url(#a)" d="m115.5 131.3 5.1-35.7.5-3.3.7-4.9 7.8 9.8 7.2 9.3 8.3-8.5 10.4-10.6v5.9 2.9l-2.2 35.1z" fill="none" stroke="#fff" stroke-miterlimit="10"/><path clip-path="url(#a)" d="m119.4 131.3 2.6-47.5-22.6 24.4 7.8 23.1z" fill="#fff"/><path clip-path="url(#a)" d="m119.4 131.3 2.6-47.5-22.6 24.4 7.8 23.1z" fill="none" stroke="#fff" stroke-miterlimit="10"/><path clip-path="url(#a)" d="m122 83.8-2.7 47.5h-12.1l-7.8-23.1zm.3-.6-.5.5-22.5 24.3-.1.1v.1l7.8 23.1.1.2h12.5v-.2l2.7-47.5z" fill="#fff"/><path clip-path="url(#a)" d="m122 83.8-2.7 47.5h-12.1l-7.8-23.1zm.3-.6-.5.5-22.5 24.3-.1.1v.1l7.8 23.1.1.2h12.5v-.2l2.7-47.5z" fill="none" stroke="#fff" stroke-miterlimit="10"/><path clip-path="url(#a)" d="m155.5 85.1v11.1l-3.9 35.1h9.7l14.4-24.8-18.5-21.4z" fill="#fff"/><path clip-path="url(#a)" d="m155.5 85.1v11.1l-3.9 35.1h9.7l14.4-24.8-18.5-21.4z" fill="none" stroke="#fff" stroke-miterlimit="10"/><path clip-path="url(#a)" d="m157.2 85.1 18.5 21.4-14.4 24.9h-9.7l3.9-35.1v-11.2zm.1-.3h-1.9v11.3l-3.9 35.1v.3h10.1l.1-.1 14.4-24.9.1-.2-.1-.1z" fill="#fff"/><path clip-path="url(#a)" d="m157.2 85.1 18.5 21.4-14.4 24.9h-9.7l3.9-35.1v-11.2zm.1-.3h-1.9v11.3l-3.9 35.1v.3h10.1l.1-.1 14.4-24.9.1-.2-.1-.1z" fill="none" stroke="#fff" stroke-miterlimit="10"/><path clip-path="url(#a)" d="m155.5 96.2v-2.9l-14.5 14.3h3.9z" fill="#fff"/><path clip-path="url(#a)" d="m155.5 96.2v-2.9l-14.5 14.3h3.9z" fill="none" stroke="#fff" stroke-miterlimit="10"/><path clip-path="url(#a)" d="m120.6 95.6.5-3.3c.9 1.2 12.2 15.9 12.2 15.9h-4.1z" fill="#fff"/><path clip-path="url(#a)" d="m120.6 95.6.5-3.3c.9 1.2 12.2 15.9 12.2 15.9h-4.1z" fill="none" stroke="#fff" stroke-miterlimit="10"/><path clip-path="url(#a)" d="m134.2 107.6s-9.7-4.7-12.1-4.8c-1.2 1.6-1.4 14.4 2.1 18.5 1-.2 10.1-7.2 10.1-7.2 1.6 1 4.5.6 5.3 0 0 0 4.1 7 9.9 8.4 1.4-1.4 3.9-16.4 3.7-17.9-.2-1.4-10.7 1.9-13.2 3.6-.1 0-.5-2.6-5.8-.6" fill="#fff"/><path clip-path="url(#a)" d="m134.2 107.6s-9.7-4.7-12.1-4.8c-1.2 1.6-1.4 14.4 2.1 18.5 1-.2 10.1-7.2 10.1-7.2 1.6 1 4.5.6 5.3 0 0 0 4.1 7 9.9 8.4 1.4-1.4 3.9-16.4 3.7-17.9-.2-1.4-10.7 1.9-13.2 3.6-.1 0-.5-2.6-5.8-.6z" fill="none" stroke="#fff" stroke-miterlimit="10"/><path clip-path="url(#a)" d="m139.5 114.1c-.8.6-3.7 1-5.3 0v-6.5c5.3-2 5.8.6 5.8.6z" fill="#fff"/><path clip-path="url(#a)" d="m139.5 114.1c-.8.6-3.7 1-5.3 0v-6.5c5.3-2 5.8.6 5.8.6z" fill="none" stroke="#fff" stroke-miterlimit="10"/><path clip-path="url(#a)" d="m136.8 106.5-7.2-9.3-2.6 15.4z" fill="#fff"/><path clip-path="url(#a)" d="m136.8 106.5-7.2-9.3-2.6 15.4z" fill="none" stroke="#fff" stroke-miterlimit="10"/><path clip-path="url(#a)" d="m136.8 106.5s-3.7 2.5-9.7 6.4l-.5.4.1-.7c.3-1.9.7-4.7 1.2-7.8.5-3 1-5.8 1.4-7.6l.1-.7.4.5c4.4 5.8 7 9.5 7 9.5s-2.9-3.4-7.5-9c.1 0 .3-.1.5-.1-.3 1.8-.7 4.7-1.2 7.7s-1 5.9-1.4 7.7c-.2-.1-.4-.3-.4-.3 6.2-3.8 10-6 10-6" fill="#fff"/><path clip-path="url(#a)" d="m136.8 106.5s-3.7 2.5-9.7 6.4l-.5.4.1-.7c.3-1.9.7-4.7 1.2-7.8.5-3 1-5.8 1.4-7.6l.1-.7.4.5c4.4 5.8 7 9.5 7 9.5s-2.9-3.4-7.5-9c.1 0 .3-.1.5-.1-.3 1.8-.7 4.7-1.2 7.7s-1 5.9-1.4 7.7c-.2-.1-.4-.3-.4-.3 6.2-3.8 10-6 10-6z" fill="none" stroke="#fff"/><path clip-path="url(#a)" d="m145.1 98-8.3 8.5 9.2 6.1z" fill="#fff"/><path clip-path="url(#a)" d="m145.1 98-8.3 8.5 9.2 6.1z" fill="none" stroke="#fff" stroke-miterlimit="10"/><path clip-path="url(#a)" d="m145.1 98s.7 5.9 1.3 14.6l.1.7-.6-.4c-.8-.5-2.1-1.4-3.4-2.3-2.3-1.5-4.4-3-5.7-3.9l-.3-.2.3-.3c4.9-5 8.3-8.2 8.3-8.2s-3 3.4-8 8.6v-.5c1.4.9 3.6 2.3 5.8 3.8 1.3.9 2.6 1.8 3.4 2.3-.2.1-.4.3-.5.3-.6-8.5-.7-14.5-.7-14.5" fill="#fff"/><path clip-path="url(#a)" d="m145.1 98s.7 5.9 1.3 14.6l.1.7-.6-.4c-.8-.5-2.1-1.4-3.4-2.3-2.3-1.5-4.4-3-5.7-3.9l-.3-.2.3-.3c4.9-5 8.3-8.2 8.3-8.2s-3 3.4-8 8.6v-.5c1.4.9 3.6 2.3 5.8 3.8 1.3.9 2.6 1.8 3.4 2.3-.2.1-.4.3-.5.3-.6-8.5-.7-14.5-.7-14.5z" fill="none" stroke="#fff"/><path clip-path="url(#a)" d="m122 81s.2 1.1.3 2.9c0 1 0 2.5-.1 4-.2 3.8-.8 6.9-.8 6.9s-.2-3.1 0-6.9c.1-1.6.2-3 .4-4 .1-1.9.2-2.9.2-2.9" fill="#fff"/><path clip-path="url(#a)" d="m122 81s.2 1.1.3 2.9c0 1 0 2.5-.1 4-.2 3.8-.8 6.9-.8 6.9s-.2-3.1 0-6.9c.1-1.6.2-3 .4-4 .1-1.9.2-2.9.2-2.9z" fill="none" stroke="#fff" stroke-miterlimit="10"/><path clip-path="url(#a)" d="m155.5 96.2s-.4-3.1-.4-7 .4-7 .4-7 .4 3.1.4 7c0 3.8-.4 7-.4 7" fill="#fff"/><path clip-path="url(#a)" d="m155.5 96.2s-.4-3.1-.4-7 .4-7 .4-7 .4 3.1.4 7c0 3.8-.4 7-.4 7z" fill="none" stroke="#fff" stroke-miterlimit="10"/><path clip-path="url(#a)" d="m158 64.1s-.2 2.1-.5 6.8c0 2.2-.5 5.9-1 10.4v.1c-.1.1-.4.5-.7.9-2.7 3.2-6.9 8.1-11.6 13.5l-.1.1h-8.7l-.1-.1c-1.3-1.5-2.5-3-3.7-4.4l-1.8-2.1-.9-1-.9-.9c-2.4-2.4-4.6-4.4-6.3-6.3v-.2c-.2-5.3-.4-9.5-.5-12.4 0-1.4 0-2.6.1-3.3 0-.4.1-.7.1-.8 0 .2-.1.5-.1.9-.1.7 0 1.9.1 3.3.2 2.9.5 7.1.8 12.4v-.1c1.7 1.8 4 3.8 6.4 6.2l.9.9.9 1 1.8 2.1c1.2 1.4 2.5 2.9 3.8 4.4l-.3-.1h8.3c-.1.1-.2.1-.3.1 4.7-5.4 9-10.2 11.8-13.3.3-.4.6-.8.7-.9v.1c.7-4.5 1.2-8.1 1.3-10.3.3-4.8.5-7 .5-7" fill="#fff"/><path clip-path="url(#a)" d="m158 64.1s-.2 2.1-.5 6.8c0 2.2-.5 5.9-1 10.4v.1c-.1.1-.4.5-.7.9-2.7 3.2-6.9 8.1-11.6 13.5l-.1.1h-8.7l-.1-.1c-1.3-1.5-2.5-3-3.7-4.4l-1.8-2.1-.9-1-.9-.9c-2.4-2.4-4.6-4.4-6.3-6.3v-.2c-.2-5.3-.4-9.5-.5-12.4 0-1.4 0-2.6.1-3.3 0-.4.1-.7.1-.8 0 .2-.1.5-.1.9-.1.7 0 1.9.1 3.3.2 2.9.5 7.1.8 12.4v-.1c1.7 1.8 4 3.8 6.4 6.2l.9.9.9 1 1.8 2.1c1.2 1.4 2.5 2.9 3.8 4.4l-.3-.1h8.3c-.1.1-.2.1-.3.1 4.7-5.4 9-10.2 11.8-13.3.3-.4.6-.8.7-.9v.1c.7-4.5 1.2-8.1 1.3-10.3.3-4.8.5-7 .5-7z" fill="none" stroke="#fff" stroke-miterlimit="10"/><path clip-path="url(#a)" d="m137.7 71.9s-.2-4-.3-9.9c0 0 .1.2.1.3-.6-.5-1.7-1.3-2.7-2.1-1.5-1.1-2.8-2.2-4.1-3.1-.6-.5-1.2-.9-1.8-1.3-.3-.2-.6-.4-.8-.5l-.2-.1h-.2s-.2.1-.3.2c-.9.8-1.5 1.6-1.9 2.1s-.7.8-.7.8l.6-.9c.4-.6.9-1.4 1.8-2.3.1-.1.2-.2.5-.3h.3c.1 0 .2 0 .2.1.4.1.7.3 1 .5l1.9 1.2c1.3.9 2.8 1.9 4.2 3 1.1.8 2.1 1.6 2.7 2.1l.1.1v.2c-.2 6-.4 9.9-.4 9.9" fill="#fff"/><path clip-path="url(#a)" d="m137.7 71.9s-.2-4-.3-9.9c0 0 .1.2.1.3-.6-.5-1.7-1.3-2.7-2.1-1.5-1.1-2.8-2.2-4.1-3.1-.6-.5-1.2-.9-1.8-1.3-.3-.2-.6-.4-.8-.5l-.2-.1h-.2s-.2.1-.3.2c-.9.8-1.5 1.6-1.9 2.1s-.7.8-.7.8l.6-.9c.4-.6.9-1.4 1.8-2.3.1-.1.2-.2.5-.3h.3c.1 0 .2 0 .2.1.4.1.7.3 1 .5l1.9 1.2c1.3.9 2.8 1.9 4.2 3 1.1.8 2.1 1.6 2.7 2.1l.1.1v.2c-.2 6-.4 9.9-.4 9.9z" fill="none" stroke="#fff" stroke-miterlimit="10"/><path clip-path="url(#a)" d="m143.6 85.1c1.7-1.6 1.7-5.8 1.7-7h-10.5c-.2 1.7 0 4.7 1.6 7z" fill="#fff"/><path clip-path="url(#a)" d="m143.6 85.1c1.7-1.6 1.7-5.8 1.7-7h-10.5c-.2 1.7 0 4.7 1.6 7z" fill="none" stroke="#fff" stroke-miterlimit="10"/><path clip-path="url(#a)" d="m137.7 74.8s.1.1.4.2l.4.2c.2.1.4.1.6.1.5.1 1.1.1 1.7-.1s1.3-.7 1.6-1.4v.1c-.1-2.7-.2-6.6-.2-10.8v-1.1l.2-.1c4.4-2.6 8.2-4.7 10.2-5.8l.1-.1.1.1c1.6 2.2 2.3 3.2 2.3 3.2s-.8-.9-2.6-3h.2c-1.9 1.2-5.6 3.6-10 6.2l.2-.3v.8c0 4.2-.1 8.1-.2 10.8-.4.9-1.2 1.3-1.9 1.6-.7.2-1.3.2-1.8 0-.2-.1-.5-.1-.6-.2-.2-.1-.3-.2-.4-.2-.2-.1-.3-.2-.3-.2" fill="#fff"/><path clip-path="url(#a)" d="m137.7 74.8s.1.1.4.2l.4.2c.2.1.4.1.6.1.5.1 1.1.1 1.7-.1s1.3-.7 1.6-1.4v.1c-.1-2.7-.2-6.6-.2-10.8v-1.1l.2-.1c4.4-2.6 8.2-4.7 10.2-5.8l.1-.1.1.1c1.6 2.2 2.3 3.2 2.3 3.2s-.8-.9-2.6-3h.2c-1.9 1.2-5.6 3.6-10 6.2l.2-.3v.8c0 4.2-.1 8.1-.2 10.8-.4.9-1.2 1.3-1.9 1.6-.7.2-1.3.2-1.8 0-.2-.1-.5-.1-.6-.2-.2-.1-.3-.2-.4-.2-.2-.1-.3-.2-.3-.2z" fill="none" stroke="#fff" stroke-miterlimit="10"/><path clip-path="url(#a)" d="m136.8 74.4-.1.1c-.1.1-.2.2-.4.3s-.5.2-.8.2c-.4 0-.7-.4-.8-.8-.2-.8 0-1.3.2-1.7s.4-.6.4-.6-.1 1.1.2 2.1c.1.2.2.3.3.4.2.1.4.1.6.1s.4 0 .5-.1z" fill="#fff"/><path clip-path="url(#a)" d="m136.8 74.4-.1.1c-.1.1-.2.2-.4.3s-.5.2-.8.2c-.4 0-.7-.4-.8-.8-.2-.8 0-1.3.2-1.7s.4-.6.4-.6-.1 1.1.2 2.1c.1.2.2.3.3.4.2.1.4.1.6.1s.4 0 .5-.1z" fill="none" stroke="#fff" stroke-miterlimit="10"/><path clip-path="url(#a)" d="m136.4 85.1-6.2-7h4.5c-.1 1.7.1 4.7 1.7 7" fill="#fff"/><path clip-path="url(#a)" d="m136.4 85.1-6.2-7h4.5c-.1 1.7.1 4.7 1.7 7z" fill="none" stroke="#fff" stroke-miterlimit="10"/><path clip-path="url(#a)" d="m145.3 78.1h3.9l-5.6 7c1.7-1.6 1.7-5.8 1.7-7" fill="#fff"/><path clip-path="url(#a)" d="m145.3 78.1h3.9l-5.6 7c1.7-1.6 1.7-5.8 1.7-7z" fill="none" stroke="#fff" stroke-miterlimit="10"/><path clip-path="url(#a)" d="m142.6 73.8s.1 0 .2.1.3.2.6.2c.2.1.5.1.7.1.1 0 .2-.3.1-.7 0-.7-.2-1.4-.4-1.8-.1-.2-.2-.4-.2-.6-.1-.1-.1-.2-.1-.2s.1.1.2.1c.1.1.3.2.5.4.4.4.8 1.1.8 2 0 .2 0 .5-.1.7s-.3.5-.6.6c-.1.1-.3 0-.4 0s-.2 0-.3-.1c-.2-.1-.3-.2-.4-.3-.2-.2-.4-.3-.5-.5z" fill="#fff"/><path clip-path="url(#a)" d="m142.6 73.8s.1 0 .2.1.3.2.6.2c.2.1.5.1.7.1.1 0 .2-.3.1-.7 0-.7-.2-1.4-.4-1.8-.1-.2-.2-.4-.2-.6-.1-.1-.1-.2-.1-.2s.1.1.2.1c.1.1.3.2.5.4.4.4.8 1.1.8 2 0 .2 0 .5-.1.7s-.3.5-.6.6c-.1.1-.3 0-.4 0s-.2 0-.3-.1c-.2-.1-.3-.2-.4-.3-.2-.2-.4-.3-.5-.5z" fill="none" stroke="#fff" stroke-miterlimit="10"/><path clip-path="url(#a)" d="m130.3 78.1s2.2 2.4 6.3 6.8c0 0-.1 0-.2-.1 1.5 0 4.2-.1 7.1-.1 0 0-.2.1-.3.1.8-1 2.2-2.7 3.5-4.5l2-2.5c.1.3.2.4.3.6-10.8 0-18.7-.3-18.7-.3s8-.3 18.9-.4h.7l-.5.6c-.5.6-1.2 1.5-2 2.5-1.4 1.7-2.8 3.4-3.6 4.4l-.1.1h-.2c-2.9 0-5.6-.1-7.1-.1h-.1l-.1-.1c-3.9-4.5-5.9-7-5.9-7" fill="#fff"/><path clip-path="url(#a)" d="m130.3 78.1s2.2 2.4 6.3 6.8c0 0-.1 0-.2-.1 1.5 0 4.2-.1 7.1-.1 0 0-.2.1-.3.1.8-1 2.2-2.7 3.5-4.5l2-2.5c.1.3.2.4.3.6-10.8 0-18.7-.3-18.7-.3s8-.3 18.9-.4h.7l-.5.6c-.5.6-1.2 1.5-2 2.5-1.4 1.7-2.8 3.4-3.6 4.4l-.1.1h-.2c-2.9 0-5.6-.1-7.1-.1h-.1l-.1-.1c-3.9-4.5-5.9-7-5.9-7z" fill="none" stroke="#fff" stroke-miterlimit="10"/><path clip-path="url(#a)" d="m151.2 79.8s0-.3-.1-.7-.2-.9-.4-1.5c-.1-.6-.2-1.2-.3-1.5-.1-.4-.2-.7-.2-.7s.3.1.5.5c.3.4.6.9.7 1.6.1.6.1 1.3 0 1.7 0 .4-.2.6-.2.6" fill="#fff"/><path clip-path="url(#a)" d="m151.2 79.8s0-.3-.1-.7-.2-.9-.4-1.5c-.1-.6-.2-1.2-.3-1.5-.1-.4-.2-.7-.2-.7s.3.1.5.5c.3.4.6.9.7 1.6.1.6.1 1.3 0 1.7 0 .4-.2.6-.2.6z" fill="none" stroke="#fff" stroke-miterlimit="10"/><path clip-path="url(#a)" d="m128 81.6s-.3-.3-.6-.7c-.2-.3-.3-.6-.5-1-.1-.4-.2-.9-.2-1.3 0-1 .3-1.8.7-2.3.2-.3.3-.5.5-.6l.2-.2s0 .1-.1.2c-.1.2-.2.4-.2.7-.1.5-.3 1.3-.3 2.2l.1 1.2c.1.4.1.7.2 1z" fill="#fff"/><path clip-path="url(#a)" d="m128 81.6s-.3-.3-.6-.7c-.2-.3-.3-.6-.5-1-.1-.4-.2-.9-.2-1.3 0-1 .3-1.8.7-2.3.2-.3.3-.5.5-.6l.2-.2s0 .1-.1.2c-.1.2-.2.4-.2.7-.1.5-.3 1.3-.3 2.2l.1 1.2c.1.4.1.7.2 1z" fill="none" stroke="#fff" stroke-miterlimit="10"/><path clip-path="url(#a)" d="m152.8 65.1v-.5c0-.1 0-.3-.1-.5-.1-.1-.3-.3-.5-.4-.4-.3-.9-.7-1.5-1.1-.2-.1-.5-.1-.9-.1h-3.6c-.6.3-1.1.7-1.5 1v-.1c-.1 1.1-.2 1.6-.2 1.6s-.1-.6-.2-1.6v-.1l.1-.1c.4-.4.8-.9 1.5-1.3.1-.1.2-.1.4-.1h.9c.4 0 .8 0 1.3-.1h1.8c.2 0 .5.1.7.2.6.4 1 1 1.4 1.4l.5.6v.6c-.1.5-.1.6-.1.6" fill="#fff"/><path clip-path="url(#a)" d="m152.8 65.1v-.5c0-.1 0-.3-.1-.5-.1-.1-.3-.3-.5-.4-.4-.3-.9-.7-1.5-1.1-.2-.1-.5-.1-.9-.1h-3.6c-.6.3-1.1.7-1.5 1v-.1c-.1 1.1-.2 1.6-.2 1.6s-.1-.6-.2-1.6v-.1l.1-.1c.4-.4.8-.9 1.5-1.3.1-.1.2-.1.4-.1h.9c.4 0 .8 0 1.3-.1h1.8c.2 0 .5.1.7.2.6.4 1 1 1.4 1.4l.5.6v.6c-.1.5-.1.6-.1.6z" fill="none" stroke="#fff" stroke-miterlimit="10"/><path clip-path="url(#a)" d="m150.7 62.3v.5c0 .3 0 .8-.3 1.4-.1.1-.2.3-.2.4-.1.1-.2.3-.4.4-.3.2-.8.4-1.1.5h-.6c-.2 0-.4-.1-.7-.2-.5-.2-.9-.5-1.1-1-.4-.8-.4-1.6-.3-2.1v-.3h.3c2.7 0 4.5.3 4.4.4 0-.1-1.7.1-4.4.3l.3-.3c0 .4 0 1.1.3 1.7.3.7 1.1.9 1.7.9.4 0 .6-.1.9-.3l.3-.3.3-.3c.3-.5.4-.9.5-1.2.1-.4.1-.5.1-.5" fill="#fff"/><path clip-path="url(#a)" d="m150.7 62.3v.5c0 .3 0 .8-.3 1.4-.1.1-.2.3-.2.4-.1.1-.2.3-.4.4-.3.2-.8.4-1.1.5h-.6c-.2 0-.4-.1-.7-.2-.5-.2-.9-.5-1.1-1-.4-.8-.4-1.6-.3-2.1v-.3h.3c2.7 0 4.5.3 4.4.4 0-.1-1.7.1-4.4.3l.3-.3c0 .4 0 1.1.3 1.7.3.7 1.1.9 1.7.9.4 0 .6-.1.9-.3l.3-.3.3-.3c.3-.5.4-.9.5-1.2.1-.4.1-.5.1-.5z" fill="none" stroke="#fff" stroke-miterlimit="10"/><path clip-path="url(#a)" d="m127.3 65.1s0-.2-.1-.5v-.6c.1-.2.3-.4.5-.6.4-.4.8-.9 1.4-1.4.2-.2.5-.2.7-.2h1.8c.4 0 .9 0 1.3.1h.9l.4.1c.7.4 1.1.9 1.5 1.3l.1.1v.1c-.1 1.1-.2 1.6-.2 1.6s-.1-.6-.2-1.6c0 0 0 .1.1.1-.4-.3-.9-.7-1.5-1h-3.6c-.4 0-.8 0-.9.1-.6.4-1 .8-1.5 1.1-.2.2-.4.3-.5.4-.1.2-.1.4-.1.5-.1.3-.1.4-.1.4" fill="#fff"/><path clip-path="url(#a)" d="m127.3 65.1s0-.2-.1-.5v-.6c.1-.2.3-.4.5-.6.4-.4.8-.9 1.4-1.4.2-.2.5-.2.7-.2h1.8c.4 0 .9 0 1.3.1h.9l.4.1c.7.4 1.1.9 1.5 1.3l.1.1v.1c-.1 1.1-.2 1.6-.2 1.6s-.1-.6-.2-1.6c0 0 0 .1.1.1-.4-.3-.9-.7-1.5-1h-3.6c-.4 0-.8 0-.9.1-.6.4-1 .8-1.5 1.1-.2.2-.4.3-.5.4-.1.2-.1.4-.1.5-.1.3-.1.4-.1.4z" fill="none" stroke="#fff" stroke-miterlimit="10"/><path clip-path="url(#a)" d="m159.4 33 .2.2c.2.2.4.4.7.8.5.8 1.2 2 1.7 3.9s.8 4.2.8 7.2c0 1.5 0 3.1-.2 4.8l-.3 2.7c-.1.9-.2 1.9-.6 2.9l-.2.6-.1-.6c-.1-.4-.4-1-1-1.4-.2-.1-.3-.2-.5-.2s-.3 0-.3.1c0 .4-.1.9-.1 1.4-.2 2-.4 4.4-.7 6.9v.2h-1.7v-.2c0-1.1 0-3.8.1-6.7v.1c-.3-.7-1.1-2.3-1.9-4l-.1-.1.1-.1s.1-.2.1-.3c.5-1.7 1.1-3.6 1.7-5.6.8-2 0-4.4-1.8-6-.9-.8-2-1.4-3.2-1.9-.6-.2-1.2-.4-1.9-.4-.7-.1-1.3-.1-1.9 0-1.3.2-2.6.6-4 1-1.3.4-2.8.9-4.3.8h-.8c-1.4-.1-2.6-.6-3.8-1s-2.4-.8-3.6-.9h-.9l-.9.1c-.6.1-1.2.2-1.8.4-1.1.4-2.2.9-3.1 1.7-.9.7-1.7 1.6-2 2.6-.4 1-.5 2.1-.2 3.1.6 2.1 1.3 4.2 1.9 6.1v.1l-.1.1c-.7 1.5-1.3 2.7-1.9 3.8v-.1c.1 2.8.1 5 .2 7.1v.3h-2.4v-.3c.2-1.7 0-3.2 0-4.6-.1-1.4-.2-2.7-.3-3.9l.2.2c-.8-.2-1.5-.1-2.1.3-.5.3-.9.8-1.1 1.3l-.2.4-.1-.4c-.3-1-.3-1.8-.4-2.7s-.1-1.7-.1-2.5c0-1.6 0-3.2.1-4.6.2-2.9.6-5.3 1.1-7.2s1.2-3.4 1.9-4.2c.3-.4.6-.7.8-.9l.3-.3-.3.3c-.2.2-.4.5-.7.9-.6.9-1.3 2.3-1.8 4.2s-.9 4.4-1 7.2c-.1 1.4-.1 2.9 0 4.6 0 .8.1 1.6.2 2.5.1.8.1 1.8.4 2.5h-.3c.3-.6.6-1.1 1.2-1.5s1.5-.6 2.4-.4h.2v.2c.1 1.2.2 2.5.3 3.9s.3 2.9.1 4.8c-.1-.1-.1-.2-.3-.3h1.8l-.3.3c-.1-2.1-.2-4.3-.3-7.1v-.2c.5-1.1 1.1-2.3 1.8-3.8v.2c-.6-1.9-1.3-4-1.9-6.1-.4-1.2-.2-2.4.2-3.6s1.3-2.1 2.2-2.9c1-.8 2.1-1.4 3.3-1.8.6-.2 1.2-.3 1.9-.4.3-.1.6-.1 1-.1h1c2.6.2 5 1.6 7.4 1.9h.8c1.3.1 2.7-.4 4-.8s2.7-.9 4.1-1.1c.7-.1 1.4-.1 2.1.1.7.1 1.4.3 2 .5 1.3.4 2.5 1.1 3.4 2 2 1.7 2.9 4.6 2 6.7-.6 2.1-1.2 4-1.8 5.6-.1.1-.1.2-.1.3v-.3c.8 1.7 1.6 3.3 1.9 4v.2c-.1 2.8-.1 5.6-.2 6.7l-.2-.2h1.3l-.2.2c.3-2.5.5-4.9.7-6.9 0-.5.1-1 .1-1.4 0-.2.2-.4.3-.4h.4c.2 0 .4.1.6.3.7.5 1.1 1.1 1.1 1.7h-.3c.3-.9.4-1.9.6-2.8l.3-2.7c.2-1.7.2-3.3.2-4.8 0-2.9-.3-5.3-.7-7.2-.4-1.8-1.1-3.1-1.6-3.9-.3-.4-.5-.6-.6-.8.1-.3 0-.4 0-.4" fill="#fff"/><path clip-path="url(#a)" d="m159.4 33 .2.2c.2.2.4.4.7.8.5.8 1.2 2 1.7 3.9s.8 4.2.8 7.2c0 1.5 0 3.1-.2 4.8l-.3 2.7c-.1.9-.2 1.9-.6 2.9l-.2.6-.1-.6c-.1-.4-.4-1-1-1.4-.2-.1-.3-.2-.5-.2s-.3 0-.3.1c0 .4-.1.9-.1 1.4-.2 2-.4 4.4-.7 6.9v.2h-1.7v-.2c0-1.1 0-3.8.1-6.7v.1c-.3-.7-1.1-2.3-1.9-4l-.1-.1.1-.1s.1-.2.1-.3c.5-1.7 1.1-3.6 1.7-5.6.8-2 0-4.4-1.8-6-.9-.8-2-1.4-3.2-1.9-.6-.2-1.2-.4-1.9-.4-.7-.1-1.3-.1-1.9 0-1.3.2-2.6.6-4 1-1.3.4-2.8.9-4.3.8h-.8c-1.4-.1-2.6-.6-3.8-1s-2.4-.8-3.6-.9h-.9l-.9.1c-.6.1-1.2.2-1.8.4-1.1.4-2.2.9-3.1 1.7-.9.7-1.7 1.6-2 2.6-.4 1-.5 2.1-.2 3.1.6 2.1 1.3 4.2 1.9 6.1v.1l-.1.1c-.7 1.5-1.3 2.7-1.9 3.8v-.1c.1 2.8.1 5 .2 7.1v.3h-2.4v-.3c.2-1.7 0-3.2 0-4.6-.1-1.4-.2-2.7-.3-3.9l.2.2c-.8-.2-1.5-.1-2.1.3-.5.3-.9.8-1.1 1.3l-.2.4-.1-.4c-.3-1-.3-1.8-.4-2.7s-.1-1.7-.1-2.5c0-1.6 0-3.2.1-4.6.2-2.9.6-5.3 1.1-7.2s1.2-3.4 1.9-4.2c.3-.4.6-.7.8-.9l.3-.3-.3.3c-.2.2-.4.5-.7.9-.6.9-1.3 2.3-1.8 4.2s-.9 4.4-1 7.2c-.1 1.4-.1 2.9 0 4.6 0 .8.1 1.6.2 2.5.1.8.1 1.8.4 2.5h-.3c.3-.6.6-1.1 1.2-1.5s1.5-.6 2.4-.4h.2v.2c.1 1.2.2 2.5.3 3.9s.3 2.9.1 4.8c-.1-.1-.1-.2-.3-.3h1.8l-.3.3c-.1-2.1-.2-4.3-.3-7.1v-.2c.5-1.1 1.1-2.3 1.8-3.8v.2c-.6-1.9-1.3-4-1.9-6.1-.4-1.2-.2-2.4.2-3.6s1.3-2.1 2.2-2.9c1-.8 2.1-1.4 3.3-1.8.6-.2 1.2-.3 1.9-.4.3-.1.6-.1 1-.1h1c2.6.2 5 1.6 7.4 1.9h.8c1.3.1 2.7-.4 4-.8s2.7-.9 4.1-1.1c.7-.1 1.4-.1 2.1.1.7.1 1.4.3 2 .5 1.3.4 2.5 1.1 3.4 2 2 1.7 2.9 4.6 2 6.7-.6 2.1-1.2 4-1.8 5.6-.1.1-.1.2-.1.3v-.3c.8 1.7 1.6 3.3 1.9 4v.2c-.1 2.8-.1 5.6-.2 6.7l-.2-.2h1.3l-.2.2c.3-2.5.5-4.9.7-6.9 0-.5.1-1 .1-1.4 0-.2.2-.4.3-.4h.4c.2 0 .4.1.6.3.7.5 1.1 1.1 1.1 1.7h-.3c.3-.9.4-1.9.6-2.8l.3-2.7c.2-1.7.2-3.3.2-4.8 0-2.9-.3-5.3-.7-7.2-.4-1.8-1.1-3.1-1.6-3.9-.3-.4-.5-.6-.6-.8.1-.3 0-.4 0-.4z" fill="none" stroke="#fff" stroke-miterlimit="10"/><path clip-path="url(#a)" d="m157.3 70.9h.7c.4-.1 1.1-.3 1.6-.8.1-.1.3-.3.4-.5s.2-.4.4-.6c.2-.4.5-.9.6-1.3.2-1 .3-2.2.4-3.4.2-2.5.3-4.7.3-6.3v-2.6s.1.2.2.7c.1.4.2 1.1.3 1.9.2 1.6.2 3.9 0 6.4-.1 1.2-.2 2.4-.5 3.5-.1.6-.5 1-.7 1.4l-.4.6-.5.5c-.7.6-1.4.7-1.8.7-.7-.2-1-.2-1-.2" fill="#fff"/><path clip-path="url(#a)" d="m157.3 70.9h.7c.4-.1 1.1-.3 1.6-.8.1-.1.3-.3.4-.5s.2-.4.4-.6c.2-.4.5-.9.6-1.3.2-1 .3-2.2.4-3.4.2-2.5.3-4.7.3-6.3v-2.6s.1.2.2.7c.1.4.2 1.1.3 1.9.2 1.6.2 3.9 0 6.4-.1 1.2-.2 2.4-.5 3.5-.1.6-.5 1-.7 1.4l-.4.6-.5.5c-.7.6-1.4.7-1.8.7-.7-.2-1-.2-1-.2z" fill="none" stroke="#fff" stroke-miterlimit="10"/><path clip-path="url(#a)" d="m117.2 55.3v.2c0 .1-.1.3-.1.5-.1.5-.1 1.1-.1 1.9 0 1.6.1 3.9.2 6.4.1 1.2.1 2.5.3 3.5.1 1 .9 1.7 1.5 2.1 1.4.9 2.5.9 2.4.8 0 .1-1.1.3-2.6-.5-.4-.2-.8-.5-1.1-.8-.4-.3-.7-.9-.8-1.5-.2-1.1-.3-2.3-.4-3.6-.1-2.5-.1-4.9.1-6.5.1-.8.2-1.5.4-1.9.1-.2.1-.4.2-.5z" fill="#fff"/><path clip-path="url(#a)" d="m117.2 55.3v.2c0 .1-.1.3-.1.5-.1.5-.1 1.1-.1 1.9 0 1.6.1 3.9.2 6.4.1 1.2.1 2.5.3 3.5.1 1 .9 1.7 1.5 2.1 1.4.9 2.5.9 2.4.8 0 .1-1.1.3-2.6-.5-.4-.2-.8-.5-1.1-.8-.4-.3-.7-.9-.8-1.5-.2-1.1-.3-2.3-.4-3.6-.1-2.5-.1-4.9.1-6.5.1-.8.2-1.5.4-1.9.1-.2.1-.4.2-.5z" fill="none" stroke="#fff" stroke-miterlimit="10"/><path clip-path="url(#a)" d="m155.5 87.4s-2.1 2.7-5 5.6c-2.9 3-5.5 5.1-5.5 5.1s2.1-2.7 5-5.6c2.9-3 5.5-5.1 5.5-5.1" fill="#fff"/><path clip-path="url(#a)" d="m155.5 87.4s-2.1 2.7-5 5.6c-2.9 3-5.5 5.1-5.5 5.1s2.1-2.7 5-5.6c2.9-3 5.5-5.1 5.5-5.1z" fill="none" stroke="#fff" stroke-miterlimit="10"/><path clip-path="url(#a)" d="m129.6 97.2s-2-2-4.2-4.7c-2.1-2.7-3.6-5.2-3.6-5.2s2 2 4.2 4.7c2.2 2.8 3.6 5.2 3.6 5.2" fill="#fff"/><path clip-path="url(#a)" d="m129.6 97.2s-2-2-4.2-4.7c-2.1-2.7-3.6-5.2-3.6-5.2s2 2 4.2 4.7c2.2 2.8 3.6 5.2 3.6 5.2z" fill="none" stroke="#fff" stroke-miterlimit="10"/><path clip-path="url(#a)" d="m139.6 108.2h.2v5.9h-.2z" fill="#fff" transform="matrix(.997 .072 -.072 .997 8.412 -9.823)"/><path clip-path="url(#a)" d="m139.6 108.2h.2v5.9h-.2z" fill="none" stroke="#fff" stroke-miterlimit="10" transform="matrix(.997 .072 -.072 .997 8.412 -9.823)"/><path clip-path="url(#a)" d="m134 107.6h.2v6.5h-.2z" fill="#fff"/><path clip-path="url(#a)" d="m134 107.6h.2v6.5h-.2z" fill="none" stroke="#fff" stroke-miterlimit="10"/><path clip-path="url(#a)" d="m137.7 62.1s-.8-.4-2.2-1.2c-1.3-.8-3.1-1.9-4.9-3.2-.9-.6-1.8-1.3-2.6-1.8l-.2-.1-.2-.1c-.1 0-.2.1-.2.2l-.9.8c-1.1 1-1.8 1.7-1.8 1.7s.4-.9 1.2-2.2c.2-.3.4-.7.7-1.1l.3-.3.2-.2.1-.1.3-.1h.5c.1 0 .3.1.5.2 1.1.5 1.9 1 2.9 1.7 1.9 1.3 3.5 2.8 4.5 3.8 1.1 1.2 1.8 2 1.8 2" fill="#fff"/><path clip-path="url(#a)" d="m137.7 62.1s-.8-.4-2.2-1.2c-1.3-.8-3.1-1.9-4.9-3.2-.9-.6-1.8-1.3-2.6-1.8l-.2-.1-.2-.1c-.1 0-.2.1-.2.2l-.9.8c-1.1 1-1.8 1.7-1.8 1.7s.4-.9 1.2-2.2c.2-.3.4-.7.7-1.1l.3-.3.2-.2.1-.1.3-.1h.5c.1 0 .3.1.5.2 1.1.5 1.9 1 2.9 1.7 1.9 1.3 3.5 2.8 4.5 3.8 1.1 1.2 1.8 2 1.8 2z" fill="none" stroke="#fff" stroke-miterlimit="10"/><path clip-path="url(#a)" d="m142.6 62.1s2.6-2.4 6.4-4.6c1.3-.8 2.6-1.4 3.5-1.8l.5-.2.2.3c1.4 2.1 2 3.4 2 3.4s-1.2-1-2.9-2.8c.2 0 .4.1.7.1-.8.6-1.9 1.4-3.2 2.2-3.8 2.2-7.2 3.4-7.2 3.4" fill="#fff"/><path clip-path="url(#a)" d="m142.6 62.1s2.6-2.4 6.4-4.6c1.3-.8 2.6-1.4 3.5-1.8l.5-.2.2.3c1.4 2.1 2 3.4 2 3.4s-1.2-1-2.9-2.8c.2 0 .4.1.7.1-.8.6-1.9 1.4-3.2 2.2-3.8 2.2-7.2 3.4-7.2 3.4z" fill="none" stroke="#fff" stroke-miterlimit="10"/><path clip-path="url(#a)" d="m122.5 83.7.1-3.1c-.2-3.8-.5-10.1-.5-10.1-.7.3-3.8-.8-4.2-2.6-.5-1.8-.9-10.9 0-12.9l-.1-.2c-.6-2.3-1.5-17.5 3.5-22.1 5.2-4.8 7.6-5.2 18.1-4.3h2.5c10.6-.9 12.9-.5 18.1 4.3 5.1 4.7 2.9 20.7 2.2 22.3l.1.8c.5 1.9 0 10.9-.6 12.1s-1.6 3-3.8 2.7c.2 1.4-1.2 10.3-1.2 10.3l-.7.9v6.2l-18.5 19.8-15.2-19.7z" fill="#fff"/><path clip-path="url(#a)" d="m162.3 54.9c.7-1.6 2.9-17.6-2.2-22.3-5.2-4.8-7.6-5.2-18.1-4.3h-2.5c-10.6-.9-13-.5-18.1 4.3-5 4.6-4.1 19.8-3.5 22.1l.1.2c.4-.8 1.4-2.2 3.4-1.8 0 .9.7 6.4.4 8.6h1.8s-.2-4.1-.2-7.1l1.9-3.8s-1.4-4.4-1.9-6.3.5-3.8.5-3.8 2-3.9 7.7-4.4c3.4-.1 6.4 2.2 9.3 1.9h.1c2.9.2 5.9-2 9.3-1.9 5.7.5 7.7 4.4 7.7 4.4s1.1 1.9.5 3.8c-.5 1.9-1.9 6.3-1.9 6.3l-.1.3 1.9 4-.1 6.7h1.3s.8-7.5.8-8.3c-.2-.7 1.7 0 1.9 1.4" fill="#231f20"/><path clip-path="url(#a)" d="m147.5 27.9c5.2 0 7.5 1.2 11.4 4.7 5.1 4.7 2.9 20.7 2.2 22.3l.1.8c.5 1.9 0 10.9-.6 12.1-.6 1.1-1.5 2.7-3.3 2.7h-.5c.2 1.4-1.2 10.3-1.2 10.3l-.7.9v2.9h1.6l4.9 5.7c9.4 3.4 29.4 14 29.4 14l8.5 26.5h-125.8l13.2-29.6 32.7-15.7 1.9-2 .1-3.1c-.2-3.8-.5-10.1-.5-10.1l-.3.1c-1 0-3.5-1-3.9-2.7-.5-1.8-.9-10.9 0-12.9l-.1-.2c-.6-2.3-1.5-17.5 3.5-22.1 3.8-3.5 6.1-4.7 11.3-4.7 1.8 0 4 .1 6.8.4h2.5c2.8-.1 5-.3 6.8-.3m0-1c-1.7 0-3.7.1-6.8.4h-2.4c-3.1-.3-5.2-.4-6.8-.4-5.7 0-8.2 1.5-12 5-5.3 4.9-4.5 20.3-3.8 23.1-.9 2.9-.3 11.5.1 13.2.5 1.9 2.8 3.1 4.2 3.4.1 1.9.4 6.2.5 9.1l-.1 2.7-1.5 1.6-32.5 15.6-.2.1-.1.1-13.2 29.6-1.5 1.7h130l-1.1-1.6-8.5-26.5-.1-.2-.2-.1c-.8-.4-19.8-10.6-29.3-14l-4.8-5.5-.3-.3h-1.1v-1.6l.5-.7.1-.2v-.2c.2-1.3 1-6.9 1.2-9.5 2.2-.3 3.2-2.3 3.7-3.2.8-1.6 1.2-10.7.7-12.7l-.1-.6c.7-2.7 2.8-18.1-2.6-23.1-3.8-3.7-6.3-5.2-12-5.2"/><path clip-path="url(#a)" d="m73.6 131 13.2-29.6 34.7-16.7-2.6 46.3z" fill="#231f20"/><path clip-path="url(#a)" d="m121.5 84.7-2.7 46.2h-45.2l13.3-29.6zm.3-.4-.4.2-34.7 16.6-13.2 29.6-.4.4h46.1v-.2l2.7-46.2z" fill="#fff"/><path clip-path="url(#a)" d="m158.1 89.5-7 41.5h48.4l-8.5-26.5s-26.5-14.2-32.9-15" fill="#231f20"/><path clip-path="url(#a)" d="m158.1 89.5c6.4.8 32.9 15 32.9 15l8.5 26.5h-48.4zm-.2-.3v.2l-7 41.5-.1.3h49.2l-.3-.4-8.5-26.5c-1.1-.6-26.6-14.2-33-15z" fill="#fff"/><path clip-path="url(#a)" d="m115 131 5.1-35.7.5-3.4.7-4.9 7.8 9.9 7.2 9.2 8.3-8.4 10.4-10.7v6 2.8l-2.2 35.2z" fill="#fff"/><path clip-path="url(#a)" d="m118.9 131 2.6-47.5-22.6 24.4 7.8 23.1z" fill="#231f20"/><path clip-path="url(#a)" d="m121.5 83.5-2.7 47.5h-12.1l-7.8-23.1zm.3-.7-.5.5-22.6 24.4-.1.1v.1l7.8 23.1.1.2h12.5v-.2l2.7-47.5z" fill="#fff"/><path clip-path="url(#a)" d="m155 84.7v11.1l-3.9 35.2h9.7l14.4-24.9-18.5-21.4z" fill="#231f20"/><path clip-path="url(#a)" d="m156.7 84.7 18.5 21.4-14.4 24.9h-9.7l3.9-35.1v-11.2zm.1-.2h-2v11.3l-3.9 35.1v.3h10.1l.1-.1 14.4-24.9.1-.2-.1-.1z" fill="#fff"/><path clip-path="url(#a)" d="m155 95.8v-2.8l-14.6 14.2h4z" fill="#231f20"/><path clip-path="url(#a)" d="m120.1 95.3.5-3.3c.9 1.2 12.2 15.9 12.2 15.9h-4.1z" fill="#231f20"/><path clip-path="url(#a)" d="m133.7 107.2s-9.7-4.7-12.1-4.8c-1.2 1.6-1.4 14.4 2.1 18.5 1-.2 10.1-7.2 10.1-7.2 1.6 1 4.5.6 5.3 0 0 0 4.1 7 9.9 8.4 1.4-1.4 3.9-16.4 3.7-17.9-.2-1.4-10.7 1.9-13.2 3.6-.1.1-.5-2.5-5.8-.6" fill="#231f20"/><path clip-path="url(#a)" d="m139 113.7c-.8.6-3.7 1-5.3 0v-6.5c5.3-2 5.8.6 5.8.6z" fill="#231f20"/><path clip-path="url(#a)" d="m136.3 106.1-7.2-9.2-2.6 15.4z" fill="#fff"/><path clip-path="url(#a)" d="m136.3 106.1s-3.7 2.5-9.7 6.4l-.5.4.1-.7c.3-1.9.7-4.7 1.2-7.8.5-3 1-5.8 1.4-7.6l.1-.7.4.5c4.4 5.9 7 9.5 7 9.5s-2.9-3.4-7.5-9c.1 0 .3-.1.5-.1-.3 1.8-.7 4.7-1.2 7.7s-1 5.9-1.4 7.7c-.2-.1-.4-.3-.4-.3 6.2-3.8 10-6 10-6" fill="#231f20"/><path clip-path="url(#a)" d="m144.6 97.7-8.3 8.4 9.2 6.2z" fill="#fff"/><path clip-path="url(#a)" d="m144.6 97.7s.7 5.9 1.3 14.6l.1.7-.6-.4c-.8-.5-2.1-1.4-3.4-2.3-2.3-1.5-4.4-3-5.7-3.9l-.3-.2.3-.3c4.9-5.1 8.3-8.2 8.3-8.2s-3 3.4-8 8.6v-.5c1.4.9 3.6 2.3 5.8 3.8 1.3.9 2.6 1.8 3.4 2.3-.2.1-.4.3-.5.3-.6-8.5-.7-14.5-.7-14.5" fill="#231f20"/><path clip-path="url(#a)" d="m121.5 80.6s.2 1.1.3 2.9c0 1 0 2.5-.1 4-.2 3.8-.8 6.9-.8 6.9s-.2-3.1 0-6.9c.1-1.6.2-3 .4-4 .1-1.8.2-2.9.2-2.9" fill="#231f20"/><path clip-path="url(#a)" d="m155 95.8s-.4-3.1-.4-7 .4-7 .4-7 .4 3.1.4 7-.4 7-.4 7" fill="#231f20"/><path clip-path="url(#a)" d="m157.5 63.8s-.2 2.1-.5 6.8c0 2.2-.5 5.9-1 10.4v.1c-.1.1-.4.5-.7.9-2.7 3.2-6.9 8.1-11.6 13.5l-.1.1h-8.7l-.1-.1c-1.3-1.5-2.5-3-3.7-4.4l-1.8-2.1-.9-1-.9-.9c-2.4-2.4-4.6-4.4-6.3-6.3v-.2c-.2-5.3-.4-9.5-.5-12.4 0-1.4 0-2.6.1-3.3 0-.4.1-.7.1-.8 0 .2-.1.5-.1.9-.1.7 0 1.9.1 3.3.2 2.9.5 7.1.8 12.4v-.1c1.7 1.8 4 3.8 6.4 6.2l.9.9.9 1 1.8 2.1c1.2 1.4 2.5 2.9 3.8 4.4l-.3-.1h8.3c-.1.1-.2.1-.3.1 4.7-5.4 9-10.2 11.8-13.3.3-.4.6-.8.7-.9v.1c.7-4.5 1.2-8.1 1.3-10.3.3-4.9.5-7 .5-7" fill="#231f20"/><path clip-path="url(#a)" d="m137.2 71.6s-.2-4-.3-9.9c0 0 .1.2.1.3-.6-.5-1.7-1.3-2.7-2.1-1.5-1.1-2.8-2.2-4.1-3.1-.6-.5-1.2-.9-1.8-1.3-.3-.2-.6-.4-.8-.5l-.2-.1h-.2s-.2.1-.3.2c-.9.8-1.5 1.6-1.9 2.1s-.7.8-.7.8l.6-.9c.4-.6.9-1.4 1.8-2.3.1-.1.2-.2.5-.3h.3c.1 0 .2 0 .2.1.4.1.7.3 1 .5l1.9 1.2c1.3.9 2.8 1.9 4.2 3 1.1.8 2.1 1.6 2.7 2.1l.1.1v.2c-.2 5.9-.4 9.9-.4 9.9" fill="#231f20"/><path clip-path="url(#a)" d="m143.1 84.7c1.7-1.6 1.7-5.8 1.7-7h-10.5c-.2 1.7 0 4.7 1.6 7z" fill="#fff"/><g fill="#231f20"><path clip-path="url(#a)" d="m137.2 74.5s.1.1.4.2l.4.2c.2.1.4.1.6.1.5.1 1.1.1 1.7-.1s1.3-.7 1.6-1.4v.1c-.1-2.7-.2-6.6-.2-10.8v-1.1l.2-.1c4.4-2.6 8.2-4.7 10.2-5.8l.1-.1.1.1c1.6 2.2 2.3 3.2 2.3 3.2s-.8-.9-2.6-3h.2c-1.9 1.2-5.6 3.6-10 6.2l.2-.3v.9c0 4.2-.1 8.1-.2 10.8-.4.9-1.2 1.3-1.9 1.6-.7.2-1.3.2-1.8 0-.2-.1-.5-.1-.6-.2-.2-.1-.3-.2-.4-.2-.2-.3-.3-.3-.3-.3"/><path clip-path="url(#a)" d="m136.3 74.1-.1.1c-.1.1-.2.2-.4.3s-.5.2-.8.2c-.4 0-.7-.4-.8-.8-.2-.8 0-1.3.2-1.7s.4-.6.4-.6-.1 1.1.2 2.1c.1.2.2.3.3.4.2.1.4.1.6.1s.4 0 .5-.1z"/><path clip-path="url(#a)" d="m135.9 84.7-6.2-7h4.5c-.1 1.8.1 4.7 1.7 7"/><path clip-path="url(#a)" d="m144.8 77.7h3.9l-5.6 7c1.7-1.6 1.7-5.7 1.7-7"/><path clip-path="url(#a)" d="m142.1 73.4s.1 0 .2.1.3.2.6.2c.2.1.5.1.7.1.1 0 .2-.3.1-.7 0-.7-.2-1.4-.4-1.8-.1-.2-.2-.4-.2-.6-.1-.1-.1-.2-.1-.2s.1.1.2.1c.1.1.3.2.5.4.4.4.8 1.1.8 2 0 .2 0 .5-.1.7s-.3.5-.6.6c-.1.1-.3 0-.4 0s-.2 0-.3-.1c-.2-.1-.3-.2-.4-.3-.2-.2-.4-.3-.5-.5-.1.1-.1 0-.1 0"/><path clip-path="url(#a)" d="m129.8 77.7s2.2 2.4 6.3 6.8c0 0-.1 0-.2-.1 1.5 0 4.2-.1 7.1-.1 0 0-.2.1-.3.1.8-1 2.2-2.7 3.5-4.5l2-2.5c.1.3.2.4.3.6-10.8 0-18.7-.3-18.7-.3s8-.3 18.9-.4h.7l-.5.6c-.5.6-1.2 1.5-2 2.5-1.4 1.7-2.8 3.4-3.6 4.4l-.1.1h-.2c-2.9 0-5.6-.1-7.1-.1h-.1l-.1-.1c-3.9-4.4-5.9-7-5.9-7"/><path clip-path="url(#a)" d="m150.7 79.5s0-.3-.1-.7-.2-.9-.4-1.5c-.1-.6-.2-1.2-.3-1.5-.1-.4-.2-.7-.2-.7s.3.1.5.5c.3.4.6.9.7 1.6.1.6.1 1.3 0 1.7 0 .4-.2.6-.2.6"/><path clip-path="url(#a)" d="m127.5 81.2s-.3-.3-.6-.7c-.2-.3-.3-.6-.5-1-.1-.4-.2-.9-.2-1.3 0-1 .3-1.8.7-2.3.2-.3.3-.5.5-.6l.2-.2s0 .1-.1.2c-.1.2-.2.4-.2.7-.1.5-.3 1.3-.3 2.2l.1 1.2c.1.4.1.7.2 1 .1.5.2.8.2.8"/><path clip-path="url(#a)" d="m150.8 62.6c-.4-.2-3.8 0-4.4 0-.1 1.3.3 2.9 2.2 2.9 1.8-.1 2.2-2 2.2-2.9"/><path clip-path="url(#a)" d="m129.4 62.6c.4-.2 3.8 0 4.4 0 .1 1.3-.3 2.9-2.2 2.9-1.9-.1-2.2-2-2.2-2.9"/><path clip-path="url(#a)" d="m152.3 64.8v-.5c0-.1 0-.3-.1-.5-.1-.1-.3-.3-.5-.4-.4-.3-.9-.7-1.5-1.1-.2-.1-.5-.1-.9-.1h-3.6c-.6.3-1.1.7-1.5 1v-.1c-.1 1.1-.2 1.6-.2 1.6s-.1-.6-.2-1.6v-.1l.1-.1c.4-.4.8-.9 1.5-1.3.1-.1.2-.1.4-.1h.9c.4 0 .8 0 1.3-.1h1.8c.2 0 .5.1.7.2.6.4 1 1 1.4 1.4l.5.6v.6c-.1.4-.1.6-.1.6"/><path clip-path="url(#a)" d="m150.2 61.9v.5c0 .3 0 .8-.3 1.4-.1.1-.2.3-.2.4-.1.1-.2.3-.4.4-.3.2-.8.4-1.1.5h-.6c-.2 0-.4-.1-.7-.2-.5-.2-.9-.5-1.1-1-.4-.8-.4-1.6-.3-2.1v-.3h.3c2.7.1 4.5.3 4.4.4 0-.1-1.7.1-4.4.3l.3-.3c0 .4 0 1.1.3 1.7.3.7 1.1.9 1.7.9.4 0 .6-.1.9-.3l.3-.3.3-.3c.3-.5.4-.9.5-1.2s.1-.5.1-.5"/><path clip-path="url(#a)" d="m126.8 64.8s0-.2-.1-.5v-.6c.1-.2.3-.4.5-.6.4-.4.8-.9 1.4-1.4.2-.2.5-.2.7-.2h1.8c.4 0 .9 0 1.3.1h.9l.4.1c.7.4 1.1.9 1.5 1.3l.1.1v.1c-.1 1.1-.2 1.6-.2 1.6s-.1-.6-.2-1.6v.1c-.4-.3-.9-.7-1.5-1h-3.6c-.4 0-.8 0-.9.1-.6.4-1 .8-1.5 1.1-.2.2-.4.3-.5.4-.1.2-.1.4-.1.5z"/><path clip-path="url(#a)" d="m128.9 61.9s0 .2.1.5.2.7.5 1.2l.3.3.3.3c.2.1.5.2.9.3.6 0 1.4-.2 1.7-.9.3-.6.3-1.2.3-1.7.2.1.2.2.3.3-2.7-.2-4.4-.4-4.4-.3 0-.1 1.8-.3 4.4-.3h.3v.3c0 .5.1 1.3-.3 2.1-.2.4-.6.8-1.1 1-.2.1-.5.2-.7.2h-.6c-.3 0-.8-.2-1.1-.5l-.4-.4c-.1-.1-.2-.3-.2-.4-.2-.6-.3-1-.3-1.4-.1-.4 0-.6 0-.6"/><path clip-path="url(#a)" d="m158.9 32.6.2.2c.2.2.4.4.7.8.5.8 1.2 2 1.7 3.9s.8 4.2.8 7.2c0 1.5 0 3.1-.2 4.8l-.3 2.7c-.1.9-.2 1.9-.6 2.9l-.2.6-.1-.6c-.1-.4-.4-1-1-1.4-.2-.1-.3-.2-.5-.2s-.3 0-.3.1c0 .4-.1.9-.1 1.4-.2 2-.4 4.4-.7 6.9v.2h-1.7v-.2c0-1.1 0-3.8.1-6.7v.1c-.3-.7-1.1-2.3-1.9-4l-.1-.1.1-.1s.1-.2.1-.3c.5-1.7 1.1-3.6 1.7-5.6.8-2 0-4.4-1.8-6-.9-.8-2-1.4-3.2-1.9-.6-.2-1.2-.4-1.9-.4-.7-.1-1.3-.1-1.9 0-1.3.2-2.6.6-4 1-1.3.4-2.8.9-4.3.8h-.8c-1.4-.1-2.6-.6-3.8-1s-2.4-.8-3.6-.9h-.9l-.9.1c-.6.1-1.2.2-1.8.4-1.1.4-2.2.9-3.1 1.7-.9.7-1.7 1.6-2 2.6-.4 1-.5 2.1-.2 3.1.6 2.1 1.3 4.2 1.9 6.1v.1l-.1.1c-.7 1.5-1.3 2.7-1.9 3.8v-.1c.1 2.8.1 5 .2 7.1v.3h-2.4v-.3c.2-1.7 0-3.2 0-4.6-.1-1.4-.2-2.7-.3-3.9l.2.2c-.8-.2-1.5-.1-2.1.3-.5.3-.9.8-1.1 1.3l-.2.4-.1-.4c-.3-1-.3-1.8-.4-2.7s-.1-1.7-.1-2.5c0-1.6 0-3.2.1-4.6.2-2.9.6-5.3 1.1-7.2s1.2-3.4 1.9-4.2c.3-.4.6-.7.8-.9l.3-.3-.3.3c-.2.2-.4.5-.7.9-.6.9-1.3 2.3-1.8 4.2s-.9 4.4-1 7.2c-.1 1.4-.1 2.9 0 4.6 0 .8.1 1.6.2 2.5.1.8.1 1.8.4 2.5h-.3c.3-.6.6-1.1 1.2-1.5s1.5-.6 2.4-.4h.2v.2c.1 1.2.2 2.5.3 3.9s.3 2.9.1 4.8c-.1-.1-.1-.2-.3-.3h1.8l-.3.3c-.1-2.1-.2-4.3-.3-7.1v-.2c.5-1.1 1.1-2.3 1.8-3.8v.2c-.6-1.9-1.3-4-1.9-6.1-.4-1.2-.2-2.4.2-3.6s1.3-2.1 2.2-2.9c1-.8 2.1-1.4 3.3-1.8.6-.2 1.2-.3 1.9-.4.3-.1.6-.1 1-.1h1c2.6.2 5 1.6 7.4 1.9h.8c1.3.1 2.7-.4 4-.8s2.7-.9 4.1-1.1c.7-.1 1.4-.1 2.1.1.7.1 1.4.3 2 .5 1.3.4 2.5 1.1 3.4 2 2 1.7 2.9 4.6 2 6.7-.6 2.1-1.2 4-1.8 5.6-.1.1-.1.2-.1.3v-.3c.8 1.7 1.6 3.3 1.9 4v.2c-.1 2.8-.1 5.6-.2 6.7l-.2-.2h1.3l-.2.2c.3-2.5.5-4.9.7-6.9 0-.5.1-1 .1-1.4 0-.2.2-.4.3-.4h.4c.2 0 .4.1.6.3.7.5 1.1 1.1 1.1 1.7h-.3c.3-.9.4-1.9.6-2.8l.3-2.7c.2-1.7.2-3.3.2-4.8 0-2.9-.3-5.3-.7-7.2-.4-1.8-1.1-3.1-1.6-3.9-.3-.4-.5-.6-.6-.8.1-.3 0-.4 0-.4"/><path clip-path="url(#a)" d="m156.8 70.6h.7c.4-.1 1.1-.3 1.6-.8.1-.1.3-.3.4-.5s.2-.4.4-.6c.2-.4.5-.9.6-1.3.2-1 .3-2.2.4-3.4.2-2.5.3-4.7.3-6.3v-2.6s.1.2.2.7c.1.4.2 1.1.3 1.9.2 1.6.2 3.9 0 6.4-.1 1.2-.2 2.4-.5 3.5-.1.6-.5 1-.7 1.4l-.4.6-.5.5c-.7.6-1.4.7-1.8.7-.7-.2-1-.2-1-.2"/><path clip-path="url(#a)" d="m116.7 55v.2c0 .1-.1.3-.1.5-.1.5-.1 1.1-.1 1.9 0 1.6.1 3.9.2 6.4.1 1.2.1 2.5.3 3.5.1 1 .9 1.7 1.5 2.1 1.4.9 2.5.9 2.4.8 0 .1-1.1.3-2.6-.5-.4-.2-.8-.5-1.1-.8-.4-.3-.7-.9-.8-1.5-.2-1.1-.3-2.3-.4-3.6-.1-2.5-.1-4.9.1-6.5.1-.8.2-1.5.4-1.9.1-.2.1-.4.2-.5z"/><path clip-path="url(#a)" d="m155 87s-2.1 2.7-5 5.6c-2.9 3-5.5 5.1-5.5 5.1s2.1-2.7 5-5.6c2.9-3 5.5-5.1 5.5-5.1"/><path clip-path="url(#a)" d="m129.1 96.9s-2-2-4.2-4.7c-2.1-2.7-3.6-5.2-3.6-5.2s2 2 4.2 4.7c2.2 2.8 3.6 5.2 3.6 5.2"/></g><path clip-path="url(#a)" d="m139.1 107.9h.2v5.9h-.2z" fill="#fff" transform="matrix(.997 .072 -.072 .997 8.382 -9.784)"/><path clip-path="url(#a)" d="m133.5 107.2h.2v6.5h-.2z" fill="#fff"/><path clip-path="url(#a)" d="m137.2 61.7s-.8-.4-2.2-1.2c-1.3-.8-3.1-1.9-4.9-3.2-.9-.6-1.8-1.3-2.6-1.8l-.2-.1-.2-.1c-.1 0-.2.1-.2.2l-.9.8c-1.1 1-1.8 1.7-1.8 1.7s.4-.9 1.2-2.2c.2-.3.4-.7.7-1.1l.3-.3.2-.2.1-.1.3-.1h.5c.1 0 .3.1.5.2 1.1.5 1.9 1 2.9 1.7 1.9 1.3 3.5 2.8 4.5 3.8 1.1 1.3 1.8 2 1.8 2" fill="#231f20"/><path clip-path="url(#a)" d="m142.1 61.7s2.6-2.4 6.4-4.6c1.3-.8 2.6-1.4 3.5-1.8l.5-.2.2.3c1.4 2.1 2 3.4 2 3.4s-1.2-1-2.9-2.8c.2 0 .4.1.7.1-.8.6-1.9 1.4-3.2 2.2-3.8 2.3-7.2 3.4-7.2 3.4" fill="#231f20"/><path clip-path="url(#a)" d="m73.3 61.9c-.4-.2-3.8 0-4.4 0-.1 1.3.3 2.9 2.2 2.9 1.8 0 2.2-2 2.2-2.9" fill="#fff"/><path clip-path="url(#a)" d="m73.3 61.9s.5.7.3 2.1l-.2.6-.4.6c-.2.2-.5.4-.8.5l-.2.1h-.1l-.4.2h-1.4l-.5-.1c-.3-.1-.7-.3-1-.6-.3-.2-.5-.6-.7-.9-.6-1.1-.4-2.1-.3-2.6l.3-1.4 1 .1c1.2.2 2.4.4 3.2.7.4.1.7.3.9.4l.3.3c-.1-.1-1.6.8-4.4 1.3l1.3-1.2c.1.3.2.9.3 1.1 0 .2 1 .9 1.7.3.3-.3.6-.7.8-1s.3-.5.3-.5" fill="#231f20"/><path clip-path="url(#a)" d="m51.4 61.3s0 .2.1.5.2.7.5 1.2l.3.3.3.3c.2.1.5.2.9.3.6 0 1.4-.2 1.7-.9.3-.6.3-1.2.3-1.7.2.1.2.2.3.3-2.7-.2-4.4-.4-4.4-.3 0-.1 1.8-.3 4.4-.3h.2v.3c0 .5.1 1.3-.3 2.1-.2.4-.6.8-1.1 1-.2.1-.5.2-.7.2h-.6c-.3 0-.8-.2-1.1-.5l-.4-.4c-.1-.1-.2-.3-.2-.4-.2-.6-.3-1-.3-1.4 0-.5.1-.6.1-.6" fill="#fff"/><path clip-path="url(#a)" d="m51.4 61.3s0 .2.1.5.2.7.5 1.2l.3.3.3.3c.2.1.5.2.9.3.6 0 1.4-.2 1.7-.9.3-.6.3-1.2.3-1.7.2.1.2.2.3.3-2.7-.2-4.4-.4-4.4-.3 0-.1 1.8-.3 4.4-.3h.2v.3c0 .5.1 1.3-.3 2.1-.2.4-.6.8-1.1 1-.2.1-.5.2-.7.2h-.6c-.3 0-.8-.2-1.1-.5l-.4-.4c-.1-.1-.2-.3-.2-.4-.2-.6-.3-1-.3-1.4 0-.5.1-.6.1-.6z" fill="none" stroke="#fff" stroke-miterlimit="10"/><path clip-path="url(#a)" d="m84.8 54.3c.6-1.6 2.9-17.6-2.2-22.3-5.2-4.8-7.6-5.2-18.1-4.3h-2.5c-10.6-.9-13-.5-18.1 4.3-5 4.6-4.1 19.8-3.5 22.1l.1.2c.4-.8 1.4-2.2 3.4-1.8 0 .8.7 6.4.4 8.6h1.7s-.2-4.1-.2-7.1l1.9-3.8s-1.4-4.4-1.9-6.3.5-3.8.5-3.8 2-3.9 7.7-4.4c3.4-.1 6.4 2.2 9.3 1.9h.1c2.9.2 5.9-2 9.3-1.9 5.7.5 7.7 4.4 7.7 4.4s1.1 1.9.5 3.8c-.5 1.9-1.9 6.3-1.9 6.3l-.1.3 1.9 4-.1 6.7h1.3s.8-7.5.8-8.3c-.1-.8 1.8-.1 2 1.4" fill="#fff"/><path clip-path="url(#a)" d="m84.8 54.3s0-.2-.2-.6c-.2-.3-.6-1-1.5-1.2-.1 0-.2 0-.3.1s-.1.2-.1.3c0 .3 0 .5-.1.8-.1.6-.1 1.3-.2 2-.1 1.5-.3 3.2-.5 5.4v.1h-1.5v-.1c0-.9 0-3.6.1-6.7v.1c-.2-.5-1.1-2.2-1.9-4v-.2s.1-.2.1-.3c.4-1.5 1-3.2 1.6-5.2l.4-1.5c.1-.5.1-1.1 0-1.6s-.3-1.1-.5-1.6c-.3-.5-.6-1-1-1.4-1.7-1.8-4.3-2.9-7.1-2.9-1.4.1-2.8.5-4.2 1s-2.9 1-4.6.9c-1.7.2-3.6-.6-5.6-1.2-1-.3-2.1-.6-3.2-.7-1.1 0-2.3.2-3.4.6s-2.3 1-3.2 1.9c-.5.4-.9.9-1.2 1.5-.3.5-.5 1.2-.7 1.8-.1.6-.1 1.3.1 2l.6 2.1 1.3 4.2v.5c-.4.8-1.1 2.3-1.8 3.8v-.2c.1 1.5.1 4.3.2 7.1v.4h-2.6l.1-.4c.1-.5.1-1.3.1-2.2-.1-2.2-.3-4.3-.4-6.3.1.1.2.2.3.4-.7-.2-1.3-.1-1.8.2s-.9.8-1.2 1.3l-.1.2h-.5l-.1-.3c-.4-2.2-.5-4.2-.5-6.3s.1-4.1.3-6c.2-2 .6-3.9 1.1-5.7.6-1.8 1.4-3.6 2.9-4.8 1.3-1.2 2.7-2.4 4.3-3.2s3.3-1.2 4.9-1.3c3.2-.2 6.2.1 9 .3h2.5c3.3-.3 6.5-.5 9.6-.2 1.5.2 3 .6 4.2 1.3 1.3.7 2.4 1.5 3.4 2.4.5.4 1 .9 1.4 1.3.4.5.8 1 1.1 1.5.6 1.1.9 2.2 1.2 3.3.5 2.2.6 4.2.7 6.1.1 3.7-.3 6.5-.5 8.3-.1.9-.3 1.7-.4 2.1-.5.5-.6.8-.6.8 0-.1.1-.3.2-.8s.2-1.2.4-2.1c.2-1.9.5-4.7.4-8.3-.1-1.8-.2-3.9-.7-6-.3-1.1-.6-2.2-1.2-3.2-.3-.5-.6-1-1.1-1.5-.4-.4-.9-.9-1.4-1.3-1-.8-2.1-1.7-3.3-2.3s-2.6-1-4.1-1.2c-3-.3-6.1 0-9.5.3h-2.5c-2.7-.2-5.7-.5-8.9-.3-1.6.1-3.2.5-4.6 1.3-1.5.8-2.8 1.9-4.1 3.1-1.3 1.1-2.1 2.8-2.7 4.6s-.9 3.7-1.1 5.6-.3 3.9-.3 6c0 2 .1 4.1.5 6.1l-.4-.3-.3.2c.3-.6.8-1.3 1.5-1.7s1.6-.5 2.4-.3l.3.1v.3c.1 1.9.4 4.1.5 6.3 0 .9 0 1.8-.1 2.4-.1-.2-.3-.3-.4-.4h1.8c-.1.2-.3.3-.4.4-.1-2.8-.2-5.6-.2-7.1v-.2c.7-1.5 1.5-3.1 1.9-3.8v.3l-1.3-4.2-.6-2.1c-.2-.7-.2-1.5-.1-2.3.1-.7.4-1.4.8-2.1.4-.6.9-1.2 1.4-1.6 1-1 2.2-1.6 3.4-2.1 1.2-.4 2.5-.7 3.7-.6s2.3.4 3.3.7c2 .7 3.8 1.4 5.3 1.2 1.5.1 3-.4 4.4-.9s2.9-.9 4.3-1c3 0 5.7 1.2 7.4 3.1.4.5.8 1 1.1 1.5.3.6.5 1.1.6 1.7s.1 1.2 0 1.7c-.1.6-.3 1-.4 1.5-.6 2-1.2 3.7-1.6 5.1-.1.1-.1.2-.1.3v-.1c.8 1.8 1.6 3.5 1.9 4-.1 3.1-.1 5.7-.2 6.7l-.1-.1h1.3l-.1.1c.2-2.1.4-3.9.6-5.3.1-.7.1-1.4.2-2 0-.3 0-.6.1-.8 0-.1 0-.3.1-.4s.2-.1.4-.1c.9.2 1.3.9 1.5 1.2.1.5.1.7.1.7" fill="#231f20"/><path clip-path="url(#a)" d="m45 83.1.1-3.1c-.2-3.8-.5-10.1-.5-10.1-.7.3-3.8-.8-4.2-2.6-.5-1.8-.9-10.9 0-12.9l-.1-.2c-.6-2.3-1.5-17.5 3.5-22.1 5.2-4.8 7.6-5.2 18.1-4.3h2.5c10.6-1.1 13-.6 18.2 4.2 5.1 4.7 2.9 20.7 2.2 22.3l.1.8c.5 1.9 0 10.9-.6 12.1s-1.6 3-3.8 2.7c.2 1.4-1.2 10.3-1.2 10.3l-.7.9v6.2l-18.5 19.8-15-19.6z" fill="#fff"/><path clip-path="url(#a)" d="m45 83.1.1-3.1c-.2-3.8-.5-10.1-.5-10.1-.7.3-3.8-.8-4.2-2.6-.5-1.8-.9-10.9 0-12.9l-.1-.2c-.6-2.3-1.5-17.5 3.5-22.1 5.2-4.8 7.6-5.2 18.1-4.3h2.5c10.6-1.1 13-.6 18.2 4.2 5.1 4.7 2.9 20.7 2.2 22.3l.1.8c.5 1.9 0 10.9-.6 12.1s-1.6 3-3.8 2.7c.2 1.4-1.2 10.3-1.2 10.3l-.7.9v6.2l-18.5 19.8-15-19.6z" fill="none" stroke="#fff" stroke-miterlimit="10" stroke-width="2"/><path clip-path="url(#a)" d="m70 27.3c5.2 0 7.5 1.2 11.4 4.7 5.1 4.7 2.9 20.7 2.2 22.3l.1.8c.5 1.9 0 10.9-.6 12.1-.6 1.1-1.5 2.7-3.3 2.7h-.5c.2 1.4-1.2 10.3-1.2 10.3l-.7.9v2.9h1.6l4.9 5.7c9.4 3.4 29.4 14 29.4 14l8.5 26.5h-125.8l13.2-29.6 32.8-15.5 1.9-2 .1-3.1c-.2-3.8-.5-10.1-.5-10.1l-.3.1c-1 0-3.5-1-3.9-2.7-.5-1.8-.9-10.9 0-12.9l-.1-.2c-.6-2.3-1.5-17.5 3.5-22.1 3.8-3.5 6.1-4.7 11.3-4.7 1.8 0 4 .1 6.8.4h2.5c2.7-.4 4.9-.5 6.7-.5m0-1c-1.7 0-3.7.1-6.8.4h-2.4c-3.1-.3-5.2-.4-6.8-.4-5.7 0-8.2 1.5-12 5-5.3 4.9-4.5 20.3-3.8 23.1-.9 2.8-.3 11.5.1 13.2.5 1.9 2.8 3.1 4.2 3.4.1 1.9.4 6.2.5 9.1l-.1 2.7-1.5 1.6-32.5 15.4-.2.1-.1.1-13.2 29.6-1.5 1.7h130l-1.1-1.6-8.5-26.5-.1-.2-.2-.1c-.8-.4-19.8-10.6-29.3-14l-4.8-5.5-.3-.3h-1.2v-1.6l.5-.7.1-.2v-.2c.2-1.3 1-6.9 1.2-9.5 2.2-.3 3.2-2.3 3.7-3.2.8-1.6 1.2-10.7.7-12.7l-.1-.6c.7-2.7 2.8-18.1-2.6-23.1-3.7-3.5-6.2-5-11.9-5" fill="#fff"/><path clip-path="url(#a)" d="m70 27.3c5.2 0 7.5 1.2 11.4 4.7 5.1 4.7 2.9 20.7 2.2 22.3l.1.8c.5 1.9 0 10.9-.6 12.1-.6 1.1-1.5 2.7-3.3 2.7h-.5c.2 1.4-1.2 10.3-1.2 10.3l-.7.9v2.9h1.6l4.9 5.7c9.4 3.4 29.4 14 29.4 14l8.5 26.5h-125.8l13.2-29.6 32.8-15.5 1.9-2 .1-3.1c-.2-3.8-.5-10.1-.5-10.1l-.3.1c-1 0-3.5-1-3.9-2.7-.5-1.8-.9-10.9 0-12.9l-.1-.2c-.6-2.3-1.5-17.5 3.5-22.1 3.8-3.5 6.1-4.7 11.3-4.7 1.8 0 4 .1 6.8.4h2.5c2.7-.4 4.9-.5 6.7-.5m0-1c-1.7 0-3.7.1-6.8.4h-2.4c-3.1-.3-5.2-.4-6.8-.4-5.7 0-8.2 1.5-12 5-5.3 4.9-4.5 20.3-3.8 23.1-.9 2.8-.3 11.5.1 13.2.5 1.9 2.8 3.1 4.2 3.4.1 1.9.4 6.2.5 9.1l-.1 2.7-1.5 1.6-32.5 15.4-.2.1-.1.1-13.2 29.6-1.5 1.7h130l-1.1-1.6-8.5-26.5-.1-.2-.2-.1c-.8-.4-19.8-10.6-29.3-14l-4.8-5.5-.3-.3h-1.2v-1.6l.5-.7.1-.2v-.2c.2-1.3 1-6.9 1.2-9.5 2.2-.3 3.2-2.3 3.7-3.2.8-1.6 1.2-10.7.7-12.7l-.1-.6c.7-2.7 2.8-18.1-2.6-23.1-3.7-3.5-6.2-5-11.9-5z" fill="none" stroke="#fff" stroke-miterlimit="10" stroke-width="2"/><path clip-path="url(#a)" d="m-3.9 130.3 13.2-29.6 34.7-16.6-2.6 46.2z" fill="#fff"/><path clip-path="url(#a)" d="m-3.9 130.3 13.2-29.6 34.7-16.6-2.6 46.2z" fill="none" stroke="#fff" stroke-miterlimit="10"/><path clip-path="url(#a)" d="m44 84.1-2.7 46.2h-45.2l13.3-29.6zm.3-.4-.4.2-34.7 16.6-13.2 29.6-.4.4h46.1v-.2l2.7-46.2z" fill="#fff"/><path clip-path="url(#a)" d="m44 84.1-2.7 46.2h-45.2l13.3-29.6zm.3-.4-.4.2-34.7 16.6-13.2 29.6-.4.4h46.1v-.2l2.7-46.2z" fill="none" stroke="#fff" stroke-miterlimit="10"/><path clip-path="url(#a)" d="m80.6 88.8-7 41.5h48.4l-8.5-26.5s-26.5-14.2-32.9-15" fill="#fff"/><path clip-path="url(#a)" d="m80.6 88.8-7 41.5h48.4l-8.5-26.5s-26.5-14.2-32.9-15z" fill="none" stroke="#fff" stroke-miterlimit="10"/><path clip-path="url(#a)" d="m80.6 88.8c6.4.8 32.9 15 32.9 15l8.5 26.5h-48.4zm-.2-.3v.2l-7 41.5-.1.3h49.2l-.3-.4-8.5-26.5c-1.1-.6-26.6-14.2-33-15z" fill="#fff"/><path clip-path="url(#a)" d="m80.6 88.8c6.4.8 32.9 15 32.9 15l8.5 26.5h-48.4zm-.2-.3v.2l-7 41.5-.1.3h49.2l-.3-.4-8.5-26.5c-1.1-.6-26.6-14.2-33-15z" fill="none" stroke="#fff" stroke-miterlimit="10"/><path clip-path="url(#a)" d="m37.5 130.3 5.1-35.7.5-3.3.7-4.9 7.8 9.8 7.2 9.3 8.3-8.5 10.4-10.6v5.9 2.9l-2.2 35.1z" fill="#fff"/><path clip-path="url(#a)" d="m37.5 130.3 5.1-35.7.5-3.3.7-4.9 7.8 9.8 7.2 9.3 8.3-8.5 10.4-10.6v5.9 2.9l-2.2 35.1z" fill="none" stroke="#fff" stroke-miterlimit="10"/><path clip-path="url(#a)" d="m41.4 130.3 2.6-47.5-22.6 24.4 7.8 23.1z" fill="#fff"/><path clip-path="url(#a)" d="m41.4 130.3 2.6-47.5-22.6 24.4 7.8 23.1z" fill="none" stroke="#fff" stroke-miterlimit="10"/><path clip-path="url(#a)" d="m44 82.8-2.7 47.5h-12.1l-7.8-23.1zm.3-.6-.5.5-22.5 24.3-.1.1v.1l7.8 23.1.1.2h12.5v-.2l2.7-47.5z" fill="#fff"/><path clip-path="url(#a)" d="m44 82.8-2.7 47.5h-12.1l-7.8-23.1zm.3-.6-.5.5-22.5 24.3-.1.1v.1l7.8 23.1.1.2h12.5v-.2l2.7-47.5z" fill="none" stroke="#fff" stroke-miterlimit="10"/><path clip-path="url(#a)" d="m77.5 84.1v11.1l-3.9 35.1h9.7l14.4-24.8-18.5-21.4z" fill="#fff"/><path clip-path="url(#a)" d="m77.5 84.1v11.1l-3.9 35.1h9.7l14.4-24.8-18.5-21.4z" fill="none" stroke="#fff" stroke-miterlimit="10"/><path clip-path="url(#a)" d="m79.2 84.1 18.5 21.4-14.4 24.9h-9.7l3.9-35.1v-11.2zm.1-.3h-1.9v11.3l-3.9 35.1v.3h10.1l.1-.1 14.4-24.9.1-.2-.1-.1z" fill="#fff"/><path clip-path="url(#a)" d="m79.2 84.1 18.5 21.4-14.4 24.9h-9.7l3.9-35.1v-11.2zm.1-.3h-1.9v11.3l-3.9 35.1v.3h10.1l.1-.1 14.4-24.9.1-.2-.1-.1z" fill="none" stroke="#fff" stroke-miterlimit="10"/><path clip-path="url(#a)" d="m77.5 95.2v-2.9l-14.5 14.3h3.9z" fill="#fff"/><path clip-path="url(#a)" d="m77.5 95.2v-2.9l-14.5 14.3h3.9z" fill="none" stroke="#fff" stroke-miterlimit="10"/><path clip-path="url(#a)" d="m42.6 94.6.5-3.3c.9 1.2 12.2 15.9 12.2 15.9h-4.1z" fill="#fff"/><path clip-path="url(#a)" d="m42.6 94.6.5-3.3c.9 1.2 12.2 15.9 12.2 15.9h-4.1z" fill="none" stroke="#fff" stroke-miterlimit="10"/><path clip-path="url(#a)" d="m56.2 106.6s-9.7-4.7-12.1-4.8c-1.2 1.6-1.4 14.4 2.1 18.5 1-.2 10.1-7.2 10.1-7.2 1.6 1 4.5.6 5.3 0 0 0 4.1 7 9.9 8.4 1.4-1.4 3.9-16.4 3.7-17.9-.2-1.4-10.7 1.9-13.2 3.6-.1 0-.5-2.6-5.8-.6" fill="#fff"/><path clip-path="url(#a)" d="m56.2 106.6s-9.7-4.7-12.1-4.8c-1.2 1.6-1.4 14.4 2.1 18.5 1-.2 10.1-7.2 10.1-7.2 1.6 1 4.5.6 5.3 0 0 0 4.1 7 9.9 8.4 1.4-1.4 3.9-16.4 3.7-17.9-.2-1.4-10.7 1.9-13.2 3.6-.1 0-.5-2.6-5.8-.6z" fill="none" stroke="#fff" stroke-miterlimit="10"/><path clip-path="url(#a)" d="m61.5 113.1c-.8.6-3.7 1-5.3 0v-6.5c5.3-2 5.8.6 5.8.6z" fill="#fff"/><path clip-path="url(#a)" d="m61.5 113.1c-.8.6-3.7 1-5.3 0v-6.5c5.3-2 5.8.6 5.8.6z" fill="none" stroke="#fff" stroke-miterlimit="10"/><path clip-path="url(#a)" d="m58.8 105.5-7.2-9.3-2.6 15.4z" fill="#fff"/><path clip-path="url(#a)" d="m58.8 105.5-7.2-9.3-2.6 15.4z" fill="none" stroke="#fff" stroke-miterlimit="10"/><path clip-path="url(#a)" d="m58.8 105.5s-3.7 2.5-9.7 6.4l-.5.4.1-.7c.3-1.9.7-4.7 1.2-7.8.5-3 1-5.8 1.4-7.6l.1-.7.4.5c4.4 5.8 7 9.5 7 9.5s-2.9-3.4-7.5-9c.1 0 .3-.1.5-.1-.3 1.8-.7 4.7-1.2 7.7s-1 5.9-1.4 7.7c-.2-.1-.4-.3-.4-.3 6.2-3.8 10-6 10-6" fill="#fff"/><path clip-path="url(#a)" d="m58.8 105.5s-3.7 2.5-9.7 6.4l-.5.4.1-.7c.3-1.9.7-4.7 1.2-7.8.5-3 1-5.8 1.4-7.6l.1-.7.4.5c4.4 5.8 7 9.5 7 9.5s-2.9-3.4-7.5-9c.1 0 .3-.1.5-.1-.3 1.8-.7 4.7-1.2 7.7s-1 5.9-1.4 7.7c-.2-.1-.4-.3-.4-.3 6.2-3.8 10-6 10-6z" fill="none" stroke="#fff"/><path clip-path="url(#a)" d="m67.1 97-8.3 8.5 9.2 6.1z" fill="#fff"/><path clip-path="url(#a)" d="m67.1 97-8.3 8.5 9.2 6.1z" fill="none" stroke="#fff" stroke-miterlimit="10"/><path clip-path="url(#a)" d="m67.1 97s.7 5.9 1.3 14.6l.1.7-.6-.4c-.8-.5-2.1-1.4-3.4-2.3-2.3-1.5-4.4-3-5.7-3.9l-.3-.2.3-.3c4.9-5 8.3-8.2 8.3-8.2s-3 3.4-8 8.6v-.5c1.4.9 3.6 2.3 5.8 3.8 1.3.9 2.6 1.8 3.4 2.3-.2.1-.4.3-.5.3-.6-8.5-.7-14.5-.7-14.5" fill="#fff"/><path clip-path="url(#a)" d="m67.1 97s.7 5.9 1.3 14.6l.1.7-.6-.4c-.8-.5-2.1-1.4-3.4-2.3-2.3-1.5-4.4-3-5.7-3.9l-.3-.2.3-.3c4.9-5 8.3-8.2 8.3-8.2s-3 3.4-8 8.6v-.5c1.4.9 3.6 2.3 5.8 3.8 1.3.9 2.6 1.8 3.4 2.3-.2.1-.4.3-.5.3-.6-8.5-.7-14.5-.7-14.5z" fill="none" stroke="#fff"/><path clip-path="url(#a)" d="m44 80s.2 1.1.3 2.9c0 1 0 2.5-.1 4-.2 3.8-.8 6.9-.8 6.9s-.2-3.1 0-6.9c.1-1.6.2-3 .4-4 .1-1.9.2-2.9.2-2.9" fill="#fff"/><path clip-path="url(#a)" d="m44 80s.2 1.1.3 2.9c0 1 0 2.5-.1 4-.2 3.8-.8 6.9-.8 6.9s-.2-3.1 0-6.9c.1-1.6.2-3 .4-4 .1-1.9.2-2.9.2-2.9z" fill="none" stroke="#fff" stroke-miterlimit="10"/><path clip-path="url(#a)" d="m77.5 95.2s-.4-3.1-.4-7 .4-7 .4-7 .4 3.1.4 7c0 3.8-.4 7-.4 7" fill="#fff"/><path clip-path="url(#a)" d="m77.5 95.2s-.4-3.1-.4-7 .4-7 .4-7 .4 3.1.4 7c0 3.8-.4 7-.4 7z" fill="none" stroke="#fff" stroke-miterlimit="10"/><path clip-path="url(#a)" d="m80 63.1s-.2 2.1-.5 6.8c0 2.2-.5 5.9-1 10.4v.1c-.1.1-.4.5-.7.9-2.7 3.2-6.9 8.1-11.6 13.5l-.2.1h-8.7l-.1-.1c-1.3-1.5-2.5-3-3.7-4.4l-1.8-2.1-.9-1-.9-.9c-2.4-2.4-4.6-4.4-6.3-6.3v-.2c-.2-5.3-.4-9.5-.5-12.4 0-1.5 0-2.6.1-3.3 0-.4.1-.7.1-.8 0 .2-.1.5-.1.9-.1.7 0 1.9.1 3.3.2 2.9.5 7.1.8 12.4v-.1c1.7 1.8 4 3.8 6.4 6.2l.9.9.9 1 1.8 2.1c1.2 1.4 2.5 2.9 3.8 4.4l-.3-.1h8.3l-.3.1c4.7-5.4 9-10.2 11.8-13.3.3-.4.6-.8.7-.9v.1c.7-4.5 1.2-8.1 1.3-10.3.4-4.9.6-7 .6-7" fill="#fff"/><path clip-path="url(#a)" d="m80 63.1s-.2 2.1-.5 6.8c0 2.2-.5 5.9-1 10.4v.1c-.1.1-.4.5-.7.9-2.7 3.2-6.9 8.1-11.6 13.5l-.2.1h-8.7l-.1-.1c-1.3-1.5-2.5-3-3.7-4.4l-1.8-2.1-.9-1-.9-.9c-2.4-2.4-4.6-4.4-6.3-6.3v-.2c-.2-5.3-.4-9.5-.5-12.4 0-1.5 0-2.6.1-3.3 0-.4.1-.7.1-.8 0 .2-.1.5-.1.9-.1.7 0 1.9.1 3.3.2 2.9.5 7.1.8 12.4v-.1c1.7 1.8 4 3.8 6.4 6.2l.9.9.9 1 1.8 2.1c1.2 1.4 2.5 2.9 3.8 4.4l-.3-.1h8.3l-.3.1c4.7-5.4 9-10.2 11.8-13.3.3-.4.6-.8.7-.9v.1c.7-4.5 1.2-8.1 1.3-10.3.4-4.9.6-7 .6-7z" fill="none" stroke="#fff" stroke-miterlimit="10"/><path clip-path="url(#a)" d="m59.7 70.9s-.2-4-.3-9.9c0 0 .1.2.1.3-.6-.5-1.7-1.3-2.7-2.1-1.5-1.1-2.8-2.2-4.1-3.1-.6-.5-1.2-.9-1.8-1.3-.3-.2-.6-.4-.8-.5l-.2-.1h-.2s-.2.1-.3.2c-.9.8-1.5 1.6-1.9 2.1s-.7.8-.7.8l.6-.9c.4-.6.9-1.4 1.8-2.3.1-.1.2-.2.5-.3h.3c.1 0 .2 0 .2.1.4.1.7.3 1 .5l1.9 1.2c1.3.9 2.8 1.9 4.2 3 1.1.8 2.1 1.6 2.7 2.1l.1.1v.2c-.2 6-.4 9.9-.4 9.9" fill="#fff"/><path clip-path="url(#a)" d="m59.7 70.9s-.2-4-.3-9.9c0 0 .1.2.1.3-.6-.5-1.7-1.3-2.7-2.1-1.5-1.1-2.8-2.2-4.1-3.1-.6-.5-1.2-.9-1.8-1.3-.3-.2-.6-.4-.8-.5l-.2-.1h-.2s-.2.1-.3.2c-.9.8-1.5 1.6-1.9 2.1s-.7.8-.7.8l.6-.9c.4-.6.9-1.4 1.8-2.3.1-.1.2-.2.5-.3h.3c.1 0 .2 0 .2.1.4.1.7.3 1 .5l1.9 1.2c1.3.9 2.8 1.9 4.2 3 1.1.8 2.1 1.6 2.7 2.1l.1.1v.2c-.2 6-.4 9.9-.4 9.9z" fill="none" stroke="#fff" stroke-miterlimit="10"/><path clip-path="url(#a)" d="m65.6 84.1c1.7-1.6 1.7-5.8 1.7-7h-10.5c-.2 1.7 0 4.7 1.6 7z" fill="#fff"/><path clip-path="url(#a)" d="m65.6 84.1c1.7-1.6 1.7-5.8 1.7-7h-10.5c-.2 1.7 0 4.7 1.6 7z" fill="none" stroke="#fff" stroke-miterlimit="10"/><path clip-path="url(#a)" d="m59.7 73.8s.1.1.4.2l.4.2c.2.1.4.1.6.1.5.1 1.1.1 1.7-.1s1.3-.7 1.6-1.4v.1c-.1-2.7-.2-6.6-.2-10.8v-1.1l.2-.1c4.4-2.6 8.2-4.7 10.2-5.8l.1-.1.1.1c1.6 2.2 2.3 3.2 2.3 3.2s-.8-.9-2.6-3h.2c-1.9 1.2-5.6 3.6-10 6.2l.2-.3v.9c0 4.2-.1 8.1-.2 10.8-.4.9-1.2 1.3-1.9 1.6-.7.2-1.3.2-1.8 0-.2-.1-.5-.1-.6-.2-.2-.1-.3-.2-.4-.2z" fill="#fff"/><path clip-path="url(#a)" d="m59.7 73.8s.1.1.4.2l.4.2c.2.1.4.1.6.1.5.1 1.1.1 1.7-.1s1.3-.7 1.6-1.4v.1c-.1-2.7-.2-6.6-.2-10.8v-1.1l.2-.1c4.4-2.6 8.2-4.7 10.2-5.8l.1-.1.1.1c1.6 2.2 2.3 3.2 2.3 3.2s-.8-.9-2.6-3h.2c-1.9 1.2-5.6 3.6-10 6.2l.2-.3v.9c0 4.2-.1 8.1-.2 10.8-.4.9-1.2 1.3-1.9 1.6-.7.2-1.3.2-1.8 0-.2-.1-.5-.1-.6-.2-.2-.1-.3-.2-.4-.2z" fill="none" stroke="#fff" stroke-miterlimit="10"/><path clip-path="url(#a)" d="m58.8 73.4-.1.1c-.1.1-.2.2-.4.3s-.5.2-.8.2c-.4 0-.7-.4-.8-.8-.2-.8 0-1.3.2-1.7s.4-.6.4-.6-.1 1.1.2 2.1c.1.2.2.3.3.4.2.1.4.1.6.1s.4 0 .5-.1z" fill="#fff"/><path clip-path="url(#a)" d="m58.8 73.4-.1.1c-.1.1-.2.2-.4.3s-.5.2-.8.2c-.4 0-.7-.4-.8-.8-.2-.8 0-1.3.2-1.7s.4-.6.4-.6-.1 1.1.2 2.1c.1.2.2.3.3.4.2.1.4.1.6.1s.4 0 .5-.1z" fill="none" stroke="#fff" stroke-miterlimit="10"/><path clip-path="url(#a)" d="m58.4 84.1-6.2-7h4.5c-.1 1.7.1 4.7 1.7 7" fill="#fff"/><path clip-path="url(#a)" d="m58.4 84.1-6.2-7h4.5c-.1 1.7.1 4.7 1.7 7z" fill="none" stroke="#fff" stroke-miterlimit="10"/><path clip-path="url(#a)" d="m67.3 77.1h3.9l-5.6 7c1.7-1.6 1.7-5.8 1.7-7" fill="#fff"/><path clip-path="url(#a)" d="m67.3 77.1h3.9l-5.6 7c1.7-1.6 1.7-5.8 1.7-7z" fill="none" stroke="#fff" stroke-miterlimit="10"/><path clip-path="url(#a)" d="m64.6 72.8s.1 0 .2.1.3.2.6.2c.2.1.5.1.7.1.1 0 .2-.3.1-.7 0-.7-.2-1.4-.4-1.8-.1-.2-.2-.4-.2-.6-.1-.1-.1-.2-.1-.2s.1.1.2.1c.1.1.3.2.5.4.4.4.8 1.1.8 2 0 .2 0 .5-.1.7s-.3.5-.6.6c-.1.1-.3 0-.4 0s-.2 0-.3-.1c-.2-.1-.3-.2-.4-.3-.2-.2-.4-.3-.5-.5z" fill="#fff"/><path clip-path="url(#a)" d="m64.6 72.8s.1 0 .2.1.3.2.6.2c.2.1.5.1.7.1.1 0 .2-.3.1-.7 0-.7-.2-1.4-.4-1.8-.1-.2-.2-.4-.2-.6-.1-.1-.1-.2-.1-.2s.1.1.2.1c.1.1.3.2.5.4.4.4.8 1.1.8 2 0 .2 0 .5-.1.7s-.3.5-.6.6c-.1.1-.3 0-.4 0s-.2 0-.3-.1c-.2-.1-.3-.2-.4-.3-.2-.2-.4-.3-.5-.5z" fill="none" stroke="#fff" stroke-miterlimit="10"/><path clip-path="url(#a)" d="m52.3 77.1s2.2 2.4 6.3 6.8c0 0-.1 0-.2-.1 1.5 0 4.2-.1 7.1-.1 0 0-.2.1-.3.1.8-1 2.2-2.7 3.5-4.5l2-2.5c.1.3.2.4.3.6-10.8 0-18.7-.3-18.7-.3s8-.3 18.9-.4h.7l-.5.6c-.5.6-1.2 1.5-2 2.5-1.4 1.7-2.8 3.4-3.6 4.4l-.1.1h-.2c-2.9 0-5.6-.1-7.1-.1h-.1l-.1-.1c-3.9-4.5-5.9-7-5.9-7" fill="#fff"/><path clip-path="url(#a)" d="m52.3 77.1s2.2 2.4 6.3 6.8c0 0-.1 0-.2-.1 1.5 0 4.2-.1 7.1-.1 0 0-.2.1-.3.1.8-1 2.2-2.7 3.5-4.5l2-2.5c.1.3.2.4.3.6-10.8 0-18.7-.3-18.7-.3s8-.3 18.9-.4h.7l-.5.6c-.5.6-1.2 1.5-2 2.5-1.4 1.7-2.8 3.4-3.6 4.4l-.1.1h-.2c-2.9 0-5.6-.1-7.1-.1h-.1l-.1-.1c-3.9-4.5-5.9-7-5.9-7z" fill="none" stroke="#fff" stroke-miterlimit="10"/><path clip-path="url(#a)" d="m73.2 78.8s0-.3-.1-.7-.2-.9-.4-1.5c-.1-.6-.2-1.2-.3-1.5-.1-.4-.2-.7-.2-.7s.3.1.5.5c.3.4.6.9.7 1.6.1.6.1 1.3 0 1.7 0 .4-.2.6-.2.6" fill="#fff"/><path clip-path="url(#a)" d="m73.2 78.8s0-.3-.1-.7-.2-.9-.4-1.5c-.1-.6-.2-1.2-.3-1.5-.1-.4-.2-.7-.2-.7s.3.1.5.5c.3.4.6.9.7 1.6.1.6.1 1.3 0 1.7 0 .4-.2.6-.2.6z" fill="none" stroke="#fff" stroke-miterlimit="10"/><path clip-path="url(#a)" d="m50 80.6s-.3-.3-.6-.7c-.2-.3-.3-.6-.5-1-.1-.4-.2-.9-.2-1.3 0-1 .3-1.8.7-2.3.2-.3.3-.5.5-.6l.2-.2s0 .1-.1.2c-.1.2-.2.4-.2.7-.1.5-.3 1.3-.3 2.2l.1 1.2c.1.4.1.7.2 1z" fill="#fff"/><path clip-path="url(#a)" d="m50 80.6s-.3-.3-.6-.7c-.2-.3-.3-.6-.5-1-.1-.4-.2-.9-.2-1.3 0-1 .3-1.8.7-2.3.2-.3.3-.5.5-.6l.2-.2s0 .1-.1.2c-.1.2-.2.4-.2.7-.1.5-.3 1.3-.3 2.2l.1 1.2c.1.4.1.7.2 1z" fill="none" stroke="#fff" stroke-miterlimit="10"/><path clip-path="url(#a)" d="m74.8 64.1v-.5c0-.1 0-.3-.1-.5-.1-.1-.3-.3-.5-.4-.4-.4-.9-.7-1.5-1.1-.2-.1-.5-.1-.9-.1h-3.6c-.6.3-1.1.7-1.5 1v-.1c-.1 1.1-.2 1.6-.2 1.6s-.1-.6-.2-1.6v-.1l.1-.1c.4-.4.8-.9 1.5-1.3.1.1.3.1.4.1h.9c.4 0 .8 0 1.3-.1h1.8c.2 0 .5.1.7.2.6.4 1 1 1.4 1.4l.5.6v.6c-.1.3-.1.4-.1.4" fill="#fff"/><path clip-path="url(#a)" d="m74.8 64.1v-.5c0-.1 0-.3-.1-.5-.1-.1-.3-.3-.5-.4-.4-.4-.9-.7-1.5-1.1-.2-.1-.5-.1-.9-.1h-3.6c-.6.3-1.1.7-1.5 1v-.1c-.1 1.1-.2 1.6-.2 1.6s-.1-.6-.2-1.6v-.1l.1-.1c.4-.4.8-.9 1.5-1.3.1.1.3.1.4.1h.9c.4 0 .8 0 1.3-.1h1.8c.2 0 .5.1.7.2.6.4 1 1 1.4 1.4l.5.6v.6c-.1.3-.1.4-.1.4z" fill="none" stroke="#fff" stroke-miterlimit="10"/><path clip-path="url(#a)" d="m72.7 61.3v.5c0 .3 0 .8-.3 1.4-.1.1-.2.3-.2.4-.1.1-.2.3-.4.4-.3.2-.8.4-1.1.5h-.6c-.2 0-.4-.1-.7-.2-.5-.2-.9-.5-1.1-1-.3-.8-.3-1.6-.3-2.1v-.3h.3c2.7 0 4.5.3 4.4.4 0-.1-1.7.1-4.4.3l.3-.3c0 .4 0 1.1.3 1.7.3.7 1.1.9 1.7.9.4 0 .6-.1.9-.3l.3-.3.3-.3c.3-.5.4-.9.5-1.2.1-.4.1-.5.1-.5" fill="#fff"/><path clip-path="url(#a)" d="m72.7 61.3v.5c0 .3 0 .8-.3 1.4-.1.1-.2.3-.2.4-.1.1-.2.3-.4.4-.3.2-.8.4-1.1.5h-.6c-.2 0-.4-.1-.7-.2-.5-.2-.9-.5-1.1-1-.3-.8-.3-1.6-.3-2.1v-.3h.3c2.7 0 4.5.3 4.4.4 0-.1-1.7.1-4.4.3l.3-.3c0 .4 0 1.1.3 1.7.3.7 1.1.9 1.7.9.4 0 .6-.1.9-.3l.3-.3.3-.3c.3-.5.4-.9.5-1.2.1-.4.1-.5.1-.5z" fill="none" stroke="#fff" stroke-miterlimit="10"/><path clip-path="url(#a)" d="m49.3 64.1s0-.2-.1-.5v-.6c.1-.2.3-.4.5-.6.4-.4.8-.9 1.4-1.4.2-.2.5-.2.7-.2h1.8c.4 0 .9 0 1.3.1h.9l.4.1c.7.4 1.1.9 1.5 1.3l.1.1v.1c-.1 1.1-.2 1.6-.2 1.6s-.1-.6-.2-1.6c0 0 0 .1.1.1-.4-.3-.9-.7-1.5-1h-3.6c-.4 0-.8 0-.9.1-.6.4-1 .8-1.5 1.1-.2.2-.4.3-.5.4-.1.2-.1.4-.1.5-.1.3-.1.4-.1.4" fill="#fff"/><path clip-path="url(#a)" d="m49.3 64.1s0-.2-.1-.5v-.6c.1-.2.3-.4.5-.6.4-.4.8-.9 1.4-1.4.2-.2.5-.2.7-.2h1.8c.4 0 .9 0 1.3.1h.9l.4.1c.7.4 1.1.9 1.5 1.3l.1.1v.1c-.1 1.1-.2 1.6-.2 1.6s-.1-.6-.2-1.6c0 0 0 .1.1.1-.4-.3-.9-.7-1.5-1h-3.6c-.4 0-.8 0-.9.1-.6.4-1 .8-1.5 1.1-.2.2-.4.3-.5.4-.1.2-.1.4-.1.5-.1.3-.1.4-.1.4z" fill="none" stroke="#fff" stroke-miterlimit="10"/><path clip-path="url(#a)" d="m81.4 32 .2.2c.2.2.4.4.7.8.5.8 1.2 2 1.7 3.9s.8 4.2.8 7.2c0 1.5 0 3.1-.2 4.8l-.3 2.7c-.1.9-.2 1.9-.6 2.9l-.2.5-.1-.6c-.1-.4-.4-1-1-1.4-.2-.1-.3-.2-.5-.2s-.3 0-.3.1c0 .4-.1.9-.1 1.4-.2 2-.4 4.4-.7 6.9v.2h-1.7v-.2c0-1.1 0-3.8.1-6.7v.1c-.3-.7-1.1-2.3-1.9-4l-.1-.1.1-.1s.1-.2.1-.3c.5-1.7 1.1-3.6 1.7-5.6.8-2 0-4.4-1.8-6-.9-.8-2-1.4-3.2-1.9-.6-.2-1.2-.4-1.9-.4-.7-.1-1.3-.1-1.9 0-1.3.2-2.6.6-4 1-1.3.5-2.8 1-4.3.8h-.9c-1.4-.1-2.6-.6-3.8-1s-2.4-.8-3.6-.9h-.9l-.9.1c-.6.1-1.2.2-1.8.4-1.1.4-2.1.9-3 1.7-.9.7-1.7 1.6-2 2.6-.4 1-.5 2.1-.2 3.1.6 2.1 1.3 4.2 1.9 6.1v.1l-.1.1c-.7 1.5-1.3 2.7-1.9 3.8v-.1c.1 2.8.1 5 .2 7.1v.3h-2.4v-.3c.2-1.7 0-3.2 0-4.6-.1-1.4-.2-2.7-.3-3.9l.2.2c-.8-.2-1.5-.1-2.1.3-.5.3-.9.8-1.1 1.3l-.2.4-.1-.4c-.3-1-.3-1.8-.4-2.7s-.1-1.7-.1-2.5c0-1.6 0-3.2.1-4.6.2-2.9.6-5.3 1.1-7.2s1.2-3.4 1.9-4.2c.3-.4.6-.7.8-.9l.3-.3-.3.3c-.2.2-.4.5-.7.9-.6.9-1.3 2.3-1.8 4.2s-.9 4.4-1 7.2c-.1 1.4-.1 2.9 0 4.6 0 .8.1 1.6.2 2.5.1.8.1 1.8.4 2.5h-.3c.3-.6.6-1.1 1.2-1.5s1.5-.6 2.4-.4h.2v.2c.1 1.2.2 2.5.3 3.9s.3 2.9.1 4.8c-.1-.1-.1-.2-.3-.3h1.8l-.3.3c-.1-2.1-.2-4.3-.3-7.1v-.2c.5-1.1 1.1-2.3 1.8-3.8v.2c-.6-1.9-1.3-4-1.9-6.1-.4-1.2-.2-2.4.2-3.6s1.3-2.1 2.2-2.9c1-.8 2.1-1.4 3.3-1.8.6-.2 1.2-.3 1.9-.4.3-.1.6-.1 1-.1h1c2.6.2 5 1.6 7.4 1.9h.8c1.3.1 2.7-.4 4-.8s2.7-.9 4.1-1.1c.7-.1 1.4-.1 2.1.1.7.1 1.4.3 2 .5 1.3.4 2.5 1.1 3.4 2 2 1.7 2.9 4.6 2 6.7-.6 2.1-1.2 4-1.8 5.6-.1.1-.1.2-.1.3v-.3c.8 1.7 1.6 3.3 1.9 4v.2c-.1 2.8-.1 5.6-.2 6.7l-.2-.2h1.3l-.2.2c.3-2.5.5-4.9.7-6.9 0-.5.1-1 .1-1.4 0-.2.2-.4.3-.4h.4c.2 0 .4.1.6.3.7.5 1.1 1.1 1.1 1.7h-.3c.3-.9.4-1.9.6-2.8l.3-2.7c.2-1.7.2-3.3.2-4.8 0-2.9-.3-5.3-.7-7.2-.4-1.8-1.1-3.1-1.6-3.9-.3-.4-.5-.6-.6-.8.1-.2 0-.3 0-.3" fill="#fff"/><path clip-path="url(#a)" d="m81.4 32 .2.2c.2.2.4.4.7.8.5.8 1.2 2 1.7 3.9s.8 4.2.8 7.2c0 1.5 0 3.1-.2 4.8l-.3 2.7c-.1.9-.2 1.9-.6 2.9l-.2.5-.1-.6c-.1-.4-.4-1-1-1.4-.2-.1-.3-.2-.5-.2s-.3 0-.3.1c0 .4-.1.9-.1 1.4-.2 2-.4 4.4-.7 6.9v.2h-1.7v-.2c0-1.1 0-3.8.1-6.7v.1c-.3-.7-1.1-2.3-1.9-4l-.1-.1.1-.1s.1-.2.1-.3c.5-1.7 1.1-3.6 1.7-5.6.8-2 0-4.4-1.8-6-.9-.8-2-1.4-3.2-1.9-.6-.2-1.2-.4-1.9-.4-.7-.1-1.3-.1-1.9 0-1.3.2-2.6.6-4 1-1.3.5-2.8 1-4.3.8h-.9c-1.4-.1-2.6-.6-3.8-1s-2.4-.8-3.6-.9h-.9l-.9.1c-.6.1-1.2.2-1.8.4-1.1.4-2.1.9-3 1.7-.9.7-1.7 1.6-2 2.6-.4 1-.5 2.1-.2 3.1.6 2.1 1.3 4.2 1.9 6.1v.1l-.1.1c-.7 1.5-1.3 2.7-1.9 3.8v-.1c.1 2.8.1 5 .2 7.1v.3h-2.4v-.3c.2-1.7 0-3.2 0-4.6-.1-1.4-.2-2.7-.3-3.9l.2.2c-.8-.2-1.5-.1-2.1.3-.5.3-.9.8-1.1 1.3l-.2.4-.1-.4c-.3-1-.3-1.8-.4-2.7s-.1-1.7-.1-2.5c0-1.6 0-3.2.1-4.6.2-2.9.6-5.3 1.1-7.2s1.2-3.4 1.9-4.2c.3-.4.6-.7.8-.9l.3-.3-.3.3c-.2.2-.4.5-.7.9-.6.9-1.3 2.3-1.8 4.2s-.9 4.4-1 7.2c-.1 1.4-.1 2.9 0 4.6 0 .8.1 1.6.2 2.5.1.8.1 1.8.4 2.5h-.3c.3-.6.6-1.1 1.2-1.5s1.5-.6 2.4-.4h.2v.2c.1 1.2.2 2.5.3 3.9s.3 2.9.1 4.8c-.1-.1-.1-.2-.3-.3h1.8l-.3.3c-.1-2.1-.2-4.3-.3-7.1v-.2c.5-1.1 1.1-2.3 1.8-3.8v.2c-.6-1.9-1.3-4-1.9-6.1-.4-1.2-.2-2.4.2-3.6s1.3-2.1 2.2-2.9c1-.8 2.1-1.4 3.3-1.8.6-.2 1.2-.3 1.9-.4.3-.1.6-.1 1-.1h1c2.6.2 5 1.6 7.4 1.9h.8c1.3.1 2.7-.4 4-.8s2.7-.9 4.1-1.1c.7-.1 1.4-.1 2.1.1.7.1 1.4.3 2 .5 1.3.4 2.5 1.1 3.4 2 2 1.7 2.9 4.6 2 6.7-.6 2.1-1.2 4-1.8 5.6-.1.1-.1.2-.1.3v-.3c.8 1.7 1.6 3.3 1.9 4v.2c-.1 2.8-.1 5.6-.2 6.7l-.2-.2h1.3l-.2.2c.3-2.5.5-4.9.7-6.9 0-.5.1-1 .1-1.4 0-.2.2-.4.3-.4h.4c.2 0 .4.1.6.3.7.5 1.1 1.1 1.1 1.7h-.3c.3-.9.4-1.9.6-2.8l.3-2.7c.2-1.7.2-3.3.2-4.8 0-2.9-.3-5.3-.7-7.2-.4-1.8-1.1-3.1-1.6-3.9-.3-.4-.5-.6-.6-.8.1-.2 0-.3 0-.3z" fill="none" stroke="#fff" stroke-miterlimit="10"/><path clip-path="url(#a)" d="m79.3 69.9h.7c.4-.1 1.1-.3 1.6-.8.1-.1.3-.3.4-.5s.2-.4.4-.6c.2-.4.5-.9.6-1.3.2-1 .3-2.2.4-3.4.2-2.5.3-4.7.3-6.3v-2.6s.1.2.2.7c.1.4.2 1.1.3 1.9.2 1.6.2 3.9 0 6.4-.1 1.2-.2 2.4-.5 3.5-.1.6-.5 1-.7 1.4l-.4.6-.5.5c-.7.6-1.4.7-1.8.7-.7-.2-1-.2-1-.2" fill="#fff"/><path clip-path="url(#a)" d="m79.3 69.9h.7c.4-.1 1.1-.3 1.6-.8.1-.1.3-.3.4-.5s.2-.4.4-.6c.2-.4.5-.9.6-1.3.2-1 .3-2.2.4-3.4.2-2.5.3-4.7.3-6.3v-2.6s.1.2.2.7c.1.4.2 1.1.3 1.9.2 1.6.2 3.9 0 6.4-.1 1.2-.2 2.4-.5 3.5-.1.6-.5 1-.7 1.4l-.4.6-.5.5c-.7.6-1.4.7-1.8.7-.7-.2-1-.2-1-.2z" fill="none" stroke="#fff" stroke-miterlimit="10"/><path clip-path="url(#a)" d="m39.2 54.3v.2c0 .1-.1.3-.1.5-.1.5-.1 1.1-.1 1.9 0 1.6.1 3.9.2 6.4.1 1.2.1 2.5.3 3.5.1 1 .9 1.7 1.5 2.1 1.4.9 2.5.9 2.4.8 0 .1-1.1.3-2.6-.5-.4-.2-.8-.5-1.1-.8-.4-.3-.7-.9-.8-1.5-.2-1.1-.3-2.3-.4-3.6-.1-2.5-.1-4.9.1-6.5.1-.8.2-1.5.4-2 .1-.2.1-.4.2-.5" fill="#fff"/><path clip-path="url(#a)" d="m39.2 54.3v.2c0 .1-.1.3-.1.5-.1.5-.1 1.1-.1 1.9 0 1.6.1 3.9.2 6.4.1 1.2.1 2.5.3 3.5.1 1 .9 1.7 1.5 2.1 1.4.9 2.5.9 2.4.8 0 .1-1.1.3-2.6-.5-.4-.2-.8-.5-1.1-.8-.4-.3-.7-.9-.8-1.5-.2-1.1-.3-2.3-.4-3.6-.1-2.5-.1-4.9.1-6.5.1-.8.2-1.5.4-2 .1-.2.1-.4.2-.5z" fill="none" stroke="#fff" stroke-miterlimit="10"/><path clip-path="url(#a)" d="m77.5 86.4s-2.1 2.7-5 5.6c-2.9 3-5.5 5.1-5.5 5.1s2.1-2.7 5-5.6c2.9-3 5.5-5.1 5.5-5.1" fill="#fff"/><path clip-path="url(#a)" d="m77.5 86.4s-2.1 2.7-5 5.6c-2.9 3-5.5 5.1-5.5 5.1s2.1-2.7 5-5.6c2.9-3 5.5-5.1 5.5-5.1z" fill="none" stroke="#fff" stroke-miterlimit="10"/><path clip-path="url(#a)" d="m51.6 96.2s-2-2-4.2-4.7c-2.1-2.7-3.6-5.2-3.6-5.2s2 2 4.2 4.7c2.2 2.8 3.6 5.2 3.6 5.2" fill="#fff"/><path clip-path="url(#a)" d="m51.6 96.2s-2-2-4.2-4.7c-2.1-2.7-3.6-5.2-3.6-5.2s2 2 4.2 4.7c2.2 2.8 3.6 5.2 3.6 5.2z" fill="none" stroke="#fff" stroke-miterlimit="10"/><path clip-path="url(#a)" d="m61.6 107.2h.2v5.9h-.2z" fill="#fff" transform="matrix(.997 .072 -.072 .997 8.134 -4.179)"/><path clip-path="url(#a)" d="m61.6 107.2h.2v5.9h-.2z" fill="none" stroke="#fff" stroke-miterlimit="10" transform="matrix(.997 .072 -.072 .997 8.134 -4.179)"/><path clip-path="url(#a)" d="m56 106.6h.2v6.5h-.2z" fill="#fff"/><path clip-path="url(#a)" d="m56 106.6h.2v6.5h-.2z" fill="none" stroke="#fff" stroke-miterlimit="10"/><path clip-path="url(#a)" d="m59.7 61.1s-.8-.4-2.2-1.2c-1.3-.8-3.1-1.9-4.9-3.2-.9-.6-1.8-1.3-2.6-1.8l-.2-.1-.2-.1c-.1 0-.2.1-.2.2l-.9.8c-1.1 1-1.8 1.7-1.8 1.7s.4-.9 1.2-2.2c.2-.3.4-.7.7-1.1l.3-.3.2-.2.1-.1.3-.1h.5c.1 0 .3.1.5.2 1.1.5 1.9 1 2.9 1.7 1.9 1.3 3.5 2.8 4.5 3.8 1.1 1.2 1.8 2 1.8 2" fill="#fff"/><path clip-path="url(#a)" d="m59.7 61.1s-.8-.4-2.2-1.2c-1.3-.8-3.1-1.9-4.9-3.2-.9-.6-1.8-1.3-2.6-1.8l-.2-.1-.2-.1c-.1 0-.2.1-.2.2l-.9.8c-1.1 1-1.8 1.7-1.8 1.7s.4-.9 1.2-2.2c.2-.3.4-.7.7-1.1l.3-.3.2-.2.1-.1.3-.1h.5c.1 0 .3.1.5.2 1.1.5 1.9 1 2.9 1.7 1.9 1.3 3.5 2.8 4.5 3.8 1.1 1.2 1.8 2 1.8 2z" fill="none" stroke="#fff" stroke-miterlimit="10"/><path clip-path="url(#a)" d="m64.6 61.1s2.6-2.4 6.4-4.6c1.3-.8 2.6-1.4 3.5-1.8l.5-.2.2.3c1.4 2.1 2 3.4 2 3.4s-1.2-1-2.9-2.8c.2 0 .4.1.7.1-.8.6-1.9 1.4-3.2 2.2-3.8 2.2-7.2 3.4-7.2 3.4" fill="#fff"/><path clip-path="url(#a)" d="m64.6 61.1s2.6-2.4 6.4-4.6c1.3-.8 2.6-1.4 3.5-1.8l.5-.2.2.3c1.4 2.1 2 3.4 2 3.4s-1.2-1-2.9-2.8c.2 0 .4.1.7.1-.8.6-1.9 1.4-3.2 2.2-3.8 2.2-7.2 3.4-7.2 3.4z" fill="none" stroke="#fff" stroke-miterlimit="10"/><path clip-path="url(#a)" d="m44.5 82.7.1-3.1c-.2-3.8-.5-10.1-.5-10.1-.7.3-3.8-.8-4.2-2.6-.5-1.8-.9-10.9 0-12.9l-.1-.2c-.6-2.3-1.5-17.5 3.5-22.1 5.2-4.8 7.6-5.2 18.1-4.3h2.5c10.6-.9 12.9-.5 18.1 4.3 5.1 4.7 2.9 20.7 2.2 22.3l.1.8c.5 1.9 0 10.9-.6 12.1s-1.6 3-3.8 2.7c.2 1.4-1.2 10.3-1.2 10.3l-.7.9v6.2l-18.5 19.8-14.9-19.6z" fill="#fff"/><path clip-path="url(#a)" d="m84.3 53.9c.7-1.6 2.9-17.6-2.2-22.3-5.2-4.8-7.6-5.2-18.1-4.3h-2.5c-10.6-.9-13-.5-18.1 4.3-5 4.6-4.1 19.8-3.5 22.1l.1.2c.4-.8 1.4-2.2 3.4-1.8 0 .8.7 6.4.4 8.6h1.8s-.2-4.1-.2-7.1l1.8-3.8s-1.4-4.4-1.9-6.3.5-3.8.5-3.8 2-3.9 7.7-4.4c3.4-.1 6.4 2.2 9.3 1.9h.1c2.9.2 5.9-2 9.3-1.9 5.7.5 7.7 4.4 7.7 4.4s1.1 1.9.5 3.8c-.5 1.9-1.9 6.3-1.9 6.3l-.1.3 1.9 4-.1 6.7h1.3s.8-7.5.8-8.3c-.1-.7 1.8 0 2 1.4" fill="#231f20"/><path clip-path="url(#a)" d="m69.5 26.9c5.2 0 7.5 1.2 11.4 4.7 5.1 4.7 2.9 20.7 2.2 22.3l.1.8c.5 1.9 0 10.9-.6 12.1-.6 1.1-1.5 2.7-3.3 2.7h-.5c.2 1.4-1.2 10.3-1.2 10.3l-.6 1v2.9h1.6l4.9 5.7c9.4 3.4 29.4 14 29.4 14l8.5 26.5h-125.9l13.2-29.6 32.7-15.7 1.9-2 .1-3.1c-.2-3.8-.5-10.1-.5-10.1l-.3.1c-1 0-3.5-1-3.9-2.7-.5-1.8-.9-10.9 0-12.9l-.1-.2c-.6-2.3-1.5-17.5 3.5-22.1 3.8-3.5 6.1-4.7 11.3-4.7 1.8 0 4 .1 6.8.4h2.5c2.8-.2 5-.4 6.8-.4m0-1c-1.7 0-3.7.1-6.8.4h-2.4c-3.1-.3-5.2-.4-6.8-.4-5.7 0-8.2 1.5-12 5-5.3 4.9-4.5 20.3-3.8 23.1-.9 2.8-.3 11.5.1 13.2.5 1.9 2.8 3.1 4.2 3.4.1 1.9.4 6.2.5 9.1l-.1 2.7-1.5 1.6-32.5 15.5-.2.1-.1.1-13.2 29.6-1.5 1.7h130l-1.1-1.6-8.5-26.5-.1-.2-.2-.1c-.8-.4-19.8-10.6-29.3-14l-4.8-5.5-.3-.3h-1.1v-1.6l.5-.7.1-.2v-.2c.2-1.3 1-6.9 1.2-9.5 2.2-.3 3.2-2.3 3.7-3.2.8-1.6 1.2-10.7.7-12.7l-.1-.7c.7-2.7 2.8-18.1-2.6-23.1-3.8-3.5-6.3-5-12-5"/><path clip-path="url(#a)" d="m-4.4 130 13.2-29.6 34.7-16.7-2.6 46.3z" fill="#231f20"/><path clip-path="url(#a)" d="m43.5 83.7-2.6 46.3h-45.3l13.3-29.6zm.3-.4-.4.2-34.7 16.7-13.2 29.6-.4.4h46.1v-.2l2.7-46.2z" fill="#fff"/><path clip-path="url(#a)" d="m80.1 88.5-7 41.5h48.4l-8.5-26.5s-26.5-14.2-32.9-15" fill="#231f20"/><path clip-path="url(#a)" d="m80.1 88.5c6.4.8 32.9 15 32.9 15l8.5 26.5h-48.4zm-.2-.3v.2l-7 41.5-.1.3h49.2l-.3-.4-8.5-26.5c-1.1-.6-26.6-14.2-33-15z" fill="#fff"/><path clip-path="url(#a)" d="m37 130 5.1-35.7.5-3.4.7-4.9 7.8 9.9 7.2 9.2 8.3-8.4 10.4-10.7v6 2.8l-2.2 35.2z" fill="#fff"/><path clip-path="url(#a)" d="m40.9 130 2.6-47.5-22.6 24.4 7.8 23.1z" fill="#231f20"/><path clip-path="url(#a)" d="m43.5 82.5-2.6 47.5h-12.2l-7.8-23.1zm.3-.7-.5.5-22.6 24.4-.1.1v.1l7.8 23.1.1.2h12.5v-.2l2.7-47.5z" fill="#fff"/><path clip-path="url(#a)" d="m77 83.7v11.1l-3.9 35.2h9.7l14.4-24.9-18.5-21.4z" fill="#231f20"/><path clip-path="url(#a)" d="m78.7 83.7 18.5 21.4-14.4 24.9h-9.7l3.9-35.2v-11.1zm.1-.2h-2v11.3l-3.9 35.2v.3h10.1l.1-.1 14.4-24.9.1-.2-.1-.1z" fill="#fff"/><path clip-path="url(#a)" d="m77 94.8v-2.8l-14.6 14.2h4z" fill="#231f20"/><path clip-path="url(#a)" d="m42.1 94.3.5-3.3c.9 1.2 12.2 15.9 12.2 15.9h-4.1z" fill="#231f20"/><path clip-path="url(#a)" d="m55.7 106.2s-9.7-4.7-12.1-4.8c-1.2 1.6-1.4 14.4 2.1 18.5 1-.2 10.1-7.2 10.1-7.2 1.6 1 4.5.6 5.3 0 0 0 4.1 7 9.9 8.4 1.4-1.4 3.9-16.4 3.7-17.9-.2-1.4-10.7 1.9-13.2 3.6-.1.1-.5-2.5-5.8-.6" fill="#231f20"/><path clip-path="url(#a)" d="m61 112.7c-.8.6-3.7 1-5.3 0v-6.5c5.3-2 5.8.6 5.8.6z" fill="#231f20"/><path clip-path="url(#a)" d="m58.3 105.1-7.2-9.2-2.6 15.4z" fill="#fff"/><path clip-path="url(#a)" d="m58.3 105.1s-3.7 2.5-9.7 6.4l-.5.4.1-.7c.3-1.9.7-4.7 1.2-7.8.5-3 1-5.8 1.4-7.6l.1-.7.4.5c4.4 5.9 7 9.5 7 9.5s-2.9-3.4-7.5-9c.1 0 .3-.1.5-.1-.3 1.8-.7 4.7-1.2 7.7s-1 5.9-1.4 7.7c-.2-.1-.4-.3-.4-.3 6.2-3.8 10-6 10-6" fill="#231f20"/><path clip-path="url(#a)" d="m66.6 96.7-8.3 8.4 9.2 6.2z" fill="#fff"/><path clip-path="url(#a)" d="m66.6 96.7s.7 5.9 1.3 14.6l.1.7-.6-.4c-.8-.5-2.1-1.4-3.4-2.3-2.3-1.5-4.4-3-5.7-3.9l-.3-.2.3-.3c4.9-5.1 8.3-8.2 8.3-8.2s-3 3.4-8 8.6v-.5c1.4.9 3.6 2.3 5.8 3.8 1.3.9 2.6 1.8 3.4 2.3-.2.1-.4.3-.5.3-.6-8.5-.7-14.5-.7-14.5" fill="#231f20"/><path clip-path="url(#a)" d="m43.5 79.6s.2 1.1.3 2.9c0 1 0 2.5-.1 4-.2 3.8-.8 6.9-.8 6.9s-.2-3.1 0-6.9c.1-1.6.2-3 .4-4 .1-1.8.2-2.9.2-2.9" fill="#231f20"/><path clip-path="url(#a)" d="m77 94.8s-.4-3.1-.4-7 .4-7 .4-7 .4 3.1.4 7-.4 7-.4 7" fill="#231f20"/><path clip-path="url(#a)" d="m79.5 62.8s-.2 2.1-.5 6.8c0 2.2-.5 5.9-1 10.4v.1c-.1.1-.4.5-.7.9-2.7 3.2-6.9 8.1-11.6 13.5l-.1.1h-8.7l-.1-.1c-1.3-1.5-2.5-3-3.7-4.4l-1.8-2.1-.9-1-.9-.9c-2.4-2.4-4.6-4.4-6.3-6.3v-.2c-.2-5.3-.4-9.5-.5-12.4 0-1.5 0-2.6.1-3.3 0-.4.1-.7.1-.8 0 .2-.1.5-.1.9-.1.7 0 1.9.1 3.3.2 2.9.5 7.1.8 12.4v-.1c1.7 1.8 4 3.8 6.4 6.2l.9.9.9 1 1.8 2.1c1.2 1.4 2.5 2.9 3.8 4.4l-.3-.1h8.3l-.3.1c4.7-5.4 9-10.2 11.8-13.3.3-.4.6-.8.7-.9v.1c.7-4.5 1.2-8.1 1.3-10.3.3-4.9.5-7 .5-7" fill="#231f20"/><path clip-path="url(#a)" d="m59.2 70.6s-.2-4-.3-9.9c0 0 .1.2.1.3-.6-.5-1.7-1.3-2.7-2.1-1.5-1.1-2.8-2.2-4.1-3.1-.6-.5-1.2-.9-1.8-1.3-.3-.2-.6-.4-.8-.5l-.2-.1h-.2s-.2.1-.3.2c-.9.8-1.5 1.6-1.9 2.1s-.7.8-.7.8l.6-.9c.4-.6.9-1.4 1.8-2.3.1-.1.2-.2.5-.3h.3c.1 0 .2 0 .2.1.4.1.7.3 1 .5l1.9 1.2c1.3.9 2.8 1.9 4.2 3 1.1.8 2.1 1.6 2.7 2.1l.1.1v.2c-.2 5.9-.4 9.9-.4 9.9" fill="#231f20"/><path clip-path="url(#a)" d="m65.1 83.7c1.7-1.6 1.7-5.8 1.7-7h-10.5c-.2 1.7 0 4.7 1.6 7z" fill="#fff"/><path clip-path="url(#a)" d="m59.2 73.5s.1.1.4.2l.4.2c.2.1.4.1.6.1.5.1 1.1.1 1.7-.1s1.3-.7 1.6-1.4v.1c-.1-2.7-.2-6.6-.2-10.8v-1.1l.2-.1c4.4-2.6 8.2-4.7 10.2-5.8l.1-.1.1.1c1.6 2.2 2.3 3.2 2.3 3.2s-.8-.9-2.6-3h.2c-1.9 1.2-5.6 3.6-10 6.2l.2-.3v.9c0 4.2-.1 8.1-.2 10.8-.4.9-1.2 1.3-1.9 1.6-.7.2-1.3.2-1.8 0-.2-.1-.5-.1-.6-.2-.2-.1-.3-.2-.4-.2-.2-.3-.3-.3-.3-.3" fill="#231f20"/><path clip-path="url(#a)" d="m58.3 73.1-.1.1c-.1.1-.2.2-.4.3s-.5.2-.8.2c-.4 0-.7-.4-.8-.8-.2-.8 0-1.3.2-1.7s.4-.6.4-.6-.1 1.1.2 2.1c.1.2.2.3.3.4.2.1.4.1.6.1s.4 0 .5-.1z" fill="#231f20"/><path clip-path="url(#a)" d="m57.9 83.7-6.2-7h4.5c-.1 1.8.1 4.7 1.7 7" fill="#231f20"/><path clip-path="url(#a)" d="m66.8 76.7h3.9l-5.6 7c1.7-1.6 1.7-5.7 1.7-7" fill="#231f20"/><path clip-path="url(#a)" d="m64.1 72.4s.1 0 .2.1.3.2.6.2c.2.1.5.1.7.1.1 0 .2-.3.1-.7 0-.7-.2-1.4-.4-1.8-.1-.2-.2-.4-.2-.6-.1-.1-.1-.2-.1-.2s.1.1.2.1c.1.1.3.2.5.4.4.4.8 1.1.8 2 0 .2 0 .5-.1.7s-.3.5-.6.6c-.1.1-.3 0-.4 0s-.2 0-.3-.1c-.2-.1-.3-.2-.4-.3-.2-.2-.4-.3-.5-.5-.1.1-.1 0-.1 0" fill="#231f20"/><path clip-path="url(#a)" d="m51.8 76.7s2.2 2.4 6.3 6.8c0 0-.1 0-.2-.1 1.5 0 4.2-.1 7.1-.1 0 0-.2.1-.3.1.8-1 2.2-2.7 3.5-4.5l2-2.5c.1.3.2.4.3.6-10.8 0-18.7-.3-18.7-.3s8-.3 18.9-.4h.7l-.5.7c-.5.6-1.2 1.5-2 2.5-1.4 1.7-2.8 3.4-3.6 4.4l-.1.1h-.2c-2.9 0-5.6-.1-7.1-.1h-.1l-.1-.1c-3.9-4.5-5.9-7.1-5.9-7.1" fill="#231f20"/><path clip-path="url(#a)" d="m72.7 78.5s0-.3-.1-.7-.2-.9-.4-1.5c-.1-.6-.2-1.2-.3-1.5-.1-.4-.2-.7-.2-.7s.3.1.5.5c.3.4.6.9.7 1.6.1.6.1 1.3 0 1.7 0 .4-.2.6-.2.6" fill="#231f20"/><path clip-path="url(#a)" d="m49.5 80.2s-.3-.3-.6-.7c-.2-.3-.3-.6-.5-1-.1-.4-.2-.9-.2-1.3 0-1 .3-1.8.7-2.3.2-.3.3-.5.5-.6l.2-.2s0 .1-.1.2c-.1.2-.2.4-.2.7-.1.5-.3 1.3-.3 2.2l.1 1.2c.1.4.1.7.2 1 .1.5.2.8.2.8" fill="#231f20"/><path clip-path="url(#a)" d="m72.8 61.6c-.4-.2-3.8 0-4.4 0-.1 1.3.3 2.9 2.2 2.9 1.8-.1 2.2-2 2.2-2.9" fill="#231f20"/><path clip-path="url(#a)" d="m51.4 61.6c.4-.2 3.8 0 4.4 0 .1 1.3-.3 2.9-2.2 2.9-1.9-.1-2.2-2-2.2-2.9" fill="#231f20"/><path clip-path="url(#a)" d="m74.3 63.8v-.5c0-.1 0-.3-.1-.5-.1-.1-.3-.3-.5-.4-.4-.4-.9-.7-1.5-1.1-.2-.1-.5-.1-.9-.1h-3.6c-.6.3-1.1.7-1.5 1v-.1c-.1 1.1-.2 1.6-.2 1.6s-.1-.6-.2-1.6v-.1l.1-.1c.4-.4.8-.9 1.5-1.3.1-.1.2-.1.4-.1h.9c.4 0 .8 0 1.3-.1h1.8c.2 0 .5.1.7.2.6.4 1 1 1.4 1.4l.5.6v.6c-.1.4-.1.6-.1.6" fill="#231f20"/><path clip-path="url(#a)" d="m72.2 60.9v.5c0 .3 0 .8-.3 1.4-.1.1-.2.3-.2.4-.1.1-.2.3-.4.4-.3.2-.8.4-1.1.5h-.6c-.2 0-.4-.1-.7-.2-.5-.2-.9-.5-1.1-1-.4-.8-.4-1.6-.3-2.1v-.3h.3c2.7.1 4.5.3 4.4.4 0-.1-1.7.1-4.4.3l.3-.3c0 .4 0 1.1.3 1.7.3.7 1.1.9 1.7.9.4 0 .6-.1.9-.3l.3-.3.3-.3c.3-.5.4-.9.5-1.2s.1-.5.1-.5" fill="#231f20"/><path clip-path="url(#a)" d="m48.8 63.8s0-.2-.1-.5v-.6c.1-.2.3-.4.5-.6.4-.4.8-.9 1.4-1.4.2-.2.5-.2.7-.2h1.8c.4 0 .9 0 1.3.1h.9l.4.1c.7.4 1.1.9 1.5 1.3l.1.1v.1c-.1 1.1-.2 1.6-.2 1.6s-.1-.6-.2-1.6v.1c-.4-.3-.9-.7-1.5-1h-3.6c-.4 0-.8 0-.9.1-.6.4-1 .8-1.5 1.1-.2.2-.4.3-.5.4-.1.2-.1.4-.1.5z" fill="#231f20"/><path clip-path="url(#a)" d="m50.9 60.9s0 .2.1.5.2.7.5 1.2l.3.3.3.3c.2.1.5.2.9.3.6 0 1.4-.2 1.7-.9.3-.6.3-1.2.3-1.7.2.1.2.2.3.3-2.7-.2-4.4-.4-4.4-.3 0-.1 1.8-.3 4.4-.3h.3v.3c0 .5.1 1.3-.3 2.1-.2.4-.6.8-1.1 1-.2.1-.5.2-.7.2h-.6c-.3 0-.8-.2-1.1-.5l-.4-.4c-.1-.1-.2-.3-.2-.4-.2-.6-.3-1-.3-1.4-.1-.4 0-.6 0-.6" fill="#231f20"/><path clip-path="url(#a)" d="m80.9 31.6.2.2c.2.2.4.4.7.8.5.8 1.2 2 1.7 3.9s.8 4.2.8 7.2c0 1.5 0 3.1-.2 4.8l-.3 2.7c-.1.9-.2 1.9-.6 2.9l-.2.5-.1-.6c-.1-.4-.4-1-1-1.4-.2-.1-.3-.2-.5-.2s-.3 0-.3.1c0 .4-.1.9-.1 1.4-.2 2-.4 4.4-.7 6.9v.2h-1.7v-.2c0-1.1 0-3.8.1-6.7v.1c-.3-.7-1.1-2.3-1.9-4l-.1-.1.1-.1s.1-.2.1-.3c.5-1.7 1.1-3.6 1.7-5.6.8-2 0-4.4-1.8-6-.9-.8-2-1.4-3.2-1.9-.6-.2-1.2-.4-1.9-.4-.7-.1-1.3-.1-1.9 0-1.3.2-2.6.6-4 1-1.3.4-2.8.9-4.3.8h-.8c-1.4-.1-2.6-.6-3.8-1s-2.4-.8-3.6-.9h-.9l-.9.1c-.6.1-1.2.2-1.8.4-1.1.4-2.2.9-3.1 1.7-.9.7-1.7 1.6-2 2.6-.4 1-.5 2.1-.2 3.1.6 2.1 1.3 4.2 1.9 6.1v.1l-.1.2c-.7 1.5-1.3 2.7-1.9 3.8v-.1c.1 2.8.1 5 .2 7.1v.3h-2.4v-.3c.2-1.7 0-3.2 0-4.6-.1-1.4-.2-2.7-.3-3.9l.2.2c-.8-.2-1.5-.1-2.1.3-.5.3-.9.8-1.1 1.3l-.2.4-.1-.4c-.3-1-.3-1.8-.4-2.7s-.1-1.7-.1-2.5c0-1.6 0-3.2.1-4.6.2-2.9.6-5.3 1.1-7.2s1.2-3.4 1.9-4.2c.3-.4.6-.7.8-.9l.3-.3-.3.3c-.2.2-.4.5-.7.9-.6.9-1.3 2.3-1.8 4.2s-.9 4.4-1 7.2c-.1 1.4-.1 2.9 0 4.6 0 .8.1 1.6.2 2.5.1.8.1 1.8.4 2.5h-.3c.3-.6.6-1.1 1.2-1.5s1.5-.6 2.4-.4h.2v.2c.1 1.2.2 2.5.3 3.9s.3 2.9.1 4.8c-.1-.1-.1-.2-.3-.3h1.8l-.3.3c-.1-2.1-.2-4.3-.3-7.1v-.2c.5-1.1 1.1-2.3 1.8-3.8v.2c-.6-1.9-1.3-4-1.9-6.1-.4-1.2-.2-2.4.2-3.6s1.3-2.1 2.2-2.9c1-.8 2.1-1.4 3.3-1.8.6-.2 1.2-.3 1.9-.4.3-.1.6-.1 1-.1h1c2.6.2 5 1.6 7.4 1.9h.8c1.3.1 2.7-.4 4-.8s2.7-.9 4.1-1.1c.7-.1 1.4-.1 2.1.1.7.1 1.4.3 2 .5 1.3.4 2.5 1.1 3.4 2 2 1.7 2.9 4.6 2 6.7-.6 2.1-1.2 4-1.8 5.6-.1.1-.1.2-.1.3v-.3c.8 1.7 1.6 3.3 1.9 4v.2c-.1 2.8-.1 5.6-.2 6.7l-.2-.2h1.3l-.2.2c.3-2.5.5-4.9.7-6.9 0-.5.1-1 .1-1.4 0-.2.2-.4.3-.4h.4c.2 0 .4.1.6.3.7.5 1.1 1.1 1.1 1.7h-.3c.3-.9.4-1.9.6-2.8l.3-2.7c.2-1.7.2-3.3.2-4.8 0-2.9-.3-5.3-.7-7.2-.4-1.8-1.1-3.1-1.6-3.9-.3-.4-.5-.6-.6-.8.1-.3 0-.4 0-.4" fill="#231f20"/><path clip-path="url(#a)" d="m78.8 69.6h.7c.4-.1 1.1-.3 1.6-.8.1-.1.3-.3.4-.5s.2-.4.4-.6c.2-.4.5-.9.6-1.3.2-1 .3-2.2.4-3.4.2-2.5.3-4.7.3-6.3v-2.6s.1.2.2.7c.1.4.2 1.1.3 1.9.2 1.6.2 3.9 0 6.4-.1 1.3-.2 2.4-.5 3.5-.1.6-.5 1-.7 1.4l-.4.6-.5.5c-.7.6-1.4.7-1.8.7-.7-.2-1-.2-1-.2" fill="#231f20"/><path clip-path="url(#a)" d="m38.7 54v.2c0 .1-.1.3-.1.5-.1.5-.1 1.1-.1 1.9 0 1.6.1 3.9.2 6.4.1 1.2.1 2.5.3 3.5.1 1 .9 1.7 1.5 2.1 1.4.9 2.5.9 2.4.8 0 .1-1.1.3-2.6-.5-.4-.2-.8-.5-1.1-.8-.4-.3-.7-.9-.8-1.5-.2-1.1-.3-2.3-.4-3.6-.2-2.5-.1-4.9.1-6.5.1-.8.2-1.5.4-2 .1-.2.1-.4.2-.5" fill="#231f20"/><path clip-path="url(#a)" d="m77 86s-2.1 2.7-5 5.6c-2.9 3-5.5 5.1-5.5 5.1s2.1-2.7 5-5.6c2.9-3 5.5-5.1 5.5-5.1" fill="#231f20"/><path clip-path="url(#a)" d="m51.1 95.9s-2-2-4.2-4.7c-2.1-2.7-3.6-5.2-3.6-5.2s2 2 4.2 4.7c2.2 2.8 3.6 5.2 3.6 5.2" fill="#231f20"/><path clip-path="url(#a)" d="m61.1 106.9h.2v5.9h-.2z" fill="#fff" transform="matrix(.997 .072 -.072 .997 8.105 -4.142)"/><path clip-path="url(#a)" d="m55.5 106.2h.2v6.5h-.2z" fill="#fff"/><path clip-path="url(#a)" d="m59.2 60.7s-.8-.4-2.2-1.2c-1.3-.8-3.1-1.9-4.9-3.2-.9-.6-1.8-1.3-2.6-1.8l-.2-.1-.2-.1c-.1 0-.2.1-.2.2l-.9.8c-1.1 1-1.8 1.7-1.8 1.7s.4-.9 1.2-2.2c.2-.3.4-.7.7-1.1l.3-.3.2-.2.1-.1.3-.1h.5c.1 0 .3.1.5.2 1.1.5 1.9 1 2.9 1.7 1.9 1.3 3.5 2.8 4.5 3.8 1.1 1.3 1.8 2 1.8 2" fill="#231f20"/><path clip-path="url(#a)" d="m64.1 60.7s2.6-2.4 6.4-4.6c1.3-.8 2.6-1.4 3.5-1.8l.5-.2.2.3c1.4 2.1 2 3.4 2 3.4s-1.2-1-2.9-2.8c.2 0 .4.1.7.1-.8.6-1.9 1.4-3.2 2.2-3.8 2.3-7.2 3.4-7.2 3.4" fill="#231f20"/></svg>