<svg enable-background="new 0 0 178.8 131.7" viewBox="0 0 178.8 131.7" xmlns="http://www.w3.org/2000/svg" xmlns:xlink="http://www.w3.org/1999/xlink"><clipPath id="a"><path d="m2.2 3.5h174.8v128.2h-174.8z"/></clipPath><path d="m2.5 2.1h176.3v129.5h-176.3z" fill="#d8505c"/><path clip-path="url(#a)" d="m63.9 83.8.1-3.1c-.2-3.8-.5-10.1-.5-10.1-.7.3-3.8-.8-4.2-2.6-.5-1.8-.9-10.9 0-12.9l-.1-.2c-.6-2.3-1.5-17.5 3.5-22.1 5.2-4.8 7.6-5.2 18.1-4.3h2.5c10.6-.9 12.9-.5 18.1 4.3 5.1 4.7 2.9 20.7 2.2 22.3l.1.8c.5 1.9 0 10.9-.6 12.1s-1.6 3-3.8 2.7c.2 1.3-1.1 10.3-1.1 10.3l-.7.9v6.2l-18.5 19.8-15.1-19.7z" fill="#fff"/><path clip-path="url(#a)" d="m103.7 55c.7-1.6 2.9-17.6-2.2-22.3-5.2-4.8-7.6-5.2-18.1-4.3h-2.5c-10.6-.9-12.9-.5-18.1 4.3-5 4.6-4.1 19.8-3.5 22.1l.1.2c.4-.8 1.4-2.2 3.4-1.8 0 .9.7 6.4.4 8.6h1.8s-.2-4.1-.2-7.1l1.9-3.8s-1.4-4.4-1.9-6.3.5-3.8.5-3.8 2-3.9 7.7-4.4c3.4-.1 6.4 2.2 9.3 1.9h.1c2.9.2 5.9-2 9.3-1.9 5.7.5 7.7 4.4 7.7 4.4s1.1 1.9.5 3.8c-.5 1.9-1.9 6.3-1.9 6.3l-.1.3 1.9 4-.1 6.7h1.3s.8-7.5.8-8.3c-.3-.8 1.6 0 1.9 1.4" fill="#231f20"/><path clip-path="url(#a)" d="m88.8 28c5.2 0 7.5 1.2 11.3 4.7 5.1 4.7 2.9 20.7 2.2 22.3l.1.8c.5 1.9 0 10.9-.6 12.1-.6 1.1-1.5 2.7-3.3 2.7h-.5c.3 1.4-1 10.4-1 10.4l-.7.9v2.9h1.7l4.9 5.7c9.4 3.4 29.4 14 29.4 14l8.5 26.5h-125.9l13.2-29.6 32.7-15.7 1.9-2 .1-3.1c-.2-3.8-.5-10.1-.5-10.1l-.3.1c-1 0-3.5-1-3.9-2.7-.5-1.8-.9-10.9 0-12.9l-.1-.2c-.6-2.3-1.5-17.5 3.5-22.1 3.8-3.5 6.1-4.7 11.3-4.7 1.8 0 4 .1 6.8.4h2.4c2.8-.2 5-.4 6.8-.4m0-1c-1.7 0-3.7.1-6.8.4h-2.4c-3.1-.3-5.2-.4-6.8-.4-5.7 0-8.2 1.5-12 5-5.3 4.9-4.5 20.3-3.8 23.1-.9 2.9-.3 11.5.1 13.2.5 1.9 2.8 3.1 4.2 3.4.1 1.9.4 6.2.5 9.1l-.1 2.7-1.5 1.5-32.5 15.6-.2.1-.1.1-13.2 29.6-1.5 1.7h129.9l-1.1-1.6-8.5-26.5-.1-.2-.2-.1c-.8-.4-19.8-10.6-29.3-14l-4.8-5.5-.3-.3h-1v-1.6l.5-.7.1-.2v-.2c.2-1.3 1-6.9 1.2-9.5 2.2-.3 3.2-2.3 3.7-3.2.8-1.6 1.2-10.7.7-12.7l-.1-.6c.7-2.7 2.8-18.1-2.6-23.1-3.7-3.6-6.3-5.1-12-5.1"/><path clip-path="url(#a)" d="m14.9 131.1 13.2-29.6 34.8-16.7-2.7 46.3z" fill="#231f20"/><path clip-path="url(#a)" d="m62.9 84.8-2.7 46.2h-45.3l13.3-29.6zm.2-.4-.4.2-34.7 16.7-13.2 29.6-.4.4h46.1v-.2l2.7-46.2z" fill="#fff"/><path clip-path="url(#a)" d="m99.5 89.6-7 41.5h48.4l-8.5-26.5c-.1 0-26.6-14.2-32.9-15" fill="#231f20"/><path clip-path="url(#a)" d="m99.5 89.6c6.4.8 32.9 15 32.9 15l8.5 26.5h-48.4zm-.2-.3v.2l-7 41.5-.1.3h49.2l-.3-.4-8.5-26.5c-1.1-.6-26.6-14.2-33-15z" fill="#fff"/><path clip-path="url(#a)" d="m56.3 131.1 5.2-35.8.5-3.3.7-4.9 7.7 9.9 7.3 9.2 8.2-8.4 10.5-10.7v5.9 2.9l-2.3 35.2z" fill="#fff"/><path clip-path="url(#a)" d="m60.2 131.1 2.7-47.5-22.6 24.3 7.8 23.2z" fill="#231f20"/><path clip-path="url(#a)" d="m62.9 83.6-2.7 47.5h-12.1l-7.8-23.1zm.3-.7-.5.5-22.6 24.4-.1.1v.1l7.8 23.1.1.2h12.5v-.2l2.7-47.5z" fill="#fff"/><path clip-path="url(#a)" d="m96.4 84.8v11.1l-3.9 35.2h9.6l14.4-24.9-18.5-21.4z" fill="#231f20"/><path clip-path="url(#a)" d="m98 84.8 18.5 21.4-14.4 24.9h-9.7l3.9-35.2v-11.1zm.1-.2h-1.9v11.3l-4 35.1v.3h10.1l.1-.1 14.4-24.9.1-.2-.1-.1z" fill="#fff"/><path clip-path="url(#a)" d="m96.4 95.9v-2.9l-14.6 14.3h3.9z" fill="#231f20"/><path clip-path="url(#a)" d="m61.5 95.3.5-3.3c.9 1.2 12.2 15.9 12.2 15.9h-4.1z" fill="#231f20"/><path clip-path="url(#a)" d="m75 107.3s-9.7-4.7-12.1-4.8c-1.2 1.6-1.4 14.4 2.1 18.5 1-.2 10.1-7.2 10.1-7.2 1.6 1 4.5.6 5.3 0 0 0 4.1 7 9.9 8.4 1.4-1.4 3.9-16.4 3.7-17.9-.2-1.4-10.7 1.9-13.2 3.6 0 0-.5-2.5-5.8-.6" fill="#231f20"/><path clip-path="url(#a)" d="m80.3 113.8c-.8.6-3.7 1-5.3 0v-6.5c5.3-2 5.8.6 5.8.6z" fill="#231f20"/><path clip-path="url(#a)" d="m77.7 106.2-7.3-9.2-2.6 15.4z" fill="#fff"/><path clip-path="url(#a)" d="m77.7 106.2s-3.7 2.5-9.7 6.4l-.5.4.1-.7c.3-1.9.7-4.7 1.2-7.8.5-3 1-5.8 1.4-7.6l.1-.7.4.5c4.3 5.8 7 9.5 7 9.5s-2.9-3.4-7.5-9c.1 0 .3-.1.5-.1-.3 1.8-.7 4.7-1.2 7.7s-1 5.9-1.4 7.7c-.2-.1-.4-.2-.4-.3 6.1-3.8 10-6 10-6" fill="#231f20"/><path clip-path="url(#a)" d="m85.9 97.8-8.2 8.4 9.2 6.2z" fill="#fff"/><path clip-path="url(#a)" d="m85.9 97.8s.7 5.9 1.3 14.6l.1.7-.6-.4c-.8-.5-2.1-1.4-3.4-2.3-2.3-1.5-4.4-3-5.7-3.9l-.3-.2.3-.3c5-5.1 8.3-8.2 8.3-8.2s-3 3.4-8 8.6v-.5c1.4.9 3.6 2.3 5.8 3.8 1.3.9 2.6 1.8 3.4 2.3-.2.1-.4.3-.5.3-.6-8.5-.7-14.5-.7-14.5" fill="#231f20"/><path clip-path="url(#a)" d="m62.8 80.7s.2 1.1.3 2.9c0 1 0 2.5-.1 4-.2 3.8-.8 6.9-.8 6.9s-.2-3.1 0-6.9c.1-1.6.2-3 .4-4 .1-1.8.2-2.9.2-2.9" fill="#231f20"/><path clip-path="url(#a)" d="m96.4 95.9s-.4-3.1-.4-7 .4-7 .4-7 .4 3.1.4 7c-.1 3.9-.4 7-.4 7" fill="#231f20"/><path clip-path="url(#a)" d="m98.8 63.9s-.2 2.1-.5 6.8c0 2.2-.5 5.9-1 10.4v.1c-.1.1-.4.5-.7.9-2.7 3.2-6.9 8.1-11.6 13.5l-.1.1h-8.7l-.1-.1c-1.3-1.5-2.5-3-3.7-4.4l-1.8-2.1-.9-1-.9-.9c-2.4-2.4-4.6-4.4-6.3-6.3v-.2c-.2-5.3-.4-9.5-.5-12.4 0-1.4 0-2.6.1-3.3 0-.4.1-.7.1-.8 0 .2-.1.5-.1.9-.1.7 0 1.9.1 3.3.2 2.9.5 7.1.8 12.4v-.1c1.7 1.8 4 3.8 6.4 6.2l.9.9.9 1 1.8 2.1c1.2 1.4 2.5 2.9 3.8 4.4l-.3-.1h8.3c-.1.1-.2.1-.3.1 4.7-5.4 9-10.2 11.8-13.3.3-.4.6-.8.7-.9v.1c.7-4.5 1.2-8.1 1.3-10.3.3-4.9.5-7 .5-7" fill="#231f20"/><path clip-path="url(#a)" d="m78.5 71.7s-.2-4-.3-9.9c0 0 .1.2.1.3-.6-.5-1.7-1.3-2.7-2.1-1.5-1.1-2.8-2.2-4.1-3.1-.6-.5-1.2-.9-1.8-1.3-.3-.2-.6-.4-.8-.5l-.2-.1h-.2s-.2.1-.3.2c-.9.8-1.5 1.6-1.9 2.1s-.7.8-.7.8l.6-.9c.4-.6.9-1.4 1.8-2.3.1-.1.2-.2.5-.3h.3c.1 0 .2 0 .2.1.4.1.7.3 1 .5l1.9 1.2c1.3.9 2.8 1.9 4.2 3 1.1.8 2.1 1.6 2.7 2.1l.1.1v.2c-.2 5.9-.4 9.9-.4 9.9" fill="#231f20"/><path clip-path="url(#a)" d="m84.4 84.8c1.7-1.6 1.7-5.8 1.7-7h-10.5c-.2 1.7 0 4.7 1.6 7z" fill="#fff"/><g fill="#231f20"><path clip-path="url(#a)" d="m78.5 74.6s.1.1.4.2l.4.2c.2.1.4.1.6.1.5.1 1.1.1 1.7-.1s1.3-.7 1.6-1.4v.1c-.1-2.7-.2-6.6-.2-10.8v-1.1l.2-.1c4.4-2.6 8.2-4.7 10.2-5.8l.1-.1.1.1c1.6 2.2 2.3 3.2 2.3 3.2s-.8-.9-2.6-3h.2c-1.9 1.2-5.6 3.6-10 6.2l.2-.3v.9c0 4.2-.1 8.1-.2 10.8-.4.9-1.2 1.3-1.9 1.6-.7.2-1.3.2-1.8 0-.2-.1-.5-.1-.6-.2-.2-.1-.3-.2-.4-.2-.2-.3-.3-.3-.3-.3"/><path clip-path="url(#a)" d="m77.6 74.1-.1.1c-.1.1-.2.2-.4.3s-.5.2-.8.2c-.4 0-.7-.4-.8-.8-.2-.8 0-1.3.2-1.7s.4-.6.4-.6-.1 1.1.2 2.1c.1.2.2.3.3.4.2.1.4.1.6.1s.4 0 .5-.1c-.2.1-.1 0-.1 0"/><path clip-path="url(#a)" d="m77.3 84.8-6.2-7h4.5c-.2 1.8 0 4.7 1.7 7"/><path clip-path="url(#a)" d="m86.1 77.8h3.9l-5.6 7c1.7-1.6 1.7-5.7 1.7-7"/><path clip-path="url(#a)" d="m83.4 73.5s.1 0 .2.1.3.2.6.2c.2.1.5.1.7.1.1 0 .2-.3.1-.7 0-.7-.2-1.4-.4-1.8-.1-.2-.2-.4-.2-.6-.1-.1-.1-.2-.1-.2s.1.1.2.1c.1.1.3.2.5.4.4.4.8 1.1.8 2 0 .2 0 .5-.1.7s-.3.5-.6.6c-.1.1-.3 0-.4 0s-.2 0-.3-.1c-.2-.1-.3-.2-.4-.3-.2-.2-.4-.3-.5-.5 0 .1-.1 0-.1 0"/><path clip-path="url(#a)" d="m71.1 77.8s2.2 2.4 6.3 6.8c0 0-.1 0-.2-.1 1.5 0 4.2-.1 7.1-.1 0 0-.2.1-.3.1.8-1 2.2-2.7 3.5-4.5l2-2.5c.1.3.2.4.3.6-10.7 0-18.7-.3-18.7-.3s8-.3 18.9-.4h.7l-.5.6c-.5.6-1.2 1.5-2 2.5-1.4 1.7-2.8 3.4-3.6 4.4l-.1.1h-.2c-2.9 0-5.6-.1-7.1-.1h-.1v.1c-3.9-4.6-6-7.2-6-7.2"/><path clip-path="url(#a)" d="m92.1 79.6s0-.3-.1-.7-.2-.9-.4-1.5c-.1-.6-.2-1.2-.3-1.5-.1-.4-.2-.7-.2-.7s.3.1.5.5c.3.4.6.9.7 1.6s.1 1.3 0 1.7c-.1.3-.3.6-.2.6"/><path clip-path="url(#a)" d="m68.8 81.3s-.3-.3-.6-.7c-.2-.3-.3-.6-.5-1-.1-.4-.2-.8-.2-1.3 0-1 .3-1.8.7-2.3.2-.3.3-.5.5-.6l.2-.2s0 .1-.1.2c-.1.2-.2.4-.2.7-.1.5-.3 1.3-.3 2.2l.1 1.2.2 1c.1.5.2.8.2.8"/><path clip-path="url(#a)" d="m92.1 62.6c-.4-.2-3.8 0-4.4 0-.1 1.3.3 2.9 2.2 2.9s2.2-1.9 2.2-2.9"/><path clip-path="url(#a)" d="m70.7 62.6c.4-.2 3.8 0 4.4 0 .1 1.3-.3 2.9-2.2 2.9-1.8 0-2.2-1.9-2.2-2.9"/><path clip-path="url(#a)" d="m93.6 64.9v-.5c0-.1 0-.3-.1-.5-.1-.1-.3-.3-.5-.4-.4-.3-.9-.7-1.5-1.1-.2-.1-.5-.1-.9-.1h-3.6c-.6.3-1.1.7-1.5 1v-.1c-.1 1.1-.2 1.6-.2 1.6s-.1-.6-.2-1.6v-.1l.1-.1c.4-.4.8-.9 1.5-1.3.1-.1.2-.1.4-.1h.9c.4 0 .8 0 1.3-.1h1.8c.2 0 .5.1.7.2.6.4 1 1 1.4 1.4l.5.6v.6c-.1.4-.1.6-.1.6"/><path clip-path="url(#a)" d="m91.6 62v.5c0 .3 0 .8-.3 1.4-.1.1-.2.3-.2.4-.1.1-.2.3-.4.4-.3.2-.8.4-1.1.5h-.6c-.2 0-.4-.1-.7-.2-.5-.2-.9-.5-1.1-1-.4-.8-.4-1.6-.3-2.1v-.3h.3c2.6.1 4.4.3 4.4.4 0-.1-1.7.1-4.4.3l.3-.3c0 .4 0 1.1.3 1.7.3.7 1.1.9 1.7.9.4 0 .6-.1.9-.3l.3-.3.3-.3c.3-.5.4-.9.5-1.2s.1-.5.1-.5"/><path clip-path="url(#a)" d="m68.2 64.9s0-.2-.1-.5v-.6c.1-.2.3-.4.5-.6.4-.4.8-.9 1.4-1.4.2-.2.5-.2.7-.2h1.8c.4 0 .9 0 1.3.1h.9l.4.1c.7.4 1.1.9 1.5 1.3l.1.1v.1c-.1 1.1-.2 1.6-.2 1.6s-.1-.6-.2-1.6v.1c-.4-.3-.9-.7-1.5-1h-3.6c-.4 0-.8 0-.9.1-.6.4-1 .8-1.5 1.1-.2.2-.4.3-.5.4-.1.2-.1.4-.1.5z"/><path clip-path="url(#a)" d="m70.2 62s0 .2.1.5.2.7.5 1.2l.3.3.3.3c.2.1.5.2.9.3.6 0 1.4-.2 1.7-.9.3-.6.3-1.2.3-1.7.2.1.2.2.3.3-2.7-.2-4.4-.4-4.4-.3 0-.1 1.8-.3 4.4-.3h.3v.3c0 .5.1 1.3-.3 2.1-.2.4-.6.8-1.1 1-.2.1-.5.2-.7.2h-.6c-.3 0-.8-.2-1.1-.5l-.4-.4c-.1-.1-.2-.3-.2-.4-.2-.6-.3-1-.3-1.4z"/><path clip-path="url(#a)" d="m100.2 32.7.2.2c.2.2.4.4.7.8.5.8 1.2 2 1.7 3.9.5 1.8.8 4.2.8 7.2 0 1.5 0 3.1-.2 4.8l-.3 2.7c-.1.9-.2 1.9-.6 2.9l-.2.6-.1-.6c-.1-.4-.4-1-1-1.4-.2-.1-.3-.2-.5-.2s-.3 0-.3.1c0 .4-.1.9-.1 1.4-.2 2-.4 4.4-.7 6.9v.2h-1.7v-.2c0-1.1 0-3.8.1-6.7v.1c-.3-.7-1.1-2.3-1.9-4l-.1-.1.1-.1s.1-.2.1-.3c.5-1.7 1.1-3.6 1.7-5.6.8-2 0-4.4-1.8-6-.9-.8-2-1.4-3.2-1.9-.6-.2-1.2-.4-1.9-.4-.7-.1-1.3-.1-1.9 0-1.3.2-2.6.6-4 1-1.3.4-2.8.9-4.3.8h-.8c-1.4-.1-2.6-.6-3.8-1s-2.4-.8-3.6-.9h-.9c-.3 0-.6 0-.9.1-.6.1-1.2.2-1.8.4-1.1.4-2.2.9-3.1 1.7-.9.7-1.7 1.6-2 2.6-.4 1-.5 2.1-.2 3.1.6 2.1 1.3 4.2 1.9 6.1v.1l-.1.1c-.7 1.5-1.3 2.7-1.9 3.8v-.1c.1 2.8.1 5 .2 7.1v.3h-2.4v-.3c.2-1.7 0-3.2 0-4.6-.1-1.4-.2-2.7-.3-3.9l.2.2c-.8-.2-1.5-.1-2.1.3-.5.3-.9.8-1.1 1.3l-.1.4-.1-.4c-.3-1-.3-1.8-.4-2.7s-.1-1.7-.1-2.5c0-1.6 0-3.2.1-4.6.2-2.9.6-5.3 1.1-7.2s1.2-3.4 1.9-4.2c.3-.4.6-.7.8-.9l.3-.3-.3.3c-.2.2-.4.5-.7.9-.6.9-1.3 2.3-1.8 4.2s-.9 4.4-1 7.2c-.1 1.4-.1 2.9 0 4.6 0 .8.1 1.6.2 2.5.1.8.1 1.8.4 2.5h-.3c.3-.6.6-1.1 1.2-1.5s1.5-.6 2.4-.4h.2v.2c.1 1.2.2 2.5.3 3.9s.3 2.9.1 4.8c-.1-.1-.1-.2-.3-.3h1.8l-.3.3c-.1-2.1-.2-4.3-.3-7.1v-.2c.5-1.1 1.1-2.3 1.8-3.8v.2c-.6-1.9-1.3-4-1.9-6.1-.4-1.2-.2-2.4.2-3.6s1.3-2.1 2.2-2.9c1-.8 2.1-1.4 3.3-1.8.6-.2 1.2-.3 1.9-.4.3-.1.6-.1 1-.1h1c2.6.2 5 1.6 7.4 1.9h.8c1.3.1 2.7-.4 4-.8s2.7-.9 4.1-1.1c.7-.1 1.4-.1 2.1 0s1.4.3 2 .5c1.3.4 2.5 1.1 3.4 2 2 1.7 2.9 4.6 2 6.7-.6 2.1-1.2 4-1.8 5.6-.1.1-.1.2-.1.3v-.3c.8 1.7 1.6 3.3 1.9 4v.2c-.1 2.8-.1 5.6-.2 6.7l-.2-.2h1.3l-.2.2c.3-2.5.5-4.9.7-6.9 0-.5.1-1 .1-1.4 0-.2.2-.4.3-.4h.4c.2 0 .4.1.6.3.7.4 1.1 1.1 1.1 1.7h-.3c.3-.9.4-1.9.6-2.8l.3-2.7c.2-1.7.2-3.3.2-4.8 0-2.9-.3-5.3-.7-7.2-.4-1.8-1.1-3.1-1.6-3.9-.3-.4-.5-.6-.6-.8 0-.2-.1-.3-.1-.3"/><path clip-path="url(#a)" d="m98.2 70.6h.7c.4-.1 1.1-.3 1.6-.8.1-.1.3-.3.4-.5s.2-.4.4-.6c.2-.4.5-.9.6-1.3.2-1 .3-2.2.4-3.4.2-2.5.3-4.7.3-6.3v-2.6s.1.2.2.7c.1.4.2 1.1.3 1.9.2 1.6.2 3.9 0 6.4-.1 1.2-.2 2.4-.5 3.5-.2.6-.5 1-.7 1.4l-.4.6-.5.5c-.7.6-1.4.7-1.8.7-.8-.1-1-.2-1-.2"/><path clip-path="url(#a)" d="m58 55.1v.2c0 .1-.1.3-.1.5-.1.5-.1 1.1-.1 1.9 0 1.6.1 3.9.2 6.4.1 1.2.1 2.5.3 3.5.1 1 .9 1.7 1.5 2.1 1.4.9 2.5.9 2.4.8 0 .1-1.1.3-2.6-.5-.4-.2-.8-.5-1.1-.8-.4-.3-.7-.9-.8-1.5-.2-1.1-.3-2.3-.4-3.6-.1-2.5-.1-4.9.1-6.5.1-.8.2-1.5.4-1.9.1-.2.1-.4.2-.5z"/><path clip-path="url(#a)" d="m96.4 87.1s-2.1 2.7-5 5.6c-2.9 3-5.5 5.1-5.5 5.1s2.1-2.7 5-5.6c2.9-3 5.5-5.1 5.5-5.1"/><path clip-path="url(#a)" d="m70.4 97s-2-2-4.2-4.7c-2.1-2.7-3.6-5.2-3.6-5.2s2 2 4.2 4.7 3.6 5.2 3.6 5.2"/></g><path clip-path="url(#a)" d="m80.4 107.9h.2v5.9h-.2z" fill="#fff" transform="matrix(.998 .071 -.071 .998 8.051 -5.424)"/><path clip-path="url(#a)" d="m74.9 107.3h.2v6.5h-.2z" fill="#fff"/><path clip-path="url(#a)" d="m78.5 61.8s-.8-.4-2.2-1.2c-1.3-.8-3.1-1.9-4.9-3.2-.9-.6-1.8-1.3-2.6-1.8l-.2-.1-.2-.1c-.1 0-.2.1-.2.2l-.9.8c-1.1 1-1.8 1.7-1.8 1.7s.4-.9 1.2-2.2c.2-.3.4-.7.7-1.1l.3-.3.2-.2.1-.1.3-.1h.5c.1 0 .3.1.5.2 1.1.5 1.9 1 2.9 1.7 1.9 1.3 3.5 2.8 4.5 3.8 1.2 1.3 1.8 2 1.8 2" fill="#231f20"/><path clip-path="url(#a)" d="m83.4 61.8s2.6-2.4 6.4-4.6c1.3-.8 2.6-1.4 3.5-1.8l.5-.2.2.3c1.4 2.1 2 3.4 2 3.4s-1.2-1-2.9-2.8c.2 0 .4.1.7.1-.8.6-1.9 1.4-3.2 2.2-3.8 2.3-7.2 3.4-7.2 3.4" fill="#231f20"/><path clip-path="url(#a)" d="m150.8 17.8c.7 0 1.3.6 1.3 1.3s-.6 1.3-1.3 1.3h-.4v2.6l.3.2c1.5-1.2 3.4-2 5.5-2 4.8 0 8.7 3.9 8.7 8.7s-3.9 8.7-8.7 8.7c-2 0-3.8-.7-5.2-1.8l-.5.6v4.6h.5c.7 0 1.3.6 1.3 1.3s-.6 1.3-1.3 1.3h-.5c0 2.2 0 4.7-.1 7.5h.6c.7 0 1.3.2 1.3.5s-.6.5-1.3.5h-.6c-.1 11.1-.3 25.7-.5 35.6h10.7v2.7l-5.1.8v2.7l5.1 1v4.7h-13.1c-.8 0-1.6-.3-1.8-.9v-46.7h-.7c-.7 0-1.3-.2-1.3-.5s.6-.5 1.3-.5h.7v-7.5h-.7c-.7 0-1.3-.6-1.3-1.3s.6-1.3 1.3-1.3h.7v-4.6l-.7-.7c-1.5 1.2-3.3 1.8-5.4 1.8-4.8 0-8.7-3.9-8.7-8.7s3.9-8.7 8.7-8.7c2.1 0 4 .7 5.5 1.9l.6-.6v-2.3h-.7c-.7 0-1.3-.6-1.3-1.3s.6-1.3 1.3-1.3h5.8m-3 10.1c.3-1.1.9-2.2 1.6-3l-1.5-1.4-1.6 1.6c.7.8 1.2 1.7 1.5 2.8m8.1 9.4c3.8 0 6.8-3 6.8-6.8s-3-6.8-6.8-6.8c-1.4 0-2.8.5-3.9 1.2l5.6 5.4-5.6 5.8c1.2.8 2.5 1.2 3.9 1.2m-16.6 0c1.6 0 3-.5 4.1-1.4l-5.4-5.2 5.4-5.6c-1.1-.9-2.6-1.4-4.1-1.4-3.8 0-6.8 3-6.8 6.8s3.1 6.8 6.8 6.8m11.4-2.5 4.4-4.5-4.3-4.2c-1 1.2-1.6 2.7-1.6 4.4-.1 1.7.5 3.2 1.5 4.3m-5.8-.4c.8-1.1 1.2-2.4 1.2-3.9s-.5-2.8-1.3-3.9l-3.9 4zm3.3 3.1 1.4-1.5c-.8-.9-1.4-2-1.8-3.3-.3 1.1-.8 2.1-1.5 2.9l.1.1zm2.6-20.3h-6.1c-1.2 0-2.2 1-2.2 2.2s.9 2.1 2 2.2v.5c-1.5-.9-3.3-1.5-5.1-1.5-5.3 0-9.7 4.3-9.7 9.7 0 5.3 4.3 9.7 9.7 9.7 1.8 0 3.6-.5 5.1-1.5v2.9c-1.1.1-2 1.1-2 2.2 0 1.2.9 2.1 2 2.2v5.6c-1.2.1-2 .6-2 1.4s.8 1.4 2 1.4v45.9l.1.2c.4.9 1.4 1.5 2.7 1.5h14.1v-6.4l-.8-.1-4.3-.8v-1.1l4.3-.7.8-.1v-4.5h-10.7c.1-7.8.3-19.1.5-33.7 1.2-.1 1.9-.6 1.9-1.4s-.7-1.3-1.9-1.4l.1-5.6c1-.2 1.8-1.1 1.8-2.2s-.8-2-1.8-2.2v-2.8c1.5.8 3.1 1.3 4.8 1.3 5.3 0 9.7-4.3 9.7-9.7 0-5.3-4.3-9.7-9.7-9.7-1.7 0-3.3.4-4.8 1.3v-.3c1-.2 1.7-1.1 1.7-2.2.1-1.3-.9-2.3-2.2-2.3m2.8 7.9c.7-.3 1.5-.5 2.3-.5 3.2 0 5.8 2.6 5.8 5.8s-2.6 5.8-5.8 5.8c-.8 0-1.6-.2-2.3-.5l4.7-4.9.7-.7-.7-.7zm-14.3 11.2c-3.2 0-5.8-2.6-5.8-5.8s2.6-5.8 5.8-5.8c.9 0 1.8.2 2.6.6l-4.6 4.7-.7.7.7.7 4.5 4.4c-.7.3-1.6.5-2.5.5m8.3-11.2.4-.4.2.2-.3.5c-.2 0-.2-.1-.3-.3m3.2 8.2c-.5-.9-.8-1.8-.8-2.8s.3-2 .8-2.9l2.8 2.7zm-8.4-2.7 2.3-2.4c.3.7.5 1.5.5 2.3s-.2 1.6-.5 2.3zm5.2 5c.1-.1.2-.3.2-.4l.5.8-.2.2z" fill="#231f20"/><path clip-path="url(#a)" d="m139.4 21.2c-4.8 0-8.7 3.9-8.7 8.7s3.9 8.7 8.7 8.7 8.7-3.9 8.7-8.7-3.9-8.7-8.7-8.7m-.1 15.7c-3.8 0-6.8-3-6.8-6.8s3-6.8 6.8-6.8 6.8 3 6.8 6.8-3 6.8-6.8 6.8" fill="#ccc9c7"/><path clip-path="url(#a)" d="m156.1 21.2c-4.8 0-8.7 3.9-8.7 8.7s3.9 8.7 8.7 8.7 8.7-3.9 8.7-8.7-3.9-8.7-8.7-8.7m-.2 15.7c-3.8 0-6.8-3-6.8-6.8s3-6.8 6.8-6.8 6.8 3 6.8 6.8-3 6.8-6.8 6.8" fill="#ccc9c7"/><path clip-path="url(#a)" d="m150.4 37.4-2.4 2.5-2.5-2.4v62.2c.5 1.3 3.3 1.1 3.8 0 .6-1.2 1.1-62.3 1.1-62.3" fill="#ccc9c7"/><path clip-path="url(#a)" d="m147.7 20.3-9.6 10 7.4 7.2 2.5 2.4 2.4-2.5 7.2-7.5zm2.2 15-1.7 1.8-1.8-1.8-5.3-5.2 6.9-7.2 7.2 6.9z" fill="#ccc9c7"/><path clip-path="url(#a)" d="m160.4 100.5h-12.6v-11.9h12.6v2.7l-5.1.8v2.8l5.1.9z" fill="#ccc9c7"/><path clip-path="url(#a)" d="m160.4 100.5s0-1.4-.1-4.7l.1.1c-.9-.2-2.8-.5-5.1-.8h-.2v-.2c0-.4 0-1.5-.1-2.7v-.2h.3c1-.2 2.9-.5 5.1-.9l-.3.4v-2.7l.4.4c-1.9 0-5.1 0-8.3.1h-4.3l.5-.5c0 4.7-.1 8.9-.2 11.9l-.3-.3c7.8 0 12.5.1 12.5.1s-4.7.2-12.6.3h-.3v-.3c-.1-3.1-.1-7.2-.2-11.9v-.5h4.8c3.2 0 6.4 0 8.3.1h.4v3.4h-.3c-2.2.3-4.2.6-5.1.7.1-.1.2-.3.3-.3 0 1.2-.1 2.3-.1 2.7l-.2-.2c2.3.5 4.1.9 5.1 1.1h.1v.1c-.2 3.5-.2 4.8-.2 4.8" fill="#231f20"/><path clip-path="url(#a)" d="m150.4 23.4-2.4-1.4-2.5 1.4v-4.4h4.9z" fill="#ccc9c7"/><path clip-path="url(#a)" d="m152.1 43.3c0 .7-.6 1.3-1.3 1.3h-6.1c-.7 0-1.3-.6-1.3-1.3s.6-1.3 1.3-1.3h6.1c.7 0 1.3.6 1.3 1.3" fill="#ccc9c7"/><path clip-path="url(#a)" d="m152.1 43.3s0-.3-.3-.7c-.1-.2-.4-.4-.7-.4h-1.2c-.9 0-2 .1-3.2.1h-1.9c-.5 0-1 .4-1 1 0 .5.5 1 1 1h1.9c1.2 0 2.3.1 3.2.1.4 0 .9.1 1.2 0s.6-.2.7-.4c.3-.4.3-.7.3-.7s.1.3-.2.8c-.1.2-.4.5-.8.6s-.8.1-1.2.1c-.9 0-2 .1-3.2.1h-1.9c-.8 0-1.6-.6-1.6-1.6 0-.8.8-1.6 1.6-1.5h1.9c1.2 0 2.3.1 3.2.1.4 0 .9 0 1.2.1.4.1.6.3.8.6.3.4.2.7.2.7" fill="#231f20"/><path clip-path="url(#a)" d="m152.1 52.6c0 .3-.6.5-1.3.5h-6.1c-.7 0-1.3-.2-1.3-.5s.6-.5 1.3-.5h6.1c.7 0 1.3.2 1.3.5" fill="#ccc9c7"/><path clip-path="url(#a)" d="m152.1 19c0 .7-.6 1.3-1.3 1.3h-6.1c-.7 0-1.3-.6-1.3-1.3s.6-1.3 1.3-1.3h6.1c.7.1 1.3.6 1.3 1.3" fill="#ccc9c7"/><path clip-path="url(#a)" d="m152.1 19s0-.3-.3-.7c-.1-.2-.4-.4-.7-.4h-1.2c-.9 0-2 .1-3.2.1h-1.9c-.5 0-1 .4-1 1 0 .5.5 1 1 1h1.9c1.2 0 2.3.1 3.2.1.4 0 .9.1 1.2 0s.6-.2.7-.4c.3-.3.3-.7.3-.7s.1.3-.2.8c-.1.2-.4.5-.8.6s-.8.1-1.2.1c-.9 0-2 .1-3.2.1h-1.9c-.8 0-1.6-.6-1.6-1.6 0-.8.8-1.6 1.6-1.5h1.9c1.2 0 2.3.1 3.2.1.4 0 .9 0 1.2.1.4.1.6.3.8.6.3.4.2.7.2.7" fill="#231f20"/><path clip-path="url(#a)" d="m13.3 99.9.1-3.1c-.2-3.8-.5-10.1-.5-10.1-.7.3-3.8-.8-4.2-2.6-.5-1.8-.9-10.9 0-12.9l-.1-.2c-.6-2.4-1.5-17.6 3.5-22.2 5.2-4.8 7.6-5.2 18.1-4.3h2.5c10.6-.9 12.9-.5 18.1 4.3 5.1 4.7 2.9 20.7 2.2 22.3l.1.8c.5 1.9 0 10.9-.6 12.1s-1.6 3-3.8 2.7c.2 1.4-1.2 10.3-1.2 10.3l-.5 1v6.2l-18.5 19.8-15.2-19.7z" fill="#fff"/><path clip-path="url(#a)" d="m53.1 71.1c.7-1.6 2.9-17.6-2.2-22.3-5.2-4.8-7.6-5.2-18.1-4.3h-2.5c-10.6-.9-12.9-.5-18.1 4.3-5 4.6-4.2 19.8-3.5 22.2l.1.2c.4-.8 1.4-2.2 3.4-1.8 0 .9.7 6.4.4 8.6h1.8s-.2-4.1-.2-7.1l1.8-3.8s-1.4-4.4-1.9-6.3.5-3.8.5-3.8 2-3.9 7.7-4.4c3.4-.1 6.4 2.2 9.3 1.9h.1c2.9.2 5.9-2 9.3-1.9 5.7.5 7.7 4.4 7.7 4.4s1.1 1.9.5 3.8c-.5 1.9-1.9 6.3-1.9 6.3l-.1.3 1.9 4-.2 6.6h1.3s.8-7.5.8-8.3c0-.7 1.9 0 2.1 1.4" fill="#231f20"/><path clip-path="url(#a)" d="m38.3 44.1c5.2 0 7.5 1.2 11.3 4.7 5.1 4.7 2.9 20.7 2.2 22.3l.2.9c.5 1.9 0 10.9-.6 12.1-.6 1.1-1.5 2.7-3.3 2.7h-.5c.2 1.4-1.2 10.3-1.2 10.3l-.6.9v2.9h1.6l4.9 5.7c9.4 3.4 29.4 14 29.4 14l8.5 26.5h-125.9l13.2-29.6 32.7-15.7 1.9-2 .1-3.1c-.2-3.8-.5-10.1-.5-10.1l-.3.1c-1 0-3.5-1-3.9-2.7-.5-1.8-.9-10.9 0-12.9l-.1-.1c-.6-2.3-1.5-17.5 3.5-22.1 3.8-3.5 6.1-4.7 11.3-4.7 1.8 0 4 .1 6.8.4h2.5c2.8-.3 5-.5 6.8-.5m0-1c-1.7 0-3.7.1-6.8.4h-2.4c-3.1-.3-5.2-.4-6.8-.4-5.7 0-8.2 1.5-12 5-5.3 4.9-4.6 20.3-3.9 23.1-.8 2.8-.3 11.5.1 13.2.5 1.9 2.8 3.1 4.2 3.4.1 1.9.4 6.2.5 9.1l-.1 2.7-1.5 1.6-32.5 15.6-.2.1-.1.1-13.2 29.6-1.5 1.7h130l-1.1-1.6-8.5-26.5-.1-.2-.2-.1c-.8-.4-19.8-10.6-29.3-14l-4.8-5.5-.3-.3h-1.2v-1.6l.5-.7.1-.2v-.2c.2-1.3 1-6.9 1.2-9.5 2.2-.3 3.2-2.3 3.7-3.2.8-1.6 1.2-10.7.7-12.7l-.1-.6c.7-2.7 2.8-18.1-2.6-23.1-3.6-3.7-6.1-5.2-11.8-5.2"/><path clip-path="url(#a)" d="m-35.7 147.2 13.3-29.6 34.7-16.7-2.6 46.3z" fill="#231f20"/><path clip-path="url(#a)" d="m12.3 100.9-2.7 46.2h-45.3l13.3-29.6zm.3-.4-.4.2-34.7 16.6-13.3 29.7-.4.4h46.1v-.2l2.7-46.2z" fill="#fff"/><path clip-path="url(#a)" d="m48.9 105.7-7 41.5h48.4l-8.5-26.5s-26.5-14.2-32.9-15" fill="#231f20"/><path clip-path="url(#a)" d="m48.9 105.7c6.4.8 32.9 15 32.9 15l8.5 26.5h-48.4zm-.2-.3v.2l-7 41.5-.1.3h49.2l-.3-.4-8.5-26.5c-1.1-.6-26.6-14.2-33-15z" fill="#fff"/><path clip-path="url(#a)" d="m5.8 147.2 5.1-35.7.5-3.4.7-4.9 7.8 9.9 7.2 9.2 8.3-8.4 10.4-10.7v6 2.8l-2.2 35.2z" fill="#fff"/><path clip-path="url(#a)" d="m9.7 147.2 2.6-47.5-22.6 24.4 7.8 23.1z" fill="#231f20"/><path clip-path="url(#a)" d="m12.3 99.7-2.7 47.5h-12.1l-7.8-23.1zm.3-.7-.5.5-22.6 24.4-.1.1v.1l7.8 23.1.1.2h12.6v-.2l2.7-47.5z" fill="#fff"/><path clip-path="url(#a)" d="m45.8 100.9v11.1l-3.9 35.2h9.7l14.4-24.9-18.5-21.4z" fill="#231f20"/><path clip-path="url(#a)" d="m47.5 100.9 18.5 21.4-14.4 24.9h-9.7l3.9-35.2v-11.1zm.1-.2h-1.9v11.3l-3.9 35.1v.3h10.1l.1-.1 14.4-24.9.1-.2-.1-.1z" fill="#fff"/><path clip-path="url(#a)" d="m45.8 112v-2.8l-14.6 14.2h3.9z" fill="#231f20"/><path clip-path="url(#a)" d="m10.9 111.5.5-3.3c.9 1.2 12.2 15.9 12.2 15.9h-4.1z" fill="#231f20"/><path clip-path="url(#a)" d="m24.5 123.4s-9.7-4.7-12.1-4.8c-1.2 1.6-1.4 14.4 2.1 18.5 1-.2 10.1-7.2 10.1-7.2 1.6 1 4.5.6 5.3 0 0 0 4.1 7 9.9 8.4 1.4-1.4 3.9-16.4 3.7-17.9-.2-1.4-10.7 1.9-13.2 3.6-.1.1-.5-2.5-5.8-.6" fill="#231f20"/><path clip-path="url(#a)" d="m29.8 129.9c-.8.6-3.7 1-5.3 0v-6.5c5.3-2 5.8.6 5.8.6z" fill="#231f20"/><path clip-path="url(#a)" d="m27.1 122.3-7.2-9.2-2.6 15.4z" fill="#fff"/><path clip-path="url(#a)" d="m27.1 122.3s-3.7 2.5-9.7 6.4l-.5.4.1-.7c.3-1.9.7-4.7 1.2-7.8.5-3 1-5.8 1.4-7.6l.1-.7.4.5c4.4 5.8 7 9.5 7 9.5s-2.9-3.4-7.5-9c.1 0 .3-.1.5-.1-.3 1.8-.7 4.7-1.2 7.7s-1 5.9-1.4 7.7c-.2-.1-.4-.3-.4-.3 6.2-3.8 10-6 10-6" fill="#231f20"/><path clip-path="url(#a)" d="m35.4 113.9-8.3 8.4 9.2 6.2z" fill="#fff"/><path clip-path="url(#a)" d="m35.4 113.9s.7 5.9 1.3 14.6l.1.7-.6-.4c-.8-.5-2.1-1.4-3.4-2.3-2.3-1.5-4.4-3-5.7-3.9l-.3-.2.3-.3c4.9-5.1 8.3-8.2 8.3-8.2s-3 3.4-8 8.6v-.5c1.4.9 3.6 2.3 5.8 3.8 1.3.9 2.6 1.8 3.4 2.3-.2.1-.4.3-.5.3-.6-8.5-.7-14.5-.7-14.5" fill="#231f20"/><path clip-path="url(#a)" d="m12.3 96.8s.2 1.1.3 2.9c0 1 0 2.5-.1 4-.2 3.8-.8 6.9-.8 6.9s-.2-3.1 0-6.9c.1-1.6.2-3 .4-4 .1-1.8.2-2.9.2-2.9" fill="#231f20"/><path clip-path="url(#a)" d="m45.8 112s-.4-3.1-.4-7 .4-7 .4-7 .4 3.1.4 7-.4 7-.4 7" fill="#231f20"/><path clip-path="url(#a)" d="m48.3 80s-.2 2.1-.5 6.8c0 2.2-.5 5.9-1 10.4v.1c-.1.1-.4.5-.7.9-2.7 3.2-6.9 8.1-11.6 13.5l-.1.1h-8.7l-.1-.1c-1.3-1.5-2.5-3-3.7-4.4l-1.8-2.1-.9-1-.9-.9c-2.4-2.4-4.6-4.4-6.3-6.3v-.2c-.2-5.3-.4-9.5-.5-12.4 0-1.4 0-2.6.1-3.3 0-.4.1-.7.1-.8 0 .2-.1.5-.1.9-.1.8 0 1.9.1 3.3.2 2.9.5 7.1.8 12.4v-.1c1.7 1.8 4 3.8 6.4 6.2l.9.9.9 1 1.8 2.1c1.2 1.4 2.5 2.9 3.8 4.4l-.3-.1h8.3c-.1.1-.2.1-.3.1 4.7-5.4 9-10.2 11.8-13.3.3-.4.6-.8.7-.9v.1c.7-4.5 1.2-8.1 1.3-10.3.3-4.9.5-7 .5-7" fill="#231f20"/><path clip-path="url(#a)" d="m27.9 87.8s-.2-4-.3-9.9c0 0 .1.2.1.3-.6-.5-1.7-1.3-2.7-2.1-1.4-1.1-2.8-2.1-4.1-3.1-.6-.5-1.2-.9-1.8-1.3-.3-.2-.6-.4-.8-.5l-.2-.1h-.2s-.2.1-.3.2c-.9.8-1.5 1.6-1.9 2.1s-.7.8-.7.8l.6-.9c.4-.6.9-1.4 1.8-2.3.1-.1.2-.2.5-.3h.3c.1 0 .2 0 .2.1.4.1.7.3 1 .5l1.9 1.2c1.3.9 2.8 1.9 4.2 3 1.1.8 2.1 1.6 2.7 2.1l.1.1v.2c-.1 5.9-.4 9.9-.4 9.9" fill="#231f20"/><path clip-path="url(#a)" d="m33.9 100.9c1.7-1.6 1.7-5.8 1.7-7h-10.5c-.2 1.7 0 4.7 1.6 7z" fill="#fff"/><path clip-path="url(#a)" d="m27.9 90.7s.1.1.4.2l.4.2c.2.1.4.1.6.1.5.1 1.1.1 1.7-.1s1.3-.7 1.6-1.5v.1c-.1-2.7-.2-6.6-.2-10.8v-1.1l.2-.1c4.4-2.6 8.2-4.7 10.2-5.8l.1-.1.1.1c1.6 2.2 2.3 3.2 2.3 3.2s-.8-.9-2.6-3h.2c-1.9 1.2-5.6 3.6-10 6.2l.2-.3v.9c0 4.2-.1 8.1-.2 10.8-.4.9-1.2 1.3-1.9 1.6-.7.2-1.3.2-1.8 0-.2-.1-.5-.1-.6-.2-.2-.1-.3-.2-.4-.2-.1-.2-.3-.2-.3-.2" fill="#231f20"/><path clip-path="url(#a)" d="m27 90.2-.1.1c-.1.1-.2.2-.4.3s-.5.2-.8.2c-.4 0-.7-.4-.8-.8-.2-.8 0-1.3.2-1.7s.4-.6.4-.6-.1 1.1.2 2.1c.1.2.2.3.3.4.2.1.4.1.6.1s.4 0 .5-.1c-.1.1-.1 0-.1 0" fill="#231f20"/><path clip-path="url(#a)" d="m26.7 100.9-6.2-7h4.5c-.1 1.8.1 4.7 1.7 7" fill="#231f20"/><path clip-path="url(#a)" d="m35.6 93.9h3.9l-5.6 7c1.7-1.6 1.7-5.7 1.7-7" fill="#231f20"/><path clip-path="url(#a)" d="m32.9 89.6s.1 0 .2.1.3.2.6.2c.2.1.5.1.7.1.1 0 .2-.3.1-.7 0-.7-.2-1.4-.4-1.8-.1-.2-.2-.4-.2-.6-.1-.1-.1-.2-.1-.2s.1.1.2.1c.1.1.3.2.5.4.4.4.8 1.1.8 2 0 .2 0 .5-.1.7s-.3.5-.6.6c-.1.1-.3 0-.4 0s-.2 0-.3-.1c-.2-.1-.3-.2-.4-.3-.2-.2-.4-.3-.5-.5-.1.1-.1 0-.1 0" fill="#231f20"/><path clip-path="url(#a)" d="m20.5 93.9s2.2 2.4 6.3 6.8c0 0-.1 0-.2-.1 1.5 0 4.2-.1 7.1-.1 0 0-.2.1-.3.1.8-1 2.2-2.7 3.5-4.5l2-2.5c.1.3.2.4.3.6-10.7 0-18.7-.3-18.7-.3s8-.3 18.9-.4h.7l-.5.6c-.5.6-1.2 1.5-2 2.5-1.4 1.7-2.8 3.4-3.6 4.4l-.1.1h-.2c-2.9 0-5.6-.1-7.1-.1h-.1l-.1-.1c-3.8-4.4-5.9-7-5.9-7" fill="#231f20"/><path clip-path="url(#a)" d="m41.5 95.7s0-.3-.1-.7-.2-.9-.4-1.5c-.1-.6-.2-1.2-.3-1.5-.1-.4-.2-.7-.2-.7s.3.1.5.5c.3.4.6.9.7 1.6s.1 1.3 0 1.7c0 .4-.2.6-.2.6" fill="#231f20"/><path clip-path="url(#a)" d="m18.3 97.4s-.3-.3-.6-.7c-.2-.3-.3-.6-.5-1-.1-.4-.2-.8-.2-1.3 0-1 .3-1.8.7-2.3.2-.3.3-.5.5-.6l.2-.2s0 .1-.1.2c-.1.2-.2.4-.2.7-.1.5-.3 1.3-.3 2.2l.1 1.2c.1.4.1.7.2 1 .1.5.2.8.2.8" fill="#231f20"/><path clip-path="url(#a)" d="m41.6 78.8c-.4-.2-3.8 0-4.4 0-.1 1.3.3 2.9 2.2 2.9 1.8-.1 2.2-2 2.2-2.9" fill="#231f20"/><path clip-path="url(#a)" d="m20.2 78.8c.4-.2 3.8 0 4.4 0 .1 1.3-.3 2.9-2.2 2.9-1.9-.1-2.2-2-2.2-2.9" fill="#231f20"/><path clip-path="url(#a)" d="m43.1 81v-.5c0-.1 0-.3-.1-.5-.1-.1-.3-.3-.5-.4-.4-.3-.9-.7-1.5-1.1-.2-.1-.5-.1-.9-.1h-3.6c-.6.3-1.1.7-1.5 1v-.1c-.1 1.1-.2 1.6-.2 1.6s-.1-.6-.2-1.6v-.1l.1-.1c.4-.4.8-.9 1.5-1.3.1-.1.2-.1.4-.1h.9c.4 0 .8 0 1.3-.1h1.8c.2 0 .5.1.7.2.6.4 1 1 1.4 1.4l.5.6v.6c-.1.4-.1.6-.1.6" fill="#231f20"/><path clip-path="url(#a)" d="m41 78.1v.5c0 .3 0 .8-.3 1.4-.1.1-.2.3-.2.4-.1.1-.2.3-.4.4-.3.2-.8.4-1.1.5h-.6c-.2 0-.4-.1-.7-.2-.5-.2-.9-.5-1.1-1-.4-.8-.4-1.6-.3-2.1v-.3h.3c2.7.1 4.5.3 4.4.4 0-.1-1.7.1-4.4.3l.3-.3c0 .4 0 1.1.3 1.7.3.7 1.1.9 1.7.9.4 0 .6-.1.9-.3l.3-.3.3-.3c.3-.5.4-.9.5-1.2s.1-.5.1-.5" fill="#231f20"/><path clip-path="url(#a)" d="m17.6 81s0-.2-.1-.5v-.6c.1-.2.3-.4.5-.6.4-.4.8-.9 1.4-1.4.2-.2.5-.2.7-.2h1.8c.4 0 .9 0 1.3.1h.9l.4.1c.7.4 1.1.9 1.5 1.3l.1.1v.1c-.1 1.1-.2 1.6-.2 1.6s-.1-.6-.2-1.6v.1c-.4-.3-.9-.7-1.5-1h-3.6c-.4 0-.8 0-.9.1-.6.4-1 .8-1.5 1.1-.2.2-.4.3-.5.4-.1.2-.1.4-.1.5z" fill="#231f20"/><path clip-path="url(#a)" d="m19.6 78.1s0 .2.1.5.2.7.5 1.2l.3.3.3.3c.2.1.5.2.9.3.6 0 1.4-.2 1.7-.9.3-.6.3-1.2.3-1.7.2.1.2.2.3.3-2.7-.2-4.3-.4-4.4-.3 0-.1 1.8-.3 4.4-.3h.3v.3c0 .5.1 1.3-.3 2.1-.2.4-.6.8-1.1 1-.2.1-.5.2-.7.2h-.6c-.3 0-.8-.2-1.1-.5l-.4-.4c-.1-.1-.2-.3-.2-.4-.2-.6-.3-1-.3-1.4z" fill="#231f20"/><path clip-path="url(#a)" d="m49.7 48.8.2.2c.2.2.4.4.7.8.5.8 1.2 2 1.7 3.9.5 1.8.8 4.2.8 7.2 0 1.5 0 3.1-.2 4.8l-.3 2.7c-.1.9-.2 1.9-.6 2.9l-.2.6-.1-.6c-.1-.4-.4-1-1-1.4-.2-.1-.3-.2-.5-.2s-.3 0-.3.1c0 .4-.1.9-.1 1.4-.2 2-.4 4.4-.7 6.9v.2h-1.7v-.2c0-1.1 0-3.8.1-6.7v.1c-.3-.7-1.1-2.3-1.9-4l-.1-.1.1-.1s.1-.2.1-.3c.5-1.7 1.1-3.6 1.7-5.6.8-2 0-4.4-1.8-6-.9-.8-2-1.4-3.2-1.9-.6-.2-1.2-.4-1.9-.4-.7-.1-1.3-.1-1.9 0-1.3.2-2.6.6-4 1-1.3.4-2.8.9-4.3.8h-.8c-1.4-.1-2.6-.6-3.8-1s-2.4-.8-3.6-.9h-.9c-.3 0-.6 0-.9.1-.6.1-1.2.2-1.8.4-1.1.4-2.2.9-3.1 1.7-.9.7-1.7 1.6-2 2.6-.4 1-.5 2.1-.2 3.1.6 2.1 1.3 4.2 1.9 6.1v.1l-.1.1c-.7 1.5-1.3 2.7-1.9 3.8v-.1c.1 2.8.1 5 .2 7.1v.3h-2.4v-.3c.2-1.7 0-3.2 0-4.6-.1-1.4-.2-2.7-.3-3.9l.2.2c-.8-.2-1.5-.1-2.1.3-.5.3-.9.8-1.1 1.3l-.2.4-.1-.4c-.3-1-.3-1.8-.4-2.7s-.1-1.7-.1-2.5c0-1.6 0-3.2.1-4.6.2-2.9.6-5.3 1.1-7.2s1.2-3.4 1.9-4.2c.3-.4.6-.7.8-.9l.3-.3-.3.3c-.2.2-.4.5-.7.9-.6.9-1.3 2.3-1.8 4.2s-.9 4.4-1 7.2c-.1 1.4-.1 2.9 0 4.6 0 .8.1 1.6.2 2.5.1.8.1 1.8.4 2.5h-.3c.1-.6.5-1.1 1.1-1.5s1.5-.6 2.4-.4h.2v.2c.1 1.2.2 2.5.3 3.9s.3 2.9.1 4.8c-.1-.1-.1-.2-.3-.3h1.8l-.3.3c-.1-2.1-.2-4.3-.3-7.1v-.2c.5-1.1 1.1-2.3 1.8-3.8v.2c-.6-1.9-1.3-4-1.9-6.1-.4-1.2-.2-2.4.2-3.6s1.3-2.1 2.2-2.9c1-.8 2.1-1.4 3.3-1.8.6-.2 1.2-.3 1.9-.4.3-.1.6-.1 1-.1h1c2.6.2 5 1.6 7.4 1.9h.8c1.3.1 2.7-.4 4-.8s2.7-.9 4.1-1.1c.7-.1 1.4-.1 2.1 0s1.4.3 2 .5c1.3.4 2.5 1.1 3.4 2 2 1.7 2.9 4.6 2 6.7-.6 2.1-1.2 4-1.8 5.6-.1.1-.1.2-.1.3v-.3c.8 1.7 1.6 3.3 1.9 4v.2c-.1 2.8-.1 5.6-.2 6.7l-.2-.2h1.3l-.2.2c.3-2.5.5-4.9.7-6.9 0-.5.1-1 .1-1.4 0-.2.2-.4.3-.4h.4c.2 0 .4.1.6.3.7.4 1.1 1.1 1.1 1.7h-.3c.3-.9.4-1.9.6-2.8l.3-2.7c.2-1.7.2-3.3.2-4.8 0-2.9-.3-5.3-.7-7.2-.4-1.8-1.1-3.1-1.6-3.9-.3-.4-.5-.6-.6-.8.2-.2.1-.3.1-.3" fill="#231f20"/><path clip-path="url(#a)" d="m47.6 86.8h.7c.4-.1 1.1-.3 1.6-.8.1-.1.3-.3.4-.5s.2-.4.4-.6c.2-.4.5-.9.6-1.3.2-1 .3-2.2.4-3.4.2-2.5.3-4.7.3-6.3v-2.6s.1.2.2.7c.1.4.2 1.1.3 1.9.2 1.6.2 3.9 0 6.4-.1 1.2-.2 2.4-.5 3.5-.2.6-.5 1-.7 1.4l-.4.6-.5.5c-.7.6-1.4.7-1.8.7-.7-.2-1-.2-1-.2" fill="#231f20"/><path clip-path="url(#a)" d="m7.5 71.2v.2c0 .1-.1.3-.1.5-.1.5-.1 1.1-.1 1.9 0 1.6.1 3.9.2 6.4.1 1.2.1 2.5.3 3.5.1 1 .9 1.7 1.5 2.1 1.4.9 2.5.9 2.4.8 0 .1-1.1.3-2.6-.5-.4-.2-.8-.5-1.1-.8-.4-.3-.7-.9-.8-1.5-.2-1.1-.3-2.3-.4-3.6-.2-2.5-.1-4.9.1-6.5.1-.7.2-1.4.3-1.8.1-.2.1-.4.2-.5z" fill="#231f20"/><path clip-path="url(#a)" d="m45.8 103.2s-2.1 2.7-5 5.6c-2.9 3-5.5 5.1-5.5 5.1s2.1-2.7 5-5.6c2.9-3 5.5-5.1 5.5-5.1" fill="#231f20"/><path clip-path="url(#a)" d="m19.9 113.1s-2-2-4.2-4.7c-2.1-2.7-3.6-5.2-3.6-5.2s2 2 4.2 4.7c2.1 2.7 3.6 5.2 3.6 5.2" fill="#231f20"/><path clip-path="url(#a)" d="m29.9 124h.2v5.9h-.2z" fill="#fff" transform="matrix(.998 .07 -.07 .998 9.013 -1.797)"/><path clip-path="url(#a)" d="m24.3 123.4h.2v6.5h-.2z" fill="#fff"/><path clip-path="url(#a)" d="m27.9 77.9s-.8-.4-2.2-1.2c-1.3-.8-3.1-1.9-4.9-3.2-.9-.6-1.8-1.3-2.6-1.8l-.2-.1-.2-.1c-.1 0-.2.1-.2.2l-.9.8c-1.1 1-1.8 1.7-1.8 1.7s.4-.9 1.2-2.2c.2-.3.4-.7.7-1.1l.3-.3.2-.2.1-.1.3-.1h.5c.1 0 .3.1.5.2 1.1.5 1.9 1 2.9 1.7 1.9 1.3 3.5 2.8 4.5 3.8 1.2 1.3 1.8 2 1.8 2" fill="#231f20"/><path clip-path="url(#a)" d="m32.9 77.9s2.6-2.4 6.4-4.6c1.3-.8 2.6-1.4 3.5-1.8l.5-.2.2.3c1.4 2.1 2 3.4 2 3.4s-1.2-1-2.9-2.8c.2 0 .4.1.7.1-.8.6-1.9 1.4-3.2 2.2-3.8 2.3-7.2 3.4-7.2 3.4" fill="#231f20"/></svg>