<svg enable-background="new 0 0 170.1 121.4" viewBox="0 0 170.1 121.4" xmlns="http://www.w3.org/2000/svg"><path d="m159.8 38.6c-1.1 0-2-.9-2-2s.9-2 2-2 2 .9 2 2-.9 2-2 2z" fill="#fff"/><path d="m140 68.8c.5-.4 1.5-1.1 3-1.1 3.3 0 4.2 2.9 4.2 6 0 4.1-1.8 6.7-5 6.7-1.6 0-2.1-.7-2.6-1.1-.1.3-.3 1.1-.7 1.1h-.3l-1.9-.5c-.1 0-.2-.1-.2-.2 0-.2.3-.4.4-1.2.1-.5.1-1 .1-1.5v-11.9h-1.2c-.3 0-.3-.1-.3-.3v-1.6c0-.3 0-.3.3-.3h3.9c.3 0 .3.1.3.3zm0 8.8c.2.1.6.5 1.5.5 2.2 0 2.6-2.2 2.6-4.1s-.3-3.8-2.2-3.8c-1 0-1.6.6-1.9.8z" fill="#fff"/><path d="m149.6 70.4h-.8c-.3 0-.3-.1-.3-.3v-1.6c0-.3 0-.3.3-.3" fill="#fff"/><path d="m157.4 32.8c0 1.3-.3 2.3-.8 2.3h-3.1c-.4 0-.8-1-.8-2.3s.3-2.3.8-2.3h3.1c.4 0 .8 1 .8 2.3" fill="#231f20"/><path d="m156.6 30.7c.2 0 .5.7.5 2.1 0 1.3-.4 2.1-.5 2.1h-3.1c-.2 0-.5-.7-.5-2.1 0-1.3.4-2.1.5-2.1zm0-.2h-3.1c-.4 0-.8 1-.8 2.3s.3 2.3.8 2.3h3.1c.4 0 .8-1 .8-2.3s-.4-2.3-.8-2.3" fill="#fff"/><path d="m168.8 34.8c0 .8-.3 1.5-.8 1.5h-3c-.4 0-.8-.7-.8-1.5s.3-1.5.8-1.5h3.1c.4 0 .7.7.7 1.5" fill="#231f20"/><path d="m168.1 33.5c.2 0 .5.5.5 1.3s-.3 1.3-.5 1.3h-3.1c-.2 0-.5-.5-.5-1.3s.3-1.3.5-1.3zm0-.2h-3.1c-.4 0-.8.7-.8 1.5s.3 1.5.8 1.5h3.1c.4 0 .8-.7.8-1.5-.1-.8-.4-1.5-.8-1.5" fill="#fff"/><path d="m49.1 23.6v-19.8s26.7.2 30.7 0c4.1-.2 33.1 0 37.2-1.3v21.1z" fill="#ccc9c7"/><path d="m19.1 28.7s-3 .7-4.4.1-7-3.6-6.7.5h-6.7v7.6h6c.3 1.6 4.4 1.4 6.7.5 2.3-1 4.6-1.4 5.6-1.1z" fill="#231f20"/><path d="m9.6 27.2v.2c1.4 0 3.3.9 4.3 1.4.2.1.4.2.5.2.4.2 1 .3 1.7.3 1 0 2.1-.2 2.6-.3l.5 7.1h-.6c-1.2 0-3 .5-4.8 1.2-1 .4-2.4.7-3.7.7-1.6 0-2.6-.4-2.7-1v-.2h-5.9v-7.2h6.6v-.2c-.1-.9.1-1.4.4-1.7.3-.2.6-.3 1.1-.3zm-0 0c-1.1 0-1.9.5-1.8 2.1h-6.5v7.6h6c.2.8 1.4 1.2 2.9 1.2 1.3 0 2.8-.3 3.8-.7 1.8-.7 3.6-1.2 4.7-1.2.3 0 .6 0 .9.1l-.6-7.6s-1.4.3-2.8.3c-.6 0-1.2-.1-1.6-.3-.9-.3-3.3-1.5-5-1.5" fill="#fff"/><path d="m115.9 1.5v8.8h.9s.1 1.3.2 3.4c9.2.2 17.4.4 23.3.7 2 .1 3.8.2 5.3.2l.4-7.9v-.1c0-.8.1-1.4 1.3-1.4h7.6c1.2 0 2.1.6 2.1 1.4s-1 1.4-2.1 1.4l-7.6-.4h-.7v7.1c2.1.1 3.4.2 3.8.3.1 0 .1 0 .2.1h.1s.1 0 .1.1h2.7c.6 0 1 .4 1 .9s-.5.9-1 .9l-1.5-.1s0 .1.1.1l.1.2c0 .1 0 .1.1.2l.1.2c0 .1 0 .1.1.2 0 .1 0 .1.1.2 0 .1 0 .1.1.2 0 .1 0 .1.1.2 0 .1 0 .1.1.2 0 .1 0 .1.1.2 0 .1 0 .2.1.2 0 .1 0 .1.1.2 0 .1 0 .2.1.2 0 .1 0 .2.1.2 0 .1 0 .2.1.3 0 .1 0 .2.1.2 0 .1 0 .2.1.3 0 .1 0 .2.1.3 0 .1 0 .2.1.3v.1c.5-.3 1.2-.5 1.9-.5 1.9 0 3.4 1.3 3.4 3 0 1.6-1.5 3-3.4 3-.4 0-.8-.1-1.1-.2v4.5h1.5v-1.8c-.1-.5.6-.7 2-.7h.2c1.5 0 3.1-.1 3.6-.4.4-.3 1.4-.8 2.2-.8.9 0 1.6.4 1.7 1.4v5h2.5c.4 0 .8.7.8 1.5s-.3 1.5-.8 1.5h-2.5v.3c-.1 1-.9 1.4-1.7 1.4-.9 0-1.8-.5-2.2-.8s-2.1-.4-3.6-.4h-.2c-1.5 0-2.2-.2-2-.7v-1.4h-1.3v8.9c-.2.2-4.7.3-12 .4h-.4l.4 1.5h1.1v-1.4h2.3v6h-2.2c.8 3 1.4 5.7 1.6 6.4.5 2 1.1 17.6 1.1 17.6s.8 21 1.1 23.6c.3 2.7-1.2 15.6-2.3 17.6s-4.3 3.8-7.6 4.8h-102.4c-3.3-1.1-6.5-2.9-7.6-4.8-1.1-2-2.6-14.9-2.3-17.6s1.1-23.6 1.1-23.6.6-15.6 1.1-17.6c.2-.9 1.1-4.6 2.1-8.2h-2.1v1.8h-2.3v-6h2.3v1.4h2.8l.5-1.8h-2.9c-6.3 0-10.1-.1-10.1-.1l-.1-.1v-7c-4.4 4.4-7.7 8.6-7.7 9.1.9 2.3.1 6.6-1.2 9.9-1.2 3.1-5.1 7.1-5.5 7.1v-.1c.2-.6.6-2.8.6-3.5s1.2-3.9 1.9-7c.8-3.1 0-5.6 0-6.4 0-.7 5.8-6.5 8.3-9.1l-.6.2c-1.1.4-2.5.7-3.8.7-1.5 0-2.8-.4-2.9-1.2h-6v-7.6h6.6c-.1-1.6.7-2.1 1.8-2.1 1.7 0 4.1 1.3 5 1.6.3.1.8.2 1.2.2 0-.5 0-1 .1-1.6.1-1.9 2-3.5 4.1-4.4v-.3c0-.1 0-.2.1-.3v-.2c0-.1 0-.2.1-.3v-.1l.2-.8v-.1c0-.1 0-.2.1-.3v-.2c0-.1 0-.2.1-.3 0-.1 0-.1.1-.2 0-.1 0-.2.1-.2 0-.1 0-.1.1-.2 0-.1 0-.2.1-.2 0-.1 0-.1.1-.2 0-.1 0-.1.1-.2 0-.1 0-.1.1-.2 0-.1 0-.1.1-.2 0-.1 0-.1.1-.2 0-.1 0-.1.1-.2 0-.1 0-.2.1-.2v-.2c0-.1.1-.2.1-.4v-.1c0-.1.1-.2.1-.2s0-.1.1-.1c0-.1 0-.1.1-.2 0 0 0-.1.1-.1 0-.1 0-.1.1-.2 0 0 0-.1.1-.1 0-.1 0-.1.1-.2 0 0 0-.1.1-.1 0-.1 0-.1.1-.1 0 0 0-.1.1-.1 0 0 0-.1.1-.1v-.1l.1-.1v-.1l.1-.2c.5-.6 4.1-1 9.9-1.3 3.9-.2 8.7-.3 14.2-.4.1-1.2.1-2.1.2-2.7.2 0 .6 0 1.1-.1v-7.5s11.8.1 21 .1c4.6 0 8.4 0 9.8-.1 3.5-.2 32.5 0 36.6-1.3m27.2 48.6v-1.7h-.4c.1.6.2 1.2.4 1.7m-25.9-50.1-1.7.5c-2.8.9-20.9 1-29.5 1.1-3.6 0-6.2.1-7.3.1-1.2.1-4.5.1-9.7.1-9 0-20.8-.1-20.9-.1h-1.3v7.7l-.9.1-.1.8c-.1.5-.1 1.1-.2 1.8-5.2.1-9.6.2-13.1.4-9.1.5-10.3 1.1-10.9 1.8-.1.1-.1.2-.2.2v.1l-.1.2v.1l-.1.2s0 .1-.1.1l-.1.2s0 .1-.1.1l-.1.2-.1.1-.1.2v.1l-.1.2v.1c0 .1-.1.2-.1.2v.2c0 .1-.1.2-.1.4v.3l-.3.2v.2l-.1.2-.1.2v.3l-.1.2v.2l-.1.2-.1.2v.5l-.1.3v.2l-.1.3-.2.8v.2l-.1.4v.2c-2.5 1.1-4.1 3.1-4.2 5v.2c-1.2-.6-3.3-1.5-5-1.5-1.1 0-1.8.4-2.2.7-.4.4-.7.8-.8 1.4h-6.8v9.9h6.5c.7.8 2 1.2 3.7 1.2h.8c-5.4 5.6-6 6.4-6 7.1 0 .3 0 .6.1 1 .2 1.1.4 3-.1 5.2-.4 1.5-.8 3.1-1.2 4.3-.5 1.6-.7 2.4-.7 2.9 0 .6-.4 2.6-.6 3.2-.1.4 0 .7.2 1l.4.4h.7c.5 0 1.1 0 3.5-2.9.9-1.1 2.5-3.1 3.2-5 1.3-3.2 2.1-7.6 1.3-10.2.4-.7 2.2-3 4.8-5.9v3.6c0 .1 0 .1.1.1v.1l.1.2.1.1c.1.1.2.3.4.3l.3.2h6.5v6.4h3.6c-.6 2.4-1.1 4.5-1.3 5.2-.5 2-1.1 16.1-1.2 17.7 0 .2-.8 21-1.1 23.6-.3 2.7 1.1 15.8 2.4 18.1 1.1 2 4.2 4.1 8.3 5.4l.2.1h102l.2-.1c4.1-1.3 7.2-3.3 8.3-5.4 1.3-2.3 2.7-15.4 2.4-18.1-.3-2.6-1.1-23.4-1.1-23.6-.1-1.6-.7-15.7-1.2-17.7-.2-.7-.7-2.8-1.3-5.2h1.9v-6.1c7.7-.1 7.9-.3 8.3-.7.1-.1.2-.2.2-.3 0 0 0-.1.1-.1 0 0 0-.1.1-.1v-5.9c.5.2 1.2.2 2.1.2h.3c2 0 2.7.1 2.8.2.4.3 1.6 1 3 1s2.4-.6 2.8-1.7h1.4c1.2 0 2-1 2-2.6 0-1.5-.8-2.6-2-2.6h-1.3v-4.1c-.2-1.5-1.4-2.4-3-2.4-1.4 0-2.6.7-3 1-.2 0-.8.2-2.8.2h-.5c1.3-.7 2.1-2 2.1-3.4 0-2.2-2.1-4-4.7-4-.3 0-.6 0-.9.1v-.1c0-.1 0-.2-.1-.2v-.1c0-.1 0-.1-.1-.2 0-.1 0-.2-.1-.2v-.1c0-.1 0-.1-.1-.2 0-.1 0-.2-.1-.2 0-.1 0-.2-.1-.2v-.1c1.1-.1 2-.9 2-1.9 0-1.1-1-1.9-2.3-1.9h-1.3c-.1-.1-.3-.1-.4-.1-.3-.1-.9-.2-2.9-.3v-5l7 .4c1.9 0 3.4-1.1 3.4-2.4s-1.5-2.4-3.4-2.4h-7.6c-1.7 0-2.6.8-2.6 2.4v.1l-.4 6.8c-1.2-.1-2.5-.1-4-.2-5.8-.2-13.4-.4-22.1-.6-.1-1.5-.1-2.4-.1-2.4l-.1-1h-.8v-9.9z" fill="#231f20"/><path d="m18.3 43.8c-.8-.5-.3-8.2.8-15.5.9-6 2.2-11.7 3.5-13.3.5-.6 4.1-1 9.9-1.3 23.7-1.2 83.7-.2 107.8.7 5.7.2 9.4.4 10.1.6 2.2.5 3.4 7.1 3.9 13.9.5 7.1.3 14.4-.2 14.9-.2.2-4.7.3-12 .4-26.4.3-89-.1-113.5-.3-6.5-.1-10.3-.1-10.3-.1" fill="#ccc9c7"/><path d="m118.3 44.5c-30.6 0-73-.3-89.9-.4-6.3-.1-10.1-.1-10.1-.1h-.2c-1.1-.7-.1-10 .8-15.7 1.1-6.9 2.4-12 3.5-13.4.3-.4 1.7-1 10-1.4 7.2-.4 18.2-.6 32.6-.6 26.1 0 58.7.6 75.2 1.3 4.1.2 9.2.4 10.1.6 2.5.6 3.6 8 4 14.1.5 6.8.4 14.4-.3 15.1-.1.1-.3.3-12.2.5-5.7-.1-13.7 0-23.5 0m-99.9-.9c.6 0 4.3 0 10 .1 16.8.1 59.3.4 89.9.4 9.9 0 17.8 0 23.6-.1 9.6-.1 11.6-.3 11.9-.3.5-.6.7-7.5.2-14.8-.6-8.3-2-13.3-3.7-13.7-.4-.1-2.2-.3-10-.6-16.5-.6-49.1-1.3-75.2-1.3-14.4 0-25.3.2-32.5.6-7.9.4-9.5.9-9.7 1.2-1.1 1.4-2.4 6.3-3.4 13.2-1.4 8.1-1.7 14.7-1.1 15.3" fill="#231f20"/><path d="m19.1 28.3c-1.1 7.4-1.7 15-.8 15.5 0 0 3.8 0 10.1.1 24.5.2 87.1.6 113.5.3 7.3-.1 11.8-.2 12-.4.6-.6.8-7.8.2-14.9z" fill="#231f20"/><path d="m19.1 28.3c-1.1 7.4-1.7 15-.8 15.5 0 0 3.8 0 10.1.1 24.5.2 87.1.6 113.5.3 7.3-.1 11.8-.2 12-.4.6-.6.8-7.8.2-14.9z" fill="none" stroke="#231f20" stroke-miterlimit="10"/><path d="m18.8 28.3c-.7 4.6-1.4 9.4-1.2 14 .1 2 1 1.6 3.2 1.7 7.8.1 15.6.1 23.5.2l57.3.3c12.3 0 24.6.1 37 0 3.3 0 6.6-.1 10-.1 1.7 0 3.9.2 5.6-.3.9-.3.7-3.3.7-3.9.2-3.7 0-7.5-.3-11.2 0-.1-.2-.1-.3-.1-17.4-.1-34.8-.2-52.2-.2l-74.4-.3h-8.5c-.4 0-.4.2 0 .2l52.2.2 74.4.3h8.3c.1 0 0 2.2 0 2.6.1 2.5.2 5 .1 7.4 0 1.4.2 3.3-.5 4.6-.2.4-3.6.2-4.1.3-2.8.1-5.6.1-8.4.1-3.5 0-7 0-10.5.1h-26.8c-18.9 0-37.8-.1-56.7-.3-7.5 0-15-.1-22.5-.2h-6.1c-.3-.3-.3-1.1-.3-1.4-.3-4.6.5-9.4 1.2-14 0-.2-.7-.2-.7 0" fill="#231f20"/><path d="m158.5 23.5c0 1.6-1.5 3-3.4 3s-3.4-1.3-3.4-3c0-1.6 1.5-3 3.4-3 1.9.1 3.4 1.4 3.4 3" fill="#231f20"/><path d="m155.1 20.8c1.8 0 3.2 1.2 3.2 2.8 0 1.5-1.4 2.8-3.2 2.8s-3.2-1.2-3.2-2.8c-.1-1.6 1.4-2.8 3.2-2.8m0-.2c-1.9 0-3.4 1.3-3.4 3 0 1.6 1.5 3 3.4 3s3.4-1.3 3.4-3-1.5-3-3.4-3" fill="#fff"/><path d="m29.6 43.9c-6.3 0-10.1-.1-10.1-.1-1.5-.9 1.5-25.2 4.3-28.8.5-.6 4.1-1 9.9-1.3-1.5 3.4-6.9 15.8-4.1 30.2" fill="#ccc9c7"/><path d="m29.6 43.9c-6.3 0-10.1-.1-10.1-.1-1.5-.9 1.5-25.2 4.3-28.8.5-.6 4.1-1 9.9-1.3-1.5 3.4-6.9 15.8-4.1 30.2z" fill="none" stroke="#231f20" stroke-miterlimit="10"/><path d="m28.4 43.8c-3.1 0-6.2 0-9.4-.1h-.7s.2.1.1-.1c-.2-.4-.2-.9-.2-1.3-.2-3.6.3-7.3.8-10.9.5-4.2 1.2-8.4 2.4-12.6.3-1.2.7-2.6 1.4-3.7.5-.8 2.7-.8 3.6-.9 2-.2 4.1-.3 6.2-.5l-.4-.1c-4.2 9.7-6 20-4.1 30.3 0 .2.7.2.6 0-1.9-10.2-.1-20.5 4-30.2.1-.2-.3-.2-.4-.1-3.1.2-6.5.2-9.4 1-1.2.3-1.5 1.8-1.8 2.7-1.5 4.4-2.2 9.2-2.8 13.7-.5 3.9-1.2 7.9-.8 11.8.1.5.1 1.2.8 1.2l9.9.1c.6-.1.6-.3.2-.3" fill="#231f20"/><path d="m141.4 14.4c5.7.2 9.4.4 10.1.6 4.5 1.1 4.7 27.8 3.7 28.8-.2.2-4.7.3-12 .4 1-2.9 1.2-24.5-1.8-29.8" fill="#ccc9c7"/><path d="m140.2 14.5c2.7.1 5.5.2 8.2.4 1.2.1 2 .1 2.7 1 1.4 1.8 1.6 4.3 2 6.3 1 5.7 1.2 11.5 1.1 17.2 0 1.3.2 3.2-.5 4.4-.2.4-3.6.2-4.1.2l-3.8.1h-2.3c-.4 0-1.3.3-1.2-.2.6-2.1.5-4.4.6-6.5.1-3.4.1-6.7-.1-10.1-.2-4.1-.2-9.1-2.3-12.9-.1-.2-.7-.1-.6.1 1.1 2 1.4 4.3 1.7 6.5.4 3.1.6 6.2.7 9.3.1 3 .1 5.9-.1 8.9-.1 1.7-.1 3.5-.6 5.1 0 .1.3.1.3.1 3.8 0 7.6 0 11.3-.3 1-.1 1.2-.3 1.3-1.1.7-4 .3-8.3.1-12.3-.2-4.5-.5-9.2-2.2-13.5-.3-.8-.9-2.1-2-2.3-3.2-.6-6.9-.5-10.2-.6-.4-.1-.4.2 0 .2" fill="#231f20"/><path d="m140.2 14.5c2.7.1 5.5.2 8.2.4 1.2.1 2 .1 2.7 1 1.4 1.8 1.6 4.3 2 6.3 1 5.7 1.2 11.5 1.1 17.2 0 1.3.2 3.2-.5 4.4-.2.4-3.6.2-4.1.2l-3.8.1h-2.3c-.4 0-1.3.3-1.2-.2.6-2.1.5-4.4.6-6.5.1-3.4.1-6.7-.1-10.1-.2-4.1-.2-9.1-2.3-12.9-.1-.2-.7-.1-.6.1 1.1 2 1.4 4.3 1.7 6.5.4 3.1.6 6.2.7 9.3.1 3 .1 5.9-.1 8.9-.1 1.7-.1 3.5-.6 5.1 0 .1.3.1.3.1 3.8 0 7.6 0 11.3-.3 1-.1 1.2-.3 1.3-1.1.7-4 .3-8.3.1-12.3-.2-4.5-.5-9.2-2.2-13.5-.3-.8-.9-2.1-2-2.3-3.2-.6-6.9-.5-10.2-.6-.4-.1-.4.2 0 .2z" fill="none" stroke="#231f20" stroke-miterlimit="10"/><path d="m34.3 29.3c1 0 2.4-.5 2.4-2.4s.3-4.3-2.4-4.3-8.2-.4-11 0c-2.9.4-6 2.4-6.2 4.9-.1 2.5-.1 4 .6 4.5s4.9 1.1 6.5 0 1.3-4.7 2.2-5.3c.9-.5 6.1 0 6.1 0 .4 1.6.9 2.8 1.8 2.6" fill="#ccc9c7"/><path d="m33.2 29.4c2.8-.2 2.7-2.4 2.7-4.2-.1-2.7-2-2.7-4.7-2.8-3.4-.1-7.1-.5-10.4.3-3.5.8-5.2 3.2-5.3 6.1-.1 1.9-.2 3.4 2.4 3.8 2.1.3 4.9.5 6-1.3.6-1 .7-2.3 1-3.4.4-1.7 3-1.2 4.6-1.1l1.5.1.5 1.5c.3.6.7 1 1.7 1 .3 0 .3-.2-.1-.2-1.1 0-1.4-1.9-1.5-2.4 0-.1-.1-.1-.2-.1-1.6-.2-5.3-.9-6.6.2-.8.7-.8 2.5-1 3.3-.4 1.4-1.2 2.1-2.9 2.3-1.1.1-3.7.1-4.3-.9-.5-.8-.3-2-.3-2.9 0-1.3.2-2.3 1-3.4 1.8-2.5 5.5-2.8 8.7-2.8 1.2 0 2.4 0 3.7.1 1.4 0 4.3-.2 5.2.8.6.7.5 1.8.5 2.6 0 1.4-.1 3-2.2 3.2-.6 0-.3.2 0 .2" fill="#231f20"/><path d="m25.3 31.5h3.1c.9 0 1.7-.7 1.7-1.6s-.7-1.6-1.7-1.6h-3.1c-1.3.5-7.2 6.2-8.7 8s-9 9.1-9 9.9.8 3.2 0 6.4c-.8 3.1-1.9 6.3-1.9 7s-.5 2.8-.7 3.5c-.2.6 4.2-3.8 5.5-7.1s2.1-7.6 1.2-9.9c-.1-.8 6.5-8.8 13.6-14.6" fill="#ccc9c7"/><path d="m24.1 31.6c1.8 0 4.1.5 5-1.2 1.3-2.3-2.7-2.2-4.1-2.2-1.9 0-2.9 1.2-4.2 2.3-2.1 1.8-4.1 3.7-5.8 5.8-1.5 1.8-3.3 3.5-4.9 5.2-1.3 1.4-3.4 3-4.1 4.7-.3.7.2 2.1.3 2.9.1 2.1-.4 4.2-1 6.2-.7 2.5-1.7 5.3-1.9 7.9 0 .1.2.1.2.1.5 0 .7-.3 1-.5 1.2-1.1 2.2-2.4 3.2-3.7 2.3-3.2 3.3-7.1 3.3-10.8 0-1.2-.6-2 .1-3.1.8-1.1 1.7-2.2 2.6-3.3 3.2-3.7 6.7-7.2 10.5-10.4.2-.2-.4-.2-.6-.1-3.9 3.2-7.4 6.7-10.6 10.4-1 1.1-1.9 2.3-2.7 3.5-.7 1.1 0 2.3 0 3.5 0 4.6-2 8.9-5.2 12.6-.5.6-1 1.1-1.6 1.6-.3.2.3.2.4-.1.1-.4.2-.7.2-1.1.3-1.6.5-3.2 1-4.8 1-2.5 1.8-4.9 1.8-7.4 0-1.2-.8-2.8 0-3.9 1.8-2.5 4.3-4.7 6.5-7 2-2.1 3.9-4.2 6-6.3 1.3-1.2 2.6-2.4 4-3.5 1-.8 2.4-.5 3.7-.5 1.6 0 1.5 1.6 1.1 2.3s-1.3.6-2 .6h-2.2c-.4 0-.4.3 0 .3" fill="#231f20"/><path d="m34 27.2h105.9v1.7h-105.9z" fill="#ccc9c7"/><path d="m139.9 28.7h-105.9c.6 0 .3-1 .3-1.5h105.6c-.5 0-.3 1-.3 1.5 0 .2.6.2.6 0v-1.7c0-.1-.2-.1-.3-.1h-105.9c-.1 0-.3 0-.3.1v1.7c0 .1.2.1.3.1h105.9c.4.1.4-.1 0-.1" fill="#231f20"/><path d="m35.6 28.1c0 .9-.8 1.6-1.9 1.6-1 0-1.9-.7-1.9-1.6v-4.1c0-.9.8-1.6 1.9-1.6 1 0 1.9.7 1.9 1.6z" fill="#ccc9c7"/><path d="m35.2 28.1c-.2 1.7-3.1 1.7-3.1 0v-4.1c0-1.7 3.1-1.7 3.1 0v4.1c0 .2.6.2.6 0v-2.4c0-.6.2-1.6-.1-2.2-.8-1.9-4-1.6-4.3.4-.1.8 0 1.6 0 2.4 0 .6-.2 1.6.1 2.2.8 1.9 4 1.6 4.3-.4.1-.1-.5-.2-.6 0" fill="#231f20"/><path d="m141.7 28.1c0 .9-.8 1.6-1.9 1.6-1 0-1.9-.7-1.9-1.6v-4.1c0-.9.8-1.6 1.9-1.6 1 0 1.9.7 1.9 1.6z" fill="#ccc9c7"/><path d="m141.4 28.1c-.2 1.7-3.1 1.7-3.1 0v-4.1c0-1.7 3.1-1.7 3.1 0v4.1c0 .2.6.2.6 0v-2.4c0-.6.2-1.6-.1-2.2-.8-1.9-4-1.6-4.3.4-.1.8 0 1.6 0 2.4 0 .6-.2 1.6.1 2.2.8 1.9 4 1.6 4.3-.4.1-.1-.6-.2-.6 0" fill="#231f20"/><path d="m145.5 15.5h1.3l3 8.7h-1.5-.7l-1.4-5.6z" fill="#231f20"/><path d="m146.4 19.3-.9-3.6v-9l.9.7z" fill="#929497"/><path d="m145.7 7.1.6.4-.1 10.2-.5-1.9zm-.2-.4v9l.9 3.6.1-11.9z" fill="#231f20"/><path d="m156.9 6.6c0 .8-1 1.4-2.1 1.4l-7.7-.4c-1.2 0-1.7-.2-1.7-1s.5-1.4 1.7-1.4h7.7c1.2 0 2.1.7 2.1 1.4" fill="#231f20"/><path d="m154.8 5.3c1.1 0 2 .6 2 1.3s-.9 1.3-2 1.3l-7.7-.4c-1.2 0-1.6-.2-1.6-.9 0-.8.6-1.3 1.6-1.3zm0-.1h-7.6c-1.2 0-1.7.6-1.7 1.4s.5 1 1.7 1l7.6.4c1.2 0 2.1-.6 2.1-1.4 0-.7-.9-1.4-2.1-1.4" fill="#fff"/><path d="m149.8 24.2h-1.5v-8.7h.7z" fill="#ccc9c7"/><path d="m148.8 15.7.7 8.3h-1v-8.3zm.2-.2h-.7v8.7h1.4z" fill="#231f20"/><path d="m154.5 16c0 .5-.5.9-1 .9l-3.8-.3c-.6 0-.8-.1-.8-.6s.3-.9.8-.9h3.8c.5.1 1 .4 1 .9" fill="#231f20"/><path d="m153.4 15.2c.5 0 .9.3.9.8 0 .4-.4.8-.9.8l-3.8-.3c-.6 0-.7-.1-.7-.5 0-.2.1-.8.7-.8zm0 0h-3.8c-.6 0-.8.4-.8.9s.3.6.8.6l3.8.3c.6 0 1-.4 1-.9.1-.6-.4-.9-1-.9" fill="#fff"/><path d="m165.5 36.6c-.1 1-.9 1.4-1.7 1.4-.9 0-1.8-.5-2.2-.8s-2.2-.4-3.7-.4-2.2-.2-2.1-.7v-7.5c-.1-.5.6-.7 2.1-.7s3.3-.1 3.7-.4 1.4-.8 2.2-.8c.9 0 1.6.4 1.7 1.4z" fill="#231f20"/><path d="m163.8 27c.6 0 1.4.2 1.5 1.3v8.3c-.2 1-.9 1.3-1.5 1.3-.8 0-1.7-.5-2.1-.7-.1-.1-.6-.4-3.7-.4h-.2c-1.4 0-1.7-.2-1.8-.3 0 0-.1-.1 0-.2v-7.7c.1-.1.4-.3 1.8-.3h.2c3.1 0 3.5-.3 3.7-.4.4-.4 1.3-.9 2.1-.9m0-.1c-.9 0-1.8.5-2.2.8s-2.1.4-3.6.4h-.2c-1.5 0-2.2.2-2 .7v7.5c-.1.5.6.7 2 .7h.2c1.5 0 3.1.1 3.6.4.4.3 1.4.8 2.2.8.9 0 1.6-.4 1.7-1.4v-8.3c-.1-1.2-.8-1.6-1.7-1.6" fill="#fff"/><path d="m48.1 39.1c-.2-2-.6-22.9 0-27.6 3.4-.4 44.3 0 48.2 0s21.7-.2 21.7-.2 1.3 23.9 0 27.7c-1.4 3.8-69.9.1-69.9.1" fill="#fff"/><path d="m46.9 38.1s2.9.1 8.1.4c5.2.2 12.8.6 22.1.8 4.7.1 9.8.3 15.3.3h8.5c2.9 0 5.9-.1 9-.3 1.5-.1 3.1-.2 4.6-.5.4-.1.8-.2 1.1-.3.4-.1.7-.3.9-.5 0 0 0-.1.1-.1v-.1l.1-.2.1-.5c.1-.3.1-.7.1-1 .3-2.7.2-5.4.2-8.2 0-5.6-.3-11.4-.6-17.3v-.2c.1.1.1.1.2.1-6.8 0-13.5.1-19.9.1h-9.5c-3.1 0-6.1 0-9.1-.1-5.9 0-11.5-.1-16.8-.1h-11.2c-1.2 0-2.3.1-3.4.1 0 0 .1 0 .1-.1-.4 4.3-.3 8.2-.4 11.5 0 3.4 0 6.3.1 8.7 0 2.4.1 4.2.1 5.5.1 1.3.2 2 .2 2s0-.6-.1-1.9c0-1.2-.1-3.1-.2-5.5s-.1-5.3-.1-8.7-.1-7.3.3-11.6v-.1h.1l3.4-.1h37.1c3.1 0 6.3.1 9.5 0 6.4 0 13.1-.1 19.9-.2h.2v.3c.3 5.9.5 11.7.5 17.3 0 2.8 0 5.6-.3 8.3l-.1 1-.1.5-.1.3v.1s0 .1-.1.1c-.1.2-.3.3-.5.4s-.4.2-.6.2l-1.2.3c-1.6.3-3.1.4-4.7.5-3.1.2-6.1.2-9 .3h-8.5c-5.5-.1-10.6-.2-15.3-.4-9.3-.3-16.9-.7-22.1-.9-5.2-.1-8-.2-8-.2" fill="#231f20"/><path d="m26.7 45.7h117.4v2.7h-117.4z" fill="#231f20"/><path d="m143.9 48.4h-117.1v-2.6h117.2v2.6zm.1-2.7h-117.3v2.7h117.3z" fill="#fff"/><path d="m25.7 44.3h2.3v6h-2.3z" fill="#231f20"/><path d="m27.8 50.2h-2v-5.8h2zm.1-5.9h-2.3v6h2.3z" fill="#fff"/><path d="m143.1 44.3h2.3v6h-2.3z" fill="#231f20"/><path d="m145.2 50.2h-2v-5.8h2zm.1-5.9h-2.3v6h2.3z" fill="#fff"/><path d="m138.3 121.3c3.3-1.1 6.5-2.9 7.6-4.8 1.1-2 2.6-14.9 2.3-17.6s-1.1-23.6-1.1-23.6-.6-15.6-1.1-17.6-4-15.9-4.5-17-2.8-3.1-6.9-3.4c-4.1-.4-25.9 0-25.9 0s.4.8-1.4.8h-39.5c-1.9 0-1.4-.8-1.4-.8s-21.8-.4-25.9 0-6.5 2.3-6.9 3.4c-.5 1.1-4 15-4.5 17s-1.1 17.6-1.1 17.6-.8 21-1.1 23.6c-.3 2.7 1.2 15.6 2.3 17.6s4.3 3.8 7.6 4.8z" fill="#ccc9c7"/><path d="m137.4 120.4c3.4-1.2 7.3-2.9 8.1-6.2.8-3 1.1-6.1 1.4-9.1.5-4.6.2-9.1 0-13.7-.4-9.1-.7-18.3-1.2-27.4-.2-4.1-.8-7.9-1.8-11.9l-2.2-8.5c-.4-1.6-.6-3.6-2-5-3.7-3.6-11.8-2.6-16.9-2.6s-10.2.1-15.4.2c-.1 0-.4 0-.3.2.4 1-6.3.7-6.8.7h-27.7c-.5 0-7.5.3-7.1-.7.1-.1-.2-.2-.3-.2-5.6-.1-11.2-.2-16.7-.2-2.9 0-5.8 0-8.7.1-2.7.1-6.8 1.2-7.7 3.6-1.9 4.9-2.7 10.1-4 15.1-1.2 4.6-1.1 9.3-1.3 14-.4 8.9-.7 17.7-1.2 26.6-.3 5 .1 10 .9 15 .3 2.2.5 5 2.5 6.7 1.5 1.3 4.6 3.4 6.8 3.4h101.3c.4 0 .4-.2 0-.2h-101.5c-.2 0-1-.4-1.1-.4-1.5-.5-2.8-1.3-4.1-2.1-1.6-1.1-2.3-2.3-2.7-3.9-.7-3.1-1.1-6.3-1.4-9.4-.5-4.6-.1-9 .1-13.6.3-5.3.5-10.5.7-15.8.2-3.9.3-7.8.6-11.7.1-2.1.1-4.4.6-6.5.5-2.3 1.2-4.6 1.8-6.9.7-2.9 1.5-5.7 2.3-8.6.9-3.1 3.8-4.6 7.7-4.9 6.8-.4 13.7-.1 20.4 0h4.6c.5 0 0-.2-.1 0-.2 1 2 .8 2.8.8h38.5c.7 0 1.8-.1 1.8-.8 0-.3-.6 0-.2 0h1c6.7-.1 13.4-.2 20.2-.1 3.8 0 8.1 0 10.7 2.8.5.6.7 1.4.9 2.1l1.1 4c1.2 4.6 2.8 9.3 3.2 14 .4 5 .6 10 .8 14.9.2 4 .3 8 .5 12.1.2 4.5.8 9.2.7 13.7-.1 3.7-.6 7.5-1.2 11.2-.2 1.3-.4 2.7-.9 4-1 2.6-4.9 4.1-7.6 5-.7.1-.1.3.1.2" fill="#231f20"/><path d="m148.2 98.9c.3 2.7-1.2 15.6-2.3 17.6s-4.3 3.8-7.6 4.8h-101.5c-3.3-1.1-6.5-2.9-7.6-4.8-1.1-2-2.6-14.9-2.3-17.6l.4-4.1c.5 4.5 1.3 9.5 1.9 10.7 1.1 2 4.3 2.7 7.6 3.8h101.6c3.3-1.1 6.5-1.8 7.6-3.8.6-1.2 1.4-6.2 1.9-10.7z" fill="#231f20"/><path d="m146.6 96 .2 1.9c.3 2.7-1.2 15.5-2.2 17.5-1.1 2.1-4.6 3.8-7.5 4.7h-101.5c-2.9-.9-6.3-2.7-7.4-4.7-1-1.9-2.6-14.8-2.2-17.5l.2-1.9c.5 3.8 1.1 7.6 1.7 8.6 1 1.7 3.5 2.5 6.3 3.4.5.1 1 .3 1.5.5h101.6l1.5-.5c2.7-.8 5.3-1.7 6.3-3.4.4-1 1-4.8 1.5-8.6m0-2.1c-.5 4.5-1.3 9.5-1.9 10.7-1.1 2-4.3 2.7-7.6 3.8h-101.5c-3.3-1.1-6.5-1.8-7.6-3.8-.6-1.2-1.4-6.2-1.9-10.7l-.4 4.1c-.3 2.7 1.2 15.6 2.3 17.6s4.3 3.8 7.6 4.8h101.6c3.3-1.1 6.5-2.9 7.6-4.8 1.1-2 2.6-14.9 2.3-17.6z" fill="#fff"/><path d="m29.1 75.7s1.2-6.2 2.2-11.7c.2-1 .4-2.1.6-3 .5-2.4.9-4.4 1-5.1.6-2.4 3.4-6.4 7.2-6.4h94.3c3.7 0 6.6 4.1 7.2 6.4.2.7.6 2.6 1 5 .2 1 .4 2.1.6 3.2 1.1 5.5 2.2 11.6 2.2 11.6" fill="#fff"/><path d="m98.5 42.4c-2 0-5.7-1.1-8.1-2.5v-4.9h-8.1v4.7c-2.4 1.5-6.3 2.7-8.4 2.7-2.7 0-1.9 1.8-.9 1.9h26.3c1.1-.1 1.9-1.9-.8-1.9" fill="#231f20"/><path d="m90.2 35.2v4.8l.1.1c2.3 1.4 6.1 2.5 8.2 2.5 1 0 1.6.3 1.6.7s-.4.8-.8.9h-26.2c-.4-.1-.8-.5-.8-.9s.6-.7 1.6-.7c2.3 0 6.2-1.3 8.5-2.7l.1-.1v-4.6zm.2-.2h-8.1v4.7c-2.4 1.5-6.3 2.7-8.4 2.7-2.7 0-1.9 1.8-.9 1.9h26.3c1-.1 1.9-1.9-.9-1.9-2 0-5.7-1.1-8.1-2.5v-4.9z" fill="#fff"/><path d="m30.2 63c.2-1 .4-2.1.6-3l110.7-.1c.2 1 .4 2.1.6 3.2z" fill="#ccc9c7"/><path d="m145.5 75.7-1.1 12.7c-.5 4.5-1.3 9.5-1.9 10.7-1.1 2-1.3 2.7-4.6 3.8h-101.1c-3.3-1.1-3.5-1.8-4.6-3.8-.6-1.2-1.4-6.2-1.9-10.7l-1.1-12.7z" fill="#ccc9c7"/><path d="m144 74.7-1.1 12.5-.6 5.1c-.3 1.9-.4 4-1.3 5.8-.8 1.6-2.3 3.7-4.7 3.7h-97.1c-3.3 0-5.8.1-7.5-2.9-1.9-3.4-2-7.8-2.3-11.4l-.6-6.3-.6-6.3c0 .1-.6.1-.1.1h116.1c.4 0 .4-.2 0-.2h-116.3c-.1 0-.3 0-.3.1l1.1 12.5c.3 3.4.5 7.2 1.7 10.5.7 1.7 2.5 4.3 5.1 4.3h100.6c2.8 0 4.9-2.3 5.6-4.3 1.4-4.3 1.6-8.9 2-13.2l.9-9.7c.1-.4-.6-.4-.6-.3" fill="#231f20"/><path d="m127 99.1c2.4.1 2.4-1.9 2.4-2.6s-.1-21.9 0-22.8h-68.5c-10.6 0-18.3 0-18.6.1.1 1 0 22.1 0 22.8s0 2.7 2.4 2.6h82.3z" fill="#231f20"/><path d="m111.2 73.7h-50.3v-5.8h50.3z" fill="#231f20"/><path d="m50.5 77.9c0 .5-1.1 1-2.5 1s-2.5-.4-2.5-1v-3.3c0-.5 1.1-1 2.5-1s2.5.4 2.5 1z" fill="#f1f1f2"/><path d="m50.5 77.9s0-.9-.1-2.4v-.9c0-.1 0-.2-.1-.3-.3-.3-.8-.5-1.4-.6s-1.2-.1-1.8 0c-.3.1-.6.1-.9.3-.3.1-.5.3-.5.5v3.2c0 .1 0 .2.1.3 0 .1.1.2.2.2.2.1.4.2.7.3.5.1 1 .2 1.4.2.9 0 1.6-.2 2-.4.2-.1.3-.2.4-.4v.2c0 .1-.2.3-.4.4-.4.3-1.1.5-2 .5-.5 0-1 0-1.5-.1l-.8-.3-.3-.3c-.1-.1-.1-.3-.1-.4v-3.3s0-.1.1-.1c0-.1.1-.1.2-.2l.4-.3c.3-.1.6-.2 1-.3.7-.1 1.3-.1 1.9 0s1.2.3 1.5.7c.1.1.1.2.1.4v.9c-.1 1.3-.1 2.2-.1 2.2" fill="#231f20"/><path d="m57.4 77.9c0 .5-1.1 1-2.5 1s-2.5-.4-2.5-1v-3.3c0-.5 1.1-1 2.5-1s2.5.4 2.5 1z" fill="#f1f1f2"/><path d="m57.4 77.9s0-.9-.1-2.4v-.9c0-.1 0-.2-.1-.3-.3-.3-.8-.5-1.4-.6s-1.2-.1-1.8 0c-.3.1-.6.1-.9.3-.3.1-.5.3-.5.5v3.5c0 .1.1.2.2.2.2.1.4.2.7.3.5.1 1 .2 1.4.2.9 0 1.6-.2 2-.4.2-.1.3-.2.4-.4.1.1.1 0 .1 0v.2c0 .1-.2.3-.4.4-.4.3-1.1.5-2 .5-.5 0-1 0-1.5-.1l-.8-.3-.3-.3c-.1-.1-.1-.3-.1-.4v-3.3s0-.1.1-.1c0-.1.1-.1.2-.2l.4-.3c.3-.1.6-.2 1-.3.7-.1 1.3-.1 1.9 0s1.2.3 1.5.7c.1.1.1.2.1.4v.9c-.1 1.3-.1 2.2-.1 2.2" fill="#231f20"/><path d="m63.8 77.9c0 .5-1.1 1-2.5 1s-2.5-.4-2.5-1v-3.3c0-.5 1.1-1 2.5-1s2.5.4 2.5 1z" fill="#f1f1f2"/><path d="m63.8 77.9s0-.9-.1-2.4v-.9c0-.1 0-.2-.1-.3-.3-.3-.8-.5-1.4-.6s-1.2-.1-1.8 0c-.3.1-.6.1-.9.3-.3.1-.5.3-.5.5v3.2c0 .1 0 .2.1.3 0 .1.1.2.2.2.2.1.4.2.7.3.5.1 1 .2 1.4.2.9 0 1.6-.2 2-.4.2-.1.3-.2.4-.4v.2c0 .1-.2.3-.4.4-.4.3-1.1.5-2 .5-.5 0-1 0-1.5-.1l-.8-.3-.3-.3c-.1-.1-.1-.3-.1-.4v-3.3s0-.1.1-.1c0-.1.1-.1.2-.2l.4-.3c.3-.1.6-.2 1-.3.7-.1 1.3-.1 1.9 0s1.2.3 1.5.7c.1.1.1.2.1.4v.9c0 1.3-.1 2.2-.1 2.2" fill="#231f20"/><path d="m70.3 77.9c0 .5-1.1 1-2.5 1s-2.5-.4-2.5-1v-3.3c0-.5 1.1-1 2.5-1s2.5.4 2.5 1z" fill="#f1f1f2"/><path d="m70.3 77.9s0-.9-.1-2.4v-.9c0-.1 0-.2-.1-.3-.3-.3-.8-.5-1.4-.6s-1.2-.1-1.8 0c-.3.1-.6.1-.9.3-.3.1-.5.3-.5.5v3.2c0 .1 0 .2.1.3 0 .1.1.2.2.2.2.1.4.2.7.3.5.1 1 .2 1.4.2.9 0 1.6-.2 2-.4.2-.1.3-.2.4-.4v.2c0 .1-.2.3-.4.4-.4.3-1.1.5-2 .5-.5 0-1 0-1.5-.1l-.8-.3-.3-.3c-.1-.1-.1-.3-.1-.4v-3.3s0-.1.1-.1c0-.1.1-.1.2-.2l.4-.3c.3-.1.6-.2 1-.3.7-.1 1.3-.1 1.9 0s1.2.3 1.5.7c.1.1.1.2.1.4v.9c-.1 1.3-.1 2.2-.1 2.2" fill="#231f20"/><path d="m76.7 77.9c0 .5-1.1 1-2.5 1s-2.5-.4-2.5-1v-3.3c0-.5 1.1-1 2.5-1s2.5.4 2.5 1z" fill="#f1f1f2"/><path d="m76.7 77.9s0-.9-.1-2.4v-.9c0-.1 0-.2-.1-.3-.3-.3-.8-.5-1.4-.6s-1.2-.1-1.8 0c-.3.1-.6.1-.9.3-.3.1-.5.3-.5.5v3.2c0 .1 0 .2.1.3 0 .1.1.2.2.2.2.1.4.2.7.3.5.1 1 .2 1.4.2.9 0 1.6-.2 2-.4.2-.1.3-.2.4-.4v.2c0 .1-.2.3-.4.4-.4.3-1.1.5-2 .5-.5 0-1 0-1.5-.1l-.8-.3-.3-.3c-.1-.1-.1-.3-.1-.4v-3.3s0-.1.1-.1c0-.1.1-.1.2-.2l.4-.3c.3-.1.6-.2 1-.3.7-.1 1.3-.1 1.9 0s1.2.3 1.5.7c.1.1.1.2.1.4v.9c0 1.3-.1 2.2-.1 2.2" fill="#231f20"/><path d="m83.2 77.9c0 .5-1.1 1-2.5 1s-2.5-.4-2.5-1v-3.3c0-.5 1.1-1 2.5-1s2.5.4 2.5 1z" fill="#f1f1f2"/><path d="m83.2 77.9s0-.9-.1-2.4v-.9c0-.1 0-.2-.1-.3-.3-.3-.8-.5-1.4-.6s-1.2-.1-1.8 0c-.3.1-.6.1-.9.3-.3.1-.5.3-.5.5v3.2c0 .1 0 .2.1.3 0 .1.1.2.2.2.2.1.4.2.7.3.5.1 1 .2 1.4.2.9 0 1.6-.2 2-.4.2-.1.3-.2.4-.4v.2c0 .1-.2.3-.4.4-.4.3-1.1.5-2 .5-.4 0-1 0-1.5-.1l-.8-.3-.3-.3c-.1-.1-.1-.3-.1-.4v-3.3s0-.1.1-.1c0-.1.1-.1.2-.2l.4-.3c.3-.1.6-.2 1-.3.7-.1 1.3-.1 1.9 0s1.2.3 1.5.7c.1.1.1.2.1.4v.9c-.1 1.3-.1 2.2-.1 2.2" fill="#231f20"/><path d="m89.6 77.9c0 .5-1.1 1-2.5 1s-2.5-.4-2.5-1v-3.3c0-.5 1.1-1 2.5-1s2.5.4 2.5 1z" fill="#f1f1f2"/><path d="m89.6 77.9s0-.9-.1-2.4v-.9c0-.1 0-.2-.1-.3-.3-.3-.8-.5-1.4-.6s-1.2-.1-1.8 0c-.3.1-.6.1-.9.3-.3.1-.5.3-.5.5v3.5c0 .1.1.2.2.2.2.1.4.2.7.3.5.1 1 .2 1.4.2.9 0 1.6-.2 2-.4.2-.1.3-.2.4-.4.1.1.1 0 .1 0v.2c0 .1-.2.3-.4.4-.4.3-1.1.5-2 .5-.5 0-1 0-1.5-.1l-.8-.3-.3-.3c-.1-.1-.1-.3-.1-.4v-3.3s0-.1.1-.1c0-.1.1-.1.2-.2l.4-.3c.3-.1.6-.2 1-.3.7-.1 1.3-.1 1.9 0s1.2.3 1.5.7c.1.1.1.2.1.4v.9c0 1.3-.1 2.2-.1 2.2" fill="#231f20"/><path d="m96.1 77.9c0 .5-1.1 1-2.5 1s-2.5-.4-2.5-1v-3.3c0-.5 1.1-1 2.5-1s2.5.4 2.5 1z" fill="#f1f1f2"/><path d="m96.1 77.9s0-.9-.1-2.4v-.9c0-.1 0-.2-.1-.3-.3-.3-.8-.5-1.4-.6s-1.2-.1-1.8 0c-.3.1-.6.1-.9.3-.3.1-.5.3-.5.5v3.2c0 .1 0 .2.1.3 0 .1.1.2.2.2.2.1.4.2.7.3.5.1 1 .2 1.4.2.9 0 1.6-.2 2-.4.2-.1.3-.2.4-.4v.2c0 .1-.2.3-.4.4-.4.3-1.1.5-2 .5-.5 0-1 0-1.5-.1l-.8-.3-.3-.3c-.1-.2-.1-.4-.1-.5v-3.3s0-.1.1-.1c0-.1.1-.1.2-.2l.4-.3c.3-.1.6-.2 1-.3.7-.1 1.3-.1 1.9 0s1.2.3 1.5.7c.1.1.1.2.1.4v.9c-.1 1.4-.1 2.3-.1 2.3" fill="#231f20"/><path d="m102.5 77.9c0 .5-1.1 1-2.5 1s-2.5-.4-2.5-1v-3.3c0-.5 1.1-1 2.5-1s2.5.4 2.5 1z" fill="#f1f1f2"/><path d="m102.5 77.9s0-.9-.1-2.4v-.9c0-.1 0-.2-.1-.3-.3-.3-.8-.5-1.4-.6s-1.2-.1-1.8 0c-.3.1-.6.1-.9.3-.3.1-.5.3-.5.5v3.2c0 .1 0 .2.1.3 0 .1.1.2.2.2.2.1.4.2.7.3.5.1 1 .2 1.4.2.9 0 1.6-.2 2-.4.2-.1.3-.2.4-.4v.2c0 .1-.2.3-.4.4-.4.3-1.1.5-2 .5-.4 0-1 0-1.5-.1l-.8-.3-.3-.3c-.1-.1-.1-.3-.1-.4v-3.3s0-.1.1-.1c0-.1.1-.1.2-.2l.4-.3c.3-.1.6-.2 1-.3.7-.1 1.3-.1 1.9 0s1.2.3 1.5.7c.1.1.1.2.1.4v.9c0 1.3-.1 2.2-.1 2.2" fill="#231f20"/><path d="m109 77.9c0 .5-1.1 1-2.5 1s-2.5-.4-2.5-1v-3.3c0-.5 1.1-1 2.5-1s2.5.4 2.5 1z" fill="#f1f1f2"/><path d="m109 77.9s0-.9-.1-2.4v-.9c0-.1 0-.2-.1-.3-.3-.3-.8-.5-1.4-.6s-1.2-.1-1.8 0c-.3.1-.6.1-.9.3-.3.1-.5.3-.5.5v3.2c0 .1 0 .2.1.3 0 .1.1.2.2.2.2.1.4.2.7.3.5.1 1 .2 1.4.2.9 0 1.6-.2 2-.4.2-.1.3-.2.4-.4v.2c0 .1-.2.3-.4.4-.4.3-1.1.5-2 .5-.5 0-1 0-1.5-.1l-.8-.3-.3-.3c-.1-.1-.1-.3-.1-.4v-3.3s0-.1.1-.1c0-.1.1-.1.2-.2l.4-.3c.3-.1.6-.2 1-.3.7-.1 1.3-.1 1.9 0s1.2.3 1.5.7c.1.1.1.2.1.4v.9c-.1 1.3-.1 2.2-.1 2.2" fill="#231f20"/><path d="m115 77.9c0 .5-1.1 1-2.5 1s-2.5-.4-2.5-1v-3.3c0-.5 1.1-1 2.5-1s2.5.4 2.5 1z" fill="#f1f1f2"/><path d="m115 77.9s0-.9-.1-2.4v-.9c0-.1 0-.2-.1-.3-.3-.3-.8-.5-1.4-.6s-1.2-.1-1.8 0c-.3.1-.6.1-.9.3-.3.1-.5.3-.5.5v3.5c0 .1.1.2.2.2.2.1.4.2.7.3.5.1 1 .2 1.4.2.9 0 1.6-.2 2-.4.2-.1.3-.2.4-.4.1.1.1 0 .1 0v.2c0 .1-.2.3-.4.4-.4.3-1.1.5-2 .5-.4 0-1 0-1.5-.1l-.8-.3-.3-.3c-.1-.1-.1-.3-.1-.4v-3.3s0-.1.1-.1c0-.1.1-.1.2-.2l.4-.3c.3-.1.6-.2 1-.3.7-.1 1.3-.1 1.9 0s1.2.3 1.5.7c.1.1.1.2.1.4v.9c-.1 1.3-.1 2.2-.1 2.2" fill="#231f20"/><path d="m121.9 77.9c0 .5-1.1 1-2.5 1s-2.5-.4-2.5-1v-3.3c0-.5 1.1-1 2.5-1s2.5.4 2.5 1z" fill="#f1f1f2"/><path d="m121.9 77.9s0-.9-.1-2.4v-.9c0-.1 0-.2-.1-.3-.3-.3-.8-.5-1.4-.6s-1.2-.1-1.8 0c-.3.1-.6.1-.9.3-.3.1-.5.3-.5.5v3.5c0 .1.1.2.2.2.2.1.4.2.7.3.5.1 1 .2 1.4.2.9 0 1.6-.2 2-.4.2-.1.3-.2.4-.4.1.1.1 0 .1 0v.2c0 .1-.2.3-.4.4-.4.3-1.1.5-2 .5-.4 0-1 0-1.5-.1l-.8-.3-.3-.3c-.1-.1-.1-.3-.1-.4v-3.3s0-.1.1-.1c0-.1.1-.1.2-.2l.4-.3c.3-.1.6-.2 1-.3.7-.1 1.3-.1 1.9 0s1.2.3 1.5.7c.1.1.1.2.1.4v.9c-.1 1.3-.1 2.2-.1 2.2" fill="#231f20"/><path d="m54 83.3c0 .5-1.1 1-2.5 1s-2.5-.4-2.5-1v-3.3c0-.5 1.1-1 2.5-1s2.5.4 2.5 1z" fill="#f1f1f2"/><path d="m54 83.3s0-.9-.1-2.4v-.9c0-.1 0-.2-.1-.3-.3-.3-.8-.5-1.4-.6s-1.2-.1-1.8 0c-.3.1-.6.1-.9.3-.3.1-.5.3-.5.5v3.2c0 .1 0 .2.1.3 0 .1.1.2.2.2.2.1.4.2.7.3.5.1 1 .2 1.4.2.9 0 1.6-.2 2-.4.2-.1.3-.2.4-.4v.2c0 .1-.2.3-.4.4-.4.3-1.1.5-2 .5-.5 0-1 0-1.5-.1l-.8-.3-.3-.3c-.1-.1-.1-.3-.1-.4v-3.3s0-.1.1-.1c0-.1.1-.1.2-.2l.4-.3c.3-.1.6-.2 1-.3.7-.1 1.3-.1 1.9 0s1.2.3 1.5.7c.1.1.1.2.1.4v.9c-.1 1.3-.1 2.2-.1 2.2" fill="#231f20"/><path d="m60.8 83.3c0 .5-1.1 1-2.5 1s-2.5-.4-2.5-1v-3.3c0-.5 1.1-1 2.5-1s2.5.4 2.5 1z" fill="#f1f1f2"/><path d="m60.8 83.3s0-.9-.1-2.4v-.9c0-.1 0-.2-.1-.3-.3-.3-.8-.5-1.4-.6s-1.2-.1-1.8 0c-.3.1-.6.1-.9.3-.3.1-.5.3-.5.5v3.2c0 .1 0 .2.1.3 0 .1.1.2.2.2.2.1.4.2.7.3.5.1 1 .2 1.4.2.9 0 1.6-.2 2-.4.2-.1.3-.2.4-.4v.2c0 .1-.2.3-.4.4-.4.3-1.1.5-2 .5-.5 0-1 0-1.5-.1l-.8-.3-.3-.3c-.1-.1-.1-.3-.1-.4v-3.3s0-.1.1-.1c0-.1.1-.1.2-.2l.4-.3c.3-.1.6-.2 1-.3.7-.1 1.3-.1 1.9 0s1.2.3 1.5.7c.1.1.1.2.1.4v.9c0 1.3-.1 2.2-.1 2.2" fill="#231f20"/><path d="m67.3 83.3c0 .5-1.1 1-2.5 1s-2.5-.4-2.5-1v-3.3c0-.5 1.1-1 2.5-1s2.5.4 2.5 1z" fill="#f1f1f2"/><path d="m67.3 83.3s0-.9-.1-2.4v-.9c0-.1 0-.2-.1-.3-.3-.3-.8-.5-1.4-.6s-1.2-.1-1.8 0c-.3.1-.6.1-.9.3-.3.1-.5.3-.5.5v3.2c0 .1 0 .2.1.3 0 .1.1.2.2.2.2.1.4.2.7.3.5.1 1 .2 1.4.2.9 0 1.6-.2 2-.4.2-.1.3-.2.4-.4v.2c0 .1-.2.3-.4.4-.4.3-1.1.5-2 .5-.5 0-1 0-1.5-.1l-.8-.3-.3-.3c-.1-.1-.1-.3-.1-.4v-3.3s0-.1.1-.1c0-.1.1-.1.2-.2l.4-.3c.3-.1.6-.2 1-.3.7-.1 1.3-.1 1.9 0s1.2.3 1.5.7c.1.1.1.2.1.4v.9c-.1 1.3-.1 2.2-.1 2.2" fill="#231f20"/><path d="m73.7 83.3c0 .5-1.1 1-2.5 1s-2.5-.4-2.5-1v-3.3c0-.5 1.1-1 2.5-1s2.5.4 2.5 1z" fill="#f1f1f2"/><path d="m73.7 83.3s0-.9-.1-2.4v-.9c0-.1 0-.2-.1-.3-.3-.3-.8-.5-1.4-.6s-1.2-.1-1.8 0c-.3.1-.6.1-.9.3-.2.2-.4.3-.4.6v3.2c0 .1 0 .2.1.3 0 .1.1.2.2.2.2.1.4.2.7.3.5.1 1 .2 1.4.2.9 0 1.6-.2 2-.4.2-.1.3-.2.4-.4-.1 0-.1-.1-.1-.1v.2c0 .1-.2.3-.4.4-.4.3-1.1.5-2 .5-.4 0-1 0-1.5-.1l-.8-.3-.3-.3c-.1-.1-.1-.3-.1-.4v-3.3s0-.1.1-.1c0-.1.1-.1.2-.2l.4-.3c.3-.1.6-.2 1-.3.7-.1 1.3-.1 1.9 0s1.2.3 1.5.7c.1.1.1.2.1.4v.9c0 1.3-.1 2.2-.1 2.2" fill="#231f20"/><path d="m80.2 83.3c0 .5-1.1 1-2.5 1s-2.5-.4-2.5-1v-3.3c0-.5 1.1-1 2.5-1s2.5.4 2.5 1z" fill="#f1f1f2"/><path d="m80.2 83.3s0-.9-.1-2.4v-.9c0-.1 0-.2-.1-.3-.3-.3-.8-.5-1.4-.6s-1.2-.1-1.8 0c-.3.1-.6.1-.9.3-.3.1-.5.3-.5.5v3.2c0 .1 0 .2.1.3 0 .1.1.2.2.2.2.1.4.2.7.3.5.1 1 .2 1.4.2.9 0 1.6-.2 2-.4.2-.1.3-.2.4-.4v.2c0 .1-.2.3-.4.4-.4.3-1.1.5-2 .5-.5 0-1 0-1.5-.1l-.8-.3-.3-.3c-.1-.1-.1-.3-.1-.4v-3.3s0-.1.1-.1c0-.1.1-.1.2-.2l.4-.3c.3-.1.6-.2 1-.3.7-.1 1.3-.1 1.9 0s1.2.3 1.5.7c.1.1.1.2.1.4v.9c-.1 1.3-.1 2.2-.1 2.2" fill="#231f20"/><path d="m86.6 83.3c0 .5-1.1 1-2.5 1s-2.5-.4-2.5-1v-3.3c0-.5 1.1-1 2.5-1s2.5.4 2.5 1z" fill="#f1f1f2"/><path d="m86.6 83.3s0-.9-.1-2.4v-.9c0-.1 0-.2-.1-.3-.3-.3-.8-.5-1.4-.6s-1.2-.1-1.8 0c-.3.1-.6.1-.9.3-.3.1-.5.3-.5.5v3.2c0 .1 0 .2.1.3 0 .1.1.2.2.2.2.1.4.2.7.3.5.1 1 .2 1.4.2.9 0 1.6-.2 2-.4.2-.1.3-.2.4-.4v.2c0 .1-.2.3-.4.4-.4.3-1.1.5-2 .5-.5 0-1 0-1.5-.1l-.8-.3-.3-.3c-.1-.1-.1-.3-.1-.4v-3.3s0-.1.1-.1c0-.1.1-.1.2-.2l.4-.3c.3-.1.6-.2 1-.3.7-.1 1.3-.1 1.9 0s1.2.3 1.5.7c.1.1.1.2.1.4v.9c0 1.3-.1 2.2-.1 2.2" fill="#231f20"/><path d="m93.1 83.3c0 .5-1.1 1-2.5 1s-2.5-.4-2.5-1v-3.3c0-.5 1.1-1 2.5-1s2.5.4 2.5 1z" fill="#f1f1f2"/><path d="m93.1 83.3s0-.9-.1-2.4v-.9c0-.1 0-.2-.1-.3-.3-.3-.8-.5-1.4-.6s-1.2-.1-1.8 0c-.3.1-.6.1-.9.3-.3.1-.5.3-.5.5v3.2c0 .1 0 .2.1.3 0 .1.1.2.2.2.2.1.4.2.7.3.5.1 1 .2 1.4.2.9 0 1.6-.2 2-.4.2-.1.3-.2.4-.4v.2c0 .1-.2.3-.4.4-.4.3-1.1.5-2 .5-.5 0-1 0-1.5-.1l-.8-.3-.3-.3c-.1-.2-.1-.4-.1-.5v-3.3s0-.1.1-.1c0-.1.1-.1.2-.2l.4-.3c.3-.1.6-.2 1-.3.7-.1 1.3-.1 1.9 0s1.2.3 1.5.7c.1.1.1.2.1.4v.9c-.1 1.4-.1 2.3-.1 2.3" fill="#231f20"/><path d="m99.5 83.3c0 .5-1.1 1-2.5 1s-2.5-.4-2.5-1v-3.3c0-.5 1.1-1 2.5-1s2.5.4 2.5 1z" fill="#f1f1f2"/><path d="m99.5 83.3s0-.9-.1-2.4v-.9c0-.1 0-.2-.1-.3-.3-.3-.8-.5-1.4-.6s-1.2-.1-1.8 0c-.3.1-.6.1-.9.3-.3.1-.5.3-.5.5v3.2c0 .1 0 .2.1.3 0 .1.1.2.2.2.2.1.4.2.7.3.5.1 1 .2 1.4.2.9 0 1.6-.2 2-.4.2-.1.3-.2.4-.4v.2c0 .1-.2.3-.4.4-.4.3-1.1.5-2 .5-.5 0-1 0-1.5-.1l-.8-.3-.3-.3c-.1-.1-.1-.3-.1-.4v-3.3s0-.1.1-.1c0-.1.1-.1.2-.2l.4-.3c.3-.1.6-.2 1-.3.7-.1 1.3-.1 1.9 0s1.2.3 1.5.7c.1.1.1.2.1.4v.9c0 1.3-.1 2.2-.1 2.2" fill="#231f20"/><path d="m106 83.3c0 .5-1.1 1-2.5 1s-2.5-.4-2.5-1v-3.3c0-.5 1.1-1 2.5-1s2.5.4 2.5 1z" fill="#f1f1f2"/><path d="m106 83.3s0-.9-.1-2.4v-.9c0-.1 0-.2-.1-.3-.3-.3-.8-.5-1.4-.6s-1.2-.1-1.8 0c-.3.1-.6.1-.9.3-.3.1-.5.3-.5.5v3.2c0 .1 0 .2.1.3 0 .1.1.2.2.2.2.1.4.2.7.3.5.1 1 .2 1.4.2.9 0 1.6-.2 2-.4.2-.1.3-.2.4-.4v.2c0 .1-.2.3-.4.4-.4.3-1.1.5-2 .5-.5 0-1 0-1.5-.1l-.8-.3-.3-.3c-.1-.1-.1-.3-.1-.4v-3.3s0-.1.1-.1c0-.1.1-.1.2-.2l.4-.3c.3-.1.6-.2 1-.3.7-.1 1.3-.1 1.9 0s1.2.3 1.5.7c.1.1.1.2.1.4v.9c-.1 1.3-.1 2.2-.1 2.2" fill="#231f20"/><path d="m112.4 83.3c0 .5-1.1 1-2.5 1s-2.5-.4-2.5-1v-3.3c0-.5 1.1-1 2.5-1s2.5.4 2.5 1z" fill="#f1f1f2"/><path d="m112.4 83.3s0-.9-.1-2.4v-.9c0-.1 0-.2-.1-.3-.3-.3-.8-.5-1.4-.6s-1.2-.1-1.8 0c-.3.1-.6.1-.9.3-.3.1-.5.3-.5.5v3.2c0 .1 0 .2.1.3 0 .1.1.2.2.2.2.1.4.2.7.3.5.1 1 .2 1.4.2.9 0 1.6-.2 2-.4.2-.1.3-.2.4-.4v.2c0 .1-.2.3-.4.4-.4.3-1.1.5-2 .5-.5 0-1 0-1.5-.1l-.8-.3-.3-.3c-.1-.1-.1-.3-.1-.4v-3.3s0-.1.1-.1c0-.1.1-.1.2-.2l.4-.3c.3-.1.6-.2 1-.3.7-.1 1.3-.1 1.9 0s1.2.3 1.5.7c.1.1.1.2.1.4v.9c0 1.3-.1 2.2-.1 2.2" fill="#231f20"/><path d="m118.4 83.3c0 .5-1.1 1-2.5 1s-2.5-.4-2.5-1v-3.3c0-.5 1.1-1 2.5-1s2.5.4 2.5 1z" fill="#f1f1f2"/><path d="m118.4 83.3s0-.9-.1-2.4v-.9c0-.1 0-.2-.1-.3-.3-.3-.8-.5-1.4-.6s-1.2-.1-1.8 0c-.3.1-.6.1-.9.3-.3.1-.5.3-.5.5v3.2c0 .1 0 .2.1.3 0 .1.1.2.2.2.2.1.4.2.7.3.5.1 1 .2 1.4.2.9 0 1.6-.2 2-.4.2-.1.3-.2.4-.4v.2c0 .1-.2.3-.4.4-.4.3-1.1.5-2 .5-.5 0-1 0-1.5-.1l-.8-.3-.3-.3c-.1-.1-.1-.3-.1-.4v-3.3s0-.1.1-.1c0-.1.1-.1.2-.2l.4-.3c.3-.1.6-.2 1-.3.7-.1 1.3-.1 1.9 0s1.2.3 1.5.7c.1.1.1.2.1.4v.9c0 1.3-.1 2.2-.1 2.2" fill="#231f20"/><path d="m125.3 83.3c0 .5-1.1 1-2.5 1s-2.5-.4-2.5-1v-3.3c0-.5 1.1-1 2.5-1s2.5.4 2.5 1z" fill="#f1f1f2"/><path d="m125.3 83.3s0-.9-.1-2.4v-.9c0-.1 0-.2-.1-.3-.3-.3-.8-.5-1.4-.6s-1.2-.1-1.8 0c-.3.1-.6.1-.9.3-.3.1-.5.3-.5.5v3.2c0 .1 0 .2.1.3 0 .1.1.2.2.2.2.1.4.2.7.3.5.1 1 .2 1.4.2.9 0 1.6-.2 2-.4.2-.1.3-.2.4-.4v.2c0 .1-.2.3-.4.4-.4.3-1.1.5-2 .5-.5 0-1 0-1.5-.1l-.8-.3-.3-.3c-.1-.1-.1-.3-.1-.4v-3.3s0-.1.1-.1c0-.1.1-.1.2-.2l.4-.3c.3-.1.6-.2 1-.3.7-.1 1.3-.1 1.9 0s1.2.3 1.5.7c.1.1.1.2.1.4v.9c0 1.3-.1 2.2-.1 2.2" fill="#231f20"/><path d="m55.7 88.3c0 .5-1.1 1-2.5 1s-2.5-.4-2.5-1v-3.3c0-.5 1.1-1 2.5-1s2.5.4 2.5 1z" fill="#f1f1f2"/><path d="m55.7 88.3s0-.9-.1-2.4v-.9c0-.1 0-.2-.1-.3-.3-.3-.8-.5-1.4-.6s-1.2-.1-1.8 0c-.3.1-.6.1-.9.3-.3.1-.5.3-.5.5v3.2c0 .1 0 .2.1.3 0 .1.1.2.2.2.2.1.4.2.7.3.5.1 1 .2 1.4.2.9 0 1.6-.2 2-.4.2-.1.3-.2.4-.4v.2c0 .1-.2.2-.4.4-.4.3-1.1.5-2 .5-.5 0-1 0-1.5-.1l-.8-.3-.3-.3c-.1-.1-.1-.3-.1-.4v-3.3s0-.1.1-.1c0-.1.1-.1.2-.2l.4-.3c.3-.1.6-.2 1-.3.7-.1 1.3-.1 1.9 0s1.2.3 1.5.7c.1.1.1.2.1.4v.9c-.1 1.3-.1 2.2-.1 2.2" fill="#231f20"/><path d="m62.6 88.3c0 .5-1.1 1-2.5 1s-2.5-.4-2.5-1v-3.3c0-.5 1.1-1 2.5-1s2.5.4 2.5 1z" fill="#f1f1f2"/><path d="m62.6 88.3s0-.9-.1-2.4v-.9c0-.1 0-.2-.1-.3-.3-.3-.8-.5-1.4-.6s-1.2-.1-1.8 0c-.3.1-.6.1-.9.3-.3.1-.5.3-.5.5v3.2c0 .1 0 .2.1.3 0 .1.1.2.2.2.2.1.4.2.7.3.5.1 1 .2 1.4.2.9 0 1.6-.2 2-.4.2-.1.3-.2.4-.4 0 .1-.1 0 0 0v.2c0 .1-.2.2-.4.4-.4.3-1.1.5-2 .5-.5 0-1 0-1.5-.1l-.8-.3-.3-.3c-.1-.1-.1-.3-.1-.4v-3.3s0-.1.1-.1c0-.1.1-.1.2-.2l.4-.3c.3-.1.6-.2 1-.3.7-.1 1.3-.1 1.9 0s1.2.3 1.5.7c.1.1.1.2.1.4v.9c-.1 1.3-.1 2.2-.1 2.2" fill="#231f20"/><path d="m69 88.3c0 .5-1.1 1-2.5 1s-2.5-.4-2.5-1v-3.3c0-.5 1.1-1 2.5-1s2.5.4 2.5 1z" fill="#f1f1f2"/><path d="m69 88.3s0-.9-.1-2.4v-.9c0-.1 0-.2-.1-.3-.3-.3-.8-.5-1.4-.6s-1.2-.1-1.8 0c-.3.1-.6.1-.9.3-.3.1-.5.3-.5.5v3.5c0 .1.1.2.2.2.2.1.4.2.7.3.5.1 1 .2 1.4.2.9 0 1.6-.2 2-.4.2-.1.3-.2.4-.4.1.1.1 0 .1 0v.2c0 .1-.2.2-.4.4-.4.3-1.1.5-2 .5-.5 0-1 0-1.5-.1l-.8-.3-.3-.3c-.1-.1-.1-.3-.1-.4v-3.3s0-.1.1-.1c0-.1.1-.1.2-.2l.4-.3c.3-.1.6-.2 1-.3.7-.1 1.3-.1 1.9 0s1.2.3 1.5.7c.1.1.1.2.1.4v.9c-.1 1.3-.1 2.2-.1 2.2" fill="#231f20"/><path d="m75.5 88.3c0 .5-1.1 1-2.5 1s-2.5-.4-2.5-1v-3.3c0-.5 1.1-1 2.5-1s2.5.4 2.5 1z" fill="#f1f1f2"/><path d="m75.5 88.3s0-.9-.1-2.4v-.9c0-.1 0-.2-.1-.3-.3-.3-.8-.5-1.4-.6s-1.2-.1-1.8 0c-.3.1-.6.1-.9.3-.3.1-.5.3-.5.5v3.2c0 .1 0 .2.1.3 0 .1.1.2.2.2.2.1.4.2.7.3.5.1 1 .2 1.4.2.9 0 1.6-.2 2-.4.2-.1.3-.2.4-.4 0 .1-.1 0 0 0v.2c0 .1-.1.2-.4.4-.4.3-1.1.5-2 .5-.5 0-1 0-1.5-.1l-.8-.3-.3-.3c-.1-.1-.1-.3-.1-.4v-3.3s0-.1.1-.1c0-.1.1-.1.2-.2l.4-.3c.3-.1.6-.2 1-.3.7-.1 1.3-.1 1.9 0s1.2.3 1.5.7c.1.1.1.2.1.4v.9c-.1 1.3-.1 2.2-.1 2.2" fill="#231f20"/><path d="m81.9 88.3c0 .5-1.1 1-2.5 1s-2.5-.4-2.5-1v-3.3c0-.5 1.1-1 2.5-1s2.5.4 2.5 1z" fill="#f1f1f2"/><path d="m81.9 88.3s0-.9-.1-2.4v-.9c0-.1 0-.2-.1-.3-.3-.3-.8-.5-1.4-.6s-1.2-.1-1.8 0c-.3.1-.6.1-.9.3-.3.1-.5.3-.5.5v3.2c0 .1 0 .2.1.3 0 .1.1.2.2.2.2.1.4.2.7.3.5.1 1 .2 1.4.2.9 0 1.6-.2 2-.4.2-.1.3-.2.4-.4v.2c0 .1-.2.2-.4.4-.4.3-1.1.5-2 .5-.4 0-1 0-1.5-.1l-.8-.3-.3-.3c-.1-.1-.1-.3-.1-.4v-3.3s0-.1.1-.1c0-.1.1-.1.2-.2l.4-.3c.3-.1.6-.2 1-.3.7-.1 1.3-.1 1.9 0s1.2.3 1.5.7c.1 0 .1.1.1.2v.9c-.1 1.5-.1 2.4-.1 2.4" fill="#231f20"/><path d="m88.4 88.3c0 .5-1.1 1-2.5 1s-2.5-.4-2.5-1v-3.3c0-.5 1.1-1 2.5-1s2.5.4 2.5 1z" fill="#f1f1f2"/><path d="m88.4 88.3s0-.9-.1-2.4v-.9c0-.1 0-.2-.1-.3-.3-.3-.8-.5-1.4-.6s-1.2-.1-1.8 0c-.3.1-.6.1-.9.3-.3.1-.5.3-.5.5v3.5c0 .1.1.2.2.2.2.1.4.2.7.3.5.1 1 .2 1.4.2.9 0 1.6-.2 2-.4.2-.1.3-.2.4-.4h.1v.2c0 .1-.2.2-.4.4-.4.3-1.1.5-2 .5-.5 0-1 0-1.5-.1l-.8-.3-.3-.3c-.1-.1-.1-.3-.1-.4v-3.3s0-.1.1-.1c0-.1.1-.1.2-.2l.4-.3c.3-.1.6-.2 1-.3.7-.1 1.3-.1 1.9 0s1.2.3 1.5.7c.1.1.1.2.1.4v.9c-.1 1.3-.1 2.2-.1 2.2" fill="#231f20"/><path d="m94.8 88.3c0 .5-1.1 1-2.5 1s-2.5-.4-2.5-1v-3.3c0-.5 1.1-1 2.5-1s2.5.4 2.5 1z" fill="#f1f1f2"/><path d="m94.8 88.3s0-.9-.1-2.4v-.9c0-.1 0-.2-.1-.3-.3-.3-.8-.5-1.4-.6s-1.2-.1-1.8 0c-.3.1-.6.1-.9.3-.2.2-.5.4-.5.6v3.2c0 .1 0 .2.1.3 0 .1.1.2.2.2.2.1.4.2.7.3.5.1 1 .2 1.4.2.9 0 1.6-.2 2-.4.2-.1.3-.2.4-.4v.1c0 .1-.2.2-.4.4-.4.3-1.1.5-2 .5-.5 0-1 0-1.5-.1l-.8-.3-.3-.3c-.1-.1-.1-.3-.1-.4v-3.3s0-.1.1-.1c0-.1.1-.1.2-.2l.4-.3c.3-.1.6-.2 1-.3.7-.1 1.3-.1 1.9 0s1.2.3 1.5.7c.1.1.1.2.1.4v.9c-.1 1.3-.1 2.2-.1 2.2" fill="#231f20"/><path d="m101.2 88.3c0 .5-1.1 1-2.5 1s-2.5-.4-2.5-1v-3.3c0-.5 1.1-1 2.5-1s2.5.4 2.5 1z" fill="#f1f1f2"/><path d="m101.2 88.3s0-.9-.1-2.4v-.9c0-.1 0-.2-.1-.3-.3-.3-.8-.5-1.4-.6s-1.2-.1-1.8 0c-.3.1-.6.1-.9.3-.3.1-.5.3-.5.5v3.5c0 .1.1.2.2.2.2.1.4.2.7.3.5.1 1 .2 1.4.2.9 0 1.6-.2 2-.4.2-.1.3-.2.4-.4.2.1.1 0 .1 0v.2c0 .1-.2.2-.4.4-.4.3-1.1.5-2 .5-.4 0-1 0-1.5-.1l-.8-.3-.3-.3c-.1-.1-.1-.3-.1-.4v-3.3s0-.1.1-.1c0-.1.1-.1.2-.2l.4-.3c.3-.1.6-.2 1-.3.7-.1 1.3-.1 1.9 0s1.2.3 1.5.7c.1.1.1.2.1.4v.9c0 1.3-.1 2.2-.1 2.2" fill="#231f20"/><path d="m107.7 88.3c0 .5-1.1 1-2.5 1s-2.5-.4-2.5-1v-3.3c0-.5 1.1-1 2.5-1s2.5.4 2.5 1z" fill="#f1f1f2"/><path d="m107.7 88.3s0-.9-.1-2.4v-.9c0-.1 0-.2-.1-.3-.3-.3-.8-.5-1.4-.6s-1.2-.1-1.8 0c-.3.1-.6.1-.9.3-.3.1-.5.3-.5.5v3.2c0 .1 0 .2.1.3 0 .1.1.2.2.2.2.1.4.2.7.3.5.1 1 .2 1.4.2.9 0 1.6-.2 2-.4.2-.1.3-.2.4-.4v.2c0 .1-.2.2-.4.4-.4.3-1.1.5-2 .5-.5 0-1 0-1.5-.1l-.8-.3-.3-.3c-.1-.1-.1-.3-.1-.4v-3.3s0-.1.1-.1c0-.1.1-.1.2-.2l.4-.3c.3-.1.6-.2 1-.3.7-.1 1.3-.1 1.9 0s1.2.3 1.5.7c.1.1.1.2.1.4v.9c-.1 1.3-.1 2.2-.1 2.2" fill="#231f20"/><path d="m114.1 88.3c0 .5-1.1 1-2.5 1s-2.5-.4-2.5-1v-3.3c0-.5 1.1-1 2.5-1s2.5.4 2.5 1z" fill="#f1f1f2"/><path d="m114.1 88.3s0-.9-.1-2.4v-.9c0-.1 0-.2-.1-.3-.3-.3-.8-.5-1.4-.6s-1.2-.1-1.8 0c-.3.1-.6.1-.9.3-.3.1-.5.3-.5.5v3.2c0 .1 0 .2.1.3 0 .1.1.2.2.2.2.1.4.2.7.3.5.1 1 .2 1.4.2.9 0 1.6-.2 2-.4.2-.1.3-.2.4-.4v.2c0 .1-.2.2-.4.4-.4.3-1.1.5-2 .5-.5 0-1 0-1.5-.1l-.8-.3-.3-.3c-.1-.1-.1-.3-.1-.4v-3.3s0-.1.1-.1c0-.1.1-.1.2-.2l.4-.3c.3-.1.6-.2 1-.3.7-.1 1.3-.1 1.9 0s1.2.3 1.5.7c.1.1.1.2.1.4v.9c0 1.3-.1 2.2-.1 2.2" fill="#231f20"/><path d="m120.2 88.3c0 .5-1.1 1-2.5 1s-2.5-.4-2.5-1v-3.3c0-.5 1.1-1 2.5-1s2.5.4 2.5 1z" fill="#f1f1f2"/><path d="m120.2 88.3s0-.9-.1-2.4v-.9c0-.1 0-.2-.1-.3-.3-.3-.8-.5-1.4-.6s-1.2-.1-1.8 0c-.3.1-.6.1-.9.3-.3.1-.5.3-.5.5v3.2c0 .1 0 .2.1.3 0 .1.1.2.2.2.2.1.4.2.7.3.5.1 1 .2 1.4.2.9 0 1.6-.2 2-.4.2-.1.3-.2.4-.4v.2c0 .1-.2.2-.4.4-.4.3-1.1.5-2 .5-.5 0-1 0-1.5-.1l-.8-.3-.3-.3c-.1-.1-.1-.3-.1-.4v-3.3s0-.1.1-.1c0-.1.1-.1.2-.2l.4-.3c.3-.1.6-.2 1-.3.7-.1 1.3-.1 1.9 0s1.2.3 1.5.7c.1.1.1.2.1.4v.9c-.1 1.3-.1 2.2-.1 2.2" fill="#231f20"/><path d="m127 88.3c0 .5-1.1 1-2.5 1s-2.5-.4-2.5-1v-3.3c0-.5 1.1-1 2.5-1s2.5.4 2.5 1z" fill="#f1f1f2"/><path d="m127 88.3s0-.9-.1-2.4v-.9c0-.1 0-.2-.1-.3-.3-.3-.8-.5-1.4-.6s-1.2-.1-1.8 0c-.3.1-.6.1-.9.3-.3.1-.5.3-.5.5v3.2c0 .1 0 .2.1.3 0 .1.1.2.2.2.2.1.4.2.7.3.5.1 1 .2 1.4.2.9 0 1.6-.2 2-.4.2-.1.3-.2.4-.4v.2c0 .1-.2.2-.4.4-.4.3-1.1.5-2 .5-.5 0-1 0-1.5-.1l-.8-.3-.3-.3c-.1-.1-.1-.3-.1-.4v-3.3s0-.1.1-.1c0-.1.1-.1.2-.2l.4-.3c.3-.1.6-.2 1-.3.7-.1 1.3-.1 1.9 0s1.2.3 1.5.7c.1.1.1.2.1.4v.9c0 1.3-.1 2.2-.1 2.2" fill="#231f20"/><path d="m58.3 93.3c0 .5-1.1 1-2.5 1s-2.5-.4-2.5-1v-3.3c0-.5 1.1-1 2.5-1s2.5.4 2.5 1z" fill="#f1f1f2"/><path d="m58.3 93.3s0-.9-.1-2.4v-.9c0-.1 0-.2-.1-.3-.3-.3-.8-.5-1.4-.6s-1.2-.1-1.8 0c-.3 0-.6.1-.9.3-.3.1-.5.3-.5.5v3.2c0 .1 0 .2.1.3 0 .1.1.2.2.2.2.1.4.2.7.3.5.1 1 .2 1.4.2.9 0 1.6-.2 2-.4.2-.1.3-.2.4-.4 0 .1-.1 0 0 0v.2c0 .1-.2.2-.4.4-.4.3-1.1.5-2 .5-.5 0-1 0-1.5-.1l-.8-.3-.3-.3c-.1-.1-.1-.3-.1-.4v-3.3s0-.1.1-.1c0-.1.1-.1.2-.2l.4-.3c.3-.1.6-.2 1-.3.7-.1 1.3-.1 1.9 0s1.2.3 1.5.7c.1.1.1.2.1.4v.9c-.1 1.3-.1 2.2-.1 2.2" fill="#231f20"/><path d="m65.1 93.3c0 .5-1.1 1-2.5 1s-2.5-.4-2.5-1v-3.3c0-.5 1.1-1 2.5-1s2.5.4 2.5 1z" fill="#f1f1f2"/><path d="m65.1 93.3s0-.9-.1-2.4v-.9c0-.1 0-.2-.1-.3-.3-.3-.8-.5-1.4-.6s-1.2-.1-1.8 0c-.3 0-.6.1-.9.3-.3.1-.5.3-.5.5v3.2c0 .1 0 .2.1.3 0 .1.1.2.2.2.2.1.4.2.7.3.5.1 1 .2 1.4.2.9 0 1.6-.2 2-.4.2-.1.3-.2.4-.4v.2c0 .1-.2.2-.4.4-.4.3-1.1.5-2 .5-.5 0-1 0-1.5-.1l-.8-.3-.3-.3c-.1-.1-.1-.3-.1-.4v-3.3s0-.1.1-.1c0-.1.1-.1.2-.2l.4-.3c.3-.1.6-.2 1-.3.7-.1 1.3-.1 1.9 0s1.2.3 1.5.7c.1.1.1.2.1.4v.9c0 1.3-.1 2.2-.1 2.2" fill="#231f20"/><path d="m71.6 93.3c0 .5-1.1 1-2.5 1s-2.5-.4-2.5-1v-3.3c0-.5 1.1-1 2.5-1s2.5.4 2.5 1z" fill="#f1f1f2"/><path d="m71.6 93.3s0-.9-.1-2.4v-.9c0-.1 0-.2-.1-.3-.3-.3-.8-.5-1.4-.6s-1.2-.1-1.8 0c-.3 0-.6.1-.9.3-.3.1-.5.3-.5.5v3.2c0 .1 0 .2.1.3 0 .1.1.2.2.2.2.1.4.2.7.3.5.1 1 .2 1.4.2.9 0 1.6-.2 2-.4.2-.1.3-.2.4-.4v.2c0 .1-.2.2-.4.4-.4.3-1.1.5-2 .5-.5 0-1 0-1.5-.1l-.8-.3-.3-.3c-.1-.1-.1-.3-.1-.4v-3.3s0-.1.1-.1c0-.1.1-.1.2-.2l.4-.3c.3-.1.6-.2 1-.3.7-.1 1.3-.1 1.9 0s1.2.3 1.5.7c.1.1.1.2.1.4v.9c-.1 1.3-.1 2.2-.1 2.2" fill="#231f20"/><path d="m78 93.3c0 .5-1.1 1-2.5 1s-2.5-.4-2.5-1v-3.3c0-.5 1.1-1 2.5-1s2.5.4 2.5 1z" fill="#f1f1f2"/><path d="m78 93.3s0-.9-.1-2.4v-.9c0-.1 0-.2-.1-.3-.3-.3-.8-.5-1.4-.6s-1.2-.1-1.8 0c-.3 0-.6.1-.9.3-.3.1-.5.3-.5.5v3.5c0 .1.1.2.2.2.2.1.4.2.7.3.5.1 1 .2 1.4.2.9 0 1.6-.2 2-.4.2-.1.3-.2.4-.4.1.1.1 0 .1 0v.2c0 .1-.2.2-.4.4-.4.3-1.1.5-2 .5-.5 0-1 0-1.5-.1l-.8-.3-.3-.3c-.1-.1-.1-.3-.1-.4v-3.3s0-.1.1-.1c0-.1.1-.1.2-.2l.4-.3c.3-.1.6-.2 1-.3.7-.1 1.3-.1 1.9 0s1.2.3 1.5.7c.1.1.1.2.1.4v.9c0 1.3-.1 2.2-.1 2.2" fill="#231f20"/><path d="m84.5 93.3c0 .5-1.1 1-2.5 1s-2.5-.4-2.5-1v-3.3c0-.5 1.1-1 2.5-1s2.5.4 2.5 1z" fill="#f1f1f2"/><path d="m84.5 93.3s0-.9-.1-2.4v-.9c0-.1 0-.2-.1-.3-.3-.3-.8-.5-1.4-.6s-1.2-.1-1.8 0c-.3 0-.6.1-.9.3-.3.1-.5.3-.5.5v3.2c0 .1 0 .2.1.3 0 .1.1.2.2.2.2.1.4.2.7.3.5.1 1 .2 1.4.2.9 0 1.6-.2 2-.4.2-.1.3-.2.4-.4v.2c0 .1-.1.2-.4.4-.4.3-1.1.5-2 .5-.5 0-1 0-1.5-.1l-.8-.3-.3-.3c-.1-.1-.1-.3-.1-.4v-3.3s0-.1.1-.1c0-.1.1-.1.2-.2l.4-.3c.3-.1.6-.2 1-.3.7-.1 1.3-.1 1.9 0s1.2.3 1.5.7c.1.1.1.2.1.4v.9c-.1 1.3-.1 2.2-.1 2.2" fill="#231f20"/><path d="m90.9 93.3c0 .5-1.1 1-2.5 1s-2.5-.4-2.5-1v-3.3c0-.5 1.1-1 2.5-1s2.5.4 2.5 1z" fill="#f1f1f2"/><path d="m90.9 93.3s0-.9-.1-2.4v-.9c0-.1 0-.2-.1-.3-.3-.3-.8-.5-1.4-.6s-1.2-.1-1.8 0c-.3 0-.6.1-.9.3-.3.1-.5.3-.5.5v3.2c0 .1 0 .2.1.3 0 .1.1.2.2.2.2.1.4.2.7.3.5.1 1 .2 1.4.2.9 0 1.6-.2 2-.4.2-.1.3-.2.4-.4v.2c0 .1-.2.2-.4.4-.4.3-1.1.5-2 .5-.5 0-1 0-1.5-.1l-.8-.3-.3-.3c-.1-.1-.1-.3-.1-.4v-3.3s0-.1.1-.1c0-.1.1-.1.2-.2l.4-.3c.3-.1.6-.2 1-.3.7-.1 1.3-.1 1.9 0s1.2.3 1.5.7c.1 0 .1.1.1.2v.9c0 1.5-.1 2.4-.1 2.4" fill="#231f20"/><path d="m97.4 93.3c0 .5-1.1 1-2.5 1s-2.5-.4-2.5-1v-3.3c0-.5 1.1-1 2.5-1s2.5.4 2.5 1z" fill="#f1f1f2"/><path d="m97.4 93.3s0-.9-.1-2.4v-.9c0-.1 0-.2-.1-.3-.3-.3-.8-.5-1.4-.6s-1.2-.1-1.8 0c-.3 0-.6.1-.9.3-.3.1-.5.3-.5.5v3.2c0 .1 0 .2.1.3 0 .1.1.2.2.2.2.1.4.2.7.3.5.1 1 .2 1.4.2.9 0 1.6-.2 2-.4.2-.1.3-.2.4-.4v.2c0 .1-.2.2-.4.4-.4.3-1.1.5-2 .5-.5 0-1 0-1.5-.1l-.8-.3-.3-.3c-.1-.1-.1-.3-.1-.4v-3.3s0-.1.1-.1c0-.1.1-.1.2-.2l.4-.3c.3-.1.6-.2 1-.3.7-.1 1.3-.1 1.9 0s1.2.3 1.5.7c.1.1.1.2.1.4v.9c-.1 1.3-.1 2.2-.1 2.2" fill="#231f20"/><path d="m103.8 93.3c0 .5-1.1 1-2.5 1s-2.5-.4-2.5-1v-3.3c0-.5 1.1-1 2.5-1s2.5.4 2.5 1z" fill="#f1f1f2"/><path d="m103.8 93.3s0-.9-.1-2.4v-.9c0-.1 0-.2-.1-.3-.3-.3-.8-.5-1.4-.6s-1.2-.1-1.8 0c-.3 0-.6.1-.9.3-.2.2-.5.4-.5.6v3.2c0 .1 0 .2.1.3 0 .1.1.2.2.2.2.1.4.2.7.3.5.1 1 .2 1.4.2.9 0 1.6-.2 2-.4.2-.1.3-.2.4-.4v.1c0 .1-.2.2-.4.4-.4.3-1.1.5-2 .5-.5 0-1 0-1.5-.1l-.8-.3-.3-.3c-.1-.1-.1-.3-.1-.4v-3.3s0-.1.1-.1c0-.1.1-.1.2-.2l.4-.3c.3-.1.6-.2 1-.3.7-.1 1.3-.1 1.9 0s1.2.3 1.5.7c.1.1.1.2.1.4v.9c0 1.3-.1 2.2-.1 2.2" fill="#231f20"/><path d="m110.3 93.3c0 .5-1.1 1-2.5 1s-2.5-.4-2.5-1v-3.3c0-.5 1.1-1 2.5-1s2.5.4 2.5 1z" fill="#f1f1f2"/><path d="m110.3 93.3s0-.9-.1-2.4v-.9c0-.1 0-.2-.1-.3-.3-.3-.8-.5-1.4-.6s-1.2-.1-1.8 0c-.3 0-.6.1-.9.3-.3.1-.5.3-.5.5v3.2c0 .1 0 .2.1.3 0 .1.1.2.2.2.2.1.4.2.7.3.5.1 1 .2 1.4.2.9 0 1.6-.2 2-.4.2-.1.3-.2.4-.4v.2c0 .1-.2.2-.4.4-.4.3-1.1.5-2 .5-.5 0-1 0-1.5-.1l-.8-.3-.3-.3c-.1-.1-.1-.3-.1-.4v-3.3s0-.1.1-.1c0-.1.1-.1.2-.2l.4-.3c.3-.1.6-.2 1-.3.7-.1 1.3-.1 1.9 0s1.2.3 1.5.7c.1.1.1.2.1.4v.9c-.1 1.3-.1 2.2-.1 2.2" fill="#231f20"/><path d="m117.2 93.3c0 .5-1.1 1-2.5 1s-2.5-.4-2.5-1v-3.3c0-.5 1.1-1 2.5-1s2.5.4 2.5 1z" fill="#f1f1f2"/><g fill="#231f20"><path d="m117.2 93.3s0-.9-.1-2.4v-.9c0-.1 0-.2-.1-.3-.3-.3-.8-.5-1.4-.6s-1.2-.1-1.8 0c-.3 0-.6.1-.9.3-.3.1-.5.3-.5.5v3.5c0 .1.1.2.2.2.2.1.4.2.7.3.5.1 1 .2 1.4.2.9 0 1.6-.2 2-.4.2-.1.3-.2.4-.4.1.1.1 0 .1 0v.2c0 .1-.2.2-.4.4-.4.3-1.1.5-2 .5-.5 0-1 0-1.5-.1l-.8-.3-.3-.3c-.1-.1-.1-.3-.1-.4v-3.3s0-.1.1-.1c0-.1.1-.1.2-.2l.4-.3c.3-.1.6-.2 1-.3.7-.1 1.3-.1 1.9 0s1.2.3 1.5.7c.1.1.1.2.1.4v.9c-.1 1.3-.1 2.2-.1 2.2"/><path d="m86.6 54-.5-.4h-.9l-.5.4h-5.8l5.8 1.5v1h1.7v-1l5.3-1.5z"/><path d="m40.5 81.8c.1-.4-1.1-2.8-1.1-2.8-1.6-.3-3.2 0-3.2 0s-1.2 2.4-1.1 2.8c0 .9 4.3 1.7 5.4 0"/><path d="m40.5 88.2c.1-.4-1.1-2.8-1.1-2.8-1.6-.3-3.2 0-3.2 0s-1.2 2.4-1.1 2.8c0 .9 4.3 1.7 5.4 0"/><path d="m137.2 81.8c.1-.4-1.1-2.8-1.1-2.8-1.6-.3-3.2 0-3.2 0s-1.2 2.4-1.1 2.8c.1.9 4.4 1.7 5.4 0"/><path d="m137.2 88.2c.1-.4-1.1-2.8-1.1-2.8-1.6-.3-3.2 0-3.2 0s-1.2 2.4-1.1 2.8c.1.9 4.4 1.7 5.4 0"/><path d="m118.4 98c0 1.3-1.2 2.3-2.8 2.3h-58.9c-1.5 0-2.8-1-2.8-2.3s1.2-2.3 2.8-2.3h58.9c1.6 0 2.8 1 2.8 2.3"/><path d="m127 93.3c0 .5-1.6 1-3.5 1-2 0-3.5-.4-3.5-1v-3.3c0-.5 1.6-1 3.5-1 2 0 3.5.4 3.5 1z"/></g><path d="m123.5 89.2c2 0 3.3.5 3.3.8v3.3c0 .3-1.3.8-3.3.8s-3.3-.5-3.3-.8v-3.3c0-.3 1.3-.8 3.3-.8m0-.2c-2 0-3.5.4-3.5 1v3.3c0 .5 1.6 1 3.5 1 2 0 3.5-.4 3.5-1v-3.3c0-.5-1.5-1-3.5-1" fill="#fff"/><path d="m51.4 93.3c0 .5-1.6 1-3.7 1-2 0-3.7-.4-3.7-1v-3.3c0-.5 1.6-1 3.7-1 2 0 3.7.4 3.7 1z" fill="#231f20"/><path d="m47.7 89.2c2.1 0 3.4.5 3.4.8v3.3c0 .3-1.3.8-3.4.8s-3.4-.5-3.4-.8v-3.3c0-.3 1.3-.8 3.4-.8m0-.2c-2 0-3.7.4-3.7 1v3.3c0 .5 1.6 1 3.7 1 2 0 3.7-.4 3.7-1v-3.3c0-.5-1.7-1-3.7-1" fill="#fff"/><path d="m28.3 74.7 2-10.5c.8-4 .9-8.7 3.3-12.3 1.3-1.9 3.4-3.4 6-3.4h93.1c3.1 0 5.1 2.1 6.4 4.1.9 1.5 1.2 3.2 1.5 4.8l1.5 7.4 1.9 9.8c0 .2.7.2.6 0l-2-10.4-1.4-7.3c-.3-1.5-.6-2.9-1.4-4.3-1.2-2.1-3.6-4.3-6.6-4.3h-94.2c-5.5 0-7.3 5.7-8 9.2-1.2 5.7-2.2 11.4-3.3 17.2-.1.2.5.2.6 0" fill="#231f20"/><path d="m58.4 18.9c.1.1.1.2 0 .2h-.3c-.1 0-.1 0-.1-.1 0 0 0-.1.1-.1h.1l.4-1.2v-.1l.4 1.2c.1 0 .1 0 .1.1s-.1.1-.2.1h-.2c-.1 0-.1 0-.1-.1s.1-.1.1-.1v-.2h-.4l-.1.2h.2zm.1-1-.2.8h.4zm1 .1h-.3c-.1 0-.1-.1-.1-.1 0-.1.1-.1.1-.1h.3c.1 0 .1.1 0 .2l.1 1h.3c0 .1-.1 0-.1 0h-.5c-.1 0-.1 0-.1-.1 0 0 0-.1.1-.1h.2zm1.2 0h-.3c-.1 0-.1-.1-.1-.1 0-.1.1-.1.1-.1h.3c.1 0 .1.1 0 .2l.1 1h.3c0 .1-.1 0-.1 0h-.5c-.1 0-.1 0-.1-.1 0 0 0-.1.1-.1h.2zm2.6 1-.2-.6-.1.6c0 .2-.1 0 0 .1 0 0-.1 0-.1-.1l-.1-.7s-.1 0-.1-.1 0-.1.1-.1h.2s.1 0 .1.1c0 0 0 .1-.1.1l.1.4.1-.3c0-.1.1-.1.1-.1s.1 0 .1.1l.1.4.1-.6s-.1 0-.1-.1c0 0 0-.1.1-.1h.2s.1 0 .1.1c0 0 0 .1-.1.1l-.4.8c0 .1 0 .1-.1.1zm1.5-.4c0 .3-.2.5-.5.5s-.5-.2-.5-.5.2-.4.5-.5c.3 0 .5.2.5.5zm-.5.4c.2 0 .3-.2.3-.4s-.1-.3-.3-.4c-.2 0-.4.1-.4.3 0 .3.1.5.4.5zm.8-.7c-.1-.1 0-.1 0-.1h.2c.1 0 .1 0 .1.1v.1c.1-.1.3-.2.4-.2s.2.1.2.2-.1.2-.2.2-.1-.1-.1-.1c0-.1.1-.1.1-.1s0-.1-.1-.1-.2 0-.3.2v.5h.1c.1 0 .1 0 .1.1s-.1.1-.1.1h-.3c-.1 0-.1 0-.1-.1v-.1h.2v-.6h-.2zm1.7 0c-.1-.1 0-.1 0-.1h.2c.1 0 .1 0 .1.1 0 0 0 .1-.1.1l-.2.2.2.4h.1s.1 0 .1.1-.1.1-.1.1h-.2c-.1 0-.1 0-.1-.1 0 0 0-.1.1-.1 0-.1-.2-.3-.2-.3 0 .1-.2.2-.2.2v.1h.1s.1 0 .1.1-.1.1-.1.1h-.2c-.1 0-.1 0-.1-.1 0 0 0-.1.1-.1h.1v-1c-.1 0-.1-.1-.1-.1 0-.1.1-.1.1-.1h.1c.1 0 0 .2 0 .2v.5zm1.9.6c0-.2.2-.3.6-.4v-.1c0-.1-.1-.2-.2-.2h-.2v.1c0 .1 0 .1-.1.1s-.1 0-.1-.1.1-.2.3-.3c.2 0 .3.1.4.3v.3c0 .1 0 .2.1.2 0 0 0-.1.1-.1 0 .1-.1.2-.2.2s-.1 0-.2-.1c-.1.1-.2.1-.3.1 0 .2-.2.1-.2 0zm.6-.1v-.1c-.2 0-.2.1-.2.1s0 .1.1.1zm.6-.5h-.1c-.1 0-.1-.1-.1-.1 0-.1.1-.1.1-.1h.1c.1 0 .1.1 0 .2.2-.1.3-.2.4-.2.2 0 .3.1.3.3v.6h.1s.1 0 .1.1-.1.1-.1.1h-.2c-.1 0-.1 0-.1-.1 0 0 0-.1.1-.1h.1v-.6c0-.1 0-.1-.2-.1-.1 0-.2.1-.3.2v.5h.1s.1 0 .1.1-.1.1-.1.1h-.2c-.1 0-.1 0-.1-.1 0 0 0-.1.1-.1h.1zm1.6-.3c-.1-.1 0-.1 0-.1h.2c.1 0 0 .1 0 .1v1h.1s.1 0 .1.1-.1.1-.1.1h-.1c-.1 0-.1 0-.1-.1-.1.1-.2.1-.3.1-.3 0-.4-.2-.4-.5s.2-.5.4-.5c.1 0 .2 0 .3.1v-.3zm-.1.2c-.2 0-.2.1-.2.4 0 .2.1.4.2.4s.3-.1.3-.4c0-.2-.1-.4-.3-.4zm2.1.1h-.1c-.1 0-.1-.1-.1-.1 0-.1.1-.1.1-.1h.1c.1 0 .1.1 0 .2.2-.1.3-.2.4-.2.2 0 .3.1.3.3v.6h.1s.1 0 .1.1-.1.1-.1.1h-.3c-.1 0-.1 0-.1-.1 0 0 0-.1.1-.1h.1v-.6c0-.1 0-.1-.2-.1-.1 0-.2.1-.3.2v.5h.1s.1 0 .1.1-.1.1-.1.1h-.2c-.1 0-.1 0-.1-.1 0 0 0-.1.1-.1h.1zm2 .3c0 .3-.2.5-.5.5s-.5-.2-.5-.5.2-.4.5-.5c.3 0 .5.2.5.5zm-.5.4c.2 0 .3-.2.3-.4s-.1-.3-.3-.4c-.2 0-.4.1-.4.3 0 .3.1.5.4.5zm1.9.3.1-1s-.1 0-.1-.1.1-.1.1-.1h.1c.1 0 .1 0 .1.1.1-.1.2-.1.3-.1.2 0 .5.2.5.5s-.2.5-.5.5c-.1 0-.2 0-.3-.1v.3h.1c.1 0 .1 0 .1.1 0 0 0 .1-.1.1h-.3c-.1-.1-.2-.1-.1-.2zm.2-.7c0 .2.2.4.3.4.2 0 .2-.2.3-.4 0-.2-.2-.4-.3-.4-.2 0-.3.2-.3.4zm1.4-.6h-.3c-.1 0-.1-.1-.1-.1 0-.1.1-.1.1-.1h.3c.1 0 .1.1 0 .2l.1 1h.3c0 .1-.1 0-.1 0h-.5c-.1 0-.1 0-.1-.1 0 0 0-.1.1-.1h.2zm.9.9c0-.2.2-.3.6-.4v-.1c0-.1-.1-.2-.2-.2h-.2v.1c0 .1 0 .1-.1.1s-.1 0-.1-.1.1-.2.3-.3c.2 0 .3.1.4.3v.3c0 .1 0 .2.1.2 0 0 0-.1.1-.1 0 .1-.1.2-.2.2s-.1 0-.2-.1c-.1.1-.2.1-.3.1 0 .2-.2.1-.2 0zm.6-.1v-.1c-.2 0-.2.1-.2.1s0 .1.1.1zm.5-.5c-.1 0-.1-.1 0 0-.1-.1 0-.1 0-.1h.2c.1 0 .1 0 .1.1 0 0 0 .1-.1.1.1.1.3.6.3.6l.2-.6h-.1s-.1 0-.1-.1.1-.1.1-.1h.2c.1 0 .1 0 .1.1 0 0 0 .1-.1.1h-.1l-.2.6c-.1.2-.1.4-.4.4-.1 0-.3-.1-.3-.2s.1-.2.1-.2c.1 0 .1 0 .1.1s-.1.1-.1.1l.1.1c.1 0 .1-.1.2-.3zm3.3.7c.1.1 0 .1 0 .1h-.2s-.1 0-.1-.1c0 0 0-.1.1-.1v-.5c0-.2 0-.2-.1-.2s-.1 0-.2.1v.7s.1 0 .1.1 0 .1-.1.1h-.1s-.1 0-.1-.1c0 0 0-.1.1-.1h.1v-.4c0-.1-.1-.2-.2-.2s-.1 0-.1.2v.4s.1 0 .1.1c0 0 0 .1-.1.1h-.2s-.1 0-.1-.1c0 0 0-.1.1-.1v-.7s-.1 0-.1-.1c0 0 0-.1.1-.1h.1c.1 0 .1 0 .1.1.1-.1.1-.1.2-.1s.2 0 .2.1c0-.1.1-.1.2-.1.2 0 .2.1.2.4zm.4-.1c0-.2.2-.3.6-.4v-.1c0-.1-.1-.2-.2-.2h-.2v.1c0 .1 0 .1-.1.1s-.1 0-.1-.1.1-.2.3-.3c.2 0 .3.1.4.3v.3c0 .1 0 .2.1.2 0 0 0-.1.1-.1 0 .1-.1.2-.2.2s-.1 0-.2-.1c-.1.1-.2.1-.3.1-.1.2-.2.1-.2 0zm.5-.1v-.1c-.2 0-.2.1-.2.1s0 .1.1.1c0 0 .1 0 .1-.1zm1.1-.5c-.1-.1 0-.1 0-.1h.2c.1 0 .1 0 .1.1 0 0 0 .1-.1.1l-.2.2.2.4h.1s.1 0 .1.1-.1.1-.1.1h-.2c-.1 0-.1 0-.1-.1 0 0 0-.1.1-.1 0-.1-.2-.3-.2-.3 0 .1-.2.2-.2.2v.1h.1s.1 0 .1.1-.1.1-.1.1h-.2c-.1 0-.1 0-.1-.1 0 0 0-.1.1-.1h.1v-1c-.1 0-.1-.1-.1-.1 0-.1.1-.1.1-.1h.1c.1 0 0 .2 0 .2v.5zm1.4.5c.1.2-.1.3-.3.3-.3 0-.5-.2-.5-.5s.2-.5.5-.5.5.2.5.4c0 .1-.1.1-.1.1h-.6c0 .2.1.3.3.3.1.1.1-.1.2-.1zm-.7-.3h.7c0-.2-.2-.3-.4-.3-.1 0-.3.1-.3.3zm1.2.6c-.1 0-.1-.1-.1-.1v-.2c0-.1 0-.1.1-.1s.1.1.1.1c.1.1.2.2.3.2s.2-.1.2-.1c0-.1-.1-.2-.4-.2-.2 0-.3-.1-.3-.3s.1-.3.3-.3c.1 0 .2 0 .3.1 0 0 0-.1.1-.1s.1.1.1.1v.1c0 .1 0 .1-.1.1s-.1-.1-.1-.1c0-.1-.2-.1-.3-.1s-.2.1-.2.2c0 0 .2 0 .4.1s.4.2.4.4-.2.3-.4.3c-.1 0-.2 0-.3-.1zm2.6-1.1c-.1-.1 0-.1 0-.1h.5c.1 0 .1 0 .1.1 0 0 0 .1-.1.1h-.2v.7c0 .3-.1.5-.4.5-.2 0-.4-.1-.4-.3 0-.1.1-.2.2-.2s.1 0 .1.1-.1.1-.1.1c.1.1.1.1.2.1s.2 0 .2-.2v-.9zm1 .9c0-.2.2-.3.6-.4v-.1c0-.1-.1-.2-.2-.2h-.2v.1c0 .1 0 .1-.1.1s-.1 0-.1-.1.1-.2.3-.3c.2 0 .3.1.4.3v.3c0 .1 0 .2.1.2 0 0 0-.1.1-.1 0 .1-.1.2-.2.2s-.1 0-.2-.1c-.1.1-.2.1-.3.1-.1.2-.2.1-.2 0zm.5-.1v-.1c-.2 0-.2.1-.2.1s0 .1.1.1c0 0 .1 0 .1-.1zm1.3-.4c0 .1 0 .2-.1.2s-.1-.1-.1-.1c0-.1.1-.1.1-.1s0-.1-.1-.1c-.2 0-.3.1-.3.4 0 .2.1.4.3.4l.3-.1s0-.1.1-.1c0 0 .1 0 .1.1s-.2.3-.4.3c-.3 0-.4-.2-.4-.5s.2-.5.5-.5c-.1-.2 0-.1 0 .1zm1-.1c-.1-.1 0-.1 0-.1h.2c.1 0 .1 0 .1.1 0 0 0 .1-.1.1h-.1l-.2.1.3.4h.1s.1 0 .1.1-.1.1-.1.1h-.2c-.1 0-.1 0-.1-.1 0 0 0-.1.1-.1 0-.1-.2-.3-.2-.3 0 .1-.2.2-.2.2v.2h.1s.1 0 .1.1-.1.1-.1.1h-.2c-.1 0-.1 0-.1-.1 0 0 0-.1.1-.1h.1v-1c-.1 0-.1-.1-.1-.1 0-.1.1-.1.1-.1h.1c.1 0 0 .2 0 .2v.5zm1.9.6c0-.2.2-.3.6-.4v-.1c0-.1-.1-.2-.2-.2h-.2v.1c0 .1 0 .1-.1.1s-.1 0-.1-.1.1-.2.3-.3c.2 0 .3.1.4.3v.3c0 .1 0 .2.1.2 0 0 0-.1.1-.1 0 .1-.1.2-.2.2s-.1 0-.2-.1c-.1.1-.2.1-.3.1 0 .2-.2.1-.2 0zm.6-.1v-.1c-.2 0-.2.1-.2.1s0 .1.1.1zm2.2-.8c-.1-.1 0-.1 0-.1h.2c.1 0 0 .1 0 .1v1h.1s.1 0 .1.1-.1.1-.1.1h-.1c-.1 0-.1 0-.1-.1-.1.1-.2.1-.3.1-.3 0-.4-.2-.4-.5s.2-.5.4-.5c.1 0 .2 0 .3.1v-.3zm-.1.2c-.2 0-.2.1-.2.4 0 .2.1.4.2.4.2 0 .3-.1.3-.4-.1-.2-.2-.4-.3-.4zm.8.1c-.1 0-.1-.1 0 0-.1-.1 0-.1 0-.1h.1s.1 0 .1.1v.5c0 .2.1.2.2.2s.2-.1.3-.2v-.4h-.1c-.1 0-.1-.1-.1-.1 0-.1.1-.1.1-.1h.1c.1 0 .1 0 .1.1v.7h.1s.1 0 .1.1-.1.1-.1.1h-.1c-.1 0-.1 0-.1-.1v-.1c-.1.1-.2.2-.3.2-.2 0-.3-.1-.3-.4zm1.6-.3h-.3c-.1 0-.1-.1-.1-.1 0-.1.1-.1.1-.1h.3c.1 0 .1.1 0 .2l.1 1h.3c0 .1-.1 0-.1 0h-.5c-.1 0-.1 0-.1-.1 0 0 0-.1.1-.1h.2zm1.1 0h-.3c-.1 0-.1-.1-.1-.1 0-.1.1-.1.1-.1h.3c.1 0 .1.1 0 .2l.1 1h.3c0 .1-.1 0-.1 0h-.5c-.1 0-.1 0-.1-.1 0 0 0-.1.1-.1h.2zm2.1 0c-.2 0-.2 0-.2-.1s.1-.1.1-.1h.1c.1 0 .1.1 0 .2l.1.2c.1-.1.2-.1.3-.1.2 0 .4.2.4.5s-.2.5-.4.5c-.1 0-.2 0-.3-.1v-.3zm.4 1c.2 0 .3-.2.3-.4 0-.3-.2-.4-.3-.4-.2 0-.3.1-.3.4 0 .2.1.4.3.4zm1.6-.4c0 .3-.2.5-.5.5s-.5-.2-.5-.5.2-.4.5-.5c.3 0 .5.2.5.5zm-.5.4c.2 0 .3-.2.3-.4s-.1-.3-.3-.4c-.2 0-.4.1-.4.3 0 .3.1.5.4.5zm.8-.7c-.1 0-.1-.1 0 0-.1-.1 0-.1 0-.1h.2c.1 0 .1 0 .1.1 0 0 0 .1-.1.1.1.1.3.6.3.6l.2-.6h-.1s-.1 0-.1-.1.1-.1.1-.1h.2c.1 0 .1 0 .1.1 0 0 0 .1-.1.1h-.1l-.3.7c-.1.2-.1.4-.4.4-.1 0-.3-.1-.3-.2s.1-.2.1-.2c.1 0 .1 0 .1.1s-.1.1-.1.1l.1.1c.1 0 .1-.1.2-.3zm1.6.5c.1 0 .2.1.2.2s-.1.2-.2.2-.2-.1-.2-.2c0-.2.1-.2.2-.2zm-49.8 2.5c.1.1.1.2 0 .2h-.3c-.1 0-.1 0-.1-.1 0 0 0-.1.1-.1h.1l.4-1.2v-.1l.4 1.2c.1 0 .1 0 .1.1s-.1.1-.2.1h-.2c-.1 0-.1 0-.1-.1s.1-.1.1-.1v-.2h-.4l-.1.2h.2zm.1-1-.2.7h.4zm1 .1h-.3c-.1 0-.1-.1-.1-.1 0-.1.1-.1.1-.1h.3c.1 0 .1.1 0 .2l.1 1h.3c0 .1-.1 0-.1 0h-.5c-.1 0-.1 0-.1-.1 0 0 0-.1.1-.1h.2zm1.2 0h-.3c-.1 0-.1-.1-.1-.1 0-.1.1-.1.1-.1h.3c.1 0 .1.1 0 .2l.1 1h.3c0 .1-.1 0-.1 0h-.5c-.1 0-.1 0-.1-.1 0 0 0-.1.1-.1h.2zm2.6 1-.2-.6-.1.6c0 .2-.1 0 0 .1 0 0-.1 0-.1-.1l-.1-.7s-.1 0-.1-.1 0-.1.1-.1h.2s.1 0 .1.1c0 0 0 .1-.1.1l.1.4.1-.3c0-.1.1-.1.1-.1s.1 0 .1.1l.1.4.1-.6s-.1 0-.1-.1c0 0 0-.1.1-.1h.2s.1 0 .1.1c0 0 0 .1-.1.1l-.1.7c0 .1 0 .1-.1.1-.3.1-.3.1-.3 0zm1.5-.4c0 .3-.2.5-.5.5s-.5-.2-.5-.5.2-.4.5-.5c.3 0 .5.2.5.5zm-.5.4c.2 0 .3-.2.3-.4s-.1-.3-.3-.4c-.2 0-.4.1-.4.3 0 .3.1.5.4.5zm.8-.7c-.1-.1 0-.1 0-.1h.2c.1 0 .1 0 .1.1v.1c.1-.1.3-.2.4-.2s.2.1.2.2-.1.2-.2.2-.1-.1-.1-.1c0-.1.1-.1.1-.1s0-.1-.1-.1-.2 0-.3.2v.5h.1c.1 0 .1 0 .1.1s-.1.1-.1.1h-.3c-.1 0-.1 0-.1-.1v-.1h.2v-.6h-.2zm1.7 0c-.1-.1 0-.1 0-.1h.2c.1 0 .1 0 .1.1 0 0 0 .1-.1.1l-.2.2.3.4h.1s.1 0 .1.1-.1.1-.1.1h-.2c-.1 0-.1 0-.1-.1 0 0 0-.1.1-.1 0-.1-.2-.3-.2-.3 0 .1-.2.2-.2.2v.1h.1s.1 0 .1.1-.1.1-.1.1h-.2c-.1 0-.1 0-.1-.1 0 0 0-.1.1-.1h.1v-1c-.1 0-.1-.1-.1-.1 0-.1.1-.1.1-.1h.1c.1 0 0 .2 0 .2v.5c-.2.1.1-.2.1-.2zm1.9.6c0-.2.2-.3.6-.4v-.1c0-.1-.1-.2-.2-.2h-.2v.1c0 .1 0 .1-.1.1s-.1 0-.1-.1.1-.2.3-.3c.2 0 .3.1.4.3v.3c0 .1 0 .2.1.2 0 0 0-.1.1-.1 0 .1-.1.2-.2.2s-.1 0-.2-.1c-.1.1-.2.1-.3.1 0 .2-.2.1-.2 0zm.6-.1v-.1c-.2 0-.2.1-.2.1s0 .1.1.1zm.6-.5h-.1c-.1 0-.1-.1-.1-.1 0-.1.1-.1.1-.1h.1c.1 0 .1.1 0 .2.2-.1.3-.2.4-.2.2 0 .3.1.3.3v.5h.1s.1 0 .1.1-.1.1-.1.1h-.2c-.1 0-.1 0-.1-.1 0 0 0-.1.1-.1h.1v-.6c0-.1 0-.1-.2-.1-.1 0-.2.1-.3.2v.5h.1s.1 0 .1.1-.1.1-.1.1h-.2c-.1 0-.1 0-.1-.1 0 0 0-.1.1-.1h.1zm1.6-.3c-.1-.1 0-.1 0-.1h.2c.1 0 0 .1 0 .1v1h.1s.1 0 .1.1-.1.1-.1.1h-.1c-.1 0-.1 0-.1-.1-.1.1-.2.1-.3.1-.3 0-.4-.2-.4-.5s.2-.5.4-.5c.1 0 .2 0 .3.1v-.3zm-.1.2c-.2 0-.2.1-.2.4 0 .2.1.4.2.4s.3-.1.3-.4c0-.2-.1-.4-.3-.4zm2.1.1h-.1c-.1 0-.1-.1-.1-.1 0-.1.1-.1.1-.1h.1c.1 0 .1.1 0 .2.2-.1.3-.2.4-.2.2 0 .3.1.3.3v.5h.1s.1 0 .1.1-.1.1-.1.1h-.3c-.1 0-.1 0-.1-.1 0 0 0-.1.1-.1h.1v-.6c0-.1 0-.1-.2-.1-.1 0-.2.1-.3.2v.5h.1s.1 0 .1.1-.1.1-.1.1h-.2c-.1 0-.1 0-.1-.1 0 0 0-.1.1-.1h.1zm2 .3c0 .3-.2.5-.5.5s-.5-.2-.5-.5.2-.4.5-.5c.3 0 .5.2.5.5zm-.5.4c.2 0 .3-.2.3-.4s-.1-.3-.3-.4c-.2 0-.4.1-.4.3 0 .3.1.5.4.5zm1.9.3.1-1s-.1 0-.1-.1.1-.1.1-.1h.1c.1 0 .1 0 .1.1.1-.1.2-.1.3-.1.2 0 .5.2.5.5s-.2.5-.5.5c-.1 0-.2 0-.3-.1v.3h.1c.1 0 .1 0 .1.1 0 0 0 .1-.1.1h-.3c-.1-.1-.2-.1-.1-.2zm.2-.7c0 .2.2.4.3.4.2 0 .2-.2.3-.4 0-.2-.2-.4-.3-.4-.2 0-.3.2-.3.4zm1.4-.6h-.3c-.1 0-.1-.1-.1-.1 0-.1.1-.1.1-.1h.3c.1 0 .1.1 0 .2l.1 1h.3c0 .1-.1 0-.1 0h-.5c-.1 0-.1 0-.1-.1 0 0 0-.1.1-.1h.2zm.9.9c0-.2.2-.3.6-.4v-.1c0-.1-.1-.2-.2-.2h-.2v.1c0 .1 0 .1-.1.1s-.1 0-.1-.1.1-.2.3-.3c.2 0 .3.1.4.3v.3c0 .1 0 .2.1.2 0 0 0-.1.1-.1 0 .1-.1.2-.2.2s-.1 0-.2-.1c-.1.1-.2.1-.3.1 0 .2-.2.1-.2 0zm.6-.1v-.1c-.2 0-.2.1-.2.1s0 .1.1.1zm.5-.5c-.1 0-.1-.1 0 0-.1-.1 0-.1 0-.1h.2c.1 0 .1 0 .1.1 0 0 0 .1-.1.1.1.1.3.6.3.6l.2-.6h-.1s-.1 0-.1-.1.1-.1.1-.1h.2c.1 0 .1 0 .1.1 0 0 0 .1-.1.1h-.1l-.2.6c-.1.2-.1.4-.4.4-.1 0-.3-.1-.3-.2s.1-.2.1-.2c.1 0 .1 0 .1.1s-.1.1-.1.1l.1.1c.1 0 .1-.1.2-.3zm3.3.7c.1.1 0 .1 0 .1h-.2s-.1 0-.1-.1c0 0 0-.1.1-.1v-.5c0-.2 0-.2-.1-.2s-.1 0-.2.1v.5s.1 0 .1.1 0 .1-.1.1h-.1s-.1 0-.1-.1c0 0 0-.1.1-.1h.1v-.2c0-.1-.1-.2-.2-.2s-.1 0-.1.2v.4s.1 0 .1.1c0 0 0 .1-.1.1h-.2s-.1 0-.1-.1c0 0 0-.1.1-.1v-.7s-.1 0-.1-.1c0 0 0-.1.1-.1h.1c.1 0 .1 0 .1.1.1-.1.1-.1.2-.1s.2 0 .2.1c0-.1.1-.1.2-.1.2 0 .2.1.2.4zm.4-.1c0-.2.2-.3.6-.4v-.1c0-.1-.1-.2-.2-.2h-.2v.1c0 .1 0 .1-.1.1s-.1 0-.1-.1.1-.2.3-.3c.2 0 .3.1.4.3v.3c0 .1 0 .2.1.2 0 0 0-.1.1-.1 0 .1-.1.2-.2.2s-.1 0-.2-.1c-.1.1-.2.1-.3.1-.1.2-.2.1-.2 0zm.5-.1v-.1c-.2 0-.2.1-.2.1s0 .1.1.1c0 0 .1 0 .1-.1zm1.1-.5c-.1-.1 0-.1 0-.1h.2c.1 0 .1 0 .1.1 0 0 0 .1-.1.1l-.2.2.3.4h.1s.1 0 .1.1-.1.1-.1.1h-.2c-.1 0-.1 0-.1-.1 0 0 0-.1.1-.1 0-.1-.2-.3-.2-.3 0 .1-.2.2-.2.2v.1h.1s.1 0 .1.1-.1.1-.1.1h-.2c-.1 0-.1 0-.1-.1 0 0 0-.1.1-.1h.1v-1c-.1 0-.1-.1-.1-.1 0-.1.1-.1.1-.1h.1c.1 0 0 .2 0 .2v.5c-.2.1.1-.2.1-.2zm1.4.5c.1.2-.1.3-.3.3-.3 0-.5-.2-.5-.5s.2-.5.5-.5.5.2.5.4c0 .1-.1.1-.1.1h-.6c0 .2.1.3.3.3.1.1.1-.1.2-.1zm-.7-.3h.7c0-.2-.2-.3-.4-.3-.1 0-.3.1-.3.3zm1.2.6c-.1 0-.1-.1-.1-.1v-.2c0-.1 0-.1.1-.1s.1.1.1.1c.1.1.2.2.3.2s.2-.1.2-.1c0-.1-.1-.2-.4-.2-.2 0-.3-.1-.3-.3s.1-.3.3-.3c.1 0 .2 0 .3.1 0 0 0-.1.1-.1s.1.1.1.1v.1c0 .1 0 .1-.1.1s-.1-.1-.1-.1c0-.1-.2-.1-.3-.1s-.2.1-.2.2c0 0 .2 0 .4.1s.4.2.4.4-.2.3-.4.3c-.1 0-.2 0-.3-.1zm2.6-1.1c-.1-.1 0-.1 0-.1h.5c.1 0 .1 0 .1.1 0 0 0 .1-.1.1h-.2v.5c0 .3-.1.5-.4.5-.2 0-.4-.1-.4-.3 0-.1.1-.2.2-.2s.1 0 .1.1-.1.1-.1.1c.1.1.1.1.2.1s.2 0 .2-.2v-.7zm1 .9c0-.2.2-.3.6-.4v-.1c0-.1-.1-.2-.2-.2h-.2v.1c0 .1 0 .1-.1.1s-.1 0-.1-.1.1-.2.3-.3c.2 0 .3.1.4.3v.3c0 .1 0 .2.1.2 0 0 0-.1.1-.1 0 .1-.1.2-.2.2s-.1 0-.2-.1c-.1.1-.2.1-.3.1-.1.2-.2.1-.2 0zm.5-.1v-.1c-.2 0-.2.1-.2.1s0 .1.1.1c0 0 .1 0 .1-.1zm1.3-.4c0 .1 0 .2-.1.2s-.1-.1-.1-.1c0-.1.1-.1.1-.1s0-.1-.1-.1c-.2 0-.3.1-.3.4 0 .2.1.4.3.4l.3-.1s0-.1.1-.1c0 0 .1 0 .1.1s-.2.3-.4.3c-.3 0-.4-.2-.4-.5s.2-.5.5-.5c-.1-.2 0-.1 0 .1zm1-.1c-.1-.1 0-.1 0-.1h.2c.1 0 .1 0 .1.1 0 0 0 .1-.1.1h-.1l-.2.1.3.4h.1s.1 0 .1.1-.1.1-.1.1h-.2c-.1 0-.1 0-.1-.1 0 0 0-.1.1-.1 0-.1-.2-.3-.2-.3 0 .1-.2.2-.2.2v.1h.1s.1 0 .1.1-.1.1-.1.1h-.2c-.1 0-.1 0-.1-.1 0 0 0-.1.1-.1h.1v-1c-.1 0-.1-.1-.1-.1 0-.1.1-.1.1-.1h.1c.1 0 0 .2 0 .2v.5c-.1.2.2-.1.2-.1zm1.9.6c0-.2.2-.3.6-.4v-.1c0-.1-.1-.2-.2-.2h-.2v.1c0 .1 0 .1-.1.1s-.1 0-.1-.1.1-.2.3-.3c.2 0 .3.1.4.3v.3c0 .1 0 .2.1.2 0 0 0-.1.1-.1 0 .1-.1.2-.2.2s-.1 0-.2-.1c-.1.1-.2.1-.3.1 0 .2-.2.1-.2 0zm.6-.1v-.1c-.2 0-.2.1-.2.1s0 .1.1.1zm2.2-.8c-.1-.1 0-.1 0-.1h.2c.1 0 0 .1 0 .1v1h.1s.1 0 .1.1-.1.1-.1.1h-.1c-.1 0-.1 0-.1-.1-.1.1-.2.1-.3.1-.3 0-.4-.2-.4-.5s.2-.5.4-.5c.1 0 .2 0 .3.1v-.3zm-.1.2c-.2 0-.2.1-.2.4 0 .2.1.4.2.4.2 0 .3-.1.3-.4-.1-.2-.2-.4-.3-.4zm.8.1c-.1 0-.1-.1 0 0-.1-.1 0-.1 0-.1h.1s.1 0 .1.1v.5c0 .2.1.2.2.2s.2-.1.3-.2v-.4h-.1c-.1 0-.1-.1-.1-.1 0-.1.1-.1.1-.1h.1c.1 0 .1 0 .1.1v.7h.1s.1 0 .1.1-.1.1-.1.1h-.1c-.1 0-.1 0-.1-.1v-.1c-.1.1-.2.2-.3.2-.2 0-.3-.1-.3-.4zm1.6-.3h-.3c-.1 0-.1-.1-.1-.1 0-.1.1-.1.1-.1h.3c.1 0 .1.1 0 .2l.1 1h.3c0 .1-.1 0-.1 0h-.5c-.1 0-.1 0-.1-.1 0 0 0-.1.1-.1h.2zm1.1 0h-.3c-.1 0-.1-.1-.1-.1 0-.1.1-.1.1-.1h.3c.1 0 .1.1 0 .2l.1 1h.3c0 .1-.1 0-.1 0h-.5c-.1 0-.1 0-.1-.1 0 0 0-.1.1-.1h.2zm2.1 0c-.2 0-.2 0-.2-.1s.1-.1.1-.1h.1c.1 0 .1.1 0 .2l.1.2c.1-.1.2-.1.3-.1.2 0 .4.2.4.5s-.2.5-.4.5c-.1 0-.2 0-.3-.1v-.3zm.4 1c.2 0 .3-.2.3-.4 0-.3-.2-.4-.3-.4-.2 0-.3.1-.3.4 0 .2.1.4.3.4zm1.6-.4c0 .3-.2.5-.5.5s-.5-.2-.5-.5.2-.4.5-.5c.3 0 .5.2.5.5zm-.5.4c.2 0 .3-.2.3-.4s-.1-.3-.3-.4c-.2 0-.4.1-.4.3 0 .3.1.5.4.5zm.8-.7c-.1 0-.1-.1 0 0-.1-.1 0-.1 0-.1h.2c.1 0 .1 0 .1.1 0 0 0 .1-.1.1.1.1.3.6.3.6l.2-.6h-.1s-.1 0-.1-.1.1-.1.1-.1h.2c.1 0 .1 0 .1.1 0 0 0 .1-.1.1h-.1l-.3.7c-.1.2-.1.4-.4.4-.1 0-.3-.1-.3-.2s.1-.2.1-.2c.1 0 .1 0 .1.1s-.1.1-.1.1l.1.1c.1 0 .1-.1.2-.3zm1.6.5c.1 0 .2.1.2.2s-.1.2-.2.2-.2-.1-.2-.2c0-.2.1-.2.2-.2zm-49.8 2.5c.1.1.1.2 0 .2h-.3c-.1 0-.1 0-.1-.1 0 0 0-.1.1-.1h.1l.4-1.2v-.1l.4 1.2c.1 0 .1 0 .1.1s-.1.1-.2.1h-.2c-.1 0-.1 0-.1-.1s.1-.1.1-.1v-.2h-.4l-.1.2h.2zm.1-1-.2.8h.4zm1 .1h-.3c-.1 0-.1-.1-.1-.1 0-.1.1-.1.1-.1h.3c.1 0 .1.1 0 .2l.1 1h.3c0 .1-.1 0-.1 0h-.5c-.1 0-.1 0-.1-.1 0 0 0-.1.1-.1h.2zm1.2 0h-.3c-.1 0-.1-.1-.1-.1 0-.1.1-.1.1-.1h.3c.1 0 .1.1 0 .2l.1 1h.3c0 .1-.1 0-.1 0h-.5c-.1 0-.1 0-.1-.1 0 0 0-.1.1-.1h.2zm2.6 1-.2-.6-.1.6c0 .2-.1 0 0 .1 0 0-.1 0-.1-.1l-.1-.7s-.1 0-.1-.1 0-.1.1-.1h.2s.1 0 .1.1c0 0 0 .1-.1.1l.1.4.1-.3c0-.1.1-.1.1-.1s.1 0 .1.1l.1.4.1-.6s-.1 0-.1-.1c0 0 0-.1.1-.1h.2s.1 0 .1.1c0 0 0 .1-.1.1l-.1.7c0 .1 0 .1-.1.1-.3.1-.3.1-.3 0zm1.5-.4c0 .3-.2.5-.5.5s-.5-.2-.5-.5.2-.4.5-.5c.3 0 .5.2.5.5zm-.5.4c.2 0 .3-.2.3-.4s-.1-.3-.3-.4c-.2 0-.4.1-.4.3 0 .3.1.5.4.5zm.8-.7c-.1-.1 0-.1 0-.1h.2c.1 0 .1 0 .1.1v.1c.1-.1.3-.2.4-.2s.2.1.2.2-.1.2-.2.2-.1-.1-.1-.1c0-.1.1-.1.1-.1s0-.1-.1-.1-.2 0-.3.2v.5h.1c.1 0 .1 0 .1.1s-.1.1-.1.1h-.3c-.1 0-.1 0-.1-.1v-.1h.2v-.6h-.2zm1.7 0c-.1-.1 0-.1 0-.1h.2c.1 0 .1 0 .1.1 0 0 0 .1-.1.1l-.2.2.3.4h.1s.1 0 .1.1-.1.1-.1.1h-.2c-.1 0-.1 0-.1-.1 0 0 0-.1.1-.1 0-.1-.2-.3-.2-.3 0 .1-.2.2-.2.2v.1h.1s.1 0 .1.1-.1.1-.1.1h-.2c-.1 0-.1 0-.1-.1 0 0 0-.1.1-.1h.1v-1c-.1 0-.1-.1-.1-.1 0-.1.1-.1.1-.1h.1c.1 0 0 .2 0 .2v.5c-.2.1.1-.2.1-.2zm1.9.6c0-.2.2-.3.6-.4v-.1c0-.1-.1-.2-.2-.2h-.2v.1c0 .1 0 .1-.1.1s-.1 0-.1-.1.1-.2.3-.3c.2 0 .3.1.4.3v.3c0 .1 0 .2.1.2 0 0 0-.1.1-.1 0 .1-.1.2-.2.2s-.1 0-.2-.1c-.1.1-.2.1-.3.1 0 .2-.2.1-.2 0zm.6-.1v-.1c-.2 0-.2.1-.2.1s0 .1.1.1zm.6-.5h-.1c-.1 0-.1-.1-.1-.1 0-.1.1-.1.1-.1h.1c.1 0 .1.1 0 .2.2-.1.3-.2.4-.2.2 0 .3.1.3.3v.5h.1s.1 0 .1.1-.1.1-.1.1h-.2c-.1 0-.1 0-.1-.1 0 0 0-.1.1-.1h.1v-.6c0-.1 0-.1-.2-.1-.1 0-.2.1-.3.2v.5h.1s.1 0 .1.1-.1.1-.1.1h-.2c-.1 0-.1 0-.1-.1 0 0 0-.1.1-.1h.1zm1.6-.3c-.1-.1 0-.1 0-.1h.2c.1 0 0 .1 0 .1v1h.1s.1 0 .1.1-.1.1-.1.1h-.1c-.1 0-.1 0-.1-.1-.1.1-.2.1-.3.1-.3 0-.4-.2-.4-.5s.2-.5.4-.5c.1 0 .2 0 .3.1v-.3zm-.1.2c-.2 0-.2.1-.2.4 0 .2.1.4.2.4s.3-.1.3-.4c0-.2-.1-.4-.3-.4zm2.1.1h-.1c-.1 0-.1-.1-.1-.1 0-.1.1-.1.1-.1h.1c.1 0 .1.1 0 .2.2-.1.3-.2.4-.2.2 0 .3.1.3.3v.5h.1s.1 0 .1.1-.1.1-.1.1h-.3c-.1 0-.1 0-.1-.1 0 0 0-.1.1-.1h.1v-.6c0-.1 0-.1-.2-.1-.1 0-.2.1-.3.2v.5h.1s.1 0 .1.1-.1.1-.1.1h-.2c-.1 0-.1 0-.1-.1 0 0 0-.1.1-.1h.1zm2 .3c0 .3-.2.5-.5.5s-.5-.2-.5-.5.2-.4.5-.5c.3 0 .5.2.5.5zm-.5.4c.2 0 .3-.2.3-.4s-.1-.3-.3-.4c-.2 0-.4.1-.4.3 0 .3.1.5.4.5zm1.9.3.1-1s-.1 0-.1-.1.1-.1.1-.1h.1c.1 0 .1 0 .1.1.1-.1.2-.1.3-.1.2 0 .5.2.5.5s-.2.5-.5.5c-.1 0-.2 0-.3-.1v.3h.1c.1 0 .1 0 .1.1 0 0 0 .1-.1.1h-.3c-.1-.1-.2-.1-.1-.2zm.2-.7c0 .2.2.4.3.4.2 0 .2-.2.3-.4 0-.2-.2-.4-.3-.4-.2 0-.3.2-.3.4zm1.4-.6h-.3c-.1 0-.1-.1-.1-.1 0-.1.1-.1.1-.1h.3c.1 0 .1.1 0 .2l.1 1h.3c0 .1-.1 0-.1 0h-.5c-.1 0-.1 0-.1-.1 0 0 0-.1.1-.1h.2zm.9.9c0-.2.2-.3.6-.4v-.1c0-.1-.1-.2-.2-.2h-.2v.1c0 .1 0 .1-.1.1s-.1 0-.1-.1.1-.2.3-.3c.2 0 .3.1.4.3v.3c0 .1 0 .2.1.2 0 0 0-.1.1-.1 0 .1-.1.2-.2.2s-.1 0-.2-.1c-.1.1-.2.1-.3.1 0 .2-.2.1-.2 0zm.6-.1v-.1c-.2 0-.2.1-.2.1s0 .1.1.1zm.5-.5c-.1 0-.1-.1 0 0-.1-.1 0-.1 0-.1h.2c.1 0 .1 0 .1.1 0 0 0 .1-.1.1.1.1.3.6.3.6l.2-.6h-.1s-.1 0-.1-.1.1-.1.1-.1h.2c.1 0 .1 0 .1.1 0 0 0 .1-.1.1h-.1l-.2.6c-.1.2-.1.4-.4.4-.1 0-.3-.1-.3-.2s.1-.2.1-.2c.1 0 .1 0 .1.1s-.1.1-.1.1l.1.1c.1 0 .1-.1.2-.3zm3.3.7c.1.1 0 .1 0 .1h-.2s-.1 0-.1-.1c0 0 0-.1.1-.1v-.5c0-.2 0-.2-.1-.2s-.1 0-.2.1v.5s.1 0 .1.1 0 .1-.1.1h-.1s-.1 0-.1-.1c0 0 0-.1.1-.1h.1v-.4c0-.1-.1-.2-.2-.2s-.1 0-.1.2v.4s.1 0 .1.1c0 0 0 .1-.1.1h-.2s-.1 0-.1-.1c0 0 0-.1.1-.1v-.7s-.1 0-.1-.1c0 0 0-.1.1-.1h.1c.1 0 .1 0 .1.1.1-.1.1-.1.2-.1s.2 0 .2.1c0-.1.1-.1.2-.1.2 0 .2.1.2.4zm.4-.1c0-.2.2-.3.6-.4v-.1c0-.1-.1-.2-.2-.2h-.2v.1c0 .1 0 .1-.1.1s-.1 0-.1-.1.1-.2.3-.3c.2 0 .3.1.4.3v.3c0 .1 0 .2.1.2 0 0 0-.1.1-.1 0 .1-.1.2-.2.2s-.1 0-.2-.1c-.1.1-.2.1-.3.1-.1.2-.2.1-.2 0zm.5-.1v-.1c-.2 0-.2.1-.2.1s0 .1.1.1c0 0 .1 0 .1-.1zm1.1-.5c-.1-.1 0-.1 0-.1h.2c.1 0 .1 0 .1.1 0 0 0 .1-.1.1l-.2.2.3.4h.1s.1 0 .1.1-.1.1-.1.1h-.2c-.1 0-.1 0-.1-.1 0 0 0-.1.1-.1 0-.1-.2-.3-.2-.3 0 .1-.2.2-.2.2v.1h.1s.1 0 .1.1-.1.1-.1.1h-.2c-.1 0-.1 0-.1-.1 0 0 0-.1.1-.1h.1v-1c-.1 0-.1-.1-.1-.1 0-.1.1-.1.1-.1h.1c.1 0 0 .2 0 .2v.5c-.2.1.1-.2.1-.2zm1.4.5c.1.2-.1.3-.3.3-.3 0-.5-.2-.5-.5s.2-.5.5-.5.5.2.5.4c0 .1-.1.1-.1.1h-.6c0 .2.1.3.3.3.1.1.1-.1.2-.1zm-.7-.3h.7c0-.2-.2-.3-.4-.3-.1 0-.3.1-.3.3zm1.2.6c-.1 0-.1-.1-.1-.1v-.2c0-.1 0-.1.1-.1s.1.1.1.1c.1.1.2.2.3.2s.2-.1.2-.1c0-.1-.1-.2-.4-.2-.2 0-.3-.1-.3-.3s.1-.3.3-.3c.1 0 .2 0 .3.1 0 0 0-.1.1-.1s.1.1.1.1v.1c0 .1 0 .1-.1.1s-.1-.1-.1-.1c0-.1-.2-.1-.3-.1s-.2.1-.2.2c0 0 .2 0 .4.1s.4.2.4.4-.2.3-.4.3c-.1 0-.2 0-.3-.1zm2.6-1.1c-.1-.1 0-.1 0-.1h.5c.1 0 .1 0 .1.1 0 0 0 .1-.1.1h-.2v.7c0 .3-.1.5-.4.5-.2 0-.4-.1-.4-.3 0-.1.1-.2.2-.2s.1 0 .1.1-.1.1-.1.1c.1.1.1.1.2.1s.2 0 .2-.2v-.7h-.1zm1 .9c0-.2.2-.3.6-.4v-.1c0-.1-.1-.2-.2-.2h-.2v.1c0 .1 0 .1-.1.1s-.1 0-.1-.1.1-.2.3-.3c.2 0 .3.1.4.3v.3c0 .1 0 .2.1.2 0 0 0-.1.1-.1 0 .1-.1.2-.2.2s-.1 0-.2-.1c-.1.1-.2.1-.3.1-.1.2-.2.1-.2 0zm.5-.1v-.1c-.2 0-.2.1-.2.1s0 .1.1.1c0 0 .1 0 .1-.1zm1.3-.4c0 .1 0 .2-.1.2s-.1-.1-.1-.1c0-.1.1-.1.1-.1s0-.1-.1-.1c-.2 0-.3.1-.3.4 0 .2.1.4.3.4l.3-.1s0-.1.1-.1c0 0 .1 0 .1.1s-.2.3-.4.3c-.3 0-.4-.2-.4-.5s.2-.5.5-.5c-.1-.2 0-.1 0 .1zm1-.1c-.1-.1 0-.1 0-.1h.2c.1 0 .1 0 .1.1 0 0 0 .1-.1.1h-.1l-.2.1.3.4h.1s.1 0 .1.1-.1.1-.1.1h-.2c-.1 0-.1 0-.1-.1 0 0 0-.1.1-.1 0-.1-.2-.3-.2-.3 0 .1-.2.2-.2.2v.1h.1s.1 0 .1.1-.1.1-.1.1h-.2c-.1 0-.1 0-.1-.1 0 0 0-.1.1-.1h.1v-1c-.1 0-.1-.1-.1-.1 0-.1.1-.1.1-.1h.1c.1 0 0 .2 0 .2v.5c-.1.2.2-.1.2-.1zm1.9.6c0-.2.2-.3.6-.4v-.1c0-.1-.1-.2-.2-.2h-.2v.1c0 .1 0 .1-.1.1s-.1 0-.1-.1.1-.2.3-.3c.2 0 .3.1.4.3v.3c0 .1 0 .2.1.2 0 0 0-.1.1-.1 0 .1-.1.2-.2.2s-.1 0-.2-.1c-.1.1-.2.1-.3.1 0 .2-.2.1-.2 0zm.6-.1v-.1c-.2 0-.2.1-.2.1s0 .1.1.1zm2.2-.8c-.1-.1 0-.1 0-.1h.2c.1 0 0 .1 0 .1v1h.1s.1 0 .1.1-.1.1-.1.1h-.1c-.1 0-.1 0-.1-.1-.1.1-.2.1-.3.1-.3 0-.4-.2-.4-.5s.2-.5.4-.5c.1 0 .2 0 .3.1v-.3zm-.1.2c-.2 0-.2.1-.2.4 0 .2.1.4.2.4.2 0 .3-.1.3-.4-.1-.2-.2-.4-.3-.4zm.8.1c-.1 0-.1-.1 0 0-.1-.1 0-.1 0-.1h.1s.1 0 .1.1v.5c0 .2.1.2.2.2s.2-.1.3-.2v-.4h-.1c-.1 0-.1-.1-.1-.1 0-.1.1-.1.1-.1h.1c.1 0 .1 0 .1.1v.7h.1s.1 0 .1.1-.1.1-.1.1h-.1c-.1 0-.1 0-.1-.1v-.1c-.1.1-.2.2-.3.2-.2 0-.3-.1-.3-.4zm1.6-.3h-.3c-.1 0-.1-.1-.1-.1 0-.1.1-.1.1-.1h.3c.1 0 .1.1 0 .2l.1 1h.3c0 .1-.1 0-.1 0h-.5c-.1 0-.1 0-.1-.1 0 0 0-.1.1-.1h.2zm1.1 0h-.3c-.1 0-.1-.1-.1-.1 0-.1.1-.1.1-.1h.3c.1 0 .1.1 0 .2l.1 1h.3c0 .1-.1 0-.1 0h-.5c-.1 0-.1 0-.1-.1 0 0 0-.1.1-.1h.2zm2.1 0c-.2 0-.2 0-.2-.1s.1-.1.1-.1h.1c.1 0 .1.1 0 .2l.1.2c.1-.1.2-.1.3-.1.2 0 .4.2.4.5s-.2.5-.4.5c-.1 0-.2 0-.3-.1v-.3zm.4 1c.2 0 .3-.2.3-.4 0-.3-.2-.4-.3-.4-.2 0-.3.1-.3.4 0 .2.1.4.3.4zm1.6-.4c0 .3-.2.5-.5.5s-.5-.2-.5-.5.2-.4.5-.5c.3 0 .5.2.5.5zm-.5.4c.2 0 .3-.2.3-.4s-.1-.3-.3-.4c-.2 0-.4.1-.4.3 0 .3.1.5.4.5zm.8-.7c-.1 0-.1-.1 0 0-.1-.1 0-.1 0-.1h.2c.1 0 .1 0 .1.1 0 0 0 .1-.1.1.1.1.3.6.3.6l.2-.6h-.1s-.1 0-.1-.1.1-.1.1-.1h.2c.1 0 .1 0 .1.1 0 0 0 .1-.1.1h-.1l-.3.7c-.1.2-.1.4-.4.4-.1 0-.3-.1-.3-.2s.1-.2.1-.2c.1 0 .1 0 .1.1s-.1.1-.1.1l.1.1c.1 0 .1-.1.2-.3zm1.6.5c.1 0 .2.1.2.2s-.1.2-.2.2-.2-.1-.2-.2c0-.2.1-.2.2-.2zm-49.8 2.5c.1.1.1.2 0 .2h-.3c-.1 0-.1 0-.1-.1 0 0 0-.1.1-.1h.1l.4-1.2v-.1l.4 1.2c.1 0 .1 0 .1.1s-.1.1-.2.1h-.2c-.1 0-.1 0-.1-.1s.1-.1.1-.1v-.2h-.4l-.1.2h.2zm.1-1-.2.8h.4zm1 .1h-.3c-.1 0-.1-.1-.1-.1 0-.1.1-.1.1-.1h.3c.1 0 .1.1 0 .2l.1 1h.3c0 .1-.1 0-.1 0h-.5c-.1 0-.1 0-.1-.1 0 0 0-.1.1-.1h.2zm1.2 0h-.3c-.1 0-.1-.1-.1-.1 0-.1.1-.1.1-.1h.3c.1 0 .1.1 0 .2l.1 1h.3c0 .1-.1 0-.1 0h-.5c-.1 0-.1 0-.1-.1 0 0 0-.1.1-.1h.2zm2.6 1-.2-.6-.1.6c0 .2-.1 0 0 .1 0 0-.1 0-.1-.1l-.1-.7s-.1 0-.1-.1 0-.1.1-.1h.2s.1 0 .1.1c0 0 0 .1-.1.1l.1.4.1-.3c0-.1.1-.1.1-.1s.1 0 .1.1l.1.4.1-.6s-.1 0-.1-.1c0 0 0-.1.1-.1h.2s.1 0 .1.1c0 0 0 .1-.1.1l-.1.7c0 .1 0 .1-.1.1-.3.1-.3.1-.3 0zm1.5-.4c0 .3-.2.5-.5.5s-.5-.2-.5-.5.2-.4.5-.5c.3 0 .5.2.5.5zm-.5.4c.2 0 .3-.2.3-.4s-.1-.3-.3-.4c-.2 0-.4.1-.4.3 0 .3.1.5.4.5zm.8-.7c-.1-.1 0-.1 0-.1h.2c.1 0 .1 0 .1.1v.1c.1-.1.3-.2.4-.2s.2.1.2.2-.1.2-.2.2-.1-.1-.1-.1c0-.1.1-.1.1-.1s0-.1-.1-.1-.2 0-.3.2v.5h.1c.1 0 .1 0 .1.1s-.1.1-.1.1h-.3c-.1 0-.1 0-.1-.1v-.1h.2v-.6h-.2zm1.7 0c-.1-.1 0-.1 0-.1h.2c.1 0 .1 0 .1.1 0 0 0 .1-.1.1l-.2.2.3.4h.1s.1 0 .1.1-.1.1-.1.1h-.2c-.1 0-.1 0-.1-.1 0 0 0-.1.1-.1 0-.1-.2-.3-.2-.3 0 .1-.2.2-.2.2v.1h.1s.1 0 .1.1-.1.1-.1.1h-.2c-.1 0-.1 0-.1-.1 0 0 0-.1.1-.1h.1v-1c-.1 0-.1-.1-.1-.1 0-.1.1-.1.1-.1h.1c.1 0 0 .2 0 .2v.5c-.2.1.1-.2.1-.2zm1.9.6c0-.2.2-.3.6-.4v-.1c0-.1-.1-.2-.2-.2h-.2v.1c0 .1 0 .1-.1.1s-.1 0-.1-.1.1-.2.3-.3c.2 0 .3.1.4.3v.3c0 .1 0 .2.1.2 0 0 0-.1.1-.1 0 .1-.1.2-.2.2s-.1 0-.2-.1c-.1.1-.2.1-.3.1 0 .2-.2.1-.2 0zm.6-.1v-.1c-.2 0-.2.1-.2.1s0 .1.1.1zm.6-.5h-.1c-.1 0-.1-.1-.1-.1 0-.1.1-.1.1-.1h.1c.1 0 .1.1 0 .2.2-.1.3-.2.4-.2.2 0 .3.1.3.3v.5h.1s.1 0 .1.1-.1.1-.1.1h-.2c-.1 0-.1 0-.1-.1 0 0 0-.1.1-.1h.1v-.6c0-.1 0-.1-.2-.1-.1 0-.2.1-.3.2v.5h.1s.1 0 .1.1-.1.1-.1.1h-.2c-.1 0-.1 0-.1-.1 0 0 0-.1.1-.1h.1zm1.6-.3c-.1-.1 0-.1 0-.1h.2c.1 0 0 .1 0 .1v1h.1s.1 0 .1.1-.1.1-.1.1h-.1c-.1 0-.1 0-.1-.1-.1.1-.2.1-.3.1-.3 0-.4-.2-.4-.5s.2-.5.4-.5c.1 0 .2 0 .3.1v-.3zm-.1.2c-.2 0-.2.1-.2.4 0 .2.1.4.2.4s.3-.1.3-.4c0-.2-.1-.4-.3-.4zm2.1.1h-.1c-.1 0-.1-.1-.1-.1 0-.1.1-.1.1-.1h.1c.1 0 .1.1 0 .2.2-.1.3-.2.4-.2.2 0 .3.1.3.3v.5h.1s.1 0 .1.1-.1.1-.1.1h-.3c-.1 0-.1 0-.1-.1 0 0 0-.1.1-.1h.1v-.6c0-.1 0-.1-.2-.1-.1 0-.2.1-.3.2v.5h.1s.1 0 .1.1-.1.1-.1.1h-.2c-.1 0-.1 0-.1-.1 0 0 0-.1.1-.1h.1zm2 .3c0 .3-.2.5-.5.5s-.5-.2-.5-.5.2-.4.5-.5c.3 0 .5.2.5.5zm-.5.4c.2 0 .3-.2.3-.4s-.1-.3-.3-.4c-.2 0-.4.1-.4.3 0 .3.1.5.4.5zm1.9.3.1-1s-.1 0-.1-.1.1-.1.1-.1h.1c.1 0 .1 0 .1.1.1-.1.2-.1.3-.1.2 0 .5.2.5.5s-.2.5-.5.5c-.1 0-.2 0-.3-.1v.3h.1c.1 0 .1 0 .1.1 0 0 0 .1-.1.1h-.3c-.1-.1-.2-.1-.1-.2zm.2-.7c0 .2.2.4.3.4.2 0 .2-.2.3-.4 0-.2-.2-.4-.3-.4-.2 0-.3.2-.3.4zm1.4-.6h-.3c-.1 0-.1-.1-.1-.1 0-.1.1-.1.1-.1h.3c.1 0 .1.1 0 .2l.1 1h.3c0 .1-.1 0-.1 0h-.5c-.1 0-.1 0-.1-.1 0 0 0-.1.1-.1h.2zm.9.9c0-.2.2-.3.6-.4v-.1c0-.1-.1-.2-.2-.2h-.2v.1c0 .1 0 .1-.1.1s-.1 0-.1-.1.1-.2.3-.3c.2 0 .3.1.4.3v.3c0 .1 0 .2.1.2 0 0 0-.1.1-.1 0 .1-.1.2-.2.2s-.1 0-.2-.1c-.1.1-.2.1-.3.1 0 .2-.2.1-.2 0zm.6-.1v-.1c-.2 0-.2.1-.2.1s0 .1.1.1zm.5-.5c-.1 0-.1-.1 0 0-.1-.1 0-.1 0-.1h.2c.1 0 .1 0 .1.1 0 0 0 .1-.1.1.1 0 .3.4.3.4l.2-.6h-.1s-.1 0-.1-.1.1-.1.1-.1h.2c.1 0 .1 0 .1.1 0 0 0 .1-.1.1h-.1l-.2.8c-.1.2-.1.4-.4.4-.1 0-.3-.1-.3-.2s.1-.2.1-.2c.1 0 .1 0 .1.1s-.1.1-.1.1l.1.1c.1 0 .1-.1.2-.3zm3.3.7c.1.1 0 .1 0 .1h-.2s-.1 0-.1-.1c0 0 0-.1.1-.1v-.5c0-.2 0-.2-.1-.2s-.1 0-.2.1v.5s.1 0 .1.1 0 .1-.1.1h-.1s-.1 0-.1-.1c0 0 0-.1.1-.1h.1v-.4c0-.1-.1-.2-.2-.2s-.1 0-.1.2v.4s.1 0 .1.1c0 0 0 .1-.1.1h-.2s-.1 0-.1-.1c0 0 0-.1.1-.1v-.7s-.1 0-.1-.1c0 0 0-.1.1-.1h.1c.1 0 .1 0 .1.1.1-.1.1-.1.2-.1s.2 0 .2.1c0-.1.1-.1.2-.1.2 0 .2.1.2.4zm.4-.1c0-.2.2-.3.6-.4v-.1c0-.1-.1-.2-.2-.2h-.2v.1c0 .1 0 .1-.1.1s-.1 0-.1-.1.1-.2.3-.3c.2 0 .3.1.4.3v.3c0 .1 0 .2.1.2 0 0 0-.1.1-.1 0 .1-.1.2-.2.2s-.1 0-.2-.1c-.1.1-.2.1-.3.1-.1.2-.2.1-.2 0zm.5-.1v-.1c-.2 0-.2.1-.2.1s0 .1.1.1c0 0 .1 0 .1-.1zm1.1-.5c-.1-.1 0-.1 0-.1h.2c.1 0 .1 0 .1.1 0 0 0 .1-.1.1l-.2.2.3.4h.1s.1 0 .1.1-.1.1-.1.1h-.2c-.1 0-.1 0-.1-.1 0 0 0-.1.1-.1 0-.1-.2-.3-.2-.3 0 .1-.2.2-.2.2v.1h.1s.1 0 .1.1-.1.1-.1.1h-.2c-.1 0-.1 0-.1-.1 0 0 0-.1.1-.1h.1v-1c-.1 0-.1-.1-.1-.1 0-.1.1-.1.1-.1h.1c.1 0 0 .2 0 .2v.5c-.2.1.1-.2.1-.2zm1.4.5c.1.2-.1.3-.3.3-.3 0-.5-.2-.5-.5s.2-.5.5-.5.5.2.5.4c0 .1-.1.1-.1.1h-.6c0 .2.1.3.3.3.1.1.1-.1.2-.1zm-.7-.3h.7c0-.2-.2-.3-.4-.3-.1 0-.3.1-.3.3zm1.2.6c-.1 0-.1-.1-.1-.1v-.2c0-.1 0-.1.1-.1s.1.1.1.1c.1.1.2.2.3.2s.2-.1.2-.1c0-.1-.1-.2-.4-.2-.2 0-.3-.1-.3-.3s.1-.3.3-.3c.1 0 .2 0 .3.1 0 0 0-.1.1-.1s.1.1.1.1v.1c0 .1 0 .1-.1.1s-.1-.1-.1-.1c0-.1-.2-.1-.3-.1s-.2.1-.2.2c0 0 .2 0 .4.1s.4.2.4.4-.2.3-.4.3c-.1 0-.2 0-.3-.1zm2.6-1.1c-.1-.1 0-.1 0-.1h.5c.1 0 .1 0 .1.1 0 0 0 .1-.1.1h-.2v.7c0 .3-.1.5-.4.5-.2 0-.4-.1-.4-.3 0-.1.1-.2.2-.2s.1 0 .1.1-.1.1-.1.1c.1.1.1.1.2.1s.2 0 .2-.2v-.7h-.1zm1 .9c0-.2.2-.3.6-.4v-.1c0-.1-.1-.2-.2-.2h-.2v.1c0 .1 0 .1-.1.1s-.1 0-.1-.1.1-.2.3-.3c.2 0 .3.1.4.3v.3c0 .1 0 .2.1.2 0 0 0-.1.1-.1 0 .1-.1.2-.2.2s-.1 0-.2-.1c-.1.1-.2.1-.3.1-.1.2-.2.1-.2 0zm.5-.1v-.1c-.2 0-.2.1-.2.1s0 .1.1.1c0 0 .1 0 .1-.1zm1.3-.4c0 .1 0 .2-.1.2s-.1-.1-.1-.1c0-.1.1-.1.1-.1s0-.1-.1-.1c-.2 0-.3.1-.3.4 0 .2.1.4.3.4l.3-.1s0-.1.1-.1c0 0 .1 0 .1.1s-.2.3-.4.3c-.3 0-.4-.2-.4-.5s.2-.5.5-.5c-.1-.2 0-.1 0 .1zm1-.1c-.1-.1 0-.1 0-.1h.2c.1 0 .1 0 .1.1 0 0 0 .1-.1.1h-.1l-.2.1.3.4h.1s.1 0 .1.1-.1.1-.1.1h-.2c-.1 0-.1 0-.1-.1 0 0 0-.1.1-.1 0-.1-.2-.3-.2-.3 0 .1-.2.2-.2.2v.1h.1s.1 0 .1.1-.1.1-.1.1h-.2c-.1 0-.1 0-.1-.1 0 0 0-.1.1-.1h.1v-1c-.1 0-.1-.1-.1-.1 0-.1.1-.1.1-.1h.1c.1 0 0 .2 0 .2v.5c-.1.2.2-.1.2-.1zm1.9.6c0-.2.2-.3.6-.4v-.1c0-.1-.1-.2-.2-.2h-.2v.1c0 .1 0 .1-.1.1s-.1 0-.1-.1.1-.2.3-.3c.2 0 .3.1.4.3v.3c0 .1 0 .2.1.2 0 0 0-.1.1-.1 0 .1-.1.2-.2.2s-.1 0-.2-.1c-.1.1-.2.1-.3.1 0 .2-.2.1-.2 0zm.6-.1v-.1c-.2 0-.2.1-.2.1s0 .1.1.1zm2.2-.8c-.1-.1 0-.1 0-.1h.2c.1 0 0 .1 0 .1v1h.1s.1 0 .1.1-.1.1-.1.1h-.1c-.1 0-.1 0-.1-.1-.1.1-.2.1-.3.1-.3 0-.4-.2-.4-.5s.2-.5.4-.5c.1 0 .2 0 .3.1v-.3zm-.1.2c-.2 0-.2.1-.2.4 0 .2.1.4.2.4.2 0 .3-.1.3-.4-.1-.2-.2-.4-.3-.4zm.8.1c-.1 0-.1-.1 0 0-.1-.1 0-.1 0-.1h.1s.1 0 .1.1v.5c0 .2.1.2.2.2s.2-.1.3-.2v-.4h-.1c-.1 0-.1-.1-.1-.1 0-.1.1-.1.1-.1h.1c.1 0 .1 0 .1.1v.7h.1s.1 0 .1.1-.1.1-.1.1h-.1c-.1 0-.1 0-.1-.1v-.1c-.1.1-.2.2-.3.2-.2 0-.3-.1-.3-.4zm1.6-.3h-.3c-.1 0-.1-.1-.1-.1 0-.1.1-.1.1-.1h.3c.1 0 .1.1 0 .2l.1 1h.3c0 .1-.1 0-.1 0h-.5c-.1 0-.1 0-.1-.1 0 0 0-.1.1-.1h.2zm1.1 0h-.3c-.1 0-.1-.1-.1-.1 0-.1.1-.1.1-.1h.3c.1 0 .1.1 0 .2l.1 1h.3c0 .1-.1 0-.1 0h-.5c-.1 0-.1 0-.1-.1 0 0 0-.1.1-.1h.2zm2.1 0c-.2 0-.2 0-.2-.1s.1-.1.1-.1h.1c.1 0 .1.1 0 .2l.1.2c.1-.1.2-.1.3-.1.2 0 .4.2.4.5s-.2.5-.4.5c-.1 0-.2 0-.3-.1v-.3zm.4 1c.2 0 .3-.2.3-.4 0-.3-.2-.4-.3-.4-.2 0-.3.1-.3.4 0 .2.1.4.3.4zm1.6-.4c0 .3-.2.5-.5.5s-.5-.2-.5-.5.2-.4.5-.5c.3 0 .5.2.5.5zm-.5.4c.2 0 .3-.2.3-.4s-.1-.3-.3-.4c-.2 0-.4.1-.4.3 0 .3.1.5.4.5zm.8-.7c-.1 0-.1-.1 0 0-.1-.1 0-.1 0-.1h.2c.1 0 .1 0 .1.1 0 0 0 .1-.1.1.1.1.3.6.3.6l.2-.6h-.1s-.1 0-.1-.1.1-.1.1-.1h.2c.1 0 .1 0 .1.1 0 0 0 .1-.1.1h-.1l-.3.7c-.1.2-.1.4-.4.4-.1 0-.3-.1-.3-.2s.1-.2.1-.2c.1 0 .1 0 .1.1s-.1.1-.1.1l.1.1c.1 0 .1-.1.2-.3zm1.6.5c.1 0 .2.1.2.2s-.1.2-.2.2-.2-.1-.2-.2c0-.2.1-.2.2-.2zm-49.8 4.9c.1.1.1.2 0 .2h-.3c-.1 0-.1 0-.1-.1 0 0 0-.1.1-.1h.1l.4-1.2v-.1l.4 1.2c.1 0 .1 0 .1.1s-.1.1-.2.1h-.2c-.1 0-.1 0-.1-.1s.1-.1.1-.1v-.2h-.4l-.1.2h.2zm.1-1-.2.8h.4zm1 .1h-.3c-.1 0-.1-.1-.1-.1 0-.1.1-.1.1-.1h.3c.1 0 .1.1 0 .2l.1 1h.3c0 .1-.1 0-.1 0h-.5c-.1 0-.1 0-.1-.1 0 0 0-.1.1-.1h.2zm1.2 0h-.3c-.1 0-.1-.1-.1-.1 0-.1.1-.1.1-.1h.3c.1 0 .1.1 0 .2l.1 1h.3c0 .1-.1 0-.1 0h-.5c-.1 0-.1 0-.1-.1 0 0 0-.1.1-.1h.2zm2.6 1-.2-.6-.1.6c0 .2-.1 0 0 .1 0 0-.1 0-.1-.1l-.1-.7s-.1 0-.1-.1 0-.1.1-.1h.2s.1 0 .1.1c0 0 0 .1-.1.1l.1.4.1-.3c0-.1.1-.1.1-.1s.1 0 .1.1l.1.4.1-.6s-.1 0-.1-.1c0 0 0-.1.1-.1h.2s.1 0 .1.1c0 0 0 .1-.1.1l-.4.8c0 .1 0 .1-.1.1zm1.5-.4c0 .3-.2.5-.5.5s-.5-.2-.5-.5.2-.4.5-.5c.3 0 .5.2.5.5zm-.5.4c.2 0 .3-.2.3-.4s-.1-.3-.3-.4c-.2 0-.4.1-.4.3 0 .3.1.5.4.5zm.8-.7c-.1-.1 0-.1 0-.1h.2c.1 0 .1 0 .1.1v.1c.1-.1.3-.2.4-.2s.2.1.2.2-.1.2-.2.2-.1-.1-.1-.1c0-.1.1-.1.1-.1s0-.1-.1-.1-.2 0-.3.2v.5h.1c.1 0 .1 0 .1.1s-.1.1-.1.1h-.3c-.1 0-.1 0-.1-.1v-.1h.2v-.6h-.2zm1.7 0c-.1-.1 0-.1 0-.1h.2c.1 0 .1 0 .1.1 0 0 0 .1-.1.1l-.2.2.2.4h.1s.1 0 .1.1-.1.1-.1.1h-.2c-.1 0-.1 0-.1-.1 0 0 0-.1.1-.1 0-.1-.2-.3-.2-.3 0 .1-.2.2-.2.2v.1h.1s.1 0 .1.1-.1.1-.1.1h-.2c-.1 0-.1 0-.1-.1 0 0 0-.1.1-.1h.1v-1c-.1 0-.1-.1-.1-.1 0-.1.1-.1.1-.1h.1c.1 0 0 .2 0 .2v.5zm1.9.6c0-.2.2-.3.6-.4v-.1c0-.1-.1-.2-.2-.2h-.2v.1c0 .1 0 .1-.1.1s-.1 0-.1-.1.1-.2.3-.3c.2 0 .3.1.4.3v.3c0 .1 0 .2.1.2 0 0 0-.1.1-.1 0 .1-.1.2-.2.2s-.1 0-.2-.1c-.1.1-.2.1-.3.1 0 .2-.2.1-.2 0zm.6-.1v-.1c-.2 0-.2.1-.2.1s0 .1.1.1zm.6-.5h-.1c-.1 0-.1-.1-.1-.1 0-.1.1-.1.1-.1h.1c.1 0 .1.1 0 .2.2-.1.3-.2.4-.2.2 0 .3.1.3.3v.6h.1s.1 0 .1.1-.1.1-.1.1h-.2c-.1 0-.1 0-.1-.1 0 0 0-.1.1-.1h.1v-.6c0-.1 0-.1-.2-.1-.1 0-.2.1-.3.2v.5h.1s.1 0 .1.1-.1.1-.1.1h-.2c-.1 0-.1 0-.1-.1 0 0 0-.1.1-.1h.1zm1.6-.3c-.1-.1 0-.1 0-.1h.2c.1 0 0 .1 0 .1v1h.1s.1 0 .1.1-.1.1-.1.1h-.1c-.1 0-.1 0-.1-.1-.1.1-.2.1-.3.1-.3 0-.4-.2-.4-.5s.2-.5.4-.5c.1 0 .2 0 .3.1v-.3zm-.1.2c-.2 0-.2.1-.2.4 0 .2.1.4.2.4s.3-.1.3-.4c0-.2-.1-.4-.3-.4zm2.1.1h-.1c-.1 0-.1-.1-.1-.1 0-.1.1-.1.1-.1h.1c.1 0 .1.1 0 .2.2-.1.3-.2.4-.2.2 0 .3.1.3.3v.6h.1s.1 0 .1.1-.1.1-.1.1h-.3c-.1 0-.1 0-.1-.1 0 0 0-.1.1-.1h.1v-.6c0-.1 0-.1-.2-.1-.1 0-.2.1-.3.2v.5h.1s.1 0 .1.1-.1.1-.1.1h-.2c-.1 0-.1 0-.1-.1 0 0 0-.1.1-.1h.1zm2 .3c0 .3-.2.5-.5.5s-.5-.2-.5-.5.2-.4.5-.5c.3 0 .5.2.5.5zm-.5.4c.2 0 .3-.2.3-.4s-.1-.3-.3-.4c-.2 0-.4.1-.4.3 0 .3.1.5.4.5zm1.9.3.1-1s-.1 0-.1-.1.1-.1.1-.1h.1c.1 0 .1 0 .1.1.1-.1.2-.1.3-.1.2 0 .5.2.5.5s-.2.5-.5.5c-.1 0-.2 0-.3-.1v.3h.1c.1 0 .1 0 .1.1 0 0 0 .1-.1.1h-.3c-.1-.1-.2-.1-.1-.2zm.2-.7c0 .2.2.4.3.4.2 0 .2-.2.3-.4 0-.2-.2-.4-.3-.4-.2 0-.3.2-.3.4zm1.4-.6h-.3c-.1 0-.1-.1-.1-.1 0-.1.1-.1.1-.1h.3c.1 0 .1.1 0 .2l.1 1h.3c0 .1-.1 0-.1 0h-.5c-.1 0-.1 0-.1-.1 0 0 0-.1.1-.1h.2zm.9.9c0-.2.2-.3.6-.4v-.1c0-.1-.1-.2-.2-.2h-.2v.1c0 .1 0 .1-.1.1s-.1 0-.1-.1.1-.2.3-.3c.2 0 .3.1.4.3v.3c0 .1 0 .2.1.2 0 0 0-.1.1-.1 0 .1-.1.2-.2.2s-.1 0-.2-.1c-.1.1-.2.1-.3.1 0 .2-.2.1-.2 0zm.6-.1v-.1c-.2 0-.2.1-.2.1s0 .1.1.1zm.5-.5c-.1 0-.1-.1 0 0-.1-.1 0-.1 0-.1h.2c.1 0 .1 0 .1.1 0 0 0 .1-.1.1.1.1.3.6.3.6l.2-.6h-.1s-.1 0-.1-.1.1-.1.1-.1h.2c.1 0 .1 0 .1.1 0 0 0 .1-.1.1h-.1l-.2.6c-.1.2-.1.4-.4.4-.1 0-.3-.1-.3-.2s.1-.2.1-.2c.1 0 .1 0 .1.1s-.1.1-.1.1l.1.1c.1 0 .1-.1.2-.3zm3.3.7c.1.1 0 .1 0 .1h-.2s-.1 0-.1-.1c0 0 0-.1.1-.1v-.5c0-.2 0-.2-.1-.2s-.1 0-.2.1v.7s.1 0 .1.1 0 .1-.1.1h-.1s-.1 0-.1-.1c0 0 0-.1.1-.1h.1v-.4c0-.1-.1-.2-.2-.2s-.1 0-.1.2v.4s.1 0 .1.1c0 0 0 .1-.1.1h-.2s-.1 0-.1-.1c0 0 0-.1.1-.1v-.7s-.1 0-.1-.1c0 0 0-.1.1-.1h.1c.1 0 .1 0 .1.1.1-.1.1-.1.2-.1s.2 0 .2.1c0-.1.1-.1.2-.1.2 0 .2.1.2.4zm.4-.1c0-.2.2-.3.6-.4v-.1c0-.1-.1-.2-.2-.2h-.2v.1c0 .1 0 .1-.1.1s-.1 0-.1-.1.1-.2.3-.3c.2 0 .3.1.4.3v.3c0 .1 0 .2.1.2 0 0 0-.1.1-.1 0 .1-.1.2-.2.2s-.1 0-.2-.1c-.1.1-.2.1-.3.1-.1.2-.2.1-.2 0zm.5-.1v-.1c-.2 0-.2.1-.2.1s0 .1.1.1c0 0 .1 0 .1-.1zm1.1-.5c-.1-.1 0-.1 0-.1h.2c.1 0 .1 0 .1.1 0 0 0 .1-.1.1l-.2.2.2.4h.1s.1 0 .1.1-.1.1-.1.1h-.2c-.1 0-.1 0-.1-.1 0 0 0-.1.1-.1 0-.1-.2-.3-.2-.3 0 .1-.2.2-.2.2v.1h.1s.1 0 .1.1-.1.1-.1.1h-.2c-.1 0-.1 0-.1-.1 0 0 0-.1.1-.1h.1v-1c-.1 0-.1-.1-.1-.1 0-.1.1-.1.1-.1h.1c.1 0 0 .2 0 .2v.5zm1.4.5c.1.2-.1.3-.3.3-.3 0-.5-.2-.5-.5s.2-.5.5-.5.5.2.5.4c0 .1-.1.1-.1.1h-.6c0 .2.1.3.3.3.1.1.1-.1.2-.1zm-.7-.3h.7c0-.2-.2-.3-.4-.3-.1 0-.3.1-.3.3zm1.2.6c-.1 0-.1-.1-.1-.1v-.2c0-.1 0-.1.1-.1s.1.1.1.1c.1.1.2.2.3.2s.2-.1.2-.1c0-.1-.1-.2-.4-.2-.2 0-.3-.1-.3-.3s.1-.3.3-.3c.1 0 .2 0 .3.1 0 0 0-.1.1-.1s.1.1.1.1v.1c0 .1 0 .1-.1.1s-.1-.1-.1-.1c0-.1-.2-.1-.3-.1s-.2.1-.2.2c0 0 .2 0 .4.1s.4.2.4.4-.2.3-.4.3c-.1 0-.2 0-.3-.1zm2.6-1.1c-.1-.1 0-.1 0-.1h.5c.1 0 .1 0 .1.1 0 0 0 .1-.1.1h-.2v.7c0 .3-.1.5-.4.5-.2 0-.4-.1-.4-.3 0-.1.1-.2.2-.2s.1 0 .1.1-.1.1-.1.1c.1.1.1.1.2.1s.2 0 .2-.2v-.9zm1 .9c0-.2.2-.3.6-.4v-.1c0-.1-.1-.2-.2-.2h-.2v.1c0 .1 0 .1-.1.1s-.1 0-.1-.1.1-.2.3-.3c.2 0 .3.1.4.3v.3c0 .1 0 .2.1.2 0 0 0-.1.1-.1 0 .1-.1.2-.2.2s-.1 0-.2-.1c-.1.1-.2.1-.3.1-.1.2-.2.1-.2 0zm.5-.1v-.1c-.2 0-.2.1-.2.1s0 .1.1.1c0 0 .1 0 .1-.1zm1.3-.4c0 .1 0 .2-.1.2s-.1-.1-.1-.1c0-.1.1-.1.1-.1s0-.1-.1-.1c-.2 0-.3.1-.3.4 0 .2.1.4.3.4l.3-.1s0-.1.1-.1c0 0 .1 0 .1.1s-.2.3-.4.3c-.3 0-.4-.2-.4-.5s.2-.5.5-.5c-.1-.2 0-.1 0 .1zm1-.1c-.1-.1 0-.1 0-.1h.2c.1 0 .1 0 .1.1 0 0 0 .1-.1.1h-.1l-.2.1.3.4h.1s.1 0 .1.1-.1.1-.1.1h-.2c-.1 0-.1 0-.1-.1 0 0 0-.1.1-.1 0-.1-.2-.3-.2-.3 0 .1-.2.2-.2.2v.2h.1s.1 0 .1.1-.1.1-.1.1h-.2c-.1 0-.1 0-.1-.1 0 0 0-.1.1-.1h.1v-1c-.1 0-.1-.1-.1-.1 0-.1.1-.1.1-.1h.1c.1 0 0 .2 0 .2v.5zm1.9.6c0-.2.2-.3.6-.4v-.1c0-.1-.1-.2-.2-.2h-.2v.1c0 .1 0 .1-.1.1s-.1 0-.1-.1.1-.2.3-.3c.2 0 .3.1.4.3v.3c0 .1 0 .2.1.2 0 0 0-.1.1-.1 0 .1-.1.2-.2.2s-.1 0-.2-.1c-.1.1-.2.1-.3.1 0 .2-.2.1-.2 0zm.6-.1v-.1c-.2 0-.2.1-.2.1s0 .1.1.1zm2.2-.8c-.1-.1 0-.1 0-.1h.2c.1 0 0 .1 0 .1v1h.1s.1 0 .1.1-.1.1-.1.1h-.1c-.1 0-.1 0-.1-.1-.1.1-.2.1-.3.1-.3 0-.4-.2-.4-.5s.2-.5.4-.5c.1 0 .2 0 .3.1v-.3zm-.1.2c-.2 0-.2.1-.2.4 0 .2.1.4.2.4.2 0 .3-.1.3-.4-.1-.2-.2-.4-.3-.4zm.8.1c-.1 0-.1-.1 0 0-.1-.1 0-.1 0-.1h.1s.1 0 .1.1v.5c0 .2.1.2.2.2s.2-.1.3-.2v-.4h-.1c-.1 0-.1-.1-.1-.1 0-.1.1-.1.1-.1h.1c.1 0 .1 0 .1.1v.7h.1s.1 0 .1.1-.1.1-.1.1h-.1c-.1 0-.1 0-.1-.1v-.1c-.1.1-.2.2-.3.2-.2 0-.3-.1-.3-.4zm1.6-.3h-.3c-.1 0-.1-.1-.1-.1 0-.1.1-.1.1-.1h.3c.1 0 .1.1 0 .2l.1 1h.3c0 .1-.1 0-.1 0h-.5c-.1 0-.1 0-.1-.1 0 0 0-.1.1-.1h.2zm1.1 0h-.3c-.1 0-.1-.1-.1-.1 0-.1.1-.1.1-.1h.3c.1 0 .1.1 0 .2l.1 1h.3c0 .1-.1 0-.1 0h-.5c-.1 0-.1 0-.1-.1 0 0 0-.1.1-.1h.2zm2.1 0c-.2 0-.2 0-.2-.1s.1-.1.1-.1h.1c.1 0 .1.1 0 .2l.1.2c.1-.1.2-.1.3-.1.2 0 .4.2.4.5s-.2.5-.4.5c-.1 0-.2 0-.3-.1v-.3zm.4 1c.2 0 .3-.2.3-.4 0-.3-.2-.4-.3-.4-.2 0-.3.1-.3.4 0 .2.1.4.3.4zm1.6-.4c0 .3-.2.5-.5.5s-.5-.2-.5-.5.2-.4.5-.5c.3 0 .5.2.5.5zm-.5.4c.2 0 .3-.2.3-.4s-.1-.3-.3-.4c-.2 0-.4.1-.4.3 0 .3.1.5.4.5zm.8-.7c-.1 0-.1-.1 0 0-.1-.1 0-.1 0-.1h.2c.1 0 .1 0 .1.1 0 0 0 .1-.1.1.1.1.3.6.3.6l.2-.6h-.1s-.1 0-.1-.1.1-.1.1-.1h.2c.1 0 .1 0 .1.1 0 0 0 .1-.1.1h-.1l-.3.7c-.1.2-.1.4-.4.4-.1 0-.3-.1-.3-.2s.1-.2.1-.2c.1 0 .1 0 .1.1s-.1.1-.1.1l.1.1c.1 0 .1-.1.2-.3zm1.6.5c.1 0 .2.1.2.2s-.1.2-.2.2-.2-.1-.2-.2c0-.2.1-.2.2-.2zm-49.8 2.5c.1.1.1.2 0 .2h-.3c-.1 0-.1 0-.1-.1 0 0 0-.1.1-.1h.1l.4-1.2v-.1l.4 1.2c.1 0 .1 0 .1.1s-.1.1-.2.1h-.2c-.1 0-.1 0-.1-.1s.1-.1.1-.1v-.2h-.4l-.1.2h.2zm.1-1-.2.7h.4zm1 .1h-.3c-.1 0-.1-.1-.1-.1 0-.1.1-.1.1-.1h.3c.1 0 .1.1 0 .2l.1 1h.3c0 .1-.1 0-.1 0h-.5c-.1 0-.1 0-.1-.1 0 0 0-.1.1-.1h.2zm1.2 0h-.3c-.1 0-.1-.1-.1-.1 0-.1.1-.1.1-.1h.3c.1 0 .1.1 0 .2l.1 1h.3c0 .1-.1 0-.1 0h-.5c-.1 0-.1 0-.1-.1 0 0 0-.1.1-.1h.2zm2.6 1-.2-.6-.1.6c0 .2-.1 0 0 .1 0 0-.1 0-.1-.1l-.1-.7s-.1 0-.1-.1 0-.1.1-.1h.2s.1 0 .1.1c0 0 0 .1-.1.1l.1.4.1-.3c0-.1.1-.1.1-.1s.1 0 .1.1l.1.4.1-.6s-.1 0-.1-.1c0 0 0-.1.1-.1h.2s.1 0 .1.1c0 0 0 .1-.1.1l-.1.7c0 .1 0 .1-.1.1-.3.1-.3.1-.3 0zm1.5-.4c0 .3-.2.5-.5.5s-.5-.2-.5-.5.2-.4.5-.5c.3 0 .5.2.5.5zm-.5.4c.2 0 .3-.2.3-.4s-.1-.3-.3-.4c-.2 0-.4.1-.4.3 0 .3.1.5.4.5zm.8-.7c-.1-.1 0-.1 0-.1h.2c.1 0 .1 0 .1.1v.1c.1-.1.3-.2.4-.2s.2.1.2.2-.1.2-.2.2-.1-.1-.1-.1c0-.1.1-.1.1-.1s0-.1-.1-.1-.2 0-.3.2v.5h.1c.1 0 .1 0 .1.1s-.1.1-.1.1h-.3c-.1 0-.1 0-.1-.1v-.1h.2v-.6h-.2zm1.7 0c-.1-.1 0-.1 0-.1h.2c.1 0 .1 0 .1.1 0 0 0 .1-.1.1l-.2.2.3.4h.1s.1 0 .1.1-.1.1-.1.1h-.2c-.1 0-.1 0-.1-.1 0 0 0-.1.1-.1 0-.1-.2-.3-.2-.3 0 .1-.2.2-.2.2v.1h.1s.1 0 .1.1-.1.1-.1.1h-.2c-.1 0-.1 0-.1-.1 0 0 0-.1.1-.1h.1v-1c-.1 0-.1-.1-.1-.1 0-.1.1-.1.1-.1h.1c.1 0 0 .2 0 .2v.5c-.2.1.1-.2.1-.2zm1.9.6c0-.2.2-.3.6-.4v-.1c0-.1-.1-.2-.2-.2h-.2v.1c0 .1 0 .1-.1.1s-.1 0-.1-.1.1-.2.3-.3c.2 0 .3.1.4.3v.3c0 .1 0 .2.1.2 0 0 0-.1.1-.1 0 .1-.1.2-.2.2s-.1 0-.2-.1c-.1.1-.2.1-.3.1 0 .2-.2.1-.2 0zm.6-.1v-.1c-.2 0-.2.1-.2.1s0 .1.1.1zm.6-.5h-.1c-.1 0-.1-.1-.1-.1 0-.1.1-.1.1-.1h.1c.1 0 .1.1 0 .2.2-.1.3-.2.4-.2.2 0 .3.1.3.3v.5h.1s.1 0 .1.1-.1.1-.1.1h-.2c-.1 0-.1 0-.1-.1 0 0 0-.1.1-.1h.1v-.6c0-.1 0-.1-.2-.1-.1 0-.2.1-.3.2v.5h.1s.1 0 .1.1-.1.1-.1.1h-.2c-.1 0-.1 0-.1-.1 0 0 0-.1.1-.1h.1zm1.6-.3c-.1-.1 0-.1 0-.1h.2c.1 0 0 .1 0 .1v1h.1s.1 0 .1.1-.1.1-.1.1h-.1c-.1 0-.1 0-.1-.1-.1.1-.2.1-.3.1-.3 0-.4-.2-.4-.5s.2-.5.4-.5c.1 0 .2 0 .3.1v-.3zm-.1.2c-.2 0-.2.1-.2.4 0 .2.1.4.2.4s.3-.1.3-.4c0-.2-.1-.4-.3-.4zm2.1.1h-.1c-.1 0-.1-.1-.1-.1 0-.1.1-.1.1-.1h.1c.1 0 .1.1 0 .2.2-.1.3-.2.4-.2.2 0 .3.1.3.3v.5h.1s.1 0 .1.1-.1.1-.1.1h-.3c-.1 0-.1 0-.1-.1 0 0 0-.1.1-.1h.1v-.6c0-.1 0-.1-.2-.1-.1 0-.2.1-.3.2v.5h.1s.1 0 .1.1-.1.1-.1.1h-.2c-.1 0-.1 0-.1-.1 0 0 0-.1.1-.1h.1zm2 .3c0 .3-.2.5-.5.5s-.5-.2-.5-.5.2-.4.5-.5c.3 0 .5.2.5.5zm-.5.4c.2 0 .3-.2.3-.4s-.1-.3-.3-.4c-.2 0-.4.1-.4.3 0 .3.1.5.4.5zm1.9.3.1-1s-.1 0-.1-.1.1-.1.1-.1h.1c.1 0 .1 0 .1.1.1-.1.2-.1.3-.1.2 0 .5.2.5.5s-.2.5-.5.5c-.1 0-.2 0-.3-.1v.3h.1c.1 0 .1 0 .1.1 0 0 0 .1-.1.1h-.3c-.1-.1-.2-.1-.1-.2zm.2-.7c0 .2.2.4.3.4.2 0 .2-.2.3-.4 0-.2-.2-.4-.3-.4-.2 0-.3.2-.3.4zm1.4-.6h-.3c-.1 0-.1-.1-.1-.1 0-.1.1-.1.1-.1h.3c.1 0 .1.1 0 .2l.1 1h.3c0 .1-.1 0-.1 0h-.5c-.1 0-.1 0-.1-.1 0 0 0-.1.1-.1h.2zm.9.9c0-.2.2-.3.6-.4v-.1c0-.1-.1-.2-.2-.2h-.2v.1c0 .1 0 .1-.1.1s-.1 0-.1-.1.1-.2.3-.3c.2 0 .3.1.4.3v.3c0 .1 0 .2.1.2 0 0 0-.1.1-.1 0 .1-.1.2-.2.2s-.1 0-.2-.1c-.1.1-.2.1-.3.1 0 .2-.2.1-.2 0zm.6-.1v-.1c-.2 0-.2.1-.2.1s0 .1.1.1zm.5-.5c-.1 0-.1-.1 0 0-.1-.1 0-.1 0-.1h.2c.1 0 .1 0 .1.1 0 0 0 .1-.1.1.1.1.3.6.3.6l.2-.6h-.1s-.1 0-.1-.1.1-.1.1-.1h.2c.1 0 .1 0 .1.1 0 0 0 .1-.1.1h-.1l-.2.6c-.1.2-.1.4-.4.4-.1 0-.3-.1-.3-.2s.1-.2.1-.2c.1 0 .1 0 .1.1s-.1.1-.1.1l.1.1c.1 0 .1-.1.2-.3zm3.3.7c.1.1 0 .1 0 .1h-.2s-.1 0-.1-.1c0 0 0-.1.1-.1v-.5c0-.2 0-.2-.1-.2s-.1 0-.2.1v.5s.1 0 .1.1 0 .1-.1.1h-.1s-.1 0-.1-.1c0 0 0-.1.1-.1h.1v-.2c0-.1-.1-.2-.2-.2s-.1 0-.1.2v.4s.1 0 .1.1c0 0 0 .1-.1.1h-.2s-.1 0-.1-.1c0 0 0-.1.1-.1v-.7s-.1 0-.1-.1c0 0 0-.1.1-.1h.1c.1 0 .1 0 .1.1.1-.1.1-.1.2-.1s.2 0 .2.1c0-.1.1-.1.2-.1.2 0 .2.1.2.4zm.4-.1c0-.2.2-.3.6-.4v-.1c0-.1-.1-.2-.2-.2h-.2v.1c0 .1 0 .1-.1.1s-.1 0-.1-.1.1-.2.3-.3c.2 0 .3.1.4.3v.3c0 .1 0 .2.1.2 0 0 0-.1.1-.1 0 .1-.1.2-.2.2s-.1 0-.2-.1c-.1.1-.2.1-.3.1-.1.2-.2.1-.2 0zm.5-.1v-.1c-.2 0-.2.1-.2.1s0 .1.1.1c0 0 .1 0 .1-.1zm1.1-.5c-.1-.1 0-.1 0-.1h.2c.1 0 .1 0 .1.1 0 0 0 .1-.1.1l-.2.2.3.4h.1s.1 0 .1.1-.1.1-.1.1h-.2c-.1 0-.1 0-.1-.1 0 0 0-.1.1-.1 0-.1-.2-.3-.2-.3 0 .1-.2.2-.2.2v.1h.1s.1 0 .1.1-.1.1-.1.1h-.2c-.1 0-.1 0-.1-.1 0 0 0-.1.1-.1h.1v-1c-.1 0-.1-.1-.1-.1 0-.1.1-.1.1-.1h.1c.1 0 0 .2 0 .2v.5c-.2.1.1-.2.1-.2zm1.4.5c.1.2-.1.3-.3.3-.3 0-.5-.2-.5-.5s.2-.5.5-.5.5.2.5.4c0 .1-.1.1-.1.1h-.6c0 .2.1.3.3.3.1.1.1-.1.2-.1zm-.7-.3h.7c0-.2-.2-.3-.4-.3-.1 0-.3.1-.3.3zm1.2.6c-.1 0-.1-.1-.1-.1v-.2c0-.1 0-.1.1-.1s.1.1.1.1c.1.1.2.2.3.2s.2-.1.2-.1c0-.1-.1-.2-.4-.2-.2 0-.3-.1-.3-.3s.1-.3.3-.3c.1 0 .2 0 .3.1 0 0 0-.1.1-.1s.1.1.1.1v.1c0 .1 0 .1-.1.1s-.1-.1-.1-.1c0-.1-.2-.1-.3-.1s-.2.1-.2.2c0 0 .2 0 .4.1s.4.2.4.4-.2.3-.4.3c-.1 0-.2 0-.3-.1zm2.6-1.1c-.1-.1 0-.1 0-.1h.5c.1 0 .1 0 .1.1 0 0 0 .1-.1.1h-.2v.5c0 .3-.1.5-.4.5-.2 0-.4-.1-.4-.3 0-.1.1-.2.2-.2s.1 0 .1.1-.1.1-.1.1c.1.1.1.1.2.1s.2 0 .2-.2v-.7zm1 .9c0-.2.2-.3.6-.4v-.1c0-.1-.1-.2-.2-.2h-.2v.1c0 .1 0 .1-.1.1s-.1 0-.1-.1.1-.2.3-.3c.2 0 .3.1.4.3v.3c0 .1 0 .2.1.2 0 0 0-.1.1-.1 0 .1-.1.2-.2.2s-.1 0-.2-.1c-.1.1-.2.1-.3.1-.1.2-.2.1-.2 0zm.5-.1v-.1c-.2 0-.2.1-.2.1s0 .1.1.1c0 0 .1 0 .1-.1zm1.3-.4c0 .1 0 .2-.1.2s-.1-.1-.1-.1c0-.1.1-.1.1-.1s0-.1-.1-.1c-.2 0-.3.1-.3.4 0 .2.1.4.3.4l.3-.1s0-.1.1-.1c0 0 .1 0 .1.1s-.2.3-.4.3c-.3 0-.4-.2-.4-.5s.2-.5.5-.5c-.1-.2 0-.1 0 .1zm1-.1c-.1-.1 0-.1 0-.1h.2c.1 0 .1 0 .1.1 0 0 0 .1-.1.1h-.1l-.2.1.3.4h.1s.1 0 .1.1-.1.1-.1.1h-.2c-.1 0-.1 0-.1-.1 0 0 0-.1.1-.1 0-.1-.2-.3-.2-.3 0 .1-.2.2-.2.2v.1h.1s.1 0 .1.1-.1.1-.1.1h-.2c-.1 0-.1 0-.1-.1 0 0 0-.1.1-.1h.1v-1c-.1 0-.1-.1-.1-.1 0-.1.1-.1.1-.1h.1c.1 0 0 .2 0 .2v.5c-.1.2.2-.1.2-.1zm1.9.6c0-.2.2-.3.6-.4v-.1c0-.1-.1-.2-.2-.2h-.2v.1c0 .1 0 .1-.1.1s-.1 0-.1-.1.1-.2.3-.3c.2 0 .3.1.4.3v.3c0 .1 0 .2.1.2 0 0 0-.1.1-.1 0 .1-.1.2-.2.2s-.1 0-.2-.1c-.1.1-.2.1-.3.1 0 .2-.2.1-.2 0zm.6-.1v-.1c-.2 0-.2.1-.2.1s0 .1.1.1zm2.2-.8c-.1-.1 0-.1 0-.1h.2c.1 0 0 .1 0 .1v1h.1s.1 0 .1.1-.1.1-.1.1h-.1c-.1 0-.1 0-.1-.1-.1.1-.2.1-.3.1-.3 0-.4-.2-.4-.5s.2-.5.4-.5c.1 0 .2 0 .3.1v-.3zm-.1.2c-.2 0-.2.1-.2.4 0 .2.1.4.2.4.2 0 .3-.1.3-.4-.1-.2-.2-.4-.3-.4zm.8.1c-.1 0-.1-.1 0 0-.1-.1 0-.1 0-.1h.1s.1 0 .1.1v.5c0 .2.1.2.2.2s.2-.1.3-.2v-.4h-.1c-.1 0-.1-.1-.1-.1 0-.1.1-.1.1-.1h.1c.1 0 .1 0 .1.1v.7h.1s.1 0 .1.1-.1.1-.1.1h-.1c-.1 0-.1 0-.1-.1v-.1c-.1.1-.2.2-.3.2-.2 0-.3-.1-.3-.4zm1.6-.3h-.3c-.1 0-.1-.1-.1-.1 0-.1.1-.1.1-.1h.3c.1 0 .1.1 0 .2l.1 1h.3c0 .1-.1 0-.1 0h-.5c-.1 0-.1 0-.1-.1 0 0 0-.1.1-.1h.2zm1.1 0h-.3c-.1 0-.1-.1-.1-.1 0-.1.1-.1.1-.1h.3c.1 0 .1.1 0 .2l.1 1h.3c0 .1-.1 0-.1 0h-.5c-.1 0-.1 0-.1-.1 0 0 0-.1.1-.1h.2zm2.1 0c-.2 0-.2 0-.2-.1s.1-.1.1-.1h.1c.1 0 .1.1 0 .2l.1.2c.1-.1.2-.1.3-.1.2 0 .4.2.4.5s-.2.5-.4.5c-.1 0-.2 0-.3-.1v-.3zm.4 1c.2 0 .3-.2.3-.4 0-.3-.2-.4-.3-.4-.2 0-.3.1-.3.4 0 .2.1.4.3.4zm1.6-.4c0 .3-.2.5-.5.5s-.5-.2-.5-.5.2-.4.5-.5c.3 0 .5.2.5.5zm-.5.4c.2 0 .3-.2.3-.4s-.1-.3-.3-.4c-.2 0-.4.1-.4.3 0 .3.1.5.4.5zm.8-.7c-.1 0-.1-.1 0 0-.1-.1 0-.1 0-.1h.2c.1 0 .1 0 .1.1 0 0 0 .1-.1.1.1.1.3.6.3.6l.2-.6h-.1s-.1 0-.1-.1.1-.1.1-.1h.2c.1 0 .1 0 .1.1 0 0 0 .1-.1.1h-.1l-.3.7c-.1.2-.1.4-.4.4-.1 0-.3-.1-.3-.2s.1-.2.1-.2c.1 0 .1 0 .1.1s-.1.1-.1.1l.1.1c.1 0 .1-.1.2-.3zm1.6.5c.1 0 .2.1.2.2s-.1.2-.2.2-.2-.1-.2-.2c0-.2.1-.2.2-.2z" fill="#d8505c"/></svg>