<svg enable-background="new 0 0 178.4 131.3" viewBox="0 0 178.4 131.3" xmlns="http://www.w3.org/2000/svg" xmlns:xlink="http://www.w3.org/1999/xlink"><clipPath id="a"><path d="m2.4 2.3h176v129h-176z"/></clipPath><clipPath id="b"><path d="m-235.9-337.9 864 2 20.7 1155.7-907.2-2.1z"/></clipPath><path clip-path="url(#a)" d="m162.6 131.8c-.4-1.3.2-2.2 1.7-2.8 1.9-.6 4.5-1.1 6.9-.9-.9-.9-.6-2.4.9-3.7-2.6 1.1-5.6.9-7.8-.4-2.6-1.5-2.6-3.7 0-4.8 1.9-.6 4.5-1.1 6.9-.9-.9-.9-.6-2.4.9-3.7-2.6.9-5.6.9-7.8-.4-2.6-1.5-2.6-3.7 0-4.8 1.9-.6 4.5-1.1 6.9-.9-.9-1.1-.6-2.4.9-3.7-2.6.9-5.6.9-7.8-.2-2.6-1.7-2.6-3.9 0-4.8 1.9-.9 4.5-1.3 6.9-1.1-.9-1.1-.6-2.4.9-3.9-2.6 1.1-5.6 1.1-7.8 0-2.6-1.5-2.6-3.7 0-4.8 1.9-.6 4.5-1.3 6.9-1.3-.9-.9-.6-2.2.9-3.7-2.6 1.1-5.6 1.3-7.8 0-2.6-1.5-2.6-3.7 0-4.8 1.9-.6 4.5-1.3 6.9-1.3-.9-.9-.6-2.4.9-3.7-2.6 1.1-5.6 1.3-7.8 0-2.6-1.5-2.6-3.7 0-4.5 1.9-.9 4.5-1.5 6.9-1.5-.9-.9-.6-2.4.9-3.7-2.6 1.1-5.6 1.3-7.8.2-2.6-1.5-2.6-3.7 0-4.8 1.9-.9 4.5-1.5 6.9-1.5-.9-1.1-.6-2.4.9-3.9-2.6 1.3-5.6 1.5-7.8.4-2.6-1.5-2.6-3.7 0-4.8 1.9-.9 4.5-1.5 6.9-1.7-.9-.9-.6-2.2.9-3.7-2.6 1.3-5.6 1.5-7.8.4-2.6-1.5-2.6-3.7 0-4.8 1.9-.9 4.5-1.5 6.9-1.7-.9-.9-.6-2.2.9-3.7-2.6 1.1-5.6 1.5-7.8.4-2.6-1.3-2.6-3.5 0-4.5 1.9-.9 4.5-1.7 6.9-1.9-.9-.9-.6-2.4.9-3.7-2.6 1.3-5.6 1.5-7.8.6-2.6-1.5-2.6-3.7 0-4.8 1.9-.9 4.5-1.7 6.9-1.9-.9-.9-.6-2.4.9-3.9-2.6 1.3-5.6 1.9-7.8.9-2.6-1.5-2.6-3.7 0-4.8 1.9-.9 4.5-1.7 6.9-1.9-.9-1.1-.6-2.4.9-3.9-2.6 1.3-5.6 1.9-7.8.9-2.6-1.3-2.6-3.5 0-4.8.9-.4 1.9-.9 3-1.1h8c.6.7.4 1.9-.7 3 1.1-.6 2.4-1.1 3.7-1.5-.2-.4-.2-1.1 0-1.5h9.1v129.7h-10.2c.4-.2.9-.2 1.1-.4-.2-.6 0-1.3.4-2.2-1.3.2-2.4.2-3.5.2.4.6.4 1.5 0 2.4h-12.6zm-47.5 0h-1.7v-.2c-.9-.9-.9-1.5 0-1.3.4.2 1 .8 1.7 1.5m-45 0h-1.1c-.6-.4-1.3-1.1-1.9-1.7-.6-.9-.6-1.5 0-1.3s1.9 1.1 2.6 1.9c.2.4.4.6.4 1.1m-33.5 0h-6.1c-.9-.4-1.5-.9-2.2-1.3-1.9-1.1-1.9-2.8 0-3.7 1.9-.6 5.2.2 7.1 1.7 1.6 1.1 1.9 2.4 1.2 3.3m-9.1 0c-.2-.2-.2-.4-.7-.6-2.2-1.1-5.8-1.1-8.2.2l-.2.4zm-11.4 0h-8.9c-.4-.9 0-2.2.9-3.2-1.1.6-2.4 1.3-3.7 1.7.2.4.2.9 0 1.5h-11.5v-129.7h25.9c2.2 1.5 1.9 3.7-.4 4.8-1.9.6-4.5.6-6.9.2.9 1.3.6 2.8-.6 3.9 2.4-.6 5.4-.2 7.6 1.1 2.6 1.7 2.6 3.9 0 5-1.9.9-4.5.9-6.9.6.9 1.1.6 2.6-.6 3.9 2.4-.9 5.4-.4 7.6.9 2.6 1.5 2.6 3.9 0 5-1.9.9-4.5.9-6.9.6.9 1.3.6 2.6-.6 3.9 2.4-.9 5.4-.4 7.6.9 2.6 1.5 2.6 3.9 0 5-1.9.9-4.5.9-6.9.9.9 1.1.6 2.6-.6 3.9 2.4-1.1 5.4-.9 7.6.4 2.6 1.7 2.6 3.9 0 5.2-1.9.9-4.5 1.1-6.9.9.9 1.1.6 2.6-.6 3.9 2.4-.9 5.4-.6 7.6.4 2.6 1.5 2.6 3.9 0 5.2-1.9.9-4.5 1.1-6.9.9.9 1.1.6 2.6-.6 4.1 2.4-1.1 5.4-1.1 7.6.2 2.6 1.5 2.6 3.7 0 5-1.9.9-4.5 1.3-6.9 1.3.9 1.1.6 2.6-.6 3.9 2.4-1.1 5.4-1.1 7.6.2 2.6 1.5 2.6 3.7 0 5-1.9.9-4.5 1.3-6.9 1.3.9 1.1.6 2.6-.6 4.1 2.4-1.3 5.4-1.3 7.6 0 2.6 1.3 2.6 3.7 0 5-1.9.9-4.5 1.3-6.9 1.5.9.9.6 2.4-.6 3.9 2.4-1.3 5.4-1.3 7.6-.2 2.6 1.5 2.6 3.7 0 5.2-1.9.9-4.5 1.3-6.9 1.5.9.9.6 2.4-.6 4.1 2.4-1.5 5.4-1.5 7.6-.4 2.6 1.5 2.6 3.7 0 5-1.9 1.1-4.5 1.5-6.9 1.7.9 1.1.6 2.6-.6 4.1 2.4-1.5 5.4-1.5 7.6-.4 2.6 1.3 2.6 3.7 0 5-1.9 1.1-4.5 1.5-6.9 1.9.9.9.6 2.4-.6 4.1 2.4-1.5 5.4-1.7 7.6-.6 2.6 1.3 2.6 3.5 0 5-1.8 0-2.7.2-3.5.7m3.2-129.7c2.4 1.1 5.6 1.7 7.6 1.3 1.1-.2 1.7-.6 1.7-1.3zm31.1 0h2.8c.4.9.2 1.3-.7 1.1-.6-.2-1.2-.7-2.1-1.1m6.7 0h2.4c.6.4 1.1 1.1 1.5 1.5 1.1 1.5 1.1 2.4 0 1.9-.9-.4-2.6-1.9-3.7-3.2.1-.2.1-.2-.2-.2m19.9 0h.9s.2 0 .2.2c.4.4.4.9 0 .6-.2-.2-.6-.6-1.1-.8m36.6 0h1.7c.2 0 .4.2.4.4.6.9.6 1.3 0 1.1s-1.5-.9-2.1-1.5m32.6 0h6c.9.2 1.5.4 2.2.9 1.9 1.1 1.9 2.6 0 3.5s-5.2 0-7.1-1.5c-1.3-1.2-1.8-2.3-1.1-2.9m9.3 0s.2 0 .4.2c2.2 1.1 6.1 1.3 8.2.2.4-.2.6-.4.9-.4zm-68.5 126.6c-.2-.2-.6-.4-.9-.9-.2-.2-.2-.4 0-.2.2 0 .6.4.9.7.2.2.2.4 0 .4m0-9.2c-.2-.2-.6-.4-.9-.9-.2-.2-.2-.4 0-.2.2 0 .6.4.9.7.2.1.2.4 0 .4m0-9.6c-.2 0-.6-.2-.9-.6-.2-.2-.2-.4 0-.4.2.2.6.4.9.9.2.1.2.4 0 .1m0-9.3c-.2 0-.6-.4-.9-.6-.2-.2-.2-.4 0-.4.2.2.6.4.9.9.2.1.2.4 0 .1m0-9.2c-.2 0-.6-.4-.9-.7-.2-.4-.2-.4 0-.4s.6.4.9.7c.2.4.2.6 0 .4m0-9.3c-.2-.2-.6-.4-.9-.9-.2-.2-.2-.4 0-.2.2 0 .6.4.9.7.2.4.2.4 0 .4m0-9.3c-.2-.2-.6-.4-.9-.9-.2-.2-.2-.4 0-.4l.9.9c.2.2.2.4 0 .4m0-9.3-.9-.9c-.2-.2-.2-.4 0-.4.2.2.6.4.9.9.2.2.2.4 0 .4m0-9.5c-.2 0-.6-.4-.9-.6-.2-.4-.2-.4 0-.4.2.2.6.4.9.9.2.1.2.3 0 .1m0-9.3c-.2 0-.6-.4-.9-.6-.2-.4-.2-.4 0-.4s.6.4.9.6c.2.4.2.6 0 .4m0-9.3c-.2-.2-.6-.4-.9-.9-.2-.2-.2-.4 0-.2.2 0 .6.4.9.7.2.4.2.4 0 .4m0-9.3c-.2-.2-.6-.4-.9-.9-.2-.2-.2-.4 0-.4l.9.9c.2.4.2.4 0 .4m0-9.3-.9-.9c-.2-.2-.2-.4 0-.4.2.2.6.4.9.9.2.2.2.4 0 .4m0-9.5c-.2 0-.6-.4-.9-.6-.2-.4-.2-.4 0-.4.2.2.6.4.9.9.2.1.2.3 0 .1m-8.9 117.8c-.4 0-.9-.6-1.3-1.1-.4-.4-.4-.9 0-.7s.9.7 1.3 1.1c.4.7.4.9 0 .7m0-9.3c-.4-.2-.9-.6-1.3-1.3-.4-.4-.4-.6 0-.6.4.2.9.9 1.3 1.3s.4.6 0 .6m0-9.5c-.4 0-.9-.6-1.3-1.1-.4-.4-.4-.9 0-.6.4.2.9.6 1.3 1.1.4.6.4.8 0 .6m0-9.3c-.4-.2-.9-.6-1.3-1.3-.4-.4-.4-.6 0-.6.4.2.9.6 1.3 1.3.4.4.4.6 0 .6m0-9.5c-.4 0-.9-.6-1.3-1.1-.4-.6-.4-.9 0-.6.4 0 .9.6 1.3 1.1.4.6.4.8 0 .6m0-9.3c-.4-.2-.9-.9-1.3-1.3s-.4-.9 0-.6c.4.2.9.6 1.3 1.3.4.4.4.8 0 .6m0-9.5c-.4 0-.9-.7-1.3-1.1-.4-.6-.4-.9 0-.6.4 0 .9.6 1.3 1.1.4.6.4.8 0 .6m0-9.3c-.4-.2-.9-.9-1.3-1.3s-.4-.9 0-.6c.4.2.9.6 1.3 1.3.4.3.4.8 0 .6m0-9.5c-.4 0-.9-.6-1.3-1.3-.4-.4-.4-.7 0-.7.4.2.9.9 1.3 1.3.4.7.4.9 0 .7m0-9.3c-.4-.2-.9-.9-1.3-1.3-.4-.7-.4-.9 0-.7s.9.7 1.3 1.3c.4.4.4.9 0 .7m0-9.5c-.4 0-.9-.6-1.3-1.3-.4-.4-.4-.9 0-.6.4.2.9.9 1.3 1.3.4.6.4.8 0 .6m0-9.3c-.4-.2-.9-.9-1.3-1.3-.4-.6-.4-.9 0-.6.4.2.9.6 1.3 1.3.4.3.4.8 0 .6m0-9.6c-.4 0-.9-.6-1.3-1.3-.4-.4-.4-.9 0-.6.4.2.9.9 1.3 1.3.4.6.4.9 0 .6m-8.4 110.3c-.6-.2-1.9-1.3-2.6-1.9-.6-.9-.6-1.5 0-1.3s1.9 1.1 2.6 1.9c.6 1.1.6 1.5 0 1.3m0-9.5c-.6-.2-1.9-1.1-2.6-1.9-.6-1.1-.6-1.5 0-1.3s1.9 1.1 2.6 2.2c.6.8.6 1.2 0 1m0-9.5c-.6-.2-1.9-1.1-2.6-2.2-.6-.9-.6-1.3 0-1.1s1.9 1.1 2.6 2.2c.6.8.6 1.3 0 1.1m0-9.6c-.6-.2-1.9-1.1-2.6-1.9-.6-1.1-.6-1.5 0-1.3s1.9 1.1 2.6 2.2c.6.8.6 1.5 0 1m0-9.5c-.6-.2-1.9-1.1-2.6-2.2-.6-.9-.6-1.3 0-1.1s1.9 1.1 2.6 2.2c.6.9.6 1.6 0 1.1m0-9.3c-.6-.4-1.9-1.3-2.6-2.4-.6-.9-.6-1.3 0-1.1s1.9 1.1 2.6 2.2c.6.9.6 1.6 0 1.3m0-9.5c-.6-.4-1.9-1.3-2.6-2.4-.6-.9-.6-1.3 0-1.1s1.9 1.3 2.6 2.2c.6 1.1.6 1.5 0 1.3m0-9.5c-.6-.4-1.9-1.3-2.6-2.4-.6-.9-.6-1.3 0-1.1s1.9 1.3 2.6 2.2c.6 1.1.6 1.5 0 1.3m0-9.5c-.6-.2-1.9-1.3-2.6-2.4-.6-.9-.6-1.5 0-1.1.6.2 1.9 1.3 2.6 2.2.6 1.1.6 1.5 0 1.3m0-9.5c-.6-.2-1.9-1.3-2.6-2.4-.6-.9-.6-1.5 0-1.1.6.2 1.9 1.3 2.6 2.2.6 1.1.6 1.5 0 1.3m0-9.5c-.6-.2-1.9-1.3-2.6-2.4-.6-.9-.6-1.5 0-1.1.6.2 1.9 1.3 2.6 2.4.6.9.6 1.5 0 1.1m0-9.5c-.6-.2-1.9-1.3-2.6-2.4-.6-.9-.6-1.5 0-1.1.6.2 1.9 1.3 2.6 2.4.6.9.6 1.5 0 1.1m0-9.5c-.6-.2-1.9-1.3-2.6-2.4-.6-.9-.6-1.5 0-1.1.6.2 1.9 1.3 2.6 2.4.6.9.6 1.5 0 1.1m-8.7 121.9c-.9-.2-2.6-1.5-3.7-2.6-.9-1.3-.9-2.2 0-1.9 1.1.2 2.8 1.5 3.7 2.6 1.1 1.2 1.1 2.1 0 1.9m0-9.7c-.9-.2-2.6-1.3-3.7-2.6-.9-1.3-.9-1.9 0-1.7 1.1.2 2.8 1.3 3.7 2.6 1.1 1 1.1 1.9 0 1.7m0-9.6c-.9-.4-2.6-1.5-3.7-2.8-.9-1.1-.9-1.9 0-1.7 1.1.2 2.8 1.3 3.7 2.6 1.1 1.3 1.1 2.2 0 1.9m0-9.7c-.9-.2-2.6-1.5-3.7-2.8-.9-1.1-.9-1.9 0-1.7 1.1.2 2.8 1.5 3.7 2.8 1.1 1.3 1.1 2.1 0 1.7m0-9.5c-.9-.4-2.6-1.5-3.7-2.8-.9-1.3-.9-2.2 0-1.9 1.1.4 2.8 1.7 3.7 2.8 1.1 1.3 1.1 2.1 0 1.9m0-9.7c-.9-.2-2.6-1.5-3.7-2.8-.9-1.3-.9-2.2 0-1.7 1.1.2 2.8 1.5 3.7 2.8 1.1 1.2 1.1 2.1 0 1.7m0-9.5c-.9-.4-2.6-1.7-3.7-2.8-.9-1.3-.9-2.2 0-1.9 1.1.2 2.8 1.5 3.7 2.8 1.1 1.4 1.1 2.1 0 1.9m0-9.8c-.9-.2-2.6-1.5-3.7-2.8-.9-1.3-.9-2.2 0-1.9 1.1.4 2.8 1.7 3.7 3 1.1 1.3 1.1 2.2 0 1.7m0-9.5c-.9-.4-2.6-1.7-3.7-3-.9-1.3-.9-2.2 0-1.7 1.1.2 2.8 1.5 3.7 2.8 1.1 1.5 1.1 2.4 0 1.9m0-9.7c-.9-.2-2.6-1.5-3.7-2.8-.9-1.3-.9-2.2 0-1.9 1.1.4 2.8 1.7 3.7 3 1.1 1.3 1.1 2.1 0 1.7m0-9.5c-.9-.4-2.6-1.7-3.7-3-.9-1.3-.9-2.2 0-1.9 1.1.4 2.8 1.7 3.7 3.2 1.1 1.3 1.1 2.1 0 1.7m0-9.7c-.9-.2-2.6-1.7-3.7-3-.9-1.3-.9-2.2 0-1.7 1.1.2 2.8 1.7 3.7 3 1.1 1.5 1.1 2.1 0 1.7m0-9.5c-.9-.4-2.6-1.7-3.7-3.2-.9-1.3-.9-1.9 0-1.7 1.1.4 2.8 1.7 3.7 3.2 1.1 1.2 1.1 2.1 0 1.7m-8.4 114.5c-1.3 0-3.5-1.1-4.8-2.6-1.5-1.3-1.5-2.4 0-2.4 1.3 0 3.5 1.3 4.8 2.6s1.3 2.4 0 2.4m0-9.7c-1.3 0-3.5-1.3-4.8-2.6-1.5-1.5-1.5-2.4 0-2.4 1.3 0 3.5 1.1 4.8 2.6 1.3 1.3 1.3 2.4 0 2.4m0-9.7c-1.3 0-3.5-1.3-4.8-2.6-1.5-1.5-1.5-2.6 0-2.6 1.3.2 3.5 1.3 4.8 2.8 1.3 1.3 1.3 2.4 0 2.4m0-9.8c-1.3 0-3.5-1.3-4.8-2.8-1.5-1.3-1.5-2.6 0-2.4 1.3 0 3.5 1.3 4.8 2.8 1.3 1.4 1.3 2.4 0 2.4m0-9.7c-1.3-.2-3.5-1.5-4.8-2.8-1.5-1.5-1.5-2.6 0-2.6 1.3.2 3.5 1.5 4.8 3s1.3 2.6 0 2.4m0-9.7c-1.3-.2-3.5-1.5-4.8-3-1.5-1.5-1.5-2.6 0-2.4 1.3.2 3.5 1.5 4.8 3s1.3 2.6 0 2.4m0-9.7c-1.3-.2-3.5-1.5-4.8-3-1.5-1.5-1.5-2.6 0-2.6 1.3.2 3.5 1.7 4.8 3.2s1.3 2.6 0 2.4m0-9.8c-1.3-.2-3.5-1.7-4.8-3.2-1.5-1.5-1.5-2.6 0-2.4 1.3.2 3.5 1.7 4.8 3.2 1.3 1.6 1.3 2.6 0 2.4m0-9.7c-1.3-.2-3.5-1.7-4.8-3.2-1.5-1.5-1.5-2.6 0-2.6 1.3.4 3.5 1.9 4.8 3.5 1.3 1.4 1.3 2.5 0 2.3m0-9.7c-1.3-.2-3.5-1.7-4.8-3.5-1.5-1.5-1.5-2.6 0-2.4 1.3.2 3.5 1.7 4.8 3.5 1.3 1.5 1.3 2.6 0 2.4m0-9.8c-1.3-.2-3.5-1.9-4.8-3.5-1.5-1.5-1.5-2.6 0-2.4 1.3.2 3.5 1.7 4.8 3.5 1.3 1.6 1.3 2.7 0 2.4m0-9.7c-1.3-.4-3.5-1.9-4.8-3.5-1.5-1.7-1.5-2.8 0-2.6 1.3.4 3.5 1.9 4.8 3.7 1.3 1.6 1.3 2.6 0 2.4m0-9.7c-1.3-.4-3.5-1.9-4.8-3.7-1.5-1.5-1.5-2.6 0-2.4 1.3.2 3.5 1.9 4.8 3.7 1.3 1.5 1.3 2.6 0 2.4m-8.6 117.4c1.7 0 1.7-1.5 0-3.2-1.5-1.5-4.3-2.6-5.8-2.2-1.7.4-1.7 1.7 0 3 1.4 1.3 4.2 2.4 5.8 2.4m0-10c-1.5 0-4.3-1.1-5.8-2.4-1.7-1.3-1.7-2.8 0-3 1.5-.4 4.3.6 5.8 2.4 1.7 1.7 1.7 3 0 3m0-9.9c-1.5 0-4.3-1.1-5.8-2.4-1.7-1.3-1.7-2.8 0-3 1.5-.4 4.3.6 5.8 2.4 1.7 1.7 1.7 3 0 3m0-9.8c-1.5-.2-4.3-1.3-5.8-2.6-1.7-1.5-1.7-2.8 0-3 1.5-.4 4.3.6 5.8 2.4 1.7 1.7 1.7 3.2 0 3.2m0-9.9c-1.5-.2-4.3-1.3-5.8-2.6-1.7-1.5-1.7-3 0-3.2 1.5-.2 4.3.9 5.8 2.8 1.7 1.7 1.7 3 0 3m0-9.9c-1.5 0-4.3-1.3-5.8-2.6-1.7-1.5-1.7-3 0-3.2 1.5-.2 4.3 1.1 5.8 2.8 1.7 1.7 1.7 3.2 0 3m0-9.8c-1.5-.2-4.3-1.5-5.8-3-1.7-1.5-1.7-2.8 0-3 1.5-.2 4.3 1.1 5.8 2.8 1.7 1.9 1.7 3.2 0 3.2m0-9.9c-1.5-.2-4.3-1.5-5.8-3-1.7-1.5-1.7-3 0-3 1.5-.2 4.3 1.1 5.8 3 1.7 1.7 1.7 3 0 3m0-9.9c-1.5-.2-4.3-1.5-5.8-3-1.7-1.5-1.7-3 0-3 1.5-.2 4.3 1.3 5.8 3 1.7 1.7 1.7 3.2 0 3m0-10c-1.5 0-4.3-1.5-5.8-3-1.7-1.7-1.7-3 0-3 1.5-.2 4.3 1.3 5.8 3 1.7 1.9 1.7 3.2 0 3m0-9.7c-1.5-.2-4.3-1.7-5.8-3.2-1.7-1.7-1.7-3.2 0-3.2 1.5 0 4.3 1.5 5.8 3.5 1.7 1.6 1.7 3.1 0 2.9m0-10c-1.5-.2-4.3-1.7-5.8-3.2-1.7-1.9-1.7-3.2 0-3.2 1.5 0 4.3 1.5 5.8 3.5 1.7 1.9 1.7 3.2 0 2.9m0-9.9c-1.5-.2-4.3-1.7-5.8-3.5-1.7-1.7-1.7-3.2 0-3 1.5 0 4.3 1.5 5.8 3.5 1.7 1.9 1.7 3.4 0 3m-8.5 110.7c1.9-.4 1.9-2.2 0-3.7s-5.2-2.4-7.1-1.9c-1.9.9-1.9 2.6 0 3.7 1.9 1.4 5.2 2.3 7.1 1.9m0-10.2c1.9-.2 1.9-1.9 0-3.7-1.9-1.5-5.2-2.4-7.1-1.9-1.9.9-1.9 2.6 0 3.7 1.9 1.7 5.2 2.6 7.1 1.9m0-9.9c1.9-.4 1.9-1.9 0-3.7-1.9-1.7-5.2-2.6-7.1-2.2-1.9.9-1.9 2.6 0 3.7 1.9 1.7 5.2 2.6 7.1 2.2m0-10.2c1.9-.2 1.9-1.9 0-3.7-1.9-1.5-5.2-2.6-7.1-2.2-1.9.9-1.9 2.6 0 3.7 1.9 1.8 5.2 2.6 7.1 2.2m0-9.9c1.9-.2 1.9-1.9 0-3.7-1.9-1.7-5.2-2.8-7.1-2.4-1.9.9-1.9 2.6 0 3.7 1.9 1.7 5.2 2.8 7.1 2.4m0-10c1.9-.2 1.9-1.9 0-3.9-1.9-1.5-5.2-2.6-7.1-2.4-1.9.9-1.9 2.6 0 3.9 1.9 1.6 5.2 2.6 7.1 2.4m0-10.1c1.9-.2 1.9-1.7 0-3.7-1.9-1.7-5.2-2.8-7.1-2.6-1.9.9-1.9 2.4 0 3.9 1.9 1.7 5.2 2.8 7.1 2.4m0-10c1.9-.2 1.9-1.9 0-3.7-1.9-1.7-5.2-3-7.1-2.8-1.9.9-1.9 2.4 0 3.9 1.9 1.8 5.2 2.8 7.1 2.6m0-10.1c1.9 0 1.9-1.7 0-3.7-1.9-1.7-5.2-3-7.1-2.6s-1.9 2.2 0 3.7c1.9 1.7 5.2 3 7.1 2.6m0-10c1.9 0 1.9-1.7 0-3.7-1.9-1.7-5.2-3-7.1-2.8-1.9.4-1.9 2.2 0 3.7 1.9 1.7 5.2 3 7.1 2.8m0-10.1c1.9 0 1.9-1.5 0-3.7-1.9-1.7-5.2-3-7.1-2.8-1.9.4-1.9 2.2 0 3.7 1.9 1.9 5.2 3 7.1 2.8m0-10c1.9 0 1.9-1.7 0-3.7-1.9-1.9-5.2-3.2-7.1-3-1.9.4-1.9 2.2 0 3.7 1.9 1.9 5.2 3.2 7.1 3m-8.6 113.7c2.4-1.1 2.4-3 0-4.5-2.2-1.1-5.8-1.1-8.2.2-2.2 1.3-2.2 3.2 0 4.3 2.3 1.1 6 1.1 8.2 0m0-10.4c2.4-.9 2.4-2.8 0-4.3-2.2-1.3-5.8-1.3-8.2 0-2.2 1.3-2.2 3.2 0 4.3 2.3 1.3 6 1.3 8.2 0m0-10.1c2.4-.9 2.4-2.8 0-4.3-2.2-1.3-5.8-1.5-8.2-.2-2.2 1.3-2.2 3.2 0 4.5 2.3 1.1 6 1.3 8.2 0m0-10.2c2.4-.6 2.4-2.6 0-4.3-2.2-1.3-5.8-1.5-8.2-.4-2.2 1.3-2.2 3.2 0 4.5 2.3 1.1 6 1.3 8.2.2m0-10.1c2.4-.6 2.4-2.6 0-4.3-2.2-1.5-5.8-1.7-8.2-.4-2.2 1.1-2.2 3 0 4.3 2.3 1.2 6 1.4 8.2.4m0-10.2c2.4-.6 2.4-2.6 0-4.3-2.2-1.5-5.8-1.7-8.2-.6-2.2 1.1-2.2 3 0 4.3 2.3 1.2 6 1.5 8.2.6m0-10.2c2.4-.6 2.4-2.6 0-4.3-2.2-1.5-5.8-1.9-8.2-.9-2.2 1.1-2.2 3 0 4.3 2.3 1.6 6 1.8 8.2.9m0-10.1c2.4-.6 2.4-2.6 0-4.3-2.2-1.7-5.8-2.2-8.2-1.1-2.2 1.1-2.2 3 0 4.5 2.3 1.3 6 1.7 8.2.9m0-10.2c2.4-.6 2.4-2.6 0-4.3-2.2-1.7-5.8-2.2-8.2-1.3-2.2 1.1-2.2 3 0 4.5 2.3 1.3 6 1.8 8.2 1.1m0-10.1c2.4-.6 2.4-2.6 0-4.3-2.2-1.7-5.8-2.4-8.2-1.3-2.2.9-2.2 2.8 0 4.3 2.3 1.5 6 1.9 8.2 1.3m0-10.2c2.4-.4 2.4-2.4 0-4.3-2.2-1.9-5.8-2.6-8.2-1.5-2.2.9-2.2 3 0 4.3 2.3 1.5 6 2.2 8.2 1.5m0-10.2c2.4-.4 2.4-2.4 0-4.3-2.2-1.9-5.8-2.6-8.2-1.7-2.2.9-2.2 3 0 4.3 2.3 1.5 6 2.4 8.2 1.7m-18.8 104.4c-1.1.9-2.4 1.3-3.7 1.7.2.9.2 1.5-.2 2.6 1.1-.4 2.2-.9 3.2-.9-.6-.8-.4-2.1.7-3.4m0-10.3c-1.1.6-2.4 1.3-3.7 1.5.2.9.2 1.7-.2 2.6 1.1-.4 2.2-.6 3.2-.9-.6-.9-.4-1.9.7-3.2m0-10.6c-1.1.7-2.4 1.3-3.7 1.5.2.9.2 1.7-.2 2.6 1.1-.4 2.2-.6 3.2-.6-.6-.9-.4-2.2.7-3.5m0-10.6c-1.1.6-2.4 1.3-3.7 1.7.2.6.2 1.5-.2 2.4 1.1-.4 2.2-.6 3.2-.6-.6-.9-.4-2.2.7-3.5m0-10.4c-1.1.6-2.4 1.1-3.7 1.5.2.7.2 1.5-.2 2.4 1.1-.2 2.2-.4 3.2-.6-.6-.9-.4-2.2.7-3.3m0-10.6c-1.1.6-2.4 1.1-3.7 1.5.2.6.2 1.5-.2 2.4 1.1-.2 2.2-.4 3.2-.6-.6-.9-.4-2 .7-3.3m0-10.6c-1.1.6-2.4 1.3-3.7 1.5.2.6.2 1.5-.2 2.4 1.1-.2 2.2-.4 3.2-.4-.6-.9-.4-2.2.7-3.5m0-10.3c-1.1.6-2.4 1.1-3.7 1.3.2.9.2 1.5-.2 2.6 1.1-.4 2.2-.6 3.2-.6-.6-1-.4-2.3.7-3.3m0-10.6c-1.1.6-2.4 1.1-3.7 1.3.2.9.2 1.7-.2 2.6 1.1-.4 2.2-.6 3.2-.6-.6-1-.4-2 .7-3.3m0-10.6c-1.1.6-2.4 1.1-3.7 1.3.2.9.2 1.7-.2 2.6 1.1-.4 2.2-.4 3.2-.4-.6-1.2-.4-2.2.7-3.5m0-10.4c-1.1.4-2.4.9-3.7 1.3.2.6.2 1.5-.2 2.4 1.1-.2 2.2-.4 3.2-.4-.6-.9-.4-2.2.7-3.3m0-10.6c-1.1.7-2.4 1.1-3.7 1.3.2.6.2 1.5-.2 2.4 1.1-.2 2.2-.4 3.2-.4-.6-.9-.4-2.2.7-3.3m87.7.4c.2.3.7.7.9.9.2.4.2.4 0 .4l-.9-.9c-.2-.1-.2-.4 0-.4m0 9.3.9.9c.2.2.2.4 0 .4l-.9-.9c-.2-.2-.2-.4 0-.4m0 9.3.9.9c.2.2.2.4 0 .4-.2-.2-.6-.4-.9-.9-.2-.2-.2-.4 0-.4m0 9.3.9.9c.2.2.2.4 0 .4l-.9-.9c-.2-.2-.2-.4 0-.4m0 9.3c.2.2.6.4.9.9.2.2.2.4 0 .4l-.9-.9c-.2-.2-.2-.4 0-.4m0 9.3c.2.2.6.4.9.9.2.2.2.4 0 .4l-.9-.9c-.2-.2-.2-.4 0-.4m0 9.3.9.9c.2.2.2.4 0 .4l-.9-.9c-.2-.2-.2-.4 0-.4m0 9.3c.2.2.6.4.9.9.2.2.2.4 0 .4l-.9-.9c-.2-.2-.2-.4 0-.4m0 9.3c.2.2.6.4.9.9.2.2.2.4 0 .2-.2 0-.6-.4-.9-.7-.2-.4-.2-.4 0-.4m0 9.3c.2 0 .6.4.9.9.2.2.2.4 0 .2-.2 0-.6-.4-.9-.6-.2-.5-.2-.5 0-.5m0 9.3c.2 0 .6.4.9.9.2.2.2.4 0 .2-.2 0-.6-.4-.9-.6-.2-.3-.2-.5 0-.5m0 9.3c.2 0 .6.4.9.6.2.4.2.6 0 .4-.2 0-.6-.4-.9-.6-.2-.4-.2-.4 0-.4m0 9.3c.2 0 .6.4.9.9.2.2.2.4 0 .2-.2 0-.6-.4-.9-.6-.2-.5-.2-.5 0-.5m0 9.3c.2 0 .6.4.9.6.2.4.2.6 0 .4-.2 0-.6-.4-.9-.6-.2-.4-.2-.7 0-.4m8.9-117c.4.2 1.1.9 1.3 1.3.4.6.4.9 0 .6-.2-.2-.9-.6-1.3-1.3-.4-.4-.4-.6 0-.6m0 9.3c.4.2 1.1.9 1.3 1.3.4.4.4.9 0 .7-.2-.2-.9-.7-1.3-1.3-.4-.5-.4-.7 0-.7m0 9.3c.4.2 1.1.9 1.3 1.3.4.4.4.9 0 .6-.2-.2-.9-.6-1.3-1.3-.4-.4-.4-.6 0-.6m0 9.3c.4.2 1.1.9 1.3 1.3.4.4.4.9 0 .6l-1.3-1.3c-.4-.4-.4-.8 0-.6m0 9.3c.4.2 1.1.6 1.3 1.3.4.4.4.9 0 .6l-1.3-1.3c-.4-.4-.4-.8 0-.6m0 9.3c.4.2 1.1.6 1.3 1.3.4.4.4.9 0 .6l-1.3-1.3c-.4-.4-.4-.8 0-.6m0 9.3c.4.2 1.1.6 1.3 1.3.4.4.4.6 0 .6l-1.3-1.3c-.4-.4-.4-.8 0-.6m0 9.3c.4.2 1.1.6 1.3 1.3.4.4.4.6 0 .6l-1.3-1.3c-.4-.4-.4-.8 0-.6m0 9.3c.4 0 1.1.7 1.3 1.3.4.4.4.6 0 .6l-1.3-1.3c-.4-.6-.4-.8 0-.6m0 9.3c.4 0 1.1.7 1.3 1.1.4.6.4.9 0 .9l-1.3-1.3c-.4-.7-.4-.9 0-.7m0 9.3c.4 0 1.1.6 1.3 1.1.4.6.4.9 0 .6-.2 0-.9-.6-1.3-1.1-.4-.6-.4-.8 0-.6m0 9.3c.4 0 1.1.6 1.3 1.1.4.6.4.9 0 .6-.2 0-.9-.6-1.3-1.1-.4-.6-.4-.9 0-.6m0 9c.4.2 1.1.9 1.3 1.3.4.4.4.9 0 .6-.2-.2-.9-.6-1.3-1.3-.4-.3-.4-.6 0-.6m0 9.3c.4.2 1.1.9 1.3 1.3.4.4.4.9 0 .6-.2-.2-.9-.6-1.3-1.3-.4-.3-.4-.6 0-.6m8.6-117.5c.6.2 1.7 1.1 2.4 1.9.6 1.1.6 1.5 0 1.3s-1.7-1.1-2.4-1.9c-.8-.9-.8-1.6 0-1.3m0 9.2c.6.2 1.7 1.1 2.4 1.9.6 1.1.6 1.5 0 1.3s-1.7-1.1-2.4-2.2c-.8-.5-.8-1.2 0-1m0 9.3c.6.2 1.7 1.1 2.4 1.9.6 1.1.6 1.5 0 1.3s-1.7-1.1-2.4-2.2c-.8-.7-.8-1.2 0-1m0 9.3c.6.2 1.7 1.1 2.4 1.9.6.9.6 1.5 0 1.3s-1.7-1.1-2.4-2.2c-.8-.7-.8-1.2 0-1m0 9.3c.6.2 1.7 1.1 2.4 1.9.6 1.1.6 1.5 0 1.3s-1.7-1.1-2.4-2.2c-.8-.8-.8-1.2 0-1m0 9.3c.6.2 1.7 1.1 2.4 1.9.6 1.1.6 1.5 0 1.3s-1.7-1.1-2.4-2.2c-.8-.8-.8-1.2 0-1m0 9.3c.6.2 1.7 1.1 2.4 1.9.6 1.1.6 1.5 0 1.3s-1.7-1.3-2.4-2.2c-.8-.8-.8-1.2 0-1m0 9.3c.6.2 1.7 1.1 2.4 1.9.6 1.1.6 1.5 0 1.3s-1.7-1.3-2.4-2.2c-.8-.8-.8-1.2 0-1m0 9.3c.6.2 1.7 1.1 2.4 1.9.6 1.1.6 1.5 0 1.3s-1.7-1.3-2.4-2.2c-.8-.8-.8-1.2 0-1m0 9.3c.6.2 1.7 1.1 2.4 1.9.6 1.1.6 1.5 0 1.3s-1.7-1.3-2.4-2.2c-.8-.8-.8-1.4 0-1m0 9.1c.6.4 1.7 1.3 2.4 2.2.6 1.1.6 1.5 0 1.3s-1.7-1.3-2.4-2.2c-.8-.9-.8-1.5 0-1.3m0 9.3c.6.4 1.7 1.3 2.4 2.2.6 1.1.6 1.5 0 1.3s-1.7-1.3-2.4-2.2c-.8-.9-.8-1.5 0-1.3m0 9.3c.6.2 1.7 1.3 2.4 2.2.6 1.1.6 1.5 0 1.3s-1.7-1.3-2.4-2.2c-.8-.9-.8-1.5 0-1.3m8.5-118.5c1.1.2 2.6 1.5 3.7 2.6.9 1.1.9 1.9 0 1.7-1.1-.2-2.6-1.3-3.7-2.6-1.1-1.2-1.1-1.9 0-1.7m0 9.3c1.1.4 2.6 1.5 3.7 2.6.9 1.1.9 1.9 0 1.7-1.1-.2-2.6-1.3-3.7-2.6s-1.1-1.9 0-1.7m0 9.3c1.1.4 2.6 1.5 3.7 2.6.9 1.1.9 1.9 0 1.7-1.1 0-2.6-1.3-3.7-2.6s-1.1-1.9 0-1.7m0 9.3c1.1.4 2.6 1.5 3.7 2.6.9 1.1.9 1.9 0 1.7-1.1 0-2.6-1.3-3.7-2.6-1.1-1-1.1-1.9 0-1.7m0 9.3c1.1.4 2.6 1.5 3.7 2.6.9 1.3.9 1.9 0 1.7-1.1 0-2.6-1.3-3.7-2.6s-1.1-1.9 0-1.7m0 9.3c1.1.4 2.6 1.5 3.7 2.6.9 1.3.9 1.9 0 1.9-1.1-.2-2.6-1.5-3.7-2.8-1.1-1.1-1.1-1.9 0-1.7m0 9.3c1.1.4 2.6 1.5 3.7 2.8.9 1.1.9 1.9 0 1.7-1.1-.2-2.6-1.5-3.7-2.8-1.1-1.1-1.1-1.9 0-1.7m0 9.5c1.1.2 2.6 1.5 3.7 2.6.9 1.1.9 1.9 0 1.7-1.1-.2-2.6-1.5-3.7-2.6-1.1-1.3-1.1-2.1 0-1.7m0 9.3c1.1.2 2.6 1.5 3.7 2.6.9 1.1.9 1.9 0 1.7-1.1-.2-2.6-1.5-3.7-2.6-1.1-1.3-1.1-2.1 0-1.7m0 9.3c1.1.2 2.6 1.5 3.7 2.6.9 1.1.9 1.9 0 1.7-1.1-.2-2.6-1.3-3.7-2.6s-1.1-2.1 0-1.7m0 9.3c1.1.2 2.6 1.5 3.7 2.6.9 1.3.9 1.9 0 1.7-1.1-.2-2.6-1.3-3.7-2.6s-1.1-2.2 0-1.7m0 9.3c1.1.2 2.6 1.5 3.7 2.6.9 1.3.9 2.2 0 1.7-1.1 0-2.6-1.3-3.7-2.6s-1.1-2.2 0-1.7m0 9.3c1.1.2 2.6 1.5 3.7 2.6.9 1.3.9 2.2 0 1.7-1.1 0-2.6-1.3-3.7-2.6s-1.1-2.2 0-1.7m0 9.3c1.1.2 2.6 1.5 3.7 2.8.9 1.1.9 1.9 0 1.7-1.1-.2-2.6-1.5-3.7-2.8s-1.1-2.2 0-1.7m8.4-120.2c1.5 0 3.7 1.3 5 2.6 1.3 1.5 1.3 2.6 0 2.4-1.3 0-3.5-1.3-5-2.8-1.3-1.4-1.3-2.4 0-2.2m0 9.3c1.5.2 3.7 1.5 5 2.8 1.3 1.5 1.3 2.6 0 2.4s-3.5-1.3-5-2.8c-1.3-1.6-1.3-2.6 0-2.4m0 9.3c1.5.2 3.7 1.5 5 2.8 1.3 1.5 1.3 2.6 0 2.4-1.3 0-3.5-1.3-5-2.8-1.3-1.6-1.3-2.4 0-2.4m0 9.5c1.5.2 3.7 1.3 5 2.8s1.3 2.4 0 2.4c-1.3-.2-3.5-1.5-5-2.8-1.3-1.6-1.3-2.6 0-2.4m0 9.3c1.5.2 3.7 1.5 5 2.8 1.3 1.5 1.3 2.6 0 2.4s-3.5-1.3-5-2.8c-1.3-1.6-1.3-2.6 0-2.4m0 9.3c1.5.2 3.7 1.5 5 3s1.3 2.4 0 2.4c-1.3-.2-3.5-1.5-5-3-1.3-1.6-1.3-2.6 0-2.4m0 9.5c1.5.2 3.7 1.5 5 2.8 1.3 1.5 1.3 2.6 0 2.4s-3.5-1.3-5-3c-1.3-1.6-1.3-2.4 0-2.2m0 9.3c1.5.2 3.7 1.5 5 3s1.3 2.4 0 2.2c-1.3 0-3.5-1.3-5-2.8-1.3-1.6-1.3-2.6 0-2.4m0 9.3c1.5.4 3.7 1.7 5 3 1.3 1.5 1.3 2.6 0 2.4s-3.5-1.5-5-3c-1.3-1.6-1.3-2.6 0-2.4m0 9.5c1.5.2 3.7 1.5 5 3s1.3 2.4 0 2.2c-1.3 0-3.5-1.3-5-2.8-1.3-1.8-1.3-2.6 0-2.4m0 9.3c1.5.2 3.7 1.5 5 3s1.3 2.6 0 2.4-3.5-1.5-5-3c-1.3-1.6-1.3-2.6 0-2.4m0 9.3c1.5.4 3.7 1.7 5 3 1.3 1.5 1.3 2.6 0 2.4s-3.5-1.5-5-3c-1.3-1.6-1.3-2.6 0-2.4m0 9.5c1.5.2 3.7 1.5 5 3s1.3 2.6 0 2.4-3.5-1.5-5-3c-1.3-1.8-1.3-2.9 0-2.4m0 9.3c1.5.2 3.7 1.7 5 3 1.3 1.5 1.3 2.6 0 2.4s-3.5-1.5-5-3c-1.3-1.6-1.3-2.6 0-2.4m8.6-121.9c-1.7.2-1.7 1.5 0 2.8 1.7 1.5 4.3 2.4 5.8 2.2 1.7-.2 1.7-1.5 0-2.8-1.4-1.6-4-2.4-5.8-2.2m0 9.5c1.7-.2 4.3.6 5.8 2.2 1.7 1.3 1.7 2.6 0 2.8-1.5.2-4.1-.6-5.8-2.2-1.7-1.3-1.7-2.6 0-2.8m0 9.3c1.7 0 4.3.9 5.8 2.4 1.7 1.3 1.7 2.6 0 2.8-1.5.2-4.1-.6-5.8-2.2-1.7-1.5-1.7-2.8 0-3m0 9.5c1.7-.2 4.3.9 5.8 2.2 1.7 1.5 1.7 2.8 0 3-1.5.2-4.1-.9-5.8-2.4-1.7-1.3-1.7-2.6 0-2.8m0 9.3c1.7 0 4.3 1.1 5.8 2.4 1.7 1.5 1.7 2.8 0 3-1.5.2-4.1-.9-5.8-2.4s-1.7-2.8 0-3m0 9.5c1.7 0 4.3.9 5.8 2.4 1.7 1.5 1.7 2.8 0 3-1.5 0-4.1-1.1-5.8-2.6-1.7-1.3-1.7-2.8 0-2.8m0 9.5c1.7-.2 4.3.9 5.8 2.4 1.7 1.5 1.7 2.8 0 3-1.5 0-4.1-1.1-5.8-2.6s-1.7-2.8 0-2.8m0 9.3c1.7 0 4.3 1.1 5.8 2.6 1.7 1.5 1.7 2.8 0 3-1.5 0-4.1-1.1-5.8-2.6s-1.7-2.8 0-3m0 9.5c1.7 0 4.3 1.1 5.8 2.6 1.7 1.5 1.7 2.8 0 3-1.5 0-4.1-1.3-5.8-2.8s-1.7-2.8 0-2.8m0 9.3c1.7 0 4.3 1.3 5.8 2.8 1.7 1.5 1.7 2.8 0 3-1.5 0-4.1-1.3-5.8-2.8s-1.7-3 0-3m0 9.5c1.7 0 4.3 1.3 5.8 2.8 1.7 1.3 1.7 2.8 0 2.8-1.5.2-4.1-1.1-5.8-2.8-1.7-1.5-1.7-2.8 0-2.8m0 9.3c1.7.2 4.3 1.5 5.8 3 1.7 1.3 1.7 2.8 0 2.8-1.5 0-4.1-1.3-5.8-2.8-1.7-1.7-1.7-3 0-3m0 9.5c1.7 0 4.3 1.3 5.8 3 1.7 1.3 1.7 2.8 0 2.8-1.5 0-4.1-1.3-5.8-3-1.7-1.5-1.7-2.8 0-2.8m0 9.3c1.7.2 4.3 1.5 5.8 3 1.7 1.7 1.7 2.8 0 3-1.5 0-4.1-1.3-5.8-3s-1.7-3 0-3m8.5-114.6c-1.9.2-1.9 1.7 0 3.5 1.9 1.5 5.2 2.4 7.1 1.5 1.9-.6 1.9-2.4 0-3.5-1.9-1-5.2-1.9-7.1-1.5m0 9.6c-1.9.2-1.9 1.7 0 3.5 1.9 1.5 5.2 2.4 7.1 1.7 1.9-.9 1.9-2.4 0-3.7-1.9-1.1-5.2-2-7.1-1.5m0 9.5c-1.9.2-1.9 1.7 0 3.5 1.9 1.5 5.2 2.4 7.1 1.7 1.9-.9 1.9-2.4 0-3.5-1.9-1.3-5.2-2.2-7.1-1.7m0 9.5c-1.9.2-1.9 1.7 0 3.5 1.9 1.5 5.2 2.4 7.1 1.7 1.9-.6 1.9-2.2 0-3.5s-5.2-2.2-7.1-1.7m0 9.5c-1.9.2-1.9 1.7 0 3.5 1.9 1.5 5.2 2.6 7.1 1.9 1.9-.9 1.9-2.4 0-3.7s-5.2-2.1-7.1-1.7m0 9.5c-1.9.2-1.9 1.7 0 3.5 1.9 1.5 5.2 2.6 7.1 1.9 1.9-.6 1.9-2.4 0-3.7-1.9-1.1-5.2-2.1-7.1-1.7m0 9.5c-1.9.2-1.9 1.7 0 3.5 1.9 1.5 5.2 2.6 7.1 1.9 1.9-.6 1.9-2.2 0-3.5-1.9-1.2-5.2-2.3-7.1-1.9m0 9.3c-1.9.4-1.9 1.9 0 3.7 1.9 1.5 5.2 2.6 7.1 1.9 1.9-.4 1.9-2.2 0-3.5-1.9-1.2-5.2-2.3-7.1-2.1m0 9.5c-1.9.2-1.9 1.9 0 3.7 1.9 1.5 5.2 2.6 7.1 2.2 1.9-.6 1.9-2.2 0-3.5-1.9-1.5-5.2-2.6-7.1-2.4m0 9.7c-1.9 0-1.9 1.7 0 3.5 1.9 1.5 5.2 2.6 7.1 2.2s1.9-2.2 0-3.5c-1.9-1.5-5.2-2.6-7.1-2.2m0 9.6c-1.9 0-1.9 1.7 0 3.5 1.9 1.5 5.2 2.8 7.1 2.2 1.9-.4 1.9-1.9 0-3.5s-5.2-2.7-7.1-2.2m0 9.2c-1.9.2-1.9 1.7 0 3.7 1.9 1.7 5.2 2.8 7.1 2.4s1.9-2.2 0-3.7c-1.9-1.3-5.2-2.6-7.1-2.4m0 9.6c-1.9.2-1.9 1.7 0 3.7 1.9 1.7 5.2 2.8 7.1 2.4s1.9-1.9 0-3.5-5.2-2.9-7.1-2.6m8.6-117.2c-2.4 1.1-2.4 2.8 0 4.1 2.2 1.3 6.1 1.5 8.2.4 2.4-1.1 2.4-3 0-4.1-2.1-1.3-6-1.5-8.2-.4m0 9.7c-2.4.9-2.4 2.6 0 4.1 2.2 1.3 6.1 1.3 8.2.4 2.4-1.3 2.4-3 0-4.3-2.1-1-6-1.2-8.2-.2m0 9.5c-2.4.9-2.4 2.8 0 4.1 2.2 1.3 6.1 1.5 8.2.4 2.4-1.1 2.4-2.8 0-4.1-2.1-1.2-6-1.4-8.2-.4m0 9.6c-2.4.9-2.4 2.8 0 4.1 2.2 1.5 6.1 1.7 8.2.6 2.4-1.1 2.4-2.8 0-4.1-2.1-1.3-6-1.5-8.2-.6m0 9.7c-2.4.9-2.4 2.6 0 4.1 2.2 1.3 6.1 1.5 8.2.7 2.4-1.1 2.4-3 0-4.1-2.1-1.4-6-1.6-8.2-.7m0 9.5c-2.4.9-2.4 2.6 0 4.1 2.2 1.5 6.1 1.7 8.2.9 2.4-1.1 2.4-3 0-4.1-2.1-1.6-6-1.8-8.2-.9m0 9.7c-2.4.6-2.4 2.6 0 4.1 2.2 1.3 6.1 1.7 8.2.6 2.4-.9 2.4-2.8 0-4.1-2.1-1.2-6-1.4-8.2-.6m0 9.5c-2.4.6-2.4 2.6 0 4.1 2.2 1.5 6.1 1.7 8.2.9 2.4-1.1 2.4-2.8 0-4.1-2.1-1.3-6-1.7-8.2-.9m0 9.5c-2.4.9-2.4 2.6 0 4.1 2.2 1.5 6.1 1.9 8.2 1.1 2.4-1.1 2.4-2.8 0-4.1-2.1-1.5-6-1.7-8.2-1.1m0 9.8c-2.4.6-2.4 2.4 0 4.1 2.2 1.5 6.1 1.9 8.2 1.1 2.4-1.1 2.4-2.8 0-4.1-2.1-1.6-6-2-8.2-1.1m0 9.5c-2.4.6-2.4 2.6 0 4.1 2.2 1.5 6.1 1.9 8.2 1.1 2.4-.9 2.4-2.8 0-4.1-2.1-1.3-6-1.8-8.2-1.1m0 9.7c-2.4.4-2.4 2.4 0 4.1 2.2 1.5 6.1 1.9 8.2 1.1 2.4-.9 2.4-2.8 0-4.1-2.1-1.5-6-2-8.2-1.1m0 9.5c-2.4.7-2.4 2.4 0 4.1 2.2 1.5 6.1 2.2 8.2 1.3 2.4-.9 2.4-2.8 0-4.1-2.1-1.5-6-1.9-8.2-1.3m18.8-108.1c1.1-.6 2.4-1.1 3.7-1.3-.2-.9 0-1.5.4-2.4-1.3.4-2.4.4-3.5.6.7 1 .5 2.1-.6 3.1m0 10c1.1-.6 2.4-1.1 3.7-1.5-.2-.6 0-1.5.4-2.4-1.3.4-2.4.6-3.5.6.7.9.5 2-.6 3.3m0 9.7c1.1-.6 2.4-1.1 3.7-1.3-.2-.9 0-1.5.4-2.4-1.3.2-2.4.4-3.5.7.7.6.5 1.9-.6 3m0 9.7c1.1-.4 2.4-1.1 3.7-1.3-.2-.6 0-1.5.4-2.4-1.3.4-2.4.6-3.5.6.7 1 .5 2.1-.6 3.1m0 10c1.1-.6 2.4-1.1 3.7-1.3-.2-.9 0-1.5.4-2.4-1.3.2-2.4.4-3.5.4.7.9.5 2-.6 3.3m0 9.7c1.1-.6 2.4-1.1 3.7-1.3-.2-.6 0-1.5.4-2.4-1.3.4-2.4.6-3.5.6.7.7.5 2-.6 3.1m0 9.9c1.1-.6 2.4-1.1 3.7-1.3-.2-.9 0-1.5.4-2.4-1.3.2-2.4.4-3.5.4.7 1 .5 2.1-.6 3.3m0 9.8c1.1-.6 2.4-1.1 3.7-1.3-.2-.6 0-1.5.4-2.4-1.3.4-2.4.4-3.5.6.7.7.5 2-.6 3.1m0 9.7c1.1-.6 2.4-.9 3.7-1.1-.2-.9 0-1.5.4-2.4-1.3.2-2.4.4-3.5.4.7.9.5 2-.6 3.1m0 9.9c1.1-.6 2.4-1.1 3.7-1.3-.2-.6 0-1.5.4-2.4-1.3.4-2.4.4-3.5.4.7 1 .5 2-.6 3.3m0 9.8c1.1-.6 2.4-.9 3.7-1.1-.2-.9 0-1.5.4-2.4-1.3.2-2.4.4-3.5.4.7.9.5 2-.6 3.1m0 9.7c1.1-.4 2.4-.9 3.7-1.1-.2-.6 0-1.5.4-2.4-1.3.4-2.4.4-3.5.4.7.9.5 2-.6 3.1" fill="#d8505c"/><path clip-path="url(#b)" d="m45.1 74.2c-5.3-1.7-12.1 4.7-15.4 14.5-3.2 9.7-1.6 19 3.7 20.8 5.3 1.7 12.1-4.7 15.4-14.5 3.2-9.7 1.5-19-3.7-20.8m-2.2 18.6c-.3 1-.7 2-1.1 2.9-.4 1-.9 1.9-1.4 2.7-.6 1-1.2 1.8-1.9 2.5s-1.4 1.3-2.1 1.7c-.9.5-1.7.6-2.5.4-.6-.2-1.1-.6-1.5-1.3-.4-.6-.6-1.4-.8-2.2-.1-.7-.2-1.6-.2-2.5 0-2.2.4-4.8 1.3-7.4 2.2-6.5 6.2-11 9-10.1 2.9.8 3.4 6.8 1.2 13.3" fill="#231f20"/><path clip-path="url(#b)" d="m31.6 96.9c1-1.1 2.3-2 3.4-2.9.9-.7 1.8-1.4 2.8-2.1-.1 0-.2 0-.3-.1l-6 7.5c-.1.1.2.1.3 0l6-7.5c.1-.1-.2-.1-.3-.1-.9.7-1.8 1.3-2.6 2-1.2.9-2.5 1.9-3.6 3 0 .2.3.3.3.2" fill="#231f20"/><path clip-path="url(#b)" d="m32.6 101.6c1.8-3.2 3.5-6.5 5.2-9.7h-.3l-3.7 11c0 .1.3.1.3 0l3.7-11c0-.1-.2-.1-.3 0-1.7 3.2-3.3 6.6-5.2 9.7 0 0 .3.1.3 0" fill="#231f20"/><path clip-path="url(#b)" d="m36.6 102.5c-.1-.6.1-1.3.1-1.8.1-1.2.3-2.4.5-3.6l.7-4.9h-.3l.7 8.6c0 .1.3.1.3 0l-.7-8.6c0-.1-.3-.1-.3 0-.3 1.6-.5 3.3-.7 4.9l-.5 3.4c-.1.6-.3 1.4-.1 2 0 .1.3 0 .3 0" fill="#231f20"/><path clip-path="url(#b)" d="m40.5 98.3c-.9-2.1-1.8-4.3-2.7-6.5-.1 0-.2 0-.3.1l4.1 3.8c.1.1.4 0 .3-.1l-4.1-3.8s-.3-.1-.3.1c.9 2.1 1.8 4.3 2.7 6.5.1 0 .4 0 .3-.1" fill="#231f20"/><path clip-path="url(#b)" d="m66.8 98.3c-4.3-.2-12.5-6-13.3-7.2s-5.4-11 1.3-12.9c6.7-2 23.4 14.4 23.3 17.9s-9.6 2.5-11.3 2.2" fill="#231f20"/><path clip-path="url(#b)" d="m88.9 46.9-.4-4.1c1.4 0 2.4-3.2 2.4-5.4 0-.8-.1-1.4-.4-1.8 0-.5-.1-1-.2-1.5-.4-2.2-1.5-5-4.9-7.8-1.2-2.8-5.9-4-7.3-4.1-1.5-.2-3.8 0-3.8 0-2.4-1.7-17.7 4.9-10.9 14.8 0 0 .3 1.8 1.1 2-1.1 1.5-.8 4.4 1.1 8 1.8 3.6 3.3 3.4 3.3 3.4l-.5.3c-3.8-1.2-11 5.2-15.6 6.3-4.5 1.1-5.1.6-10.6-7.5-.2.1-.6.3-1.1.7h.1c-.5-1.5-1.5-3.9-2.2-4.9-1.1-1.5-2.1-.9-2.8 0 0 0-1-.1-1.4 0-.3.2-.8 1.5-.8 1.5-.8 0-2.2-1.2-2.7 2l1.6-.9c.4 1.7 2.5 3.8 4.2 5.1-1.2.8-2.1 1.5-2.1 1.5l1.2 1.2s.3-.2 1.1.2c.8.3-1.6 1.3-.9 1.6.7.2 2.2.6 2.5 1.1s1.5 3.8 3.5 5.5c.8.7 1.8 1.5 2.9 2.2-.2.9-10.3 15.2-10.3 15.2-.7-1.2-2.2-6-6.3-1.2-4.1 4.7.8 10.7 2.6 12.8 1.7 2.1 5.3 4.1 7.8 2.4 1.2-.5 3.4-1.9 3.9-4.6 1 .6 2.9 1 2.9 1l7.5-13.7s1.2-1.5 1.6 4.3c.2 3.1 3.6 10.8 8.9 12.2 1.3.3 3 .7 5 1 6.1 1 14.6 1.4 21.1-2.7 8.4-5.6 3.4-44.1-1.1-46.1m-23.5 28.6c-1.1.2-5.4-9.3-5.4-9.3 2 0 4.8.2 6.3.8 1.5.7 2.5 7.8 2.5 7.8s-1.8 2-3.4.7" fill="#fff"/><path clip-path="url(#b)" d="m68.3 50.5.5-.3c1.1-.4 2.3-.5 3.5-.4 1.3.1 2.5.4 3.1.7 1.2.7 8.3 10.3 9.6 10.9 1.3.7 2.2 0 2.2 0 .6-1.6 1.1-8.6 0-13.6 1.2-.3 1.9-.4 1.9-.4l-.1-.6c4.6 1.9 9.5 40.5.9 45.8-6.5 4-15 3.7-21.1 2.7-2-.3-3.7-.7-5-1-5.3-1.3-9.3-9.1-8.9-12.2.4-3-.1-1.8-.4-1.1s-1.3.2-1-.7-.2-2.5-.2-2.5l-7.5 13.7s-1.9-.3-2.9-1c-.8-.4-1.7-.9-2.6-1.6-2.3-1.8-4.6-4.5-5.4-7.7 0 0 10.1-14.2 10.3-15.2h-.2c1.9 1.1 2.6 1.5 4.3 1.5s8.5-1.5 10.8-1.5c0 0 4.3 9.4 5.4 9.3 1.6 1.3 3.3-.6 3.3-.6s-1.1-7.4-2.6-8c.8.2 1.7.5 2.6.9.2 1.2 3.5 10.4 9.9 9.3 6.3-1.2-.7-21.9-10.4-26.4" fill="#d8505c"/><g fill="#231f20"><path clip-path="url(#b)" d="m60.6 66.3c1.9.1 3.4.3 4.3.7.5.5 1.4 3.4 1.8 6.5-.3.2-.7.5-1 .5-.1 0-.3 0-.6-.2l-.3-.3h-.1c-.8-.7-2.5-3.6-4.1-7.2m-1.6-1s4.2 9.3 5.4 9.3c.4.3.8.5 1.2.5 1.2 0 2.1-1.1 2.1-1.1s-1-7.1-2.5-7.8c-1.4-.7-4.2-.9-6.2-.9"/><path clip-path="url(#b)" d="m72 21c.5 0 .9.1 1.1.3 0 0 1.1-.1 2.2-.1.6 0 1.2 0 1.6.1 1.5.2 6.2 1.3 7.3 4.1 3.5 2.8 4.6 5.5 4.9 7.8l.2 1.5c.3.4.4 1 .4 1.8 0 2.2-1.1 5.4-2.4 5.4l.4 4.1c4.6 1.9 9.5 40.5.9 45.8-4.1 2.5-9 3.3-13.5 3.3-2.7 0-5.3-.3-7.6-.7-2-.3-3.7-.7-5-1-5.3-1.3-9.3-9.1-8.9-12.2-.7-6.2-1.4-4.2-1.4-4.2l-7.5 13.7s-1.9-.3-2.9-1c-.5 2.7-2.7 4.1-3.8 4.6-.7.4-1.4.6-2.1.6-2.1 0-4.4-1.5-5.7-3-1.7-2.1-6.7-8-2.6-12.8 1.3-1.5 2.4-2 3.2-2 1.8 0 2.7 2.5 3.1 3.3 0 0 10.1-14.2 10.3-15.2-1-.7-2.1-1.6-2.9-2.2-2-1.7-3.1-5-3.5-5.5-.3-.5-1.8-.8-2.5-1.1-.7-.2 1.7-1.3.9-1.6-.4-.2-.7-.2-.9-.2h-.3l-1.2-1.2s.9-.7 2.1-1.5c-.7-.5-1.5-1.2-2.2-2-.8-.9-1.5-1.8-1.9-2.7-.1-.2-.1-.3-.1-.5l-1.6.9c.3-1.8.9-2.2 1.5-2.2.4 0 .9.2 1.2.2 0 0 .5-1.3.8-1.5.1-.1.3-.1.5-.1.4 0 .8.1.8.1.4-.5.9-.9 1.4-.9.4 0 .8.2 1.3.8l.1.2c.4.5.7 1.2 1.1 2 .4 1 .8 2 1.1 2.8h-.1l1.1-.7c2.8 4.2 4.3 6.3 5.8 7.3.7.5 1.4.6 2.2.6h.7c.6-.1 1.2-.2 1.9-.4 4.2-1 10.6-6.4 14.6-6.4.4 0 .7 0 1 .1l.5-.3c-.2 0-1.6-.2-3.3-3.4-1.8-3.6-2.1-6.5-1.1-8-.8-.2-1.1-2-1.1-2-5.9-8.7 5.7-14.8 9.9-14.8m0-1c-3.1 0-9.2 2.8-11.5 7.2-1.1 2-1.8 5.3.8 9.2.1.5.3 1.3.7 1.8-.8 1.9-.3 4.9 1.4 8.2.5 1 1 1.7 1.5 2.3-2.3.4-4.9 1.9-7.4 3.4-2.2 1.2-4.4 2.5-6.1 2.9l-1.8.4h-.6c-.6 0-1.1-.1-1.6-.5-1.3-.9-3-3.2-5.5-7l-.5-.7-.8.3s-.1 0-.2.1l-.7-1.8c-.5-1-.9-1.8-1.2-2.2l-.2-.2c-.6-.7-1.3-1.1-2-1.1-.8 0-1.4.5-1.8.8h-.4c-.4 0-.7.1-1 .2-.2.1-.5.3-1 1.3l-.6-.1c-1.9 0-2.3 2.3-2.5 3l-.4 2.1 1.8-1 .6-.3c.4.8 1 1.6 1.8 2.4l1.3 1.3c-.6.5-1 .8-1 .8l-.9.7.8.8 1.2 1.2.1.1c-.2.3-.4.6-.3 1s.4.7.8.9l.6.2c.4.1 1.2.4 1.5.5.1.1.2.4.3.6.6 1.3 1.7 3.7 3.4 5.1.7.6 1.4 1.2 2.2 1.8-1.3 2.1-5.6 8.3-8.9 12.9-.6-1.1-1.6-2.4-3.3-2.4-1.3 0-2.5.8-3.9 2.4-4.7 5.4.8 11.9 2.6 14 1.4 1.7 4 3.4 6.5 3.4 1 0 1.8-.2 2.6-.7 1.5-.6 3.2-2 4-4.1 1 .4 2 .5 2.1.6l.7.1.3-.6 5.9-10.7c0 .1.1.3.2.4.3.4.7.6 1.1.7-.2 3.6 3.9 11.5 9.7 12.9 1.8.4 3.4.8 5.1 1.1 2.7.4 5.3.7 7.8.7 5.6 0 10.3-1.2 14-3.5 6-3.7 5.4-19.5 4.9-26.1s-2.2-18.8-5.3-21.4l-.3-2.9c.2-.1.3-.2.5-.4 1.2-1.2 1.9-3.8 1.9-5.7 0-.9-.2-1.6-.5-2.1 0-.5-.1-.9-.2-1.4-.5-3.1-2.2-5.8-5.1-8.2-.7-1.4-2-2.5-4-3.4-1.7-.7-3.3-1.1-4.1-1.2-.5-.1-1.1-.1-1.8-.1-.8 0-1.6 0-2 .1-.3 0-.7-.1-1.3-.1"/><path clip-path="url(#b)" d="m43.8 65.3c1.4.8 2.6 1.5 4.2 1.5 1 .1 2.1-.2 3.2-.4 2.8-.5 5.6-1.2 8.4-1.1 2 0 3.9.2 5.8.7l1.8.6c.3.1.5.1.5.4l.3.8c.7 2.1 1.8 4.1 3.3 5.7 1.5 1.7 3.6 2.9 6 2.7 1.5-.1 2.4-1.1 2.8-2.5.5-2 .1-4.2-.3-6.1-.6-2.6-1.6-5.1-2.8-7.5-2.1-4.1-5.2-8.4-9.5-10.5-.1 0-.4 0-.2.1 4.9 2.3 8.2 7.6 10.3 12.4 1.1 2.4 1.9 4.9 2.3 7.5.2 1.7.4 3.8-.6 5.3-1.4 2-4.6 1-6.2-.1-2-1.4-3.3-3.6-4.3-5.8-.3-.7-.6-1.4-.8-2.1-.1-.4-.8-.5-1.2-.6-1-.3-2-.6-3-.8-2.8-.5-5.7-.4-8.5.1-1.9.3-3.7.7-5.6.9-.7.1-1.5.2-2.2.1-1.2-.1-2.3-.9-3.4-1.5-.1 0-.4.1-.3.2"/><path clip-path="url(#b)" d="m67.8 49.5c1.2-.4 2.4-.5 3.7-.4.9.1 2.1.2 2.9.8.6.4 1.1 1.1 1.6 1.7 1.7 2 3.3 4 4.9 6 .7.8 1.3 1.6 2.1 2.4.6.6 1.1 1 2 1.1.4.1.9 0 1.3-.2.2-.1.3-.5.3-.7.3-1.3.4-2.7.4-4.1.1-3 0-6-.6-8.9 0-.1-.3-.1-.3 0 .8 3.5.8 7.3.5 10.9l-.2 1.8-.1.6c-.1.3-.2.4-.6.5-1.3.4-2.1-.7-2.9-1.5-1.7-1.9-3.3-3.9-4.9-5.9-.7-.9-1.5-1.8-2.2-2.6-.4-.4-.8-1-1.3-1.2-.9-.5-2.1-.6-3.1-.7-1.2-.1-2.4 0-3.6.4z"/><path clip-path="url(#b)" d="m74.5 49.8 13.7-3.2s.1 0 .1-.1v-.6c0-.1-.3-.1-.3 0 0 .2 0 .6.1.6-.1 0-.2 0-.2.1l-1.2.3c-1.5.3-3 .7-4.6 1-2.6.6-5.1 1.1-7.7 1.8-.3 0 0 .1.1.1"/><path clip-path="url(#b)" d="m77.5 45.7c-2.1 1.1-4.2 2.2-6.3 3.2-.2.1.1.2.2.1 2.1-1 4.2-2.1 6.3-3.2.1-.1-.1-.1-.2-.1"/><path clip-path="url(#b)" d="m44.7 90.6c-5.1-.9-9.4-5.7-10.7-10.6 0-.1-.3-.1-.3 0 1.4 5 5.7 9.8 11 10.7.1 0 .2-.1 0-.1"/><path clip-path="url(#b)" d="m27.3 79c-.7 2.2-.1 5 .7 7.1 1.6 4.3 5.5 7 9.8 8.3.1 0 .3-.1.1-.1-4.4-1.3-8.1-4-9.8-8.4-.7-2-1.2-4.7-.6-6.8.2-.2-.1-.2-.2-.1"/><path clip-path="url(#b)" d="m64.3 74.6c-.2 1.7.4 3.6 1.2 5.1.7 1.5 1.9 2.8 3.7 2.7 0 0 .1 0 .1-.1.1-.5 0-1.2-.1-1.7-.1-.9-.3-1.9-.5-2.8-.2-1.3-.5-2.6-.8-3.9 0-.1-.3-.1-.3 0l.7 3.3c.3 1.5.7 3.1.7 4.7 0 .4 0 .4-.4.3-.5 0-1-.3-1.3-.6-.7-.6-1.2-1.5-1.6-2.3-.7-1.4-1.2-3.2-1-4.8-.1 0-.4 0-.4.1"/><path clip-path="url(#b)" d="m39.3 88.1c.9-1.4 1.6-2.9 2.4-4.3 1.3-2.3 2.6-4.6 4-6.9 1.1-1.8 2.3-3.7 3.9-5.1.2-.2.5-.4.7-.4.2-.1.6 1 .6 1.2.2.4.5 2.1 1.2 1.9.4-.1.3-1.5.3-1.8 0-1.2-.1-2.5 0-3.7 0-.4 0-.9.3-1.2.4-.4.8.4.9.6.2.5.3 1.1.3 1.6l-.1 2.7c0 .4-.2 1.2.1 1.6.7.7 1.4-1.6 1.5-1.9.1-.1.5.8.5.9l.2.6.2.7c.4 1.8.8 3.7 1.3 5.5 1.6 5.5 4.4 11.7 9.8 14.4.1 0 .4 0 .2-.1-5.1-2.6-7.8-8.4-9.5-13.6-.6-1.9-1.1-3.9-1.5-5.9-.1-.6-.3-1.2-.5-1.8-.1-.3-.3-.8-.7-.8-.4-.1-.5.5-.6.8-.1.4-.3.7-.5 1-.3.5-.3-.2-.3-.4l.1-2.7c0-.9.2-3.2-1.1-3.4-.8-.1-.9.7-1 1.3-.1 1.2 0 2.5 0 3.7v1.4c0 .1 0 .3-.1.4.1-.1-.3-.6-.3-.7-.3-.6-.5-1.1-.7-1.7-.1-.2-.3-.7-.5-.8-.5-.1-.9.4-1.3.6-.7.6-1.2 1.3-1.7 2-1.9 2.6-3.5 5.4-5.1 8.2-1.1 2-2.2 4.1-3.4 6 .1.1.4.2.4.1"/><path clip-path="url(#b)" d="m62.5 36c-.3-2 .1-4.1.7-6 1.5-4.7 5.6-7.5 10.2-8.7.2 0-.1-.1-.1-.1-4.6 1.2-8.5 3.9-10.2 8.5-.7 2-1.1 4.3-.8 6.4-.1 0 .2 0 .2-.1"/><path clip-path="url(#b)" d="m77 21.2c-4.3.5-7.7 3.6-10.3 6.9-1.2 1.5-2.2 3.2-3.1 4.9-.6 1.1-1.1 2.2-1.4 3.3 0 .1.3.1.3 0 .8-2.7 2.4-5.3 4-7.5 2.5-3.5 6.1-7 10.6-7.5.2 0 0-.1-.1-.1"/><path clip-path="url(#b)" d="m70.7 23.9c-.7.4-1 1.4-1.3 2.1-.4 1.2-.6 2.6-.5 3.9.1 1.5.7 2.8 1.7 3.9 1.3 1.4 3.3 2 5.1 2.3.1 0 .3-.1.1-.1-2.7-1-3.8-4.3-3.5-7 .4-4.1 4.3-6.2 7.9-6.8.2 0 .1-.2-.1-.1-3.7.6-7.3 2.6-8.1 6.5-.5 2.8.8 6.4 3.6 7.5l.1-.1c-2-.3-3.9-1-5.2-2.5-.9-1-1.4-2.4-1.5-3.8-.1-1.2.1-2.5.5-3.6.2-.7.6-1.6 1.2-2 .4-.1.1-.2 0-.2"/><path clip-path="url(#b)" d="m73.4 25.9c2.4 1.5 2 5.3 2.1 7.8.1 1.6.3 3.2 1.1 4.5s2 1.9 3.4 2.3c0 0 .3 0 .2-.1-2.2-2.4-2.1-5.9-2.2-9-.1-2.7-.2-5.8-2.8-7.4-.1 0-.4 0-.3.1 2.7 1.6 2.7 5.1 2.7 7.9.1 2.9.1 6.2 2.2 8.5l.2-.1c-.8-.3-1.5-.5-2.2-1s-1.2-1.3-1.5-2.1c-.6-1.5-.7-3.2-.7-4.7-.1-2.3.1-5.4-2.1-6.8 0 0-.2.1-.1.1"/><path clip-path="url(#b)" d="m89.7 35c.4 0 .4-.3 0-.3-.4.1-.4.3 0 .3"/><path clip-path="url(#b)" d="m78.2 22.7c2.1.5 4.6 1.7 4.7 4.1 0 .1.3.1.3 0-.2-2.4-2.8-3.7-4.9-4.2 0-.1-.3 0-.1.1"/><path clip-path="url(#b)" d="m88.6 39.3c-.1 1.1-.7 2.1-1.5 2.8-1.2 1.2-3.5 1.1-5 .5-2.8-1.2-2.4-4.9-2.2-7.4s.8-5.1.3-7.6c-.4-2-1.7-3.6-3.6-4.2-.1 0-.4 0-.2.1 2.6.9 3.7 3.5 3.8 6.2 0 3.1-.8 6.2-.6 9.4.1 1.1.4 2.3 1.2 3 .8.8 2.4 1.3 3.5 1.2 1.2-.1 2.4-.2 3.3-1.1.7-.7 1.3-1.7 1.4-2.7 0-.2-.3-.3-.4-.2"/><path clip-path="url(#b)" d="m84.4 25.5c.4 0 .4-.3 0-.3s-.4.3 0 .3"/><path clip-path="url(#b)" d="m79.9 36.7c.1-2 .6-4 1.3-5.9.4-1 .8-1.9 1.4-2.9.5-.9 1.1-1.9 2-2.5.1-.1-.2-.1-.3-.1-.8.6-1.4 1.6-1.9 2.4-.6.9-1.1 2-1.5 3-.7 1.9-1.2 3.9-1.3 6 0 .1.3.1.3 0"/><path clip-path="url(#b)" d="m84.2 25.4c-.5 2.1-.7 4.3-.5 6.5.1 1.7.5 3.6 1.6 4.9.6.7 1.6.9 2.5.8 1.5-.2 1.9-1.8 1.9-3.1 0-.1-.3-.1-.3 0 0 1.4-.5 3-2.1 3-1.2 0-2-.9-2.5-1.9-.7-1.5-.9-3.3-.9-4.9 0-1.8.2-3.5.6-5.2 0-.2-.3-.2-.3-.1"/><path clip-path="url(#b)" d="m84.2 25.4c.2 2.7.8 5.6 2.1 8.1.5.9 1.1 1.8 2.1 2s1.2-1.6 1.3-2.3c0-.1-.3-.1-.3 0 0 .5-.1.9-.2 1.3 0 .1-.3.8-.5.8-.3 0-.6-.1-.8-.3-.9-.6-1.4-1.8-1.8-2.7-.9-2.2-1.4-4.6-1.6-6.9 0-.1-.3-.1-.3 0"/><path clip-path="url(#b)" d="m76.8 38.6c-.8 1.8-.4 4.6 1.4 5.6.8.5 2.1.5 3 .4 1-.1 1.9-.8 2.6-1.6.1-.1-.2-.1-.3 0-.8.9-1.7 1.5-2.9 1.5-1.1.1-2.3-.2-3-1.1-1-1.3-1.2-3.3-.6-4.8.2 0-.1-.1-.2 0"/><path clip-path="url(#b)" d="m86.3 42.7c-.7 1.4-1.8 2.5-3.2 3.2-2.1 1-5.1.5-6.6-1.4-1.8-2.3-1.2-5.9-.4-8.5 0-.1-.3-.1-.3 0-.9 2.9-1.5 7.1 1.1 9.3 1.6 1.3 4.1 1.6 6 .8 1.6-.6 2.9-1.9 3.6-3.4.1 0-.2-.1-.2 0"/><path clip-path="url(#b)" d="m71.7 36.1c-1.9 2.3-.2 2.8.2 2.8s1.5-.4 1.7-.8c0 0-.4-.8-1.9-2"/><path clip-path="url(#b)" d="m77.9 39.7c0 1 .4 2 1.1 2.7.9.9 2.3.7 3.4.4.2-.1-.1-.1-.2-.1-1.3.4-2.6.4-3.4-.8-.4-.6-.6-1.4-.6-2.2 0-.1-.3-.1-.3 0"/><path clip-path="url(#b)" d="m65.6 38.2c0-.4-.1-.7-.2-.8-.1-.2-.7-.7-1.2-1-.3.4-1.4 1.9.4 2.7.2 0 1-.9 1-.9z"/><path clip-path="url(#b)" d="m70.7 24c-2.3 1.9-4.2 4.2-5.8 6.8-1.1 1.7-2.2 3.6-2.8 5.6 0 .1.2.1.3 0 .4-.2 1-.4 1.4-.2s.9.6 1.2.9.2.8.3 1.1c.1.6.1 1.2-.1 1.7-.1.3-.3.5-.5.8-.4.5-.8.5-.4 1.1.4.7 1.5 1.1 2.3 1 .2 0 .1-.1-.1-.1-.5.1-1-.1-1.4-.4-.2-.2-.9-.7-.5-1.1.3-.2.5-.5.7-.8.5-.8.4-1.8.3-2.8-.1-.7-.8-1.1-1.4-1.4-.7-.4-1.3-.2-2 .2h.3c.5-1.9 1.6-3.7 2.6-5.4 1.6-2.6 3.5-5 5.9-6.9.1-.1-.2-.2-.3-.1"/><path clip-path="url(#b)" d="m66.4 45.1c.4.2.7.2 1.1.1 1-.2 1.9.1 2.8.4.7.2-.4.3-.7.2l-.9-.5c-.7-.1-1.5.2-2-.3-.1 0-.4.1-.3.1.3.3.8.3 1.2.4s.9-.1 1.2.1c.6.3 1.6.9 2.1.1v-.1l-1.9-.6c-.3-.1-.6-.1-.8-.1-.4 0-1.1.3-1.5 0z"/><path clip-path="url(#b)" d="m71.3 96.3s20.4-35.2 23.2-36.6c3.1-.7 8.7-.4 9.8-.3 1.1 0 1.7.2 1.6 1.2-.2 1-7.5 37.9-8.7 40.4-1.1 2.5-2.3 3.2-3 3.5-.8.2-17.1 0-17.1 0z"/><path clip-path="url(#b)" d="m68.3 36.8c.6-.5 2.3-1.5 3-.9s1.4 1.2 1.9 2c.2.3-.8.6-1 .6-.4.1-.7.1-1-.1-1-.6 0-1.9.4-2.5.1-.1-.2-.1-.3 0-.6.8-1.4 2.2-.2 2.7.7.3 2 0 2.4-.7.1-.1-.4-.5-.4-.6-.5-.6-1.2-1.4-1.8-1.7-.4-.2-1.3.1-1.7.3-.5.2-1.1.5-1.6.8 0 .1.2.1.3.1"/><path clip-path="url(#b)" d="m63.9 36.2c-.5.7-.9 1.6-.2 2.3.8.8 1.3.1 1.9-.5.1-.1-.2-.1-.3 0l-.6.6c-.2.2-.3.2-.6.1-.2-.1-.4-.3-.5-.6-.3-.6.2-1.4.5-1.8.1-.2-.1-.2-.2-.1"/></g><circle clip-path="url(#b)" cx="66.5" cy="107.6" fill="#fff" r="10.9"/><path clip-path="url(#b)" d="m67.2 91.9c-8.5 0-15.4 6.6-15.4 14.8s6.9 14.8 15.4 14.8 15.4-6.6 15.4-14.8c.1-8.2-6.8-14.8-15.4-14.8m-3.5 20.9c-3.4 0-6.2-3-6.2-6.7s2.8-6.7 6.2-6.7 6.2 3 6.2 6.7c-.1 3.7-2.8 6.7-6.2 6.7" fill="#231f20"/><path clip-path="url(#b)" d="m89.8 65.7c-1.5-.2-3.7.1-4.6 1.5-.4.5 0 1.5.1 2.1.2.7.4 1.4.9 1.9.1.1.3 0 .3 0-.7-.9-1.1-2.3-1.1-3.4 0-.7.5-1.1 1.1-1.4 1-.5 2.1-.7 3.2-.6.1 0 .3-.1.1-.1" fill="#231f20"/><path clip-path="url(#b)" d="m30.5 51.5c-.7.3-1.6-.1-2-1s-.2-1.8.5-2.2l2.6-1.5c0 .1.1.3.1.5.3.9 1 1.8 1.9 2.7z" fill="#231f20"/><path clip-path="url(#b)" d="m38.5 43.8c1.9-.7 4.1-1.4 5.7-.9 2.1.6 4.2 7.8 5.4 12.6l.2 1c-1.1.1-2 0-2.9-.6l-.1-.5c-1-4.2-2.6-10-4-10.1-.8-.1-2.1.4-3.4.9l-.5.2c-.4-.8-.8-1.6-1.1-2l-.1-.2z" fill="#231f20"/><path clip-path="url(#b)" d="m40 49-4.5 3.1c-.1.1.2.1.3.1l4.5-3.1c0-.1-.3-.2-.3-.1" fill="#231f20"/><path clip-path="url(#b)" d="m84.2 25.4c-2.7 4-4.2 10.3-.1 14 1 .9 2.4 1.5 3.7.9 1.8-.7 2-3.2 2-4.8v-.5c0-.1-.3-.1-.3 0 .1 1.7 0 4.1-1.7 5.1-1.4.9-3-.2-4-1.2-3.5-3.8-2-9.6.6-13.4.1-.2-.1-.2-.2-.1" fill="#231f20"/><path clip-path="url(#b)" d="m98.4 87.4c-7.4 0-13.4 5.8-13.4 12.9s6 12.9 13.4 12.9 13.4-5.8 13.4-12.9-5.9-12.9-13.4-12.9m-3.1 18.2c-3 0-5.4-2.6-5.4-5.8s2.4-5.8 5.4-5.8 5.4 2.6 5.4 5.8-2.4 5.8-5.4 5.8" fill="#231f20"/><path clip-path="url(#b)" d="m144.7 23.8c.8 0 1.4.6 1.4 1.4s-.6 1.4-1.4 1.4h-.5v2.9l.3.3c1.6-1.3 3.8-2.2 6-2.2 5.3 0 9.6 4.3 9.6 9.6s-4.3 9.6-9.6 9.6c-2.2 0-4.1-.7-5.7-1.9l-.6.6v5h.5c.8 0 1.4.6 1.4 1.4s-.6 1.4-1.4 1.4h-.6c0 2.4-.1 5.2-.1 8.3h.6c.8 0 1.4.2 1.4.5s-.6.5-1.4.5h-.6c-.1 12.2-.3 28.3-.5 39.2h11.7v3l-5.6.9v3l5.6 1.1v5.2h-13.9v-.1h-.5c-.9 0-1.7-.3-2-1v-51.3h-.8c-.8 0-1.4-.2-1.4-.5s.6-.5 1.4-.5h.8v-8.3h-.8c-.8 0-1.4-.6-1.4-1.4s.6-1.4 1.4-1.4h.8v-5l-.8-.7c-1.6 1.3-3.7 2-5.9 2-5.3 0-9.6-4.3-9.6-9.6s4.3-9.6 9.6-9.6c2.3 0 4.4.8 6 2.1l.6-.7v-2.5h-.7c-.8 0-1.4-.6-1.4-1.4s.6-1.4 1.4-1.4h6.7m-3.3 10.8c.4-1.2 1-2.4 1.8-3.3l-1.6-1.6-1.7 1.8c.6.9 1.1 2 1.5 3.1m8.9 10.4c4.1 0 7.5-3.3 7.5-7.5 0-4.1-3.4-7.5-7.5-7.5-1.6 0-3.1.5-4.3 1.4l6.1 5.9-6.1 6.3c1.3.9 2.7 1.4 4.3 1.4m-18.3 0c1.7 0 3.3-.6 4.5-1.6l-5.9-5.7 5.9-6.1c-1.3-1-2.8-1.6-4.5-1.6-4.1 0-7.5 3.3-7.5 7.5.1 4.1 3.4 7.5 7.5 7.5m12.6-2.7 4.8-5-4.8-4.6c-1.1 1.3-1.8 3-1.8 4.8s.7 3.5 1.8 4.8m-6.4-.6c.8-1.2 1.3-2.7 1.3-4.2 0-1.6-.5-3.1-1.4-4.3l-4.2 4.4zm3.6 3.5 1.5-1.6c-.9-1-1.6-2.2-2-3.6-.3 1.2-.9 2.3-1.6 3.2l.1.1zm2.9-22.3h-6.7c-1.4 0-2.5 1.1-2.5 2.5 0 1.3 1 2.3 2.2 2.4v.5c-1.7-1-3.6-1.6-5.6-1.6-5.9 0-10.6 4.8-10.6 10.6 0 5.9 4.8 10.6 10.6 10.6 2 0 3.9-.6 5.6-1.6v3.2c-1.2.1-2.2 1.2-2.2 2.4 0 1.3 1 2.3 2.2 2.4v6.2c-1.4.1-2.2.7-2.2 1.6s.9 1.5 2.2 1.6v50.4l.1.2c.4 1 1.5 1.6 3 1.6h15.6v-7.2l-.9-.2-4.8-.9v-1.2l4.7-.7.9-.1v-5h-11.8c.2-8.5.3-21 .5-37.1 1.3-.1 2.1-.7 2.1-1.6s-.8-1.5-2-1.6l.1-6.2c1.1-.2 2-1.2 2-2.4s-.8-2.2-1.9-2.4v-3.1c1.6.9 3.4 1.4 5.3 1.4 5.9 0 10.6-4.8 10.6-10.6 0-5.9-4.8-10.6-10.6-10.6-1.9 0-3.7.5-5.3 1.4v-.4c1.1-.3 1.9-1.2 1.9-2.4 0-1-1.1-2.1-2.5-2.1m3.1 8.7c.8-.3 1.7-.5 2.5-.5 3.5 0 6.4 2.9 6.4 6.4s-2.9 6.4-6.4 6.4c-.9 0-1.7-.2-2.5-.5l5.2-5.4.7-.8-.8-.7zm-15.8 12.3c-3.5 0-6.4-2.9-6.4-6.4s2.9-6.4 6.4-6.4c1 0 2 .2 2.9.7l-5 5.2-.7.8.8.7 5 4.8c-1 .4-2 .6-3 .6m9.1-12.3.4-.4.2.2c-.1.2-.2.4-.4.6 0-.2-.1-.3-.2-.4m3.6 9c-.5-1-.8-2-.8-3.1s.3-2.2.9-3.2l3.1 3zm-9.3-3 2.5-2.6c.4.8.5 1.7.5 2.6s-.2 1.7-.5 2.5zm5.7 5.5.3-.4.6.9-.2.2z" fill="#231f20"/><path clip-path="url(#b)" d="m132.2 27.6c-5.3 0-9.6 4.3-9.6 9.6s4.3 9.6 9.6 9.6 9.6-4.3 9.6-9.6-4.3-9.6-9.6-9.6m-.2 17.3c-4.1 0-7.5-3.4-7.5-7.5s3.4-7.5 7.5-7.5 7.5 3.4 7.5 7.5-3.3 7.5-7.5 7.5" fill="#ccc9c7"/><path clip-path="url(#b)" d="m150.5 27.6c-5.3 0-9.6 4.3-9.6 9.6s4.3 9.6 9.6 9.6 9.6-4.3 9.6-9.6-4.3-9.6-9.6-9.6m-.2 17.3c-4.1 0-7.5-3.4-7.5-7.5s3.4-7.5 7.5-7.5 7.5 3.4 7.5 7.5-3.4 7.5-7.5 7.5" fill="#ccc9c7"/><path clip-path="url(#b)" d="m144.2 45.5-2.6 2.7-2.8-2.7v68.4c.6 1.4 3.6 1.2 4.2 0s1.2-68.4 1.2-68.4" fill="#ccc9c7"/><path clip-path="url(#b)" d="m141.2 26.6-10.6 11 8.2 7.9 2.8 2.7 2.6-2.7 8-8.3zm2.4 16.5-1.9 1.9-2-1.9-5.9-5.7 7.6-7.9 7.9 7.6z" fill="#ccc9c7"/><path clip-path="url(#b)" d="m155.2 114.9h-13.8v-13.1h13.8v3l-5.6.8v3l5.6 1.1z" fill="#ccc9c7"/><path clip-path="url(#b)" d="m155.2 114.9s0-1.5-.1-5.2l.1.1c-1-.2-3.1-.5-5.6-.9h-.2v-.2c0-.5 0-1.7-.1-3v-.3h.3c1-.2 3.2-.6 5.6-1l-.4.4v-3l.5.5c-2.1 0-5.6 0-9.1.1h-4.7l.5-.5c0 5.2-.1 9.7-.2 13.1l-.3-.3c8.6 0 13.7.2 13.7.2s-5.1.2-13.9.3h-.3v-.4c-.1-3.4-.1-7.9-.2-13.1v-.5h5.2c3.6 0 7 0 9.1.1h.5v3.9h-.4c-2.4.3-4.6.6-5.6.8.1-.1.2-.3.3-.3 0 1.3-.1 2.5-.1 3-.1-.1-.2-.2-.2-.3 2.5.5 4.6 1 5.6 1.2h.1v.1c0 3.7-.1 5.2-.1 5.2" fill="#231f20"/><path clip-path="url(#b)" d="m144.2 30-2.6-1.5-2.8 1.5v-4.8h5.4z" fill="#ccc9c7"/><path clip-path="url(#b)" d="m146.1 51.9c0 .8-.6 1.4-1.4 1.4h-6.7c-.8 0-1.4-.6-1.4-1.4s.6-1.4 1.4-1.4h6.7c.8 0 1.4.6 1.4 1.4" fill="#ccc9c7"/><path clip-path="url(#b)" d="m146.1 51.9s0-.3-.3-.8c-.2-.2-.5-.4-.8-.5-.4-.1-.8 0-1.3 0-1 0-2.2.1-3.5.1h-2.1c-.6 0-1.1.5-1.1 1.1 0 .5.5 1.1 1.1 1.1h2.1c1.3 0 2.5.1 3.5.1.5 0 1 .1 1.3 0 .4-.1.6-.3.8-.5.3-.2.3-.6.3-.6s.1.3-.2.8c-.1.2-.4.5-.9.6-.4.1-.9.1-1.4.1-1 0-2.2.1-3.5.1h-2.1c-.9 0-1.8-.7-1.8-1.7 0-.9.9-1.7 1.8-1.7h2.1c1.3 0 2.5.1 3.5.1.5 0 1 0 1.4.1s.7.4.9.6c.3.7.2 1 .2 1" fill="#231f20"/><path clip-path="url(#b)" d="m146.1 62.1c0 .3-.6.5-1.4.5h-6.7c-.8 0-1.4-.2-1.4-.5s.6-.5 1.4-.5h6.7c.8 0 1.4.2 1.4.5" fill="#ccc9c7"/><path clip-path="url(#b)" d="m146.1 25.2c0 .8-.6 1.4-1.4 1.4h-6.7c-.8 0-1.4-.6-1.4-1.4s.6-1.4 1.4-1.4h6.7c.8 0 1.4.7 1.4 1.4" fill="#ccc9c7"/><path clip-path="url(#b)" d="m146.1 25.2s0-.3-.3-.8c-.2-.2-.5-.4-.8-.5-.4-.1-.8 0-1.3 0-1 0-2.2.1-3.5.1h-2.1c-.6 0-1.1.5-1.1 1.1 0 .5.5 1.1 1.1 1.1h2.1c1.3 0 2.5.1 3.5.1.5 0 1 .1 1.3 0 .4-.1.6-.3.8-.5.3-.2.3-.6.3-.6s.1.3-.2.8c-.1.2-.4.5-.9.6-.4.1-.9.1-1.4.1-1 0-2.2.1-3.5.1h-2.1c-.9 0-1.8-.7-1.8-1.7 0-.9.9-1.7 1.8-1.7h2.1c1.3 0 2.5.1 3.5.1.5 0 1 0 1.4.1s.7.4.9.6c.3.7.2 1 .2 1" fill="#231f20"/></svg>